<svg xmlns="http://www.w3.org/2000/svg" xmlns:xlink="http://www.w3.org/1999/xlink" width="140" height="140" viewBox="0 0 140 140">
  <defs>
    <filter id="Elipse_8441" x="0" y="0" width="140" height="140" filterUnits="userSpaceOnUse">
      <feOffset dy="3" input="SourceAlpha"/>
      <feGaussianBlur stdDeviation="3" result="blur"/>
      <feFlood flood-opacity="0.161"/>
      <feComposite operator="in" in2="blur"/>
      <feComposite in="SourceGraphic"/>
    </filter>
  </defs>
  <g id="Grupo_1173705" data-name="Grupo 1173705" transform="translate(657 5103.256)">
    <g id="Grupo_1173614" data-name="Grupo 1173614" transform="translate(-952.808 -8720.307)">
      <g transform="matrix(1, 0, 0, 1, 295.81, 3617.05)" filter="url(#Elipse_8441)">
        <circle id="Elipse_8441-2" data-name="Elipse 8441" cx="61" cy="61" r="61" transform="translate(9 6)" fill="#fff" opacity="0.45"/>
      </g>
      <circle id="Elipse_8442" data-name="Elipse 8442" cx="49" cy="49" r="49" transform="translate(316.808 3635.051)" fill="#fff"/>
    </g>
    <g id="_x33_0_Global_Network" transform="translate(-638.281 -5107.169)">
      <g id="Grupo_1173684" data-name="Grupo 1173684" transform="translate(22.182 40.169)">
        <g id="Grupo_1173667" data-name="Grupo 1173667" transform="translate(0.75 0.75)">
          <path id="Trazado_1037937" data-name="Trazado 1037937" d="M42.76,51.209a9.268,9.268,0,0,1-1.73,5.408c-.111.161-.223.306-.339.451a9.349,9.349,0,0,1-14.555,0c-.117-.145-.228-.289-.339-.451A9.346,9.346,0,1,1,42.76,51.209Z" transform="translate(-24.065 -41.856)" fill="#ff6067"/>
        </g>
        <g id="Grupo_1173668" data-name="Grupo 1173668" transform="translate(4.773 13.447)">
          <path id="Trazado_1037938" data-name="Trazado 1037938" d="M63.435,136.651c-.061.106-.128.217-.195.317a9.336,9.336,0,0,1-10.26,0c-.067-.1-.133-.212-.195-.317a5.492,5.492,0,0,1,10.649,0Z" transform="translate(-52.786 -132.506)" fill="#f4feff"/>
        </g>
        <g id="Grupo_1173669" data-name="Grupo 1173669" transform="translate(7.126 4.467)">
          <path id="Trazado_1037939" data-name="Trazado 1037939" d="M75.531,71.363a2.971,2.971,0,1,1-2.971-2.971A2.968,2.968,0,0,1,75.531,71.363Z" transform="translate(-69.589 -68.392)" fill="#f4feff"/>
        </g>
        <g id="Grupo_1173670" data-name="Grupo 1173670" transform="translate(38.753 0.75)">
          <path id="Trazado_1037940" data-name="Trazado 1037940" d="M314.08,51.209a9.267,9.267,0,0,1-1.73,5.408c-.111.161-.223.306-.339.451a9.349,9.349,0,0,1-14.555,0c-.117-.145-.228-.289-.339-.451a9.346,9.346,0,1,1,16.964-5.408Z" transform="translate(-295.385 -41.856)" fill="#81b840"/>
        </g>
        <g id="Grupo_1173671" data-name="Grupo 1173671" transform="translate(42.776 13.447)">
          <path id="Trazado_1037941" data-name="Trazado 1037941" d="M334.755,136.651c-.061.106-.128.217-.195.317a9.336,9.336,0,0,1-10.26,0c-.067-.1-.133-.212-.195-.317a5.492,5.492,0,0,1,10.649,0Z" transform="translate(-324.106 -132.506)" fill="#f4feff"/>
        </g>
        <g id="Grupo_1173672" data-name="Grupo 1173672" transform="translate(45.129 4.467)">
          <path id="Trazado_1037942" data-name="Trazado 1037942" d="M346.851,71.363a2.971,2.971,0,1,1-2.971-2.971A2.968,2.968,0,0,1,346.851,71.363Z" transform="translate(-340.909 -68.392)" fill="#f4feff"/>
        </g>
        <g id="Grupo_1173673" data-name="Grupo 1173673" transform="translate(0.75 42.043)">
          <path id="Trazado_1037943" data-name="Trazado 1037943" d="M42.76,346.022a9.268,9.268,0,0,1-1.73,5.408c-.111.161-.223.306-.339.451a9.349,9.349,0,0,1-14.555,0c-.117-.145-.228-.289-.339-.451a9.346,9.346,0,1,1,16.964-5.408Z" transform="translate(-24.065 -336.669)" fill="#fcdc49"/>
        </g>
        <g id="Grupo_1173674" data-name="Grupo 1173674" transform="translate(4.773 54.741)">
          <path id="Trazado_1037944" data-name="Trazado 1037944" d="M63.435,431.465c-.061.106-.128.217-.195.317a9.336,9.336,0,0,1-10.26,0c-.067-.1-.133-.212-.195-.317a5.492,5.492,0,0,1,10.649,0Z" transform="translate(-52.786 -427.32)" fill="#f4feff"/>
        </g>
        <g id="Grupo_1173675" data-name="Grupo 1173675" transform="translate(7.126 45.76)">
          <path id="Trazado_1037945" data-name="Trazado 1037945" d="M75.531,366.177a2.971,2.971,0,1,1-2.971-2.971A2.968,2.968,0,0,1,75.531,366.177Z" transform="translate(-69.589 -363.206)" fill="#f4feff"/>
        </g>
        <g id="Grupo_1173676" data-name="Grupo 1173676" transform="translate(38.753 42.043)">
          <path id="Trazado_1037946" data-name="Trazado 1037946" d="M314.08,346.022a9.267,9.267,0,0,1-1.73,5.408c-.111.161-.223.306-.339.451a9.349,9.349,0,0,1-14.555,0c-.117-.145-.228-.289-.339-.451a9.346,9.346,0,1,1,16.964-5.408Z" transform="translate(-295.385 -336.669)" fill="#7868d3"/>
        </g>
        <g id="Grupo_1173677" data-name="Grupo 1173677" transform="translate(42.776 54.741)">
          <path id="Trazado_1037947" data-name="Trazado 1037947" d="M334.755,431.465c-.061.106-.128.217-.195.317a9.336,9.336,0,0,1-10.26,0c-.067-.1-.133-.212-.195-.317a5.492,5.492,0,0,1,10.649,0Z" transform="translate(-324.106 -427.32)" fill="#f4feff"/>
        </g>
        <g id="Grupo_1173678" data-name="Grupo 1173678" transform="translate(45.129 45.76)">
          <path id="Trazado_1037948" data-name="Trazado 1037948" d="M346.851,366.177a2.971,2.971,0,1,1-2.971-2.971A2.968,2.968,0,0,1,346.851,366.177Z" transform="translate(-340.909 -363.206)" fill="#f4feff"/>
        </g>
        <g id="Grupo_1173679" data-name="Grupo 1173679" transform="translate(16.435 17.973)">
          <path id="Trazado_1037949" data-name="Trazado 1037949" d="M161.593,177.589a12.771,12.771,0,1,1-12.934-12.767c.054,0,.111,0,.164,0a12.754,12.754,0,0,1,12.65,11.01,12.951,12.951,0,0,1,.12,1.76Z" transform="translate(-136.051 -164.819)" fill="#32d6fc"/>
        </g>
        <g id="Grupo_1173680" data-name="Grupo 1173680" transform="translate(25.847 32.59)">
          <path id="Trazado_1037950" data-name="Trazado 1037950" d="M218.883,270.457a12.779,12.779,0,0,1-14.564,9.462,5.478,5.478,0,0,1-.505-.85,6.322,6.322,0,0,1-.565-2.537,3.451,3.451,0,0,1,.935-2.745,3.729,3.729,0,0,1,3-.565,9.2,9.2,0,0,0,3.128.218.853.853,0,0,0,.4-.174.962.962,0,0,0,.227-.638c.066-.676.13-1.355.2-2.031a1.838,1.838,0,0,1,.281-.964,1.776,1.776,0,0,1,1.614-.433A28.306,28.306,0,0,1,218.883,270.457Z" transform="translate(-203.245 -269.18)" fill="#f4feff"/>
        </g>
        <g id="Grupo_1173681" data-name="Grupo 1173681" transform="translate(16.327 17.976)">
          <path id="Trazado_1037951" data-name="Trazado 1037951" d="M146.278,171.477a3.443,3.443,0,0,0-.382,3.286,7.4,7.4,0,0,1,.679,1.1,2.111,2.111,0,0,1-1.273,2.322c-.85.449-1.842.6-2.666,1.1a3.757,3.757,0,0,0-1.8,3.115c-.013.777.174,1.69-.395,2.218a2.03,2.03,0,0,1-1.191.4c-.506.051-1.011.088-1.52.107a12.769,12.769,0,0,1,10.163-20.282c.073.335.133.673.18,1.011a6.183,6.183,0,0,1-.1,2.616A15.135,15.135,0,0,1,146.278,171.477Z" transform="translate(-135.281 -164.843)" fill="#f4feff"/>
        </g>
        <g id="Grupo_1173682" data-name="Grupo 1173682" transform="translate(31.186 19.104)">
          <path id="Trazado_1037952" data-name="Trazado 1037952" d="M251.928,182.774c-1.128-.06-2.253-.142-3.374-.272a2.089,2.089,0,0,1-.97-.284,3.2,3.2,0,0,1-.553-.578c-.967-1.09-2.531-1.355-3.9-1.848a3.212,3.212,0,0,1-1.4-.843,1.352,1.352,0,0,1-.212-1.529c.379-.619,1.267-.667,1.817-1.137.831-.714,1-2.208,1.21-3.387A12.782,12.782,0,0,1,251.928,182.774Z" transform="translate(-241.365 -172.895)" fill="#f4feff"/>
        </g>
        <g id="Grupo_1173683" data-name="Grupo 1173683" transform="translate(0 0)">
          <path id="Trazado_1037953" data-name="Trazado 1037953" d="M67.955,70.479a3.721,3.721,0,1,0-3.721-3.721A3.726,3.726,0,0,0,67.955,70.479Zm0-5.943a2.221,2.221,0,1,1-2.221,2.221A2.224,2.224,0,0,1,67.955,64.537Z" transform="translate(-57.858 -59.32)"/>
          <path id="Trazado_1037954" data-name="Trazado 1037954" d="M339.276,70.479a3.721,3.721,0,1,0-3.721-3.721A3.725,3.725,0,0,0,339.276,70.479Zm0-5.943a2.221,2.221,0,1,1-2.221,2.221A2.224,2.224,0,0,1,339.276,64.537Z" transform="translate(-291.176 -59.32)"/>
          <path id="Trazado_1037955" data-name="Trazado 1037955" d="M67.955,357.852a3.721,3.721,0,1,0,3.721,3.721A3.725,3.725,0,0,0,67.955,357.852Zm0,5.942a2.221,2.221,0,1,1,2.221-2.221A2.224,2.224,0,0,1,67.955,363.794Z" transform="translate(-57.858 -312.842)"/>
          <path id="Trazado_1037956" data-name="Trazado 1037956" d="M72.01,79.254a26.877,26.877,0,0,0,0-24A10.091,10.091,0,1,0,57.77,42.136a26.791,26.791,0,0,0-19.917.005A10.089,10.089,0,1,0,23.613,55.25a26.863,26.863,0,0,0,0,24A10.09,10.09,0,1,0,37.862,92.364a26.842,26.842,0,0,0,19.9,0A10.094,10.094,0,1,0,72.01,79.254ZM66.812,55.2a8.466,8.466,0,0,1-4.46-1.255,4.687,4.687,0,0,1,8.919,0A8.562,8.562,0,0,1,66.812,55.2Zm0-17.2A8.593,8.593,0,0,1,72.5,53.039a6.137,6.137,0,0,0-11.381,0A8.593,8.593,0,0,1,66.812,38Zm-46.6,8.6A8.6,8.6,0,1,1,34.5,53.039a6.4,6.4,0,0,0-5.69-3.84,6.4,6.4,0,0,0-5.69,3.84A8.555,8.555,0,0,1,20.212,46.606Zm8.6,8.592a8.568,8.568,0,0,1-4.46-1.254,4.986,4.986,0,0,1,4.46-3.244,4.986,4.986,0,0,1,4.46,3.244,8.571,8.571,0,0,1-4.46,1.254ZM24.35,95.237a4.987,4.987,0,0,1,4.46-3.244,4.987,4.987,0,0,1,4.46,3.244,8.572,8.572,0,0,1-4.46,1.255A8.46,8.46,0,0,1,24.35,95.237Zm10.15-.9a6.4,6.4,0,0,0-5.69-3.839,6.4,6.4,0,0,0-5.69,3.84,8.6,8.6,0,1,1,11.381,0Zm3.926-3.353A10.093,10.093,0,0,0,24.947,78.568a25.364,25.364,0,0,1,0-22.64,10.087,10.087,0,0,0,13.472-12.4,25.328,25.328,0,0,1,18.777,0A10.09,10.09,0,0,0,70.673,55.927a25.32,25.32,0,0,1-.011,22.637A10.1,10.1,0,0,0,57.193,90.975a25.391,25.391,0,0,1-18.767.006Zm23.927,4.256a4.687,4.687,0,0,1,8.919,0,8.574,8.574,0,0,1-4.459,1.255,8.453,8.453,0,0,1-4.46-1.255Zm10.15-.9a6.137,6.137,0,0,0-11.381,0,8.6,8.6,0,1,1,11.381,0Z" transform="translate(-18.712 -36.503)"/>
          <path id="Trazado_1037957" data-name="Trazado 1037957" d="M339.276,357.852A3.721,3.721,0,1,0,343,361.573,3.725,3.725,0,0,0,339.276,357.852Zm0,5.942a2.221,2.221,0,1,1,2.221-2.221A2.224,2.224,0,0,1,339.276,363.794Z" transform="translate(-291.176 -312.842)"/>
          <path id="Trazado_1037958" data-name="Trazado 1037958" d="M156.97,172.987a13.521,13.521,0,1,0-13.52,13.523A13.5,13.5,0,0,0,156.97,172.987Zm-7.691-10.51a12.133,12.133,0,0,1,5.913,7.946,15.857,15.857,0,0,1-3.012-.37,3.34,3.34,0,0,1-.415-.457,6.84,6.84,0,0,0-3.313-1.762,4.655,4.655,0,0,1-1.975-.915.642.642,0,0,1-.147-.654c.193-.316,1.052-.435,1.666-.961A4.743,4.743,0,0,0,149.279,162.477Zm-6.605-1.467a5.964,5.964,0,0,1-.027,2.622,15.667,15.667,0,0,1-1.622,2.85,4.191,4.191,0,0,0-.387,4.024c.2.35.542.741.626.983.168.483-.345,1.11-.915,1.413-.8.424-1.772.56-2.7,1.114a4.523,4.523,0,0,0-2.171,3.749c-.011.652.114,1.43-.152,1.677a4.791,4.791,0,0,1-1.817.292,11.994,11.994,0,0,1,9.164-18.723Zm-8.041,20.138a2.757,2.757,0,0,0,1.71-.6c.84-.778.622-1.9.635-2.756a2.994,2.994,0,0,1,1.438-2.483c.719-.429,1.736-.6,2.635-1.078A2.819,2.819,0,0,0,142.68,171a5.951,5.951,0,0,0-.731-1.22,2.877,2.877,0,0,1,.376-2.548h0a15.005,15.005,0,0,0,1.758-3.165,6.953,6.953,0,0,0,.1-3.074,11.788,11.788,0,0,1,3.691.818,4.338,4.338,0,0,1-.857,2.358c-.41.352-1.439.453-1.965,1.311a2.094,2.094,0,0,0,.279,2.412A5.478,5.478,0,0,0,148,169.266a5.666,5.666,0,0,1,2.635,1.321,3.481,3.481,0,0,0,.684.7c.745.527,3,.588,4.1.655a11.743,11.743,0,0,1-.146,3.224,27.345,27.345,0,0,0-5.225-1.055,2.091,2.091,0,0,0-2.707,2.07c-.2,2.08-.2,2.081-.214,2.179a4.868,4.868,0,0,1-2.213-.114c-1.506-.255-3.085-.4-4.272.635a4.088,4.088,0,0,0-1.193,3.33,7.322,7.322,0,0,0,.4,2.242A11.883,11.883,0,0,1,134.633,181.149Zm7.07,3.725a5.259,5.259,0,0,1-.754-2.709,2.85,2.85,0,0,1,.678-2.159c.764-.666,2.1-.444,3.038-.286a7.342,7.342,0,0,0,2.758.107,1.569,1.569,0,0,0,.752-.357,1.673,1.673,0,0,0,.463-1.115l.2-2.028a1.459,1.459,0,0,1,.131-.585c.06-.078.264-.2.954-.141a25.645,25.645,0,0,1,4.984,1.015,12.016,12.016,0,0,1-11.454,8.394,11.57,11.57,0,0,1-1.747-.136Z" transform="translate(-114.35 -142.245)"/>
        </g>
      </g>
    </g>
  </g>
</svg>
