<svg xmlns="http://www.w3.org/2000/svg" xmlns:xlink="http://www.w3.org/1999/xlink" width="140" height="140" viewBox="0 0 140 140">
  <defs>
    <filter id="Elipse_8441" x="0" y="0" width="140" height="140" filterUnits="userSpaceOnUse">
      <feOffset dy="3" input="SourceAlpha"/>
      <feGaussianBlur stdDeviation="3" result="blur"/>
      <feFlood flood-opacity="0.161"/>
      <feComposite operator="in" in2="blur"/>
      <feComposite in="SourceGraphic"/>
    </filter>
  </defs>
  <g id="Grupo_1173704" data-name="Grupo 1173704" transform="translate(972 5103.256)">
    <g id="Grupo_1173612" data-name="Grupo 1173612" transform="translate(-1267.808 -8720.307)">
      <g transform="matrix(1, 0, 0, 1, 295.81, 3617.05)" filter="url(#Elipse_8441)">
        <circle id="Elipse_8441-2" data-name="Elipse 8441" cx="61" cy="61" r="61" transform="translate(9 6)" fill="#fff" opacity="0.45"/>
      </g>
      <circle id="Elipse_8442" data-name="Elipse 8442" cx="49" cy="49" r="49" transform="translate(316.808 3635.051)" fill="#fff"/>
    </g>
    <g id="Grupo_1173666" data-name="Grupo 1173666" transform="translate(-940.546 -5074.987)">
      <path id="Trazado_1037915" data-name="Trazado 1037915" d="M320.432,70.672l2.65,2.65,2.845-2.845a.922.922,0,0,0,0-1.3l-1.352-1.352a.922.922,0,0,0-1.3,0Z" transform="translate(-272.753 -54.809)" fill="#f2992c" fill-rule="evenodd"/>
      <path id="Trazado_1037916" data-name="Trazado 1037916" d="M328.68,78.892l2.845-2.845a.917.917,0,0,1,1.294,0l.223.223a.921.921,0,0,1,0,1.294l-2.845,2.845-1.512-1.516Z" transform="translate(-279.864 -61.895)" fill="#faa845" fill-rule="evenodd"/>
      <path id="Trazado_1037917" data-name="Trazado 1037917" d="M242.422,33.239h3.744v4.94h-3.744Z" transform="translate(-205.498 -25.219)" fill="#faa845"/>
      <path id="Trazado_1037918" data-name="Trazado 1037918" d="M242.422,33.239h1.872v4.94h-1.872Z" transform="translate(-205.498 -25.219)" fill="#f2992c"/>
      <g id="Grupo_1173665" data-name="Grupo 1173665" transform="translate(4.881 4.815)">
        <path id="Trazado_1037919" data-name="Trazado 1037919" d="M307.667,192.339c-.977-.1-1.708,1.118-2.271,2.571-1.352,3.482-3.7,11.255-6.87,13.365-.324-1.9-1.993-2.958-3.748-1.11-3.369,3.541-8.113,4.627-11.744,8.457a15.382,15.382,0,0,0-4.283,7.386c-.485,2.216.3,3.9-.145,6.573l.4,2.8h14.21l.188-2.8c-.129-1.985-.227-4.021,2.786-6.6,3.744-3.2,7.054-5.159,8.918-9.829,2.286-5.729,6.729-20.38,2.556-20.814Z" transform="translate(-241.557 -167.195)" fill="#e2b698" fill-rule="evenodd"/>
        <path id="Trazado_1037920" data-name="Trazado 1037920" d="M306.776,194.474a5.61,5.61,0,0,0-1.379,2.282c-1.352,3.482-3.7,11.255-6.87,13.365-.324-1.9-1.993-2.958-3.748-1.11-3.369,3.541-8.113,4.627-11.744,8.457a15.383,15.383,0,0,0-4.283,7.386c-.485,2.216.3,3.9-.145,6.573l.4,2.8h12.568l.191-2.8c-.133-1.985-.227-4.021,2.786-6.6,3.744-3.2,7.05-5.159,8.918-9.829,2.126-5.331,6.116-18.379,3.3-20.525Z" transform="translate(-241.557 -169.041)" fill="#efc9ae" fill-rule="evenodd"/>
        <path id="Trazado_1037921" data-name="Trazado 1037921" d="M268.348,462.488h14.8a1.667,1.667,0,0,0,1.661-1.661v-3a1.667,1.667,0,0,0-1.661-1.661h-14.8a1.664,1.664,0,0,0-1.661,1.661v3A1.665,1.665,0,0,0,268.348,462.488Z" transform="translate(-231.299 -394.657)" fill="#00ade6" fill-rule="evenodd"/>
        <path id="Trazado_1037922" data-name="Trazado 1037922" d="M268.348,462.488H281.51a1.664,1.664,0,0,0,1.657-1.661v-3a1.664,1.664,0,0,0-1.657-1.661H268.348a1.664,1.664,0,0,0-1.661,1.661v3A1.665,1.665,0,0,0,268.348,462.488Z" transform="translate(-231.299 -394.657)" fill="#11bef7" fill-rule="evenodd"/>
        <path id="Trazado_1037923" data-name="Trazado 1037923" d="M11.721,192.339c.977-.1,1.7,1.118,2.271,2.571,1.352,3.482,3.7,11.255,6.87,13.365.324-1.9,1.989-2.958,3.748-1.11,3.365,3.541,8.109,4.627,11.744,8.457a15.381,15.381,0,0,1,4.283,7.386c.485,2.216-.3,3.9.145,6.573l-.4,2.8H26.169l-.188-2.8c.129-1.985.223-4.021-2.79-6.6-3.74-3.2-7.05-5.159-8.914-9.829-2.286-5.729-6.73-20.38-2.556-20.814Z" transform="translate(-10 -167.195)" fill="#e2b698" fill-rule="evenodd"/>
        <path id="Trazado_1037924" data-name="Trazado 1037924" d="M22.853,194.474a5.614,5.614,0,0,1,1.383,2.282c1.352,3.482,3.7,11.255,6.87,13.365.324-1.9,1.989-2.958,3.748-1.11,3.365,3.541,8.109,4.627,11.744,8.457a15.381,15.381,0,0,1,4.283,7.386c.485,2.216-.3,3.9.145,6.573l-.4,2.8H38.051l-.188-2.8c.129-1.985.223-4.021-2.79-6.6-3.74-3.2-7.05-5.159-8.914-9.829-2.126-5.331-6.12-18.379-3.306-20.525Z" transform="translate(-20.245 -169.041)" fill="#efc9ae" fill-rule="evenodd"/>
        <path id="Trazado_1037925" data-name="Trazado 1037925" d="M130.332,462.488h-14.8a1.664,1.664,0,0,1-1.661-1.661v-3a1.664,1.664,0,0,1,1.661-1.661h14.8a1.667,1.667,0,0,1,1.661,1.661v3A1.667,1.667,0,0,1,130.332,462.488Z" transform="translate(-99.551 -394.657)" fill="#00ade6" fill-rule="evenodd"/>
        <path id="Trazado_1037926" data-name="Trazado 1037926" d="M140.571,462.488H127.409a1.664,1.664,0,0,1-1.661-1.661v-3a1.664,1.664,0,0,1,1.661-1.661h13.162a1.667,1.667,0,0,1,1.661,1.661v3a1.667,1.667,0,0,1-1.661,1.661Z" transform="translate(-109.79 -394.657)" fill="#11bef7" fill-rule="evenodd"/>
        <path id="Trazado_1037927" data-name="Trazado 1037927" d="M152.862,73.322l2.65-2.65-2.845-2.845a.918.918,0,0,0-1.294,0l-1.356,1.352a.922.922,0,0,0,0,1.3Z" transform="translate(-130.484 -59.624)" fill="#f2992c" fill-rule="evenodd"/>
        <path id="Trazado_1037928" data-name="Trazado 1037928" d="M162.62,70.672l-2.845-2.845a.918.918,0,0,0-1.294,0l-.223.219a.921.921,0,0,0,0,1.294l2.845,2.845,1.512-1.512Z" transform="translate(-137.592 -59.624)" fill="#faa845" fill-rule="evenodd"/>
        <path id="Trazado_1037929" data-name="Trazado 1037929" d="M157.318,59.346a15.779,15.779,0,1,1-15.781,15.777,15.78,15.78,0,0,1,15.781-15.777Z" transform="translate(-123.403 -52.542)" fill="#11bef7" fill-rule="evenodd"/>
        <path id="Trazado_1037930" data-name="Trazado 1037930" d="M182.416,88.458a11.765,11.765,0,1,1-11.767,11.763,11.763,11.763,0,0,1,11.767-11.763Z" transform="translate(-148.501 -77.641)" fill="#cad1d8" fill-rule="evenodd"/>
        <path id="Trazado_1037931" data-name="Trazado 1037931" d="M193.948,88.685a11.765,11.765,0,1,1-10.911,11.732A11.763,11.763,0,0,1,193.948,88.685Z" transform="translate(-159.181 -77.836)" fill="#e2e5e7" fill-rule="evenodd"/>
        <path id="Trazado_1037932" data-name="Trazado 1037932" d="M230.271,9.995h5.264a1.062,1.062,0,0,1,1.059,1.059V12.14a1.062,1.062,0,0,1-1.059,1.059h-5.264a1.062,1.062,0,0,1-1.059-1.059V11.054A1.062,1.062,0,0,1,230.271,9.995Z" transform="translate(-198.99 -9.995)" fill="#00ade6" fill-rule="evenodd"/>
        <path id="Trazado_1037933" data-name="Trazado 1037933" d="M240.249,9.995h3.889a1.062,1.062,0,0,1,1.059,1.059V12.14a1.062,1.062,0,0,1-1.059,1.059h-3.889a1.062,1.062,0,0,1-1.059-1.059V11.054A1.062,1.062,0,0,1,240.249,9.995Z" transform="translate(-207.593 -9.995)" fill="#11bef7" fill-rule="evenodd"/>
      </g>
      <path id="Trazado_1037934" data-name="Trazado 1037934" d="M100.576,14.718a.826.826,0,1,1,.2-1.641l3.549.418a.827.827,0,0,1,.524,1.368l-2.149,2.79a.825.825,0,1,1-1.305-1.008l.176-.227a21.4,21.4,0,1,0,17.516-1.325.825.825,0,1,1,.559-1.552,23.059,23.059,0,1,1-18.516,1.239l-.547-.063Z" transform="translate(-72.996 -7.831)" fill="#11bef7"/>
      <path id="Trazado_1037935" data-name="Trazado 1037935" d="M193,106.06a.827.827,0,1,1,1.653,0v5.1l3.6,2.079a.823.823,0,1,1-.821,1.426l-3.947-2.278a.827.827,0,0,1-.485-.754Zm-4.443-1.9a.826.826,0,0,1,1.43-.828l.008.016a.826.826,0,0,1-1.43.825Zm-3.033,3.638a.826.826,0,0,1,.821-1.434l.016.008a.826.826,0,0,1-.821,1.434l-.016-.008Zm-.809,4.666a.827.827,0,1,1,0-1.653h.016a.827.827,0,1,1,0,1.653Zm1.63,4.443a.823.823,0,0,1-.821-1.427l.016-.008a.823.823,0,1,1,.821,1.426Zm3.642,3.036a.826.826,0,1,1-1.43-.828l.008-.016a.827.827,0,0,1,1.43.829l-.008.016Zm4.666.805a.827.827,0,1,1-1.653,0v-.016a.827.827,0,1,1,1.653,0Zm4.443-1.63a.823.823,0,1,1-1.426.821l-.008-.016a.823.823,0,0,1,1.426-.821l.008.016Zm3.033-3.642a.826.826,0,1,1-.821,1.434l-.012-.008a.826.826,0,1,1,.821-1.434Zm.813-4.666a.827.827,0,0,1,0,1.653h-.02a.827.827,0,0,1,0-1.653Zm-1.63-4.447a.824.824,0,1,1,.813,1.434l-.012.008a.825.825,0,0,1-.817-1.434l.016-.008Zm-3.646-3.029a.826.826,0,1,1,1.434.821l-.008.016a.826.826,0,0,1-1.434-.821l.008-.016ZM193,102.524a.827.827,0,1,1,1.653,0v.016a.827.827,0,0,1-1.653,0Z" transform="translate(-155.032 -84.237)" fill="#a0a9b0"/>
      <path id="Trazado_1037936" data-name="Trazado 1037936" d="M72.882,30.311a2.337,2.337,0,0,0-1.8-1.176c-1.847-.191-2.781,2.2-3.132,3.1-.48,1.238-.863,2.328-1.233,3.382-1.142,3.257-2,5.691-4.565,8.735a2.975,2.975,0,0,0-.734-.84c-.907-.693-2.412-.871-3.915.708a23.154,23.154,0,0,1-5.461,3.9,26.248,26.248,0,0,0-6.283,4.556,16.265,16.265,0,0,0-4.487,7.778,10.928,10.928,0,0,0-.106,3.366c.044.57.089,1.154.081,1.78a2.492,2.492,0,0,0-1.8,2.391v3a2.49,2.49,0,0,0,2.485,2.489h14.8a2.49,2.49,0,0,0,2.485-2.489v-3a2.492,2.492,0,0,0-1.7-2.36c.062-1.253.5-2.645,2.539-4.4.689-.589,1.367-1.139,2.024-1.671,2.965-2.4,5.525-4.479,7.126-8.481,1.673-4.2,5.938-17.027,3.674-20.769ZM57.562,70.986a.831.831,0,0,1-.828.832H41.93a.831.831,0,0,1-.828-.832v-3a.831.831,0,0,1,.828-.832h14.8a.831.831,0,0,1,.828.832Zm10.107-20.52c-1.44,3.6-3.731,5.457-6.63,7.808-.664.539-1.351,1.1-2.058,1.7-2.41,2.066-3.016,3.875-3.112,5.526H42.9c0-.645-.041-1.235-.086-1.81a9.344,9.344,0,0,1,.072-2.882,14.7,14.7,0,0,1,4.071-6.993,24.949,24.949,0,0,1,5.911-4.262A24.77,24.77,0,0,0,58.7,45.358c.378-.4,1.1-1,1.709-.533.665.508,1.066,2.172.051,3.85-.9,1.485-3.5,3.645-6.311,5.252a.828.828,0,1,0,.822,1.439c2.376-1.357,5.611-3.7,6.906-5.832a5.607,5.607,0,0,0,.839-3.319c3.316-3.657,4.31-6.486,5.561-10.053.365-1.042.743-2.119,1.214-3.33.783-2.008,1.319-2.057,1.417-2.048a.684.684,0,0,1,.556.385c1.511,2.5-1.285,13-3.8,19.3ZM36.351,65.6c-.009-.628.036-1.213.08-1.784a11.007,11.007,0,0,0-.1-3.361,16.265,16.265,0,0,0-4.488-7.78,26.248,26.248,0,0,0-6.286-4.557,23.2,23.2,0,0,1-5.462-3.9c-1.5-1.578-3-1.4-3.911-.709a2.973,2.973,0,0,0-.735.841C12.873,41.3,12.018,38.86,10.874,35.6c-.368-1.049-.748-2.135-1.226-3.367-.35-.9-1.28-3.288-3.132-3.095a2.339,2.339,0,0,0-1.8,1.178c-2.267,3.75,2,16.572,3.677,20.768,1.6,4,4.161,6.076,7.126,8.48.656.532,1.334,1.082,2.023,1.67,2.044,1.752,2.478,3.145,2.54,4.4a2.492,2.492,0,0,0-1.7,2.36v3a2.49,2.49,0,0,0,2.486,2.489h14.8a2.49,2.49,0,0,0,2.486-2.489v-3a2.492,2.492,0,0,0-1.8-2.391ZM18.614,59.972c-.706-.6-1.393-1.16-2.057-1.7-2.9-2.351-5.191-4.208-6.63-7.807-2.513-6.3-5.311-16.792-3.8-19.3a.686.686,0,0,1,.558-.387c.1-.011.634.039,1.417,2.047.467,1.206.843,2.278,1.207,3.315,1.252,3.573,2.247,6.406,5.568,10.069a5.612,5.612,0,0,0,.84,3.321c1.295,2.132,4.529,4.473,6.906,5.831a.828.828,0,1,0,.822-1.439c-2.814-1.607-5.409-3.767-6.311-5.251-1.016-1.68-.615-3.344.05-3.852.6-.461,1.327.136,1.7.534a24.809,24.809,0,0,0,5.833,4.193,24.946,24.946,0,0,1,5.913,4.263,14.7,14.7,0,0,1,4.071,6.993,9.42,9.42,0,0,1,.071,2.88c-.044.576-.089,1.167-.085,1.813H21.727c-.1-1.651-.7-3.46-3.112-5.527Zm17.88,11.014a.831.831,0,0,1-.829.832h-14.8a.831.831,0,0,1-.829-.832v-3a.831.831,0,0,1,.829-.832h14.8a.831.831,0,0,1,.829.832ZM38.8,14.8A12.594,12.594,0,1,0,51.391,27.4,12.606,12.606,0,0,0,38.8,14.8Zm0,23.53A10.937,10.937,0,1,1,49.734,27.4,10.949,10.949,0,0,1,38.8,38.334ZM36.1,8.845v2.167A16.519,16.519,0,0,0,29.126,13.9l-1.472-1.472a1.751,1.751,0,0,0-2.469,0l-1.352,1.352a1.748,1.748,0,0,0,0,2.469L25.3,17.726a16.607,16.607,0,1,0,26.986,0l1.473-1.473a1.751,1.751,0,0,0,0-2.469l-1.355-1.355a1.753,1.753,0,0,0-2.466,0l-1.473,1.473A16.525,16.525,0,0,0,41.5,11.012V8.845a1.888,1.888,0,0,0,1.817-1.884V5.875A1.89,1.89,0,0,0,41.43,3.987H36.166a1.89,1.89,0,0,0-1.888,1.888V6.961A1.888,1.888,0,0,0,36.1,8.845ZM25,15.082a.094.094,0,0,1,0-.126L26.356,13.6a.094.094,0,0,1,.126,0l1.341,1.34a16.744,16.744,0,0,0-1.478,1.478L25,15.082ZM38.8,42.348A14.95,14.95,0,1,1,53.748,27.4,14.967,14.967,0,0,1,38.8,42.348ZM51.113,13.6a.093.093,0,0,1,.126,0l1.352,1.352a.094.094,0,0,1,0,.126L51.25,16.423a16.746,16.746,0,0,0-1.478-1.478ZM38.8,10.791c-.35,0-.7.012-1.043.034V8.848h2.091v1.976C39.5,10.8,39.148,10.791,38.8,10.791ZM35.935,5.874a.234.234,0,0,1,.231-.231H41.43a.234.234,0,0,1,.231.231V6.961a.234.234,0,0,1-.231.231H36.166a.234.234,0,0,1-.231-.231ZM38.8,50.461A23.065,23.065,0,0,1,28.121,6.952l-.536-.063a.828.828,0,1,1,.194-1.646l3.548.418h.007a.838.838,0,0,1,.1.019h0a.831.831,0,0,1,.091.03l.024.01a.791.791,0,0,1,.071.034l.018.009a.852.852,0,0,1,.083.054l.011.009a.823.823,0,0,1,.065.056l.017.016a.82.82,0,0,1,.058.065l.008.01a.825.825,0,0,1,.057.084l.009.016c.013.023.026.048.037.073l.007.014s0,.01.005.015.007.016.01.025.01.032.015.048.005.016.007.023a.849.849,0,0,1,.02.1s0,.009,0,.013a.8.8,0,0,1,.006.087V6.5c0,.027,0,.054-.005.081,0,.006,0,.013,0,.02a.828.828,0,0,1-.019.1c0,.006,0,.013-.006.019q-.011.037-.025.073l-.012.029q-.015.035-.034.069l-.01.019a.837.837,0,0,1-.054.081l0,.007L29.706,9.823a.829.829,0,0,1-1.313-1.011l.167-.216A21.4,21.4,0,1,0,46.083,7.263a.828.828,0,1,1,.564-1.558A23.067,23.067,0,0,1,38.8,50.461Zm-7.134-27.24a.828.828,0,0,1-1.112.37l-.016-.008a.828.828,0,1,1,.741-1.482l.016.008a.828.828,0,0,1,.371,1.111ZM34.989,35.65l-.008.016a.829.829,0,0,1-1.477-.751l.008-.016a.829.829,0,1,1,1.477.751Zm-3.327-4.076a.828.828,0,0,1-.371,1.111l-.016.008a.828.828,0,1,1-.741-1.482l.016-.008a.828.828,0,0,1,1.111.371Zm3.327-12.429a.829.829,0,1,1-1.477.751l-.008-.016a.829.829,0,0,1,1.477-.751Zm2.978-.844v-.016a.829.829,0,0,1,1.657,0V18.3a.829.829,0,0,1-1.657,0ZM29.7,28.224h-.016a.828.828,0,1,1,0-1.657H29.7a.828.828,0,1,1,0,1.657Zm14.392,6.7a.829.829,0,1,1-1.482.741l-.008-.016a.828.828,0,0,1,1.482-.741l.008.016Zm3.8-8.352h.016a.828.828,0,1,1,0,1.657h-.016a.828.828,0,1,1,0-1.657Zm-.463,5.756a.828.828,0,0,1-1.112.37l-.016-.008a.828.828,0,0,1,.741-1.482l.016.008a.828.828,0,0,1,.371,1.111ZM46.32,22.1a.828.828,0,0,1,.741,1.482l-.016.008A.828.828,0,1,1,46.3,22.11l.016-.008Zm-2.226-2.226-.008.016a.829.829,0,0,1-1.482-.741l.008-.016a.828.828,0,0,1,1.482.741ZM39.624,36.494v.016a.829.829,0,0,1-1.657,0v-.016a.829.829,0,0,1,1.657,0Zm3.188-5.948a.825.825,0,0,1-.414-.111l-4.017-2.321a.829.829,0,0,1-.414-.717V21.823a.829.829,0,0,1,1.657,0v5.095L43.228,29a.829.829,0,0,1-.415,1.546Z"/>
    </g>
  </g>
</svg>
