<svg xmlns="http://www.w3.org/2000/svg" width="399.949" height="74.218" viewBox="0 0 399.949 74.218">
  <g id="Grupo_1173701" data-name="Grupo 1173701" transform="translate(-180.051 -5623.651)">
    <path id="Trazado_1038025" data-name="Trazado 1038025" d="M4,0H365.219a4,4,0,0,1,4,4V32a4,4,0,0,1-4,4H4a4,4,0,0,1-4-4V4A4,4,0,0,1,4,0Z" transform="translate(210.781 5641.255)" fill="#ffcd80"/>
    <path id="Trazado_1038026" data-name="Trazado 1038026" d="M4.727,21H1.309V6.781H4.727Zm5.342-10.566.107,1.24a3.633,3.633,0,0,1,3.018-1.436A2.675,2.675,0,0,1,15.9,11.83,3.517,3.517,0,0,1,19,10.238q3.213,0,3.3,3.887V21H19V14.33a2.014,2.014,0,0,0-.273-1.182,1.164,1.164,0,0,0-1-.371,1.559,1.559,0,0,0-1.455.869l.01.137V21h-3.3V14.35a2.117,2.117,0,0,0-.264-1.2,1.161,1.161,0,0,0-1.006-.371,1.578,1.578,0,0,0-1.445.869V21H6.982V10.434Zm23.926,5.361a6.372,6.372,0,0,1-1.108,3.931,3.554,3.554,0,0,1-2.993,1.47A3.046,3.046,0,0,1,27.5,20.131v4.932H24.209V10.434h3.076l.1.977a3.046,3.046,0,0,1,2.49-1.172,3.582,3.582,0,0,1,3.037,1.44,6.45,6.45,0,0,1,1.084,3.96ZM30.7,15.59q0-2.812-1.641-2.812a1.549,1.549,0,0,0-1.562.84v4.16a1.6,1.6,0,0,0,1.582.879q1.572,0,1.621-2.715Zm4.326.029a6.236,6.236,0,0,1,.615-2.817,4.4,4.4,0,0,1,1.768-1.9,5.323,5.323,0,0,1,2.705-.664,4.858,4.858,0,0,1,3.74,1.47,5.64,5.64,0,0,1,1.367,4v.117a5.472,5.472,0,0,1-1.372,3.921,4.871,4.871,0,0,1-3.716,1.45,4.927,4.927,0,0,1-3.623-1.353,5.29,5.29,0,0,1-1.475-3.667Zm3.291.205a3.932,3.932,0,0,0,.459,2.148,1.529,1.529,0,0,0,1.357.684q1.758,0,1.8-2.705v-.332q0-2.842-1.816-2.842-1.65,0-1.787,2.451Zm14.746-2.412-1.084-.078a1.947,1.947,0,0,0-1.992.977V21H46.7V10.434h3.086l.107,1.357a2.548,2.548,0,0,1,2.314-1.553,3.209,3.209,0,0,1,.918.117Zm5.508-5.605v2.627h1.738v2.285H58.574v4.834a1.234,1.234,0,0,0,.215.83,1.152,1.152,0,0,0,.85.234,4.828,4.828,0,0,0,.82-.059v2.354A6.074,6.074,0,0,1,58.6,21.2a3.448,3.448,0,0,1-2.51-.8,3.282,3.282,0,0,1-.811-2.432V12.719H53.936V10.434h1.348V7.807ZM67.559,21a3.716,3.716,0,0,1-.312-.947A3.06,3.06,0,0,1,64.707,21.2a3.749,3.749,0,0,1-2.539-.9,2.875,2.875,0,0,1-1.045-2.271,2.955,2.955,0,0,1,1.27-2.6,6.468,6.468,0,0,1,3.691-.879H67.1v-.557q0-1.455-1.26-1.455a1.027,1.027,0,0,0-1.172,1.152H61.377a2.955,2.955,0,0,1,1.3-2.49,5.474,5.474,0,0,1,3.325-.957,4.8,4.8,0,0,1,3.193.986,3.429,3.429,0,0,1,1.2,2.705v4.678a4.79,4.79,0,0,0,.449,2.227V21ZM65.5,18.852a1.836,1.836,0,0,0,1.021-.264,1.653,1.653,0,0,0,.581-.6V16.3h-.957q-1.719,0-1.719,1.543a.942.942,0,0,0,.3.728A1.1,1.1,0,0,0,65.5,18.852Zm9.746-8.418.107,1.24a3.583,3.583,0,0,1,3.018-1.436,3.015,3.015,0,0,1,2.466.986,4.7,4.7,0,0,1,.845,2.969V21h-3.3V14.33a1.783,1.783,0,0,0-.322-1.177,1.491,1.491,0,0,0-1.172-.376,1.569,1.569,0,0,0-1.436.762V21H72.158V10.434Zm12.725,8.223a1.464,1.464,0,0,0,1.074-.376,1.379,1.379,0,0,0,.371-1.05H92.5a3.653,3.653,0,0,1-1.245,2.852A4.631,4.631,0,0,1,88.047,21.2a4.689,4.689,0,0,1-3.633-1.445,5.7,5.7,0,0,1-1.328-4v-.137a6.436,6.436,0,0,1,.591-2.827,4.3,4.3,0,0,1,1.7-1.885,5.081,5.081,0,0,1,2.637-.659,4.573,4.573,0,0,1,3.271,1.143,4.053,4.053,0,0,1,1.211,3.1H89.414a1.806,1.806,0,0,0-.4-1.26,1.382,1.382,0,0,0-1.074-.439q-1.279,0-1.494,1.631a11.508,11.508,0,0,0-.068,1.426,4.52,4.52,0,0,0,.381,2.207A1.319,1.319,0,0,0,87.969,18.656ZM97.363,21h-3.3V10.434h3.3Zm-3.5-13.291a1.469,1.469,0,0,1,.508-1.152,2.159,2.159,0,0,1,2.637,0,1.469,1.469,0,0,1,.508,1.152,1.469,1.469,0,0,1-.508,1.152,2.159,2.159,0,0,1-2.637,0A1.469,1.469,0,0,1,93.867,7.709ZM105.342,21a3.716,3.716,0,0,1-.312-.947A3.06,3.06,0,0,1,102.49,21.2a3.749,3.749,0,0,1-2.539-.9,2.875,2.875,0,0,1-1.045-2.271,2.955,2.955,0,0,1,1.27-2.6,6.468,6.468,0,0,1,3.691-.879h1.016v-.557q0-1.455-1.26-1.455a1.027,1.027,0,0,0-1.172,1.152H99.16a2.955,2.955,0,0,1,1.3-2.49,5.474,5.474,0,0,1,3.325-.957,4.8,4.8,0,0,1,3.193.986,3.429,3.429,0,0,1,1.2,2.705v4.678a4.79,4.79,0,0,0,.449,2.227V21Zm-2.061-2.148a1.836,1.836,0,0,0,1.021-.264,1.653,1.653,0,0,0,.581-.6V16.3h-.957q-1.719,0-1.719,1.543a.942.942,0,0,0,.3.728A1.1,1.1,0,0,0,103.281,18.852Zm11.289-3.213a6.455,6.455,0,0,1,1.084-3.955,3.568,3.568,0,0,1,3.027-1.445,3.035,3.035,0,0,1,2.383,1.113V6h3.3V21h-2.959l-.166-1.133a3.116,3.116,0,0,1-2.578,1.328,3.562,3.562,0,0,1-2.988-1.445A6.659,6.659,0,0,1,114.57,15.639Zm3.291.205q0,2.813,1.641,2.813a1.62,1.62,0,0,0,1.563-.918V13.715a1.576,1.576,0,0,0-1.543-.937q-1.523,0-1.65,2.461ZM131.348,21.2a5.432,5.432,0,0,1-3.936-1.45,5.008,5.008,0,0,1-1.5-3.774V15.7a6.489,6.489,0,0,1,.6-2.861,4.395,4.395,0,0,1,1.753-1.919A5.292,5.292,0,0,1,131,10.238a4.574,4.574,0,0,1,3.516,1.382,5.43,5.43,0,0,1,1.289,3.853v1.279h-6.543a2.372,2.372,0,0,0,.771,1.4,2.3,2.3,0,0,0,1.543.508,2.958,2.958,0,0,0,2.441-1.094l1.5,1.777a4.2,4.2,0,0,1-1.743,1.353A5.891,5.891,0,0,1,131.348,21.2Zm-.371-8.418q-1.445,0-1.719,1.914h3.32v-.254a1.63,1.63,0,0,0-.4-1.226A1.593,1.593,0,0,0,130.977,12.777ZM145.576,21h-3.3V6h3.3Zm7.979,0a3.716,3.716,0,0,1-.312-.947A3.06,3.06,0,0,1,150.7,21.2a3.749,3.749,0,0,1-2.539-.9,2.875,2.875,0,0,1-1.045-2.271,2.955,2.955,0,0,1,1.27-2.6,6.468,6.468,0,0,1,3.691-.879H153.1v-.557q0-1.455-1.26-1.455a1.027,1.027,0,0,0-1.172,1.152h-3.291a2.955,2.955,0,0,1,1.3-2.49A5.474,5.474,0,0,1,152,10.238a4.8,4.8,0,0,1,3.193.986,3.429,3.429,0,0,1,1.2,2.705v4.678a4.79,4.79,0,0,0,.449,2.227V21Zm-2.061-2.148a1.836,1.836,0,0,0,1.021-.264,1.653,1.653,0,0,0,.581-.6V16.3h-.957q-1.719,0-1.719,1.543a.942.942,0,0,0,.3.728A1.1,1.1,0,0,0,151.494,18.852Zm19.189-1.631a1.408,1.408,0,0,0-.532-1.172,6.615,6.615,0,0,0-1.87-.869,17.942,17.942,0,0,1-2.187-.869q-2.764-1.357-2.764-3.73a3.345,3.345,0,0,1,.688-2.085,4.453,4.453,0,0,1,1.948-1.406,7.582,7.582,0,0,1,2.832-.5,6.632,6.632,0,0,1,2.749.547,4.352,4.352,0,0,1,1.89,1.558,4.068,4.068,0,0,1,.674,2.31h-3.418a1.719,1.719,0,0,0-.532-1.348,2.075,2.075,0,0,0-1.44-.479,2.339,2.339,0,0,0-1.45.405,1.193,1.193,0,0,0,.054,2.021,7.389,7.389,0,0,0,2.061.918,12.623,12.623,0,0,1,2.422,1.021,4.07,4.07,0,0,1,2.3,3.662,3.472,3.472,0,0,1-1.406,2.93,6.255,6.255,0,0,1-3.857,1.064,7.653,7.653,0,0,1-3.13-.62,4.719,4.719,0,0,1-2.109-1.7,4.428,4.428,0,0,1-.708-2.485h3.438a2.181,2.181,0,0,0,.591,1.685,2.793,2.793,0,0,0,1.919.542,2.206,2.206,0,0,0,1.343-.366A1.209,1.209,0,0,0,170.684,17.221ZM180.83,21.2a5.432,5.432,0,0,1-3.936-1.45,5.008,5.008,0,0,1-1.5-3.774V15.7a6.489,6.489,0,0,1,.6-2.861,4.395,4.395,0,0,1,1.753-1.919,5.292,5.292,0,0,1,2.734-.679,4.574,4.574,0,0,1,3.516,1.382,5.43,5.43,0,0,1,1.289,3.853v1.279H178.74a2.372,2.372,0,0,0,.771,1.4,2.3,2.3,0,0,0,1.543.508,2.958,2.958,0,0,0,2.441-1.094L185,19.34a4.2,4.2,0,0,1-1.743,1.353A5.891,5.891,0,0,1,180.83,21.2Zm-.371-8.418q-1.445,0-1.719,1.914h3.32v-.254a1.63,1.63,0,0,0-.4-1.226A1.593,1.593,0,0,0,180.459,12.777Zm5.762,2.861a7.134,7.134,0,0,1,.527-2.832,4.245,4.245,0,0,1,1.514-1.9,3.99,3.99,0,0,1,2.295-.669,3.173,3.173,0,0,1,2.578,1.113l.117-.918h2.988V20.6a4.455,4.455,0,0,1-.649,2.427,4.167,4.167,0,0,1-1.88,1.582,6.91,6.91,0,0,1-2.852.552,5.961,5.961,0,0,1-2.251-.439,4.063,4.063,0,0,1-1.665-1.143l1.377-1.934a3.018,3.018,0,0,0,2.422,1.084,1.96,1.96,0,0,0,2.188-2.246V20.15a3.09,3.09,0,0,1-2.393,1.045,3.819,3.819,0,0,1-3.125-1.479,6.13,6.13,0,0,1-1.191-3.96Zm3.3.205a3.759,3.759,0,0,0,.488,2.056,1.541,1.541,0,0,0,1.367.757,1.748,1.748,0,0,0,1.553-.713V13.5a1.7,1.7,0,0,0-1.533-.723,1.551,1.551,0,0,0-1.377.786A4.287,4.287,0,0,0,189.521,15.844Zm11.7-5.41.107,1.24a3.633,3.633,0,0,1,3.018-1.436,2.675,2.675,0,0,1,2.705,1.592,3.516,3.516,0,0,1,3.105-1.592q3.213,0,3.3,3.887V21h-3.3V14.33a2.014,2.014,0,0,0-.273-1.182,1.164,1.164,0,0,0-1-.371,1.559,1.559,0,0,0-1.455.869l.01.137V21h-3.3V14.35a2.117,2.117,0,0,0-.264-1.2,1.161,1.161,0,0,0-1.006-.371,1.578,1.578,0,0,0-1.445.869V21h-3.291V10.434ZM220.449,21.2a5.432,5.432,0,0,1-3.936-1.45,5.008,5.008,0,0,1-1.5-3.774V15.7a6.489,6.489,0,0,1,.6-2.861,4.395,4.395,0,0,1,1.753-1.919,5.292,5.292,0,0,1,2.734-.679,4.574,4.574,0,0,1,3.516,1.382,5.43,5.43,0,0,1,1.289,3.853v1.279h-6.543a2.372,2.372,0,0,0,.771,1.4,2.3,2.3,0,0,0,1.543.508,2.958,2.958,0,0,0,2.441-1.094l1.5,1.777a4.2,4.2,0,0,1-1.743,1.353A5.891,5.891,0,0,1,220.449,21.2Zm-.371-8.418q-1.445,0-1.719,1.914h3.32v-.254a1.63,1.63,0,0,0-.4-1.226A1.593,1.593,0,0,0,220.078,12.777Zm9.17-2.344.107,1.24a3.583,3.583,0,0,1,3.018-1.436,3.015,3.015,0,0,1,2.466.986,4.7,4.7,0,0,1,.845,2.969V21h-3.3V14.33a1.783,1.783,0,0,0-.322-1.177,1.491,1.491,0,0,0-1.172-.376,1.569,1.569,0,0,0-1.436.762V21h-3.291V10.434Zm12.09-2.627v2.627h1.738v2.285h-1.738v4.834a1.234,1.234,0,0,0,.215.83,1.152,1.152,0,0,0,.85.234,4.828,4.828,0,0,0,.82-.059v2.354a6.074,6.074,0,0,1-1.855.283,3.448,3.448,0,0,1-2.51-.8,3.282,3.282,0,0,1-.811-2.432V12.719H236.7V10.434h1.348V7.807ZM250.322,21a3.716,3.716,0,0,1-.312-.947,3.06,3.06,0,0,1-2.539,1.143,3.749,3.749,0,0,1-2.539-.9,2.875,2.875,0,0,1-1.045-2.271,2.955,2.955,0,0,1,1.27-2.6,6.468,6.468,0,0,1,3.691-.879h1.016v-.557q0-1.455-1.26-1.455a1.027,1.027,0,0,0-1.172,1.152h-3.291a2.955,2.955,0,0,1,1.3-2.49,5.474,5.474,0,0,1,3.325-.957,4.8,4.8,0,0,1,3.193.986,3.429,3.429,0,0,1,1.2,2.705v4.678a4.79,4.79,0,0,0,.449,2.227V21Zm-2.061-2.148a1.836,1.836,0,0,0,1.021-.264,1.653,1.653,0,0,0,.581-.6V16.3h-.957q-1.719,0-1.719,1.543a.942.942,0,0,0,.3.728A1.1,1.1,0,0,0,248.262,18.852Zm11.191-.2a1.464,1.464,0,0,0,1.074-.376,1.379,1.379,0,0,0,.371-1.05h3.086a3.653,3.653,0,0,1-1.245,2.852,4.631,4.631,0,0,1-3.208,1.113A4.689,4.689,0,0,1,255.9,19.75a5.7,5.7,0,0,1-1.328-4v-.137a6.436,6.436,0,0,1,.591-2.827,4.3,4.3,0,0,1,1.7-1.885,5.081,5.081,0,0,1,2.637-.659,4.573,4.573,0,0,1,3.271,1.143,4.053,4.053,0,0,1,1.211,3.1H260.9a1.806,1.806,0,0,0-.4-1.26,1.382,1.382,0,0,0-1.074-.439q-1.279,0-1.494,1.631a11.51,11.51,0,0,0-.068,1.426,4.52,4.52,0,0,0,.381,2.207A1.319,1.319,0,0,0,259.453,18.656ZM268.848,21h-3.3V10.434h3.3Zm-3.5-13.291a1.469,1.469,0,0,1,.508-1.152,2.159,2.159,0,0,1,2.637,0A1.469,1.469,0,0,1,269,7.709a1.469,1.469,0,0,1-.508,1.152,2.159,2.159,0,0,1-2.637,0A1.469,1.469,0,0,1,265.352,7.709Zm5.107,7.91a6.236,6.236,0,0,1,.615-2.817,4.4,4.4,0,0,1,1.768-1.9,5.323,5.323,0,0,1,2.705-.664,4.859,4.859,0,0,1,3.74,1.47,5.64,5.64,0,0,1,1.367,4v.117a5.472,5.472,0,0,1-1.372,3.921,4.871,4.871,0,0,1-3.716,1.45,4.927,4.927,0,0,1-3.623-1.353,5.29,5.29,0,0,1-1.475-3.667Zm3.291.205a3.931,3.931,0,0,0,.459,2.148,1.529,1.529,0,0,0,1.357.684q1.758,0,1.8-2.705v-.332q0-2.842-1.816-2.842-1.65,0-1.787,2.451ZM276,6h3.477l-2.715,3.066h-2.686Zm9.131,4.434.107,1.24a3.583,3.583,0,0,1,3.018-1.436,3.015,3.015,0,0,1,2.466.986,4.7,4.7,0,0,1,.845,2.969V21h-3.3V14.33a1.783,1.783,0,0,0-.322-1.177,1.491,1.491,0,0,0-1.172-.376,1.569,1.569,0,0,0-1.436.762V21h-3.291V10.434Zm10.293,7.373a1.874,1.874,0,0,1,1.3.464,1.619,1.619,0,0,1,0,2.373,2.049,2.049,0,0,1-2.6,0,1.618,1.618,0,0,1,0-2.363A1.858,1.858,0,0,1,295.42,17.807Z" transform="translate(261.781 5647.761)" fill="#12263f"/>
    <path id="Trazado_1038023" data-name="Trazado 1038023" d="M37,0h.218a37,37,0,0,1,37,37v.218a37,37,0,0,1-37,37H37a37,37,0,0,1-37-37V37A37,37,0,0,1,37,0Z" transform="translate(180.051 5623.651)" fill="#706c65"/>
    <path id="Trazado_1038024" data-name="Trazado 1038024" d="M32.868,0A32.868,32.868,0,1,1,0,32.868,32.868,32.868,0,0,1,32.868,0Z" transform="translate(184.287 5627.746)" fill="#f3f0ea"/>
    <g id="Grupo_1114400" data-name="Grupo 1114400" transform="translate(187.545 5635.635)">
      <path id="Trazado_918490" data-name="Trazado 918490" d="M91.866,88.553,84.614,81.3a3.234,3.234,0,0,0-2.287-.947H69.761a3.234,3.234,0,0,0-2.287.947L36.407,112.368a2.156,2.156,0,0,0,0,3.049L57.75,136.76a2.156,2.156,0,0,0,3.049,0l31.068-31.068a3.233,3.233,0,0,0,.947-2.287V90.84A3.233,3.233,0,0,0,91.866,88.553ZM83.338,94.4a3.234,3.234,0,1,1,0-4.573A3.234,3.234,0,0,1,83.338,94.4Z" transform="translate(-35.775 -80.353)" fill="#ff8086"/>
      <path id="Trazado_918491" data-name="Trazado 918491" d="M123.786,226.254l-13.572-13.572a2.261,2.261,0,0,0-3.2,0L93.445,226.254a2.261,2.261,0,0,0,0,3.2l13.572,13.572,3.978-.78,12.792-12.791A2.261,2.261,0,0,0,123.786,226.254Z" transform="translate(-85.116 -194.313)" fill="#fff"/>
      <path id="Trazado_918492" data-name="Trazado 918492" d="M41.837,116.179a3.234,3.234,0,0,1,0-4.573L73.089,80.353H69.76a3.234,3.234,0,0,0-2.287.947L36.406,112.368a2.156,2.156,0,0,0,0,3.049L57.749,136.76a2.156,2.156,0,0,0,3.049,0l.81-.81Z" transform="translate(-35.774 -80.353)" fill="#e5646e"/>
      <path id="Trazado_918493" data-name="Trazado 918493" d="M110.994,213.463l-.78-.78a2.261,2.261,0,0,0-3.2,0L93.444,226.255a2.261,2.261,0,0,0,0,3.2l13.572,13.572a2.261,2.261,0,0,0,3.2,0l.78-.78L97.44,228.69a1.183,1.183,0,0,1,0-1.673Z" transform="translate(-85.115 -194.314)" fill="#faf5dc"/>
    </g>
    <g id="Grupo_1114401" data-name="Grupo 1114401" transform="translate(186.537 5624.829)">
      <path id="Trazado_918494" data-name="Trazado 918494" d="M140.963,318.31l9.147,9.147a1.009,1.009,0,1,0,1.426-1.426l-9.147-9.147a1.009,1.009,0,1,0-1.426,1.426Z" transform="translate(-125.553 -274.014)"/>
      <path id="Trazado_918495" data-name="Trazado 918495" d="M179.165,299.41a1.009,1.009,0,0,0,.713-1.722l-9.147-9.147a1.009,1.009,0,1,0-1.426,1.426l9.147,9.147A1,1,0,0,0,179.165,299.41Z" transform="translate(-150.084 -249.483)"/>
      <path id="Trazado_918496" data-name="Trazado 918496" d="M207.507,271.07a1.009,1.009,0,0,0,.713-1.722l-9.147-9.147a1.009,1.009,0,1,0-1.426,1.426l9.147,9.147A1.006,1.006,0,0,0,207.507,271.07Z" transform="translate(-174.614 -224.954)"/>
      <path id="Trazado_918497" data-name="Trazado 918497" d="M98.263,231.861a1.009,1.009,0,0,0-1.426,0l-10.6,10.6a3.27,3.27,0,0,0,0,4.624l13.572,13.572a3.27,3.27,0,0,0,4.624,0,1.009,1.009,0,0,0-1.426-1.426,1.253,1.253,0,0,1-1.771,0L87.666,245.656a1.252,1.252,0,0,1,0-1.771l10.6-10.6A1.008,1.008,0,0,0,98.263,231.861Z" transform="translate(-77.616 -200.425)"/>
      <path id="Trazado_918498" data-name="Trazado 918498" d="M198.31,234.565a1,1,0,0,0,.713-.3l10.6-10.6a3.274,3.274,0,0,0,0-4.624l-13.572-13.572a3.27,3.27,0,0,0-4.624,0,1.009,1.009,0,0,0,1.426,1.426,1.252,1.252,0,0,1,1.771,0l13.572,13.572a1.253,1.253,0,0,1,0,1.771l-10.6,10.6a1.009,1.009,0,0,0,.713,1.722Z" transform="translate(-169.229 -177.016)"/>
      <path id="Trazado_918499" data-name="Trazado 918499" d="M89.018,3.95A6.3,6.3,0,0,0,83.107,0a9.567,9.567,0,0,0-9.556,9.556v8.893a4.245,4.245,0,1,0,2.017,0V11.814h.267a2.211,2.211,0,0,1,1.574.652l7.253,7.253a2.211,2.211,0,0,1,.652,1.574V33.858a2.21,2.21,0,0,1-.652,1.574L53.594,66.5a1.149,1.149,0,0,1-1.623,0L30.628,45.156a1.148,1.148,0,0,1,0-1.623L61.7,12.466a2.211,2.211,0,0,1,1.574-.652h6.978a1.009,1.009,0,0,0,0-2.017H63.27a4.215,4.215,0,0,0-3,1.243L29.2,42.107a3.165,3.165,0,0,0,0,4.476L50.545,67.926a3.168,3.168,0,0,0,4.475,0L86.088,36.858a4.214,4.214,0,0,0,1.243-3V21.292a4.215,4.215,0,0,0-1.243-3l-2.913-2.913,4.456-4.456A6.3,6.3,0,0,0,89.018,3.95ZM76.785,22.568a2.225,2.225,0,1,1-.652-1.574,2.211,2.211,0,0,1,.652,1.574ZM86.2,9.5l-4.456,4.456L78.835,11.04a4.215,4.215,0,0,0-3-1.243h-.267V9.556a7.547,7.547,0,0,1,7.539-7.539,4.322,4.322,0,0,1,4.048,2.7A4.322,4.322,0,0,1,86.2,9.5Z" transform="translate(-28.275)"/>
    </g>
  </g>
</svg>
