<svg xmlns="http://www.w3.org/2000/svg" xmlns:xlink="http://www.w3.org/1999/xlink" width="140" height="140" viewBox="0 0 140 140">
  <defs>
    <filter id="Elipse_8441" x="0" y="0" width="140" height="140" filterUnits="userSpaceOnUse">
      <feOffset dy="3" input="SourceAlpha"/>
      <feGaussianBlur stdDeviation="3" result="blur"/>
      <feFlood flood-opacity="0.161"/>
      <feComposite operator="in" in2="blur"/>
      <feComposite in="SourceGraphic"/>
    </filter>
  </defs>
  <g id="Grupo_1173703" data-name="Grupo 1173703" transform="translate(-1121.051 -6514.988)">
    <g id="Grupo_1148261" data-name="Grupo 1148261" transform="translate(825.243 2897.938)">
      <g transform="matrix(1, 0, 0, 1, 295.81, 3617.05)" filter="url(#Elipse_8441)">
        <circle id="Elipse_8441-2" data-name="Elipse 8441" cx="61" cy="61" r="61" transform="translate(9 6)" fill="#fff" opacity="0.45"/>
      </g>
      <circle id="Elipse_8442" data-name="Elipse 8442" cx="49" cy="49" r="49" transform="translate(316.808 3635.051)" fill="#fff"/>
    </g>
    <g id="Grupo_1173664" data-name="Grupo 1173664" transform="translate(1159.051 6550)">
      <g id="Grupo_1173662" data-name="Grupo 1173662">
        <g id="Grupo_1173653" data-name="Grupo 1173653">
          <path id="Trazado_1037897" data-name="Trazado 1037897" d="M50,12.38A2.386,2.386,0,0,0,47.62,10H46.43L47,9l3.31-5.8A2.4,2.4,0,0,1,52.38,2a2.333,2.333,0,0,1,1.16.3l7.23,4.02A2.381,2.381,0,0,1,62,8.4v.04a2.428,2.428,0,0,1-.25,1.06l-5.2,10.4L52,19.6l-2-.13Z" fill="#e6e9ed"/>
        </g>
        <g id="Grupo_1173654" data-name="Grupo 1173654">
          <path id="Trazado_1037898" data-name="Trazado 1037898" d="M43.69,3.2,47,9l-.57,1H38.38A2.386,2.386,0,0,0,36,12.38V17L32.25,9.5A2.428,2.428,0,0,1,32,8.44V8.4a2.381,2.381,0,0,1,1.23-2.08L40.46,2.3A2.333,2.333,0,0,1,41.62,2a2.4,2.4,0,0,1,2.07,1.2Z" fill="#b4dd7f"/>
        </g>
        <g id="Grupo_1173655" data-name="Grupo 1173655">
          <path id="Trazado_1037899" data-name="Trazado 1037899" d="M47.62,10A2.386,2.386,0,0,1,50,12.38v7.09l-4-.27-6-.4-4-.27V12.38A2.386,2.386,0,0,1,38.38,10h9.24Z" fill="#fcd770"/>
        </g>
        <g id="Grupo_1173656" data-name="Grupo 1173656">
          <path id="Trazado_1037900" data-name="Trazado 1037900" d="M28,10v2H20a2.006,2.006,0,0,1-2-2,2.015,2.015,0,0,1,2-2h6A2.006,2.006,0,0,1,28,10Z" fill="#aab2bd"/>
        </g>
        <g id="Grupo_1173657" data-name="Grupo 1173657">
          <circle id="Elipse_13183" data-name="Elipse 13183" cx="4" cy="4" r="4" transform="translate(54 42)" fill="#969faa"/>
        </g>
        <g id="Grupo_1173658" data-name="Grupo 1173658">
          <path id="Trazado_1037901" data-name="Trazado 1037901" d="M56.55,19.9,52,19.6l-2-.13-4-.27-6-.4-4-.27-2-.13L28,18v8l1.59-1.59a1.414,1.414,0,0,1,2.41,1V30h2a4,4,0,0,1,4,4v2H54a4,4,0,0,0,4-4V20Z" fill="#ff826e"/>
        </g>
        <g id="Grupo_1173659" data-name="Grupo 1173659">
          <path id="Trazado_1037902" data-name="Trazado 1037902" d="M34,30a4,4,0,0,1,4,4V58a4,4,0,0,1-4,4H6a4,4,0,0,1-4-4V34a4,4,0,0,1,4-4H24l4-4,1.59-1.59a1.414,1.414,0,0,1,2.41,1V30Z" fill="#e6e9ed"/>
        </g>
        <g id="Grupo_1173660" data-name="Grupo 1173660">
          <path id="Trazado_1037903" data-name="Trazado 1037903" d="M12,56v2H8V44h4V56Z" fill="#b4dd7f"/>
        </g>
        <g id="Grupo_1173661" data-name="Grupo 1173661">
          <path id="Trazado_1037904" data-name="Trazado 1037904" d="M30,46a2.006,2.006,0,0,1,2,2,2.015,2.015,0,0,1-2,2,2.006,2.006,0,0,1,2,2,2.015,2.015,0,0,1-2,2,2.015,2.015,0,0,1,2,2,2.006,2.006,0,0,1-2,2H17.66a4,4,0,0,1-2.83-1.17L14,56H12V46l1.99-1.33A3.993,3.993,0,0,1,16.21,44h.49A4.3,4.3,0,0,0,21,39.7V35a1,1,0,0,1,1-1,3,3,0,0,1,3,3v5h5a2.015,2.015,0,0,1,2,2,2.006,2.006,0,0,1-2,2Z" fill="#f0d0b4"/>
        </g>
      </g>
      <g id="Grupo_1173663" data-name="Grupo 1173663">
        <path id="Trazado_1037905" data-name="Trazado 1037905" d="M58,41H39V37H54a5.006,5.006,0,0,0,5-5V19.064L58.116,19l4.526-9.054A3.433,3.433,0,0,0,63,8.4a3.383,3.383,0,0,0-1.74-2.957L54.025,1.424A3.386,3.386,0,0,0,49.446,2.7L47,6.985,44.554,2.7a3.383,3.383,0,0,0-4.58-1.278L32.74,5.446a3.426,3.426,0,0,0-1.383,4.505L35,17.236v.228l-6-.4V10a3,3,0,0,0-3-3H20a3,3,0,0,0,0,6h7V25.586L23.586,29H6a5.006,5.006,0,0,0-5,5V58a5.006,5.006,0,0,0,5,5H34a5.006,5.006,0,0,0,5-5V43H54.026A4.948,4.948,0,0,0,53,46a5,5,0,1,0,5-5ZM37.974,31H45v4H39V34A4.948,4.948,0,0,0,37.974,31Zm-5.016-6H39v4H33V25.414A2.352,2.352,0,0,0,32.958,25ZM39,19.736V23H35V19.469Zm18,1.2V23H53V20.669ZM47,29V25h4v4Zm4,2v4H47V31Zm-6-2H41V25h4Zm8-4h4v4H53Zm-2-4.464V23H47V20.269ZM45,23H41V19.869l4,.267Zm9,12H53V31h4v1A3,3,0,0,1,54,35ZM51.183,3.7a1.421,1.421,0,0,1,1.872-.522l7.234,4.02a1.425,1.425,0,0,1,.565,1.862l-4.9,9.806L51,18.531V12.383a3.379,3.379,0,0,0-2.877-3.332ZM33.146,9.055A1.434,1.434,0,0,1,33,8.4a1.382,1.382,0,0,1,.711-1.209l7.233-4.019a1.419,1.419,0,0,1,1.873.521L45.848,9H38.382A3.387,3.387,0,0,0,35,12.383v.381ZM37,12.383A1.384,1.384,0,0,1,38.383,11h9.234A1.384,1.384,0,0,1,49,12.383V18.4l-12-.8Zm-4,6.953V23H30.586A2.423,2.423,0,0,0,29,23.608V19.069ZM20,11a1,1,0,0,1,0-2h6a1,1,0,0,1,1,1v1ZM37,58a3,3,0,0,1-3,3H6a3,3,0,0,1-3-3V34a3,3,0,0,1,3-3H24.414l5.879-5.879a.43.43,0,0,1,.707.293V31h3a3,3,0,0,1,3,3Zm21-9a3,3,0,1,1,3-3A3,3,0,0,1,58,49Z"/>
        <path id="Trazado_1037906" data-name="Trazado 1037906" d="M30,41H26V37a4,4,0,0,0-4-4,2,2,0,0,0-2,2v4.7A3.3,3.3,0,0,1,16.7,43h-.486a4.974,4.974,0,0,0-2.773.84L13,44.132V43H7V59h6V57h.586l.535.535A4.969,4.969,0,0,0,17.657,59H30a2.987,2.987,0,0,0,2.22-5,2.954,2.954,0,0,0,0-4,2.954,2.954,0,0,0,0-4A2.987,2.987,0,0,0,30,41ZM11,57H9V45h2Zm19,0H17.657a2.983,2.983,0,0,1-2.122-.879L14.414,55H13V46.535L14.547,45.5a2.984,2.984,0,0,1,1.664-.5H16.7A5.3,5.3,0,0,0,22,39.7V35a2,2,0,0,1,2,2v6h6a1,1,0,1,1,0,2H27v2h3a1,1,0,1,1,0,2H27v2h3a1,1,0,1,1,0,2H27v2h3a1,1,0,1,1,0,2Z"/>
        <path id="Trazado_1037907" data-name="Trazado 1037907" d="M5,17H19v2H5Z"/>
        <path id="Trazado_1037908" data-name="Trazado 1037908" d="M5,21H19v2H5Z"/>
        <path id="Trazado_1037909" data-name="Trazado 1037909" d="M13,25h2v2H13Z"/>
        <path id="Trazado_1037910" data-name="Trazado 1037910" d="M17,25h2v2H17Z"/>
        <path id="Trazado_1037911" data-name="Trazado 1037911" d="M5,25H7v2H5Z"/>
        <path id="Trazado_1037912" data-name="Trazado 1037912" d="M9,25h2v2H9Z"/>
        <path id="Trazado_1037913" data-name="Trazado 1037913" d="M5,33H15v2H5Z"/>
        <path id="Trazado_1037914" data-name="Trazado 1037914" d="M5,37H15v2H5Z"/>
      </g>
    </g>
  </g>
</svg>
