<svg xmlns="http://www.w3.org/2000/svg" width="369.73" height="74.218" viewBox="0 0 369.73 74.218">
  <g id="Grupo_1173693" data-name="Grupo 1173693" transform="translate(-180 -2223.606)">
    <path id="Trazado_1037978" data-name="Trazado 1037978" d="M4,0H335a4,4,0,0,1,4,4V32a4,4,0,0,1-4,4H4a4,4,0,0,1-4-4V4A4,4,0,0,1,4,0Z" transform="translate(210.73 2241.21)" fill="#ffcd80"/>
    <path id="Trazado_1037979" data-name="Trazado 1037979" d="M12.236-11.572H7.969V0H4.541V-11.572H.352v-2.646H12.236ZM17,0H13.7V-10.566H17Zm-3.5-13.291a1.469,1.469,0,0,1,.508-1.152,1.916,1.916,0,0,1,1.318-.449,1.916,1.916,0,0,1,1.318.449,1.469,1.469,0,0,1,.508,1.152,1.469,1.469,0,0,1-.508,1.152,1.916,1.916,0,0,1-1.318.449,1.916,1.916,0,0,1-1.318-.449A1.469,1.469,0,0,1,13.506-13.291ZM28.838-5.205a6.372,6.372,0,0,1-1.108,3.931A3.554,3.554,0,0,1,24.736.2,3.046,3.046,0,0,1,22.344-.869V4.063H19.053V-10.566h3.076l.1.977a3.046,3.046,0,0,1,2.49-1.172,3.582,3.582,0,0,1,3.037,1.44,6.45,6.45,0,0,1,1.084,3.96ZM25.547-5.41q0-2.812-1.641-2.812a1.549,1.549,0,0,0-1.562.84v4.16a1.6,1.6,0,0,0,1.582.879q1.572,0,1.621-2.715Zm4.326.029A6.236,6.236,0,0,1,30.488-8.2a4.4,4.4,0,0,1,1.768-1.9,5.323,5.323,0,0,1,2.705-.664,4.858,4.858,0,0,1,3.74,1.47,5.64,5.64,0,0,1,1.367,4v.117A5.472,5.472,0,0,1,38.7-1.255,4.871,4.871,0,0,1,34.98.2a4.927,4.927,0,0,1-3.623-1.353,5.29,5.29,0,0,1-1.475-3.667Zm3.291.205a3.932,3.932,0,0,0,.459,2.148,1.529,1.529,0,0,0,1.357.684q1.758,0,1.8-2.705v-.332q0-2.842-1.816-2.842-1.65,0-1.787,2.451ZM47.051-2.969a.76.76,0,0,0-.439-.674,6.685,6.685,0,0,0-1.67-.527,7.615,7.615,0,0,1-2.031-.718,3.4,3.4,0,0,1-1.221-1.079,2.577,2.577,0,0,1-.42-1.455,2.92,2.92,0,0,1,1.2-2.4,4.948,4.948,0,0,1,3.145-.942,5.482,5.482,0,0,1,3.359.947,2.962,2.962,0,0,1,1.27,2.49h-3.3q0-1.27-1.338-1.27a1.326,1.326,0,0,0-.869.288.892.892,0,0,0-.352.718.819.819,0,0,0,.43.713,4.06,4.06,0,0,0,1.372.449,11.857,11.857,0,0,1,1.655.42,3.007,3.007,0,0,1,2.383,2.939A2.767,2.767,0,0,1,48.94-.713,5.632,5.632,0,0,1,45.615.2a5.747,5.747,0,0,1-2.422-.488,4.05,4.05,0,0,1-1.66-1.328,3.007,3.007,0,0,1-.6-1.768h3.076A1.272,1.272,0,0,0,44.5-2.319a2.009,2.009,0,0,0,1.2.337,1.58,1.58,0,0,0,1.011-.273A.875.875,0,0,0,47.051-2.969Zm9.277-2.393a6.455,6.455,0,0,1,1.084-3.955,3.568,3.568,0,0,1,3.027-1.445,3.035,3.035,0,0,1,2.383,1.113V-15h3.3V0H63.164L63-1.133A3.116,3.116,0,0,1,60.42.2,3.562,3.562,0,0,1,57.432-1.25,6.659,6.659,0,0,1,56.328-5.361Zm3.291.205q0,2.813,1.641,2.813a1.62,1.62,0,0,0,1.563-.918V-7.285a1.576,1.576,0,0,0-1.543-.937q-1.523,0-1.65,2.461ZM73.105.2a5.432,5.432,0,0,1-3.936-1.45,5.008,5.008,0,0,1-1.5-3.774V-5.3a6.489,6.489,0,0,1,.6-2.861,4.395,4.395,0,0,1,1.753-1.919,5.292,5.292,0,0,1,2.734-.679A4.574,4.574,0,0,1,76.27-9.38a5.43,5.43,0,0,1,1.289,3.853v1.279H71.016a2.372,2.372,0,0,0,.771,1.4,2.3,2.3,0,0,0,1.543.508,2.958,2.958,0,0,0,2.441-1.094l1.5,1.777A4.2,4.2,0,0,1,75.532-.308,5.891,5.891,0,0,1,73.105.2Zm-.371-8.418q-1.445,0-1.719,1.914h3.32v-.254a1.63,1.63,0,0,0-.4-1.226A1.593,1.593,0,0,0,72.734-8.223ZM93.672-5.205a6.372,6.372,0,0,1-1.108,3.931A3.554,3.554,0,0,1,89.57.2,3.046,3.046,0,0,1,87.178-.869V4.063H83.887V-10.566h3.076l.1.977a3.046,3.046,0,0,1,2.49-1.172,3.582,3.582,0,0,1,3.037,1.44,6.45,6.45,0,0,1,1.084,3.96ZM90.381-5.41q0-2.812-1.641-2.812a1.549,1.549,0,0,0-1.562.84v4.16a1.6,1.6,0,0,0,1.582.879q1.572,0,1.621-2.715Zm11.133-2.178-1.084-.078a1.947,1.947,0,0,0-1.992.977V0H95.146V-10.566h3.086l.107,1.357a2.548,2.548,0,0,1,2.314-1.553,3.209,3.209,0,0,1,.918.117Zm.42,2.207a6.236,6.236,0,0,1,.615-2.817,4.4,4.4,0,0,1,1.768-1.9,5.323,5.323,0,0,1,2.705-.664,4.858,4.858,0,0,1,3.74,1.47,5.64,5.64,0,0,1,1.367,4v.117a5.472,5.472,0,0,1-1.372,3.921A4.871,4.871,0,0,1,107.041.2a4.927,4.927,0,0,1-3.623-1.353,5.29,5.29,0,0,1-1.475-3.667Zm3.291.205a3.932,3.932,0,0,0,.459,2.148,1.529,1.529,0,0,0,1.357.684q1.758,0,1.8-2.705v-.332q0-2.842-1.816-2.842-1.65,0-1.787,2.451Zm7.939-.186a6.455,6.455,0,0,1,1.084-3.955,3.568,3.568,0,0,1,3.027-1.445,3.035,3.035,0,0,1,2.383,1.113V-15h3.3V0H120l-.166-1.133A3.116,3.116,0,0,1,117.256.2a3.562,3.562,0,0,1-2.988-1.445A6.659,6.659,0,0,1,113.164-5.361Zm3.291.205q0,2.813,1.641,2.813a1.62,1.62,0,0,0,1.563-.918V-7.285a1.576,1.576,0,0,0-1.543-.937q-1.523,0-1.65,2.461Zm14.668,4.014A3.393,3.393,0,0,1,128.3.2a3.328,3.328,0,0,1-2.632-1.011,4.251,4.251,0,0,1-.894-2.905v-6.846h3.291V-3.7a1.183,1.183,0,0,0,1.318,1.357A1.72,1.72,0,0,0,131-3.154v-7.412h3.311V0h-3.086Zm9.453-1.2a1.464,1.464,0,0,0,1.074-.376,1.379,1.379,0,0,0,.371-1.05h3.086a3.653,3.653,0,0,1-1.245,2.852A4.631,4.631,0,0,1,140.654.2a4.689,4.689,0,0,1-3.633-1.445,5.7,5.7,0,0,1-1.328-4v-.137a6.436,6.436,0,0,1,.591-2.827,4.3,4.3,0,0,1,1.7-1.885,5.081,5.081,0,0,1,2.637-.659A4.573,4.573,0,0,1,143.9-9.619a4.053,4.053,0,0,1,1.211,3.1h-3.086a1.807,1.807,0,0,0-.4-1.26,1.382,1.382,0,0,0-1.074-.439q-1.279,0-1.494,1.631a11.507,11.507,0,0,0-.068,1.426,4.52,4.52,0,0,0,.381,2.207A1.319,1.319,0,0,0,140.576-2.344Zm9.756-10.85v2.627h1.738v2.285h-1.738v4.834a1.234,1.234,0,0,0,.215.83,1.152,1.152,0,0,0,.85.234,4.828,4.828,0,0,0,.82-.059V-.088A6.074,6.074,0,0,1,150.361.2a3.448,3.448,0,0,1-2.51-.8,3.282,3.282,0,0,1-.811-2.432V-8.281h-1.348v-2.285h1.348v-2.627Zm2.324,7.813a6.236,6.236,0,0,1,.615-2.817,4.4,4.4,0,0,1,1.768-1.9,5.323,5.323,0,0,1,2.705-.664,4.858,4.858,0,0,1,3.74,1.47,5.64,5.64,0,0,1,1.367,4v.117a5.472,5.472,0,0,1-1.372,3.921A4.871,4.871,0,0,1,157.764.2a4.927,4.927,0,0,1-3.623-1.353,5.29,5.29,0,0,1-1.475-3.667Zm3.291.205a3.932,3.932,0,0,0,.459,2.148,1.529,1.529,0,0,0,1.357.684q1.758,0,1.8-2.705v-.332q0-2.842-1.816-2.842-1.65,0-1.787,2.451Zm13.887,2.207a.76.76,0,0,0-.439-.674,6.685,6.685,0,0,0-1.67-.527,7.615,7.615,0,0,1-2.031-.718,3.4,3.4,0,0,1-1.221-1.079,2.577,2.577,0,0,1-.42-1.455,2.92,2.92,0,0,1,1.2-2.4,4.948,4.948,0,0,1,3.145-.942,5.482,5.482,0,0,1,3.359.947,2.962,2.962,0,0,1,1.27,2.49h-3.3q0-1.27-1.338-1.27a1.326,1.326,0,0,0-.869.288.892.892,0,0,0-.352.718.819.819,0,0,0,.43.713,4.06,4.06,0,0,0,1.372.449,11.857,11.857,0,0,1,1.655.42,3.007,3.007,0,0,1,2.383,2.939,2.767,2.767,0,0,1-1.284,2.354A5.632,5.632,0,0,1,168.4.2a5.747,5.747,0,0,1-2.422-.488,4.05,4.05,0,0,1-1.66-1.328,3.007,3.007,0,0,1-.6-1.768H166.8a1.272,1.272,0,0,0,.488,1.069,2.009,2.009,0,0,0,1.2.337,1.58,1.58,0,0,0,1.011-.273A.875.875,0,0,0,169.834-2.969ZM183.75-4.609l1.758-5.957h3.525L184.727,1.768l-.186.449A3.272,3.272,0,0,1,181.3,4.268a5.139,5.139,0,0,1-1.357-.2V1.719h.43a2.252,2.252,0,0,0,1.06-.2A1.215,1.215,0,0,0,181.973.8l.264-.7-3.672-10.664h3.516ZM200.4-2.969a.76.76,0,0,0-.439-.674,6.685,6.685,0,0,0-1.67-.527,7.615,7.615,0,0,1-2.031-.718,3.4,3.4,0,0,1-1.221-1.079,2.577,2.577,0,0,1-.42-1.455,2.92,2.92,0,0,1,1.2-2.4,4.948,4.948,0,0,1,3.145-.942,5.482,5.482,0,0,1,3.359.947,2.962,2.962,0,0,1,1.27,2.49h-3.3q0-1.27-1.338-1.27a1.326,1.326,0,0,0-.869.288.892.892,0,0,0-.352.718.819.819,0,0,0,.43.713,4.06,4.06,0,0,0,1.372.449,11.857,11.857,0,0,1,1.655.42,3.007,3.007,0,0,1,2.383,2.939A2.767,2.767,0,0,1,202.29-.713,5.632,5.632,0,0,1,198.965.2a5.747,5.747,0,0,1-2.422-.488,4.05,4.05,0,0,1-1.66-1.328,3.007,3.007,0,0,1-.6-1.768h3.076a1.272,1.272,0,0,0,.488,1.069,2.009,2.009,0,0,0,1.2.337,1.58,1.58,0,0,0,1.011-.273A.875.875,0,0,0,200.4-2.969ZM210.225.2a5.432,5.432,0,0,1-3.936-1.45,5.008,5.008,0,0,1-1.5-3.774V-5.3a6.489,6.489,0,0,1,.6-2.861,4.395,4.395,0,0,1,1.753-1.919,5.292,5.292,0,0,1,2.734-.679,4.574,4.574,0,0,1,3.516,1.382,5.43,5.43,0,0,1,1.289,3.853v1.279h-6.543a2.372,2.372,0,0,0,.771,1.4,2.3,2.3,0,0,0,1.543.508,2.958,2.958,0,0,0,2.441-1.094l1.5,1.777a4.2,4.2,0,0,1-1.743,1.353A5.891,5.891,0,0,1,210.225.2Zm-.371-8.418q-1.445,0-1.719,1.914h3.32v-.254a1.63,1.63,0,0,0-.4-1.226A1.593,1.593,0,0,0,209.854-8.223Zm12.539.635-1.084-.078a1.947,1.947,0,0,0-1.992.977V0h-3.291V-10.566h3.086l.107,1.357a2.548,2.548,0,0,1,2.314-1.553,3.209,3.209,0,0,1,.918.117Zm5.576,3.672,1.67-6.65h3.467L229.658,0H226.3l-3.447-10.566h3.477ZM237.559,0h-3.3V-10.566h3.3Zm-3.5-13.291a1.469,1.469,0,0,1,.508-1.152,1.916,1.916,0,0,1,1.318-.449,1.916,1.916,0,0,1,1.318.449,1.469,1.469,0,0,1,.508,1.152,1.469,1.469,0,0,1-.508,1.152,1.916,1.916,0,0,1-1.318.449,1.916,1.916,0,0,1-1.318-.449A1.469,1.469,0,0,1,234.063-13.291Zm9.99,10.947a1.464,1.464,0,0,0,1.074-.376,1.379,1.379,0,0,0,.371-1.05h3.086a3.653,3.653,0,0,1-1.245,2.852A4.631,4.631,0,0,1,244.131.2,4.689,4.689,0,0,1,240.5-1.25a5.7,5.7,0,0,1-1.328-4v-.137a6.436,6.436,0,0,1,.591-2.827,4.3,4.3,0,0,1,1.7-1.885,5.081,5.081,0,0,1,2.637-.659,4.573,4.573,0,0,1,3.271,1.143,4.053,4.053,0,0,1,1.211,3.1H245.5a1.807,1.807,0,0,0-.4-1.26,1.382,1.382,0,0,0-1.074-.439q-1.279,0-1.494,1.631a11.507,11.507,0,0,0-.068,1.426,4.52,4.52,0,0,0,.381,2.207A1.319,1.319,0,0,0,244.053-2.344ZM253.447,0h-3.3V-10.566h3.3Zm-3.5-13.291a1.469,1.469,0,0,1,.508-1.152,1.916,1.916,0,0,1,1.318-.449,1.916,1.916,0,0,1,1.318.449,1.469,1.469,0,0,1,.508,1.152,1.469,1.469,0,0,1-.508,1.152,1.916,1.916,0,0,1-1.318.449,1.916,1.916,0,0,1-1.318-.449A1.469,1.469,0,0,1,249.951-13.291Zm5.107,7.91a6.236,6.236,0,0,1,.615-2.817,4.4,4.4,0,0,1,1.768-1.9,5.323,5.323,0,0,1,2.705-.664,4.859,4.859,0,0,1,3.74,1.47,5.64,5.64,0,0,1,1.367,4v.117a5.472,5.472,0,0,1-1.372,3.921A4.871,4.871,0,0,1,260.166.2a4.927,4.927,0,0,1-3.623-1.353,5.29,5.29,0,0,1-1.475-3.667Zm3.291.205a3.931,3.931,0,0,0,.459,2.148,1.529,1.529,0,0,0,1.357.684q1.758,0,1.8-2.705v-.332q0-2.842-1.816-2.842-1.65,0-1.787,2.451Zm13.887,2.207a.76.76,0,0,0-.439-.674,6.685,6.685,0,0,0-1.67-.527,7.615,7.615,0,0,1-2.031-.718,3.4,3.4,0,0,1-1.221-1.079,2.577,2.577,0,0,1-.42-1.455,2.92,2.92,0,0,1,1.2-2.4,4.948,4.948,0,0,1,3.145-.942,5.482,5.482,0,0,1,3.359.947,2.962,2.962,0,0,1,1.27,2.49h-3.3q0-1.27-1.338-1.27a1.326,1.326,0,0,0-.869.288.892.892,0,0,0-.352.718.819.819,0,0,0,.43.713,4.06,4.06,0,0,0,1.372.449,11.856,11.856,0,0,1,1.655.42,3.007,3.007,0,0,1,2.383,2.939,2.767,2.767,0,0,1-1.284,2.354A5.631,5.631,0,0,1,270.8.2a5.747,5.747,0,0,1-2.422-.488,4.05,4.05,0,0,1-1.66-1.328,3.007,3.007,0,0,1-.6-1.768H269.2a1.272,1.272,0,0,0,.488,1.069,2.009,2.009,0,0,0,1.2.337,1.58,1.58,0,0,0,1.011-.273A.875.875,0,0,0,272.236-2.969Z" transform="translate(261.73 2266.716)" fill="#12263f"/>
    <g id="Grupo_1162067" data-name="Grupo 1162067" transform="translate(-96.461 133.729)">
      <rect id="Rect치ngulo_405442" data-name="Rect치ngulo 405442" width="74.218" height="74.218" rx="37" transform="translate(276.461 2089.877)" fill="#706c65"/>
      <rect id="Rect치ngulo_405308" data-name="Rect치ngulo 405308" width="65.736" height="65.736" rx="32.868" transform="translate(280.697 2093.972)" fill="#f3f0ea"/>
    </g>
    <g id="Grupo_1162068" data-name="Grupo 1162068" transform="translate(158.211 2224.784)">
      <g id="Grupo_1114400" data-name="Grupo 1114400" transform="translate(29.284 10.806)">
        <path id="Trazado_918490" data-name="Trazado 918490" d="M91.866,88.553,84.614,81.3a3.234,3.234,0,0,0-2.287-.947H69.761a3.234,3.234,0,0,0-2.287.947L36.407,112.368a2.156,2.156,0,0,0,0,3.049L57.75,136.76a2.156,2.156,0,0,0,3.049,0l31.068-31.068a3.233,3.233,0,0,0,.947-2.287V90.84A3.233,3.233,0,0,0,91.866,88.553ZM83.338,94.4a3.234,3.234,0,1,1,0-4.573A3.234,3.234,0,0,1,83.338,94.4Z" transform="translate(-35.775 -80.353)" fill="#ff8086"/>
        <path id="Trazado_918491" data-name="Trazado 918491" d="M123.786,226.254l-13.572-13.572a2.261,2.261,0,0,0-3.2,0L93.445,226.254a2.261,2.261,0,0,0,0,3.2l13.572,13.572,3.978-.78,12.792-12.791A2.261,2.261,0,0,0,123.786,226.254Z" transform="translate(-85.116 -194.313)" fill="#fff"/>
        <path id="Trazado_918492" data-name="Trazado 918492" d="M41.837,116.179a3.234,3.234,0,0,1,0-4.573L73.089,80.353H69.76a3.234,3.234,0,0,0-2.287.947L36.406,112.368a2.156,2.156,0,0,0,0,3.049L57.749,136.76a2.156,2.156,0,0,0,3.049,0l.81-.81Z" transform="translate(-35.774 -80.353)" fill="#e5646e"/>
        <path id="Trazado_918493" data-name="Trazado 918493" d="M110.994,213.463l-.78-.78a2.261,2.261,0,0,0-3.2,0L93.444,226.255a2.261,2.261,0,0,0,0,3.2l13.572,13.572a2.261,2.261,0,0,0,3.2,0l.78-.78L97.44,228.69a1.183,1.183,0,0,1,0-1.673Z" transform="translate(-85.115 -194.314)" fill="#faf5dc"/>
      </g>
      <g id="Grupo_1114401" data-name="Grupo 1114401" transform="translate(28.275)">
        <path id="Trazado_918494" data-name="Trazado 918494" d="M140.963,318.31l9.147,9.147a1.009,1.009,0,1,0,1.426-1.426l-9.147-9.147a1.009,1.009,0,1,0-1.426,1.426Z" transform="translate(-125.553 -274.014)"/>
        <path id="Trazado_918495" data-name="Trazado 918495" d="M179.165,299.41a1.009,1.009,0,0,0,.713-1.722l-9.147-9.147a1.009,1.009,0,1,0-1.426,1.426l9.147,9.147A1,1,0,0,0,179.165,299.41Z" transform="translate(-150.084 -249.483)"/>
        <path id="Trazado_918496" data-name="Trazado 918496" d="M207.507,271.07a1.009,1.009,0,0,0,.713-1.722l-9.147-9.147a1.009,1.009,0,1,0-1.426,1.426l9.147,9.147A1.006,1.006,0,0,0,207.507,271.07Z" transform="translate(-174.614 -224.954)"/>
        <path id="Trazado_918497" data-name="Trazado 918497" d="M98.263,231.861a1.009,1.009,0,0,0-1.426,0l-10.6,10.6a3.27,3.27,0,0,0,0,4.624l13.572,13.572a3.27,3.27,0,0,0,4.624,0,1.009,1.009,0,0,0-1.426-1.426,1.253,1.253,0,0,1-1.771,0L87.666,245.656a1.252,1.252,0,0,1,0-1.771l10.6-10.6A1.008,1.008,0,0,0,98.263,231.861Z" transform="translate(-77.616 -200.425)"/>
        <path id="Trazado_918498" data-name="Trazado 918498" d="M198.31,234.565a1,1,0,0,0,.713-.3l10.6-10.6a3.274,3.274,0,0,0,0-4.624l-13.572-13.572a3.27,3.27,0,0,0-4.624,0,1.009,1.009,0,0,0,1.426,1.426,1.252,1.252,0,0,1,1.771,0l13.572,13.572a1.253,1.253,0,0,1,0,1.771l-10.6,10.6a1.009,1.009,0,0,0,.713,1.722Z" transform="translate(-169.229 -177.016)"/>
        <path id="Trazado_918499" data-name="Trazado 918499" d="M89.018,3.95A6.3,6.3,0,0,0,83.107,0a9.567,9.567,0,0,0-9.556,9.556v8.893a4.245,4.245,0,1,0,2.017,0V11.814h.267a2.211,2.211,0,0,1,1.574.652l7.253,7.253a2.211,2.211,0,0,1,.652,1.574V33.858a2.21,2.21,0,0,1-.652,1.574L53.594,66.5a1.149,1.149,0,0,1-1.623,0L30.628,45.156a1.148,1.148,0,0,1,0-1.623L61.7,12.466a2.211,2.211,0,0,1,1.574-.652h6.978a1.009,1.009,0,0,0,0-2.017H63.27a4.215,4.215,0,0,0-3,1.243L29.2,42.107a3.165,3.165,0,0,0,0,4.476L50.545,67.926a3.168,3.168,0,0,0,4.475,0L86.088,36.858a4.214,4.214,0,0,0,1.243-3V21.292a4.215,4.215,0,0,0-1.243-3l-2.913-2.913,4.456-4.456A6.3,6.3,0,0,0,89.018,3.95ZM76.785,22.568a2.225,2.225,0,1,1-.652-1.574,2.211,2.211,0,0,1,.652,1.574ZM86.2,9.5l-4.456,4.456L78.835,11.04a4.215,4.215,0,0,0-3-1.243h-.267V9.556a7.547,7.547,0,0,1,7.539-7.539,4.322,4.322,0,0,1,4.048,2.7A4.322,4.322,0,0,1,86.2,9.5Z" transform="translate(-28.275)"/>
      </g>
    </g>
  </g>
</svg>
