<svg xmlns="http://www.w3.org/2000/svg" width="83" height="83" viewBox="0 0 83 83">
  <g id="Grupo_1173362" data-name="Grupo 1173362" transform="translate(4303.383 7619.465)">
    <circle id="Elipse_13114" data-name="Elipse 13114" cx="41.5" cy="41.5" r="41.5" transform="translate(-4303.383 -7619.465)" fill="#e2dacc"/>
    <g id="Grupo_1173361" data-name="Grupo 1173361" transform="translate(-4286 -7602)">
      <g id="Grupo_1173336" data-name="Grupo 1173336" transform="translate(0.718 0.718)">
        <g id="Grupo_1173334" data-name="Grupo 1173334">
          <path id="Trazado_1037262" data-name="Trazado 1037262" d="M9.591,7.5h16.7a2.091,2.091,0,0,1,2.091,2.091v13.8a2.091,2.091,0,0,1-2.091,2.091h-4.1v3.1l-3.961-3.1H9.591A2.091,2.091,0,0,1,7.5,23.389V9.591A2.091,2.091,0,0,1,9.591,7.5Z" transform="translate(-7.5 -7.5)" fill="#f4fbff"/>
        </g>
        <g id="Grupo_1173335" data-name="Grupo 1173335" transform="translate(17.501 1.839)">
          <path id="Trazado_1037263" data-name="Trazado 1037263" d="M191.717,35.183a3.859,3.859,0,0,0-1.353,2.935v3.094a3.842,3.842,0,0,0,.367,1.642h.924a2.091,2.091,0,0,0,2.091-2.091v-13.8a2.1,2.1,0,0,0-.017-.252,9.619,9.619,0,0,0-2.011,5.9Z" transform="translate(-190.364 -26.712)" fill="#dfeaef"/>
        </g>
      </g>
      <g id="Grupo_1173352" data-name="Grupo 1173352" transform="translate(15.412 0.718)">
        <g id="Grupo_1173337" data-name="Grupo 1173337" transform="translate(5.709 18.175)">
          <path id="Trazado_1037264" data-name="Trazado 1037264" d="M220.695,197.411h21.452v13.341H220.695Z" transform="translate(-220.695 -197.411)" fill="#934d36"/>
        </g>
        <g id="Grupo_1173338" data-name="Grupo 1173338" transform="translate(0 28.036)">
          <path id="Trazado_1037265" data-name="Trazado 1037265" d="M180.863,300.447l8.028,2.141a6.767,6.767,0,0,1,5.024,6.539v10.849h-32.87V309.126a6.767,6.767,0,0,1,5.024-6.539l8.028-2.141Z" transform="translate(-161.045 -300.447)" fill="#d3effb"/>
        </g>
        <g id="Grupo_1173340" data-name="Grupo 1173340" transform="translate(16.435 28.036)">
          <g id="Grupo_1173339" data-name="Grupo 1173339">
            <path id="Trazado_1037266" data-name="Trazado 1037266" d="M332.772,304.122l1.737,3.582a1.34,1.34,0,0,0,2.459-.11l2.383-6.293-3.2-.852Z" transform="translate(-332.772 -300.448)" fill="#f4fbff"/>
          </g>
        </g>
        <g id="Grupo_1173342" data-name="Grupo 1173342" transform="translate(9.856 28.036)">
          <g id="Grupo_1173341" data-name="Grupo 1173341">
            <path id="Trazado_1037267" data-name="Trazado 1037267" d="M270.61,304.122l-1.737,3.582a1.34,1.34,0,0,1-2.459-.11l-2.383-6.293,3.2-.852Z" transform="translate(-264.031 -300.448)" fill="#f4fbff"/>
          </g>
        </g>
        <g id="Grupo_1173343" data-name="Grupo 1173343" transform="translate(28.261 30.303)">
          <path id="Trazado_1037268" data-name="Trazado 1037268" d="M456.345,324.137a6.758,6.758,0,0,1,1.612,4.382V341.4h3V330.549A6.766,6.766,0,0,0,456.345,324.137Z" transform="translate(-456.345 -324.137)" fill="#b1e4f9"/>
        </g>
        <g id="Grupo_1173344" data-name="Grupo 1173344" transform="translate(13.051 23.879)">
          <path id="Trazado_1037269" data-name="Trazado 1037269" d="M297.417,261.457V257.01h6.767v4.447a3.384,3.384,0,1,1-6.767,0Z" transform="translate(-297.417 -257.01)" fill="#fcd0a3"/>
        </g>
        <g id="Grupo_1173345" data-name="Grupo 1173345" transform="translate(13.051 23.879)">
          <path id="Trazado_1037270" data-name="Trazado 1037270" d="M297.417,259.211a9.667,9.667,0,0,0,6.767,0v-2.2h-6.767v2.2Z" transform="translate(-297.417 -257.01)" fill="#ffb983"/>
        </g>
        <g id="Grupo_1173346" data-name="Grupo 1173346" transform="translate(8.701 8.991)">
          <path id="Trazado_1037271" data-name="Trazado 1037271" d="M251.959,101.445v8.033a7.734,7.734,0,0,0,15.468,0v-8.033Z" transform="translate(-251.959 -101.445)" fill="#fcd0a3"/>
        </g>
        <g id="Grupo_1173347" data-name="Grupo 1173347" transform="translate(21.151 8.991)">
          <path id="Trazado_1037272" data-name="Trazado 1037272" d="M385.065,109.478v-8.033h-1.837V111.5a7.7,7.7,0,0,1-1.181,4.107A7.719,7.719,0,0,0,385.065,109.478Z" transform="translate(-382.047 -101.445)" fill="#ffb983"/>
        </g>
        <g id="Grupo_1173348" data-name="Grupo 1173348" transform="translate(6.187)">
          <path id="Trazado_1037273" data-name="Trazado 1037273" d="M225.7,17.168A9.668,9.668,0,0,1,235.363,7.5h2.8a2.9,2.9,0,0,1,2.9,2.9h1.257a3.867,3.867,0,0,1,3.867,3.867v8.024h-2.514l-2.61-5.027-1.381,1.381a3.867,3.867,0,0,1-2.734,1.133H234.02a7.734,7.734,0,0,0-4.97,1.808l-.841.705H225.7V17.168Z" transform="translate(-225.695 -7.5)" fill="#aa593d"/>
        </g>
        <g id="Grupo_1173349" data-name="Grupo 1173349" transform="translate(23.766 3.018)">
          <path id="Trazado_1037274" data-name="Trazado 1037274" d="M409.375,39.038a3.85,3.85,0,0,1,.4,1.719v9.958l-.049,0,.049.095,2.514-.1V42.787A3.868,3.868,0,0,0,409.375,39.038Z" transform="translate(-409.375 -39.038)" fill="#934d36"/>
        </g>
        <g id="Grupo_1173350" data-name="Grupo 1173350" transform="translate(24.169 11.311)">
          <path id="Trazado_1037275" data-name="Trazado 1037275" d="M415.519,132.65h-1.933v-6.961h1.933a1.933,1.933,0,0,1,1.934,1.933v3.094A1.934,1.934,0,0,1,415.519,132.65Z" transform="translate(-413.586 -125.689)" fill="#e28086"/>
        </g>
        <g id="Grupo_1173351" data-name="Grupo 1173351" transform="translate(4.834 11.311)">
          <path id="Trazado_1037276" data-name="Trazado 1037276" d="M213.486,132.65h1.933v-6.961h-1.933a1.933,1.933,0,0,0-1.934,1.933v3.094A1.934,1.934,0,0,0,213.486,132.65Z" transform="translate(-211.553 -125.689)" fill="#e28086"/>
        </g>
      </g>
      <g id="Grupo_1173357" data-name="Grupo 1173357" transform="translate(0.718 29.914)">
        <g id="Grupo_1173353" data-name="Grupo 1173353">
          <path id="Trazado_1037277" data-name="Trazado 1037277" d="M29.735,327.07H7.5V314.5a1.933,1.933,0,0,1,1.933-1.934H27.8a1.933,1.933,0,0,1,1.933,1.934Z" transform="translate(-7.5 -312.569)" fill="#a0aab7"/>
        </g>
        <g id="Grupo_1173354" data-name="Grupo 1173354" transform="translate(9.184 5.317)">
          <circle id="Elipse_13139" data-name="Elipse 13139" cx="1.933" cy="1.933" r="1.933" fill="#f4fbff"/>
        </g>
        <g id="Grupo_1173355" data-name="Grupo 1173355" transform="translate(0 14.501)">
          <path id="Trazado_1037278" data-name="Trazado 1037278" d="M7.5,464.094H31.669v1.933a1.933,1.933,0,0,1-1.933,1.934H9.433A1.933,1.933,0,0,1,7.5,466.027Z" transform="translate(-7.5 -464.094)" fill="#808b95"/>
        </g>
        <g id="Grupo_1173356" data-name="Grupo 1173356" transform="translate(20.302 14.501)">
          <path id="Trazado_1037279" data-name="Trazado 1037279" d="M221.567,464.094v1.933a1.933,1.933,0,0,1-1.933,1.934h1.933a1.933,1.933,0,0,0,1.933-1.934v-1.933Z" transform="translate(-219.634 -464.094)" fill="#5e6b75"/>
        </g>
      </g>
      <g id="Grupo_1173359" data-name="Grupo 1173359" transform="translate(5.405 3.907)">
        <g id="Grupo_1173358" data-name="Grupo 1173358">
          <circle id="Elipse_13140" data-name="Elipse 13140" cx="5.801" cy="5.801" r="5.801" fill="#f6e266"/>
        </g>
      </g>
      <g id="Grupo_1173360" data-name="Grupo 1173360" transform="translate(0 0)">
        <path id="Trazado_1037280" data-name="Trazado 1037280" d="M48.282,39.775A.718.718,0,0,0,49,39.057V37.433A7.494,7.494,0,0,0,43.443,30.2l-.152-.041V19.022a2.645,2.645,0,0,0,.875-1.966V13.962a2.653,2.653,0,0,0-1.354-2.311V7.485A4.59,4.59,0,0,0,38.228,2.9h-.611A3.624,3.624,0,0,0,34.071,0h-2.8a10.39,10.39,0,0,0-8.95,5.123V2.809A2.812,2.812,0,0,0,19.509,0H7.3a.718.718,0,1,0,0,1.436H19.509a1.375,1.375,0,0,1,1.373,1.373v8.843a2.653,2.653,0,0,0-1.354,2.311v3.094a2.64,2.64,0,0,0,.161.911,1.405,1.405,0,0,1-.181.013h-4.1a.718.718,0,0,0-.718.718v1.624l-2.8-2.189a.718.718,0,0,0-.442-.152H2.809a1.374,1.374,0,0,1-1.373-1.372V2.809A1.375,1.375,0,0,1,2.809,1.436H3.944A.718.718,0,1,0,3.944,0H2.809A2.812,2.812,0,0,0,0,2.809v13.8a2.812,2.812,0,0,0,2.809,2.808H11.2l3.767,2.943a.718.718,0,0,0,1.16-.566V19.415h3.378a2.807,2.807,0,0,0,.895-.147V29.2H2.651A2.654,2.654,0,0,0,0,31.847v5.212a.718.718,0,1,0,1.436,0V31.847a1.217,1.217,0,0,1,1.216-1.216H21.02a1.217,1.217,0,0,1,1.216,1.216V43.7H1.436V40.411a.718.718,0,1,0-1.436,0v5.938A2.654,2.654,0,0,0,2.651,49H48.282A.718.718,0,0,0,49,48.282V42.41a.718.718,0,0,0-1.436,0v5.154H42.619V44.415a.718.718,0,0,0-1.436,0v3.149H25.308a2.634,2.634,0,0,0,.3-1.216V44.415a.718.718,0,0,0-.718-.718H23.671V31.847a2.636,2.636,0,0,0-.2-1.019l1.36-.362,2.154,5.687a2.03,2.03,0,0,0,1.832,1.327l.1,0a2.028,2.028,0,0,0,1.846-1.16l1.091-2.25,1.091,2.25a2.027,2.027,0,0,0,1.846,1.16l.1,0a2.03,2.03,0,0,0,1.832-1.327l2.154-5.687,4.206,1.122a6.057,6.057,0,0,1,4.491,5.845v1.624a.718.718,0,0,0,.718.718ZM24.169,46.349a1.217,1.217,0,0,1-1.216,1.216H2.651a1.217,1.217,0,0,1-1.216-1.216V45.133H24.169ZM41.856,29.777,35.949,28.2V25.129a8.515,8.515,0,0,0,2.816-2.537A1.686,1.686,0,0,0,40.3,20.915V19.707h1.216a2.652,2.652,0,0,0,.341-.023ZM31.847,31.71a2.669,2.669,0,0,1-2.666-2.666V25.762a8.457,8.457,0,0,0,5.332,0v3.282A2.669,2.669,0,0,1,31.847,31.71Zm-4.1-3.507-5.3,1.412a2.642,2.642,0,0,0-.608-.288V19.685a2.67,2.67,0,0,0,.341.023h1.447a8.483,8.483,0,0,0,4.119,5.422Zm-6.782-14.24a1.217,1.217,0,0,1,1.216-1.216H23.4v5.525H22.18a1.217,1.217,0,0,1-1.216-1.216Zm15.822-2.28,2.078,4v2.057a6.972,6.972,0,0,1-.894,3.422h-4.88a1.436,1.436,0,1,0,0,1.436H36.9a7.011,7.011,0,0,1-12.072-4.858v-1.9l.584-.49a7.028,7.028,0,0,1,4.509-1.64h2.932A4.555,4.555,0,0,0,36.1,12.37Zm4.729,1.064a1.217,1.217,0,0,1,1.216,1.216v3.094a1.217,1.217,0,0,1-1.216,1.216H40.3V12.747Zm-.138-5.262v3.826h-1.8a.718.718,0,0,0-.718.718v.54l-1.175-2.262V4.336h.539a3.153,3.153,0,0,1,3.149,3.149ZM31.267,1.436h2.8a2.185,2.185,0,0,1,2.183,2.183v6.567l-1.171,1.171a3.129,3.129,0,0,1-2.227.922H29.924a8.466,8.466,0,0,0-5.093,1.708V12.029a.718.718,0,0,0-.718-.718h-1.8v-.926a8.96,8.96,0,0,1,8.95-8.95Zm-1.8,34.26a.622.622,0,0,1-1.141-.051l-2.1-5.551,1.573-.419A4.113,4.113,0,0,0,30.771,33Zm5.907-.051a.622.622,0,0,1-1.141.051L32.923,33A4.113,4.113,0,0,0,35.9,29.675l1.573.42Z" transform="translate(0 0)"/>
        <path id="Trazado_1037281" data-name="Trazado 1037281" d="M101.269,363.279a2.651,2.651,0,1,0-2.651,2.651A2.654,2.654,0,0,0,101.269,363.279Zm-3.867,0a1.216,1.216,0,1,1,1.216,1.216A1.217,1.217,0,0,1,97.4,363.279Z" transform="translate(-86.782 -326.115)"/>
        <path id="Trazado_1037282" data-name="Trazado 1037282" d="M91.188,115.436a.718.718,0,1,0-1.016-1.014,2.564,2.564,0,0,1-3.63,0,.718.718,0,0,0-1.016,1.014,4,4,0,0,0,5.662,0Z" transform="translate(-77.151 -103.281)"/>
        <path id="Trazado_1037283" data-name="Trazado 1037283" d="M62.018,39.846A6.518,6.518,0,1,0,55.5,46.365,6.526,6.526,0,0,0,62.018,39.846Zm-11.6,0A5.083,5.083,0,1,1,55.5,44.929,5.089,5.089,0,0,1,50.416,39.846Z" transform="translate(-44.293 -30.138)"/>
        <circle id="Elipse_13141" data-name="Elipse 13141" cx="0.967" cy="0.967" r="0.967" transform="translate(8.015 7.291)"/>
        <circle id="Elipse_13142" data-name="Elipse 13142" cx="0.967" cy="0.967" r="0.967" transform="translate(12.464 7.291)"/>
      </g>
    </g>
  </g>
</svg>
