<svg xmlns="http://www.w3.org/2000/svg" width="68.585" height="71.567" viewBox="0 0 68.585 71.567">
  <g id="Grupo_1149072" data-name="Grupo 1149072" transform="translate(-16.415 -6)">
    <g id="Grupo_1149071" data-name="Grupo 1149071" transform="translate(20.331 56.904)">
      <path id="Trazado_1006967" data-name="Trazado 1006967" d="M63.38,361.73c-5.071-.621-9.015,2.263-16.336,2.36l-3.247.019-.021,15.848,3.268.014c7.652-2.067,15.679.421,22.418,1.17,3.755.418,5.357.546,10.146-1.509l23.026-10a31.6,31.6,0,0,0,4.733-2.64c1.356-3.119-1.268-6.149-9.07-3.237a110.744,110.744,0,0,1-14.533,4.371,3.711,3.711,0,0,0,.293-1.748c-.108-1.913-1.621-3.241-5.01-3.331-5.4-.144-10.242-.656-15.667-1.32Z" transform="translate(-43.775 -361.643)" fill="#f2c496" fill-rule="evenodd"/>
      <path id="Trazado_1006968" data-name="Trazado 1006968" d="M63.4,361.73c-5.072-.621-9.015,2.263-16.336,2.36l-3.247.019-.017,13.1,3.264.01c7.652-2.067,15.679.421,22.418,1.17,3.755.417,5.357.546,10.146-1.509l23.026-10a37.59,37.59,0,0,0,4.286-2.322l.492-.329c-.888-1.681-3.8-2.455-9.113-.471a110.739,110.739,0,0,1-14.533,4.371,3.711,3.711,0,0,0,.293-1.748c-.108-1.913-1.621-3.241-5.01-3.331-5.4-.144-10.242-.656-15.667-1.321Z" transform="translate(-43.797 -361.643)" fill="#fdd7ad" fill-rule="evenodd"/>
      <path id="Trazado_1006969" data-name="Trazado 1006969" d="M233.318,403.067c-.661.16-1.971.468-2.459.558h0c-1,1.7-3.853,2.3-6.823,2.473a57.71,57.71,0,0,1-6.638-.122c-.3-.018-.575-.035-.838-.049a1.009,1.009,0,1,0-.061,2.011c.28.015.607.035.962.057a58.875,58.875,0,0,0,6.8.122c3.994-.226,8.072-1.3,9.053-5.048Z" transform="translate(-190.871 -397.138)" fill="#f2c496" fill-rule="evenodd"/>
    </g>
    <rect id="Rect치ngulo_415970" data-name="Rect치ngulo 415970" width="6.466" height="18.777" rx="3.233" transform="translate(17.134 58.068)" fill="#29b933"/>
    <rect id="Rect치ngulo_415971" data-name="Rect치ngulo 415971" width="4.121" height="18.777" rx="2.06" transform="translate(19.478 58.068)" fill="#2dd62d"/>
    <path id="Trazado_1006970" data-name="Trazado 1006970" d="M157.258,187.884h18.679v18.679H157.258Z" transform="translate(-120.684 -155.85)" fill="#fdd7ad"/>
    <path id="Trazado_1006971" data-name="Trazado 1006971" d="M203.43,187.884h5.461v6.076l-2.731-1.37-2.731,1.37Z" transform="translate(-160.247 -155.85)" fill="#2a92fa" fill-rule="evenodd"/>
    <path id="Trazado_1006972" data-name="Trazado 1006972" d="M222.509,187.884h2.731v6.076l-2.731-1.37Z" transform="translate(-176.595 -155.85)" fill="#5caeff" fill-rule="evenodd"/>
    <path id="Trazado_1006973" data-name="Trazado 1006973" d="M287.759,187.884h18.679v18.679H287.759Z" transform="translate(-232.506 -155.85)" fill="#e6b17c"/>
    <path id="Trazado_1006974" data-name="Trazado 1006974" d="M333.93,187.884h5.461v6.076l-2.731-1.37-2.731,1.37Z" transform="translate(-272.068 -155.85)" fill="#f0414a" fill-rule="evenodd"/>
    <path id="Trazado_1006975" data-name="Trazado 1006975" d="M222.508,57.384h18.679V76.063H222.508Z" transform="translate(-176.594 -44.029)" fill="#dea368"/>
    <path id="Trazado_1006976" data-name="Trazado 1006976" d="M268.68,57.384h5.461V63.46l-2.731-1.37-2.731,1.37Z" transform="translate(-216.158 -44.029)" fill="#29b933" fill-rule="evenodd"/>
    <path id="Trazado_1006977" data-name="Trazado 1006977" d="M157.258,187.884h1.79v18.679h-1.79Z" transform="translate(-120.684 -155.85)" fill="#f2c496"/>
    <path id="Trazado_1006978" data-name="Trazado 1006978" d="M287.758,187.884h1.79v18.679h-1.79Z" transform="translate(-232.505 -155.85)" fill="#dea368"/>
    <path id="Trazado_1006979" data-name="Trazado 1006979" d="M222.508,57.384h1.79V76.063h-1.79Z" transform="translate(-176.594 -44.029)" fill="#d19458"/>
    <path id="Trazado_1006980" data-name="Trazado 1006980" d="M353.009,187.884h2.731v6.076l-2.731-1.37Z" transform="translate(-288.416 -155.85)" fill="#fb545c" fill-rule="evenodd"/>
    <path id="Trazado_1006981" data-name="Trazado 1006981" d="M287.758,57.384h2.731V63.46l-2.731-1.37Z" transform="translate(-232.505 -44.029)" fill="#2dd62d" fill-rule="evenodd"/>
    <path id="Trazado_1006982" data-name="Trazado 1006982" d="M47.606,8a.713.713,0,1,1,1.234-.715L50.284,9.78a.718.718,0,0,1-.266.977.693.693,0,0,1-.354.1.707.707,0,0,1-.62-.358L47.606,8Zm6.946,1.59V6.716a.716.716,0,0,1,1.431,0V9.594a.716.716,0,1,1-1.431,0Zm5.705.186,1.438-2.491a.713.713,0,0,1,.975-.262A.724.724,0,0,1,62.935,8L61.49,10.5a.707.707,0,0,1-.62.358.731.731,0,0,1-.354-.1A.716.716,0,0,1,60.256,9.78Zm-22.984,23h5.194v5.37a.711.711,0,0,0,1.036.639l2.413-1.21,2.413,1.21a.708.708,0,0,0,.7-.03.716.716,0,0,0,.341-.609v-5.37h5.187V50.054H37.272Zm6.625,0v4.21l1.7-.852a.712.712,0,0,1,.641,0l1.7.852v-4.21H43.9ZM46.631,14.07h5.187v5.37a.717.717,0,0,0,1.036.639l2.413-1.212L57.68,20.08a.724.724,0,0,0,.32.076.7.7,0,0,0,.375-.108.716.716,0,0,0,.341-.608V14.07H63.9V31.346H46.631V14.07Zm6.618,0v4.21l1.7-.852a.711.711,0,0,1,.641,0l1.7.852V14.07ZM62.6,32.778h4.042v4.21l-1.7-.852a.711.711,0,0,0-.641,0l-1.7.852Zm10.66,17.276V32.778H68.074v5.37a.716.716,0,0,1-.341.609.725.725,0,0,1-.7.03l-2.413-1.21-2.413,1.21a.708.708,0,0,1-.7-.03.716.716,0,0,1-.341-.609v-5.37H55.983V50.054Zm-36.7,1.431H73.977a.716.716,0,0,0,.716-.716V32.062a.716.716,0,0,0-.716-.716H65.334V13.354a.716.716,0,0,0-.716-.716h-18.7a.716.716,0,0,0-.716.716V31.346H36.557a.716.716,0,0,0-.716.716V50.769a.716.716,0,0,0,.716.716ZM83.363,61.8a33.525,33.525,0,0,1-4.444,2.443l-23.025,10c-4.71,2.021-6.2,1.857-9.788,1.456-1.684-.188-3.442-.483-5.3-.8-5.119-.862-10.892-1.832-16.488-.575V60.048a37,37,0,0,0,8.343-1.418c2.549-.66,4.751-1.229,7.2-.928,5.841.716,10.511,1.186,15.745,1.325,2.767.074,4.219.969,4.315,2.658a2.769,2.769,0,0,1-.811,2.24c-2.42,2.41-9.6,1.975-13.046,1.766-.566-.034-1.05-.063-1.452-.078a.708.708,0,0,0-.743.687.717.717,0,0,0,.688.742c.382.016.866.045,1.425.078,3.933.239,11.267.683,14.137-2.18a4.07,4.07,0,0,0,.7-.911,115.051,115.051,0,0,0,14.307-4.339c3.79-1.415,6.762-1.511,7.954-.259a2.194,2.194,0,0,1,.286,2.372ZM22.883,75.6a.532.532,0,0,1-.532.532H18.385a.534.534,0,0,1-.538-.532V59.316a.534.534,0,0,1,.538-.532h3.967a.533.533,0,0,1,.532.532ZM84.113,58.447c-.954-1.005-3.449-2.352-9.488-.1A122.774,122.774,0,0,1,61.32,62.456a4.417,4.417,0,0,0,.02-.853c-.082-1.442-.927-3.879-5.705-4.007-5.173-.138-9.808-.605-15.6-1.317a20.281,20.281,0,0,0-7.736.965,35.729,35.729,0,0,1-8.111,1.376,1.961,1.961,0,0,0-1.834-1.268H18.385a1.97,1.97,0,0,0-1.97,1.964V75.6a1.97,1.97,0,0,0,1.97,1.964h3.967A1.963,1.963,0,0,0,24.308,75.8c5.4-1.311,10.919-.382,16.263.519,1.874.316,3.653.614,5.378.806a30.684,30.684,0,0,0,3.374.251c2.031,0,3.9-.424,7.136-1.815l23.039-10c.007,0,.014-.006.014-.009a32.219,32.219,0,0,0,4.874-2.722.715.715,0,0,0,.218-.281,3.661,3.661,0,0,0-.491-4.1Z" fill-rule="evenodd"/>
  </g>
</svg>
