<svg xmlns="http://www.w3.org/2000/svg" xmlns:xlink="http://www.w3.org/1999/xlink" width="505" height="1675" viewBox="0 0 505 1675">
  <defs>
    <clipPath id="clip-path">
      <path id="path14274" d="M0-682.665H59.257v59.257H0Z" transform="translate(0 682.665)"/>
    </clipPath>
  </defs>
  <g id="Grupo_1174122" data-name="Grupo 1174122" transform="translate(6059.051 7048.216)">
    <path id="Trazado_1039720" data-name="Trazado 1039720" d="M20,0H485a20,20,0,0,1,20,20V1655a20,20,0,0,1-20,20H20a20,20,0,0,1-20-20V20A20,20,0,0,1,20,0Z" transform="translate(-6059.051 -7048.216)" fill="#fff"/>
    <path id="Trazado_1039721" data-name="Trazado 1039721" d="M14,0H455a14,14,0,0,1,14,14V1619a14,14,0,0,1-14,14H14a14,14,0,0,1-14-14V14A14,14,0,0,1,14,0Z" transform="translate(-6038.051 -7030.216)" fill="#ebf7ff"/>
    <g id="Grupo_1173126" data-name="Grupo 1173126" transform="translate(-6206.051 -11714)">
      <rect id="Rectángulo_421139" data-name="Rectángulo 421139" width="220" height="166" rx="14" transform="translate(285.051 4842)" fill="#f3f0ea"/>
      <text id="_1._Tangibilidad_Producto:_se_puede_ver_y_tocar._Servicio:_no_se_puede_ver_ni_tocar." data-name="1. Tangibilidad

  Producto: se puede ver y 
  tocar.
  Servicio: no se puede ver 
  ni tocar." transform="translate(303 4875)" fill="#12263f" font-size="16" font-family="Roboto-Bold, Roboto" font-weight="700"><tspan x="0" y="17">1. Tangibilidad</tspan><tspan x="0" y="37"></tspan><tspan x="0" y="57" xml:space="preserve">  Producto:</tspan><tspan y="57" xml:space="preserve" font-family="Roboto-Regular, Roboto" font-weight="400"> se puede ver y </tspan><tspan font-family="Roboto-Regular, Roboto" font-weight="400"><tspan x="0" y="77" xml:space="preserve">  tocar.</tspan></tspan><tspan x="0" y="97" xml:space="preserve">  Servicio:</tspan><tspan y="97" xml:space="preserve" font-family="Roboto-Regular, Roboto" font-weight="400"> no se puede ver </tspan><tspan font-family="Roboto-Regular, Roboto" font-weight="400"><tspan x="0" y="117" xml:space="preserve">  ni tocar.</tspan></tspan></text>
      <circle id="Elipse_13123" data-name="Elipse 13123" cx="3" cy="3" r="3" transform="translate(303.051 4921)" fill="#ff7630"/>
      <circle id="Elipse_13124" data-name="Elipse 13124" cx="3" cy="3" r="3" transform="translate(303.051 4961)" fill="#ff7630"/>
    </g>
    <path id="Trazado_1037090" data-name="Trazado 1037090" d="M128.37,209.937,36.449,188.8A207.337,207.337,0,0,1,149.829,47.963l40.782,85.022a113.014,113.014,0,0,0-62.241,76.952" transform="matrix(-0.629, -0.777, 0.777, -0.629, -5844.6, -6738.581)" fill="#cc5e26"/>
    <path id="Trazado_1037095" data-name="Trazado 1037095" d="M52.7,79.365l15.721,2.427,15.72,2.428-9.961,12.4-9.963,12.4L58.456,94.193Z" transform="matrix(-0.629, -0.777, 0.777, -0.629, -5839.622, -6749.952)" fill="#cc5e26"/>
    <path id="Trazado_1037102" data-name="Trazado 1037102" d="M.875.563,99.6.4,101,17H0Z" transform="translate(-5862 -6971)" fill="#cc5e26"/>
    <g id="g14268" transform="translate(-5842.81 -6271.544)">
      <g id="g14270" transform="translate(0 -682.665)">
        <g id="g14272" clip-path="url(#clip-path)">
          <g id="g14278" transform="translate(17.244 27.226)">
            <path id="path14280" d="M-291.544-65.768a4.166,4.166,0,0,0-5.694,1.524l-.887,1.537V-72.02l-10.494,6.059a.143.143,0,0,1-.143,0l-10.494-6.059v17.053a10.521,10.521,0,0,0,2.218,6.478,6.341,6.341,0,0,1,1.324,3.892v3.138a.6.6,0,0,0,.6.6h12.843a.6.6,0,0,0,.6-.6V-44.6a6.291,6.291,0,0,1,1.31-3.874,10.579,10.579,0,0,0,.976-1.5l8.243-14.278a1.116,1.116,0,0,0-.406-1.524" transform="translate(319.257 72.02)" fill="#fdd1a4"/>
          </g>
          <g id="g14282" transform="translate(20.786 32.918)">
            <path id="path14284" d="M-254.276-5.893a4.168,4.168,0,0,0-5.1.732l-7.364,12.755a10.594,10.594,0,0,1-.957,1.471,6.357,6.357,0,0,0-1.329,3.9A3.741,3.741,0,0,1-272.77,16.7h-5.676v1.713a.6.6,0,0,0,.6.6H-265a.6.6,0,0,0,.6-.6V15.277a6.291,6.291,0,0,1,1.31-3.874,10.579,10.579,0,0,0,.976-1.5l8.243-14.278a1.116,1.116,0,0,0-.406-1.524" transform="translate(278.446 6.453)" fill="#ffba84"/>
          </g>
          <g id="g14286" transform="translate(13.745 0.868)">
            <path id="path14288" d="M-295.929-255.179v-16.075a.144.144,0,0,0-.072-.124l-13.921-8.037a.143.143,0,0,0-.143,0l-13.921,8.037a.143.143,0,0,0-.072.124v16.075a.143.143,0,0,0,.072.124l13.921,8.038a.144.144,0,0,0,.143,0L-296-255.055a.143.143,0,0,0,.072-.124" transform="translate(324.058 279.435)" fill="#d1f1f4"/>
          </g>
          <g id="g14290" transform="translate(22.094 0.868)">
            <path id="path14292" d="M-207.338-84.758l-13.921-8.037a.143.143,0,0,0-.143,0l-.239.138L-214-88.246a4.209,4.209,0,0,1,2.1,3.645v11.38a4.209,4.209,0,0,1-2.1,3.645l-9.114,5.262a5.692,5.692,0,0,1-3.932.658L-221.4-60.4a.143.143,0,0,0,.143,0l13.921-8.037a.143.143,0,0,0,.072-.124V-84.633a.144.144,0,0,0-.072-.124" transform="translate(227.046 92.814)" fill="#a6e5f0"/>
          </g>
          <g id="g14294" transform="translate(17.244 17.592)">
            <path id="path14296" d="M-111.91-165.092l10.494-6.059v-5.223a2.641,2.641,0,0,0-2.641-2.641,2.641,2.641,0,0,0-2.641,2.641v-1.706a2.683,2.683,0,0,0-2.545-2.7,2.642,2.642,0,0,0-2.738,2.64v1.77a2.641,2.641,0,0,0-2.641-2.641,2.641,2.641,0,0,0-2.641,2.641v3.529a2.641,2.641,0,0,0-2.641-2.642h0a2.642,2.642,0,0,0-2.641,2.642v1.693l10.494,6.059a.143.143,0,0,0,.143,0" transform="translate(122.548 180.785)" fill="#a6e5f0"/>
          </g>
          <g id="g14298" transform="translate(22.094 19.837)">
            <path id="path14300" d="M-159.388,0V.625a4.209,4.209,0,0,1-2.1,3.645l-9.114,5.262a5.691,5.691,0,0,1-3.932.658l5.644,3.258a.143.143,0,0,0,.143,0l10.494-6.059V2.167A2.639,2.639,0,0,0-159.388,0" transform="translate(174.538)" fill="#69d9e5"/>
          </g>
          <g id="g14302" transform="translate(30.312 36.535)">
            <path id="path14304" d="M-84.824,0l-1.33,2.3a4.487,4.487,0,0,0-5.419.711,4.485,4.485,0,0,0,0,6.343" transform="translate(92.887)" fill="none" stroke="#000" stroke-linecap="round" stroke-linejoin="round" stroke-miterlimit="10" stroke-width="1"/>
          </g>
          <g id="g14306" transform="translate(17.244 27.226)">
            <path id="path14308" d="M0-156.7v2.158a10.52,10.52,0,0,0,2.237,6.5,6.274,6.274,0,0,1,1.305,3.868v3.138a.6.6,0,0,0,.6.6H16.987a.6.6,0,0,0,.6-.6v-3.139a6.358,6.358,0,0,1,1.329-3.9,10.6,10.6,0,0,0,.957-1.471l8.243-14.278a1.116,1.116,0,0,0-.406-1.524,4.166,4.166,0,0,0-5.694,1.524l-.887,1.537V-171.6" transform="translate(0 171.596)" fill="none" stroke="#000" stroke-linecap="round" stroke-linejoin="round" stroke-miterlimit="10" stroke-width="1"/>
          </g>
          <g id="g14310" transform="translate(17.244 27.226)">
            <path id="path14312" d="M0,0V10.728" fill="none" stroke="#000" stroke-linecap="round" stroke-linejoin="round" stroke-miterlimit="10" stroke-width="1"/>
          </g>
          <g id="g14314" transform="translate(22.527 25.533)">
            <path id="path14316" d="M0-87.439V-95.75" transform="translate(0 95.75)" fill="none" stroke="#000" stroke-linecap="round" stroke-linejoin="round" stroke-miterlimit="10" stroke-width="1"/>
          </g>
          <g id="g14318" transform="translate(27.809 22.004)">
            <path id="path14320" d="M0-26.944v-2.561" transform="translate(0 29.505)" fill="none" stroke="#000" stroke-linecap="round" stroke-linejoin="round" stroke-miterlimit="10" stroke-width="1"/>
          </g>
          <g id="g14322" transform="translate(27.809 28.615)">
            <path id="path14324" d="M0-55.007v-5.229" transform="translate(0 60.236)" fill="none" stroke="#000" stroke-linecap="round" stroke-linejoin="round" stroke-miterlimit="10" stroke-width="1"/>
          </g>
          <g id="g14326" transform="translate(33.092 22.004)">
            <path id="path14328" d="M0-124.567v-11.841" transform="translate(0 136.408)" fill="none" stroke="#000" stroke-linecap="round" stroke-linejoin="round" stroke-miterlimit="10" stroke-width="1"/>
          </g>
          <g id="g14330" transform="translate(13.745 0.868)">
            <path id="path14332" d="M-66.268-46.935l-6.227,3.6a.144.144,0,0,0-.072.124v16.075a.143.143,0,0,0,.072.124l13.921,8.037a.144.144,0,0,0,.143,0l13.921-8.037a.143.143,0,0,0,.072-.124V-43.216a.144.144,0,0,0-.072-.124L-58.43-51.377a.143.143,0,0,0-.143,0l-4.086,2.359" transform="translate(72.566 51.397)" fill="none" stroke="#000" stroke-linecap="round" stroke-linejoin="round" stroke-miterlimit="10" stroke-width="1"/>
          </g>
          <g id="g14334" transform="translate(17.244 17.592)">
            <path id="path14336" d="M-222.312-101.352v-5.159a2.683,2.683,0,0,0-2.545-2.7,2.641,2.641,0,0,0-2.738,2.64v-1.706a2.683,2.683,0,0,0-2.545-2.7,2.642,2.642,0,0,0-2.738,2.64v1.77a2.641,2.641,0,0,0-2.641-2.641,2.641,2.641,0,0,0-2.641,2.641v3.529a2.641,2.641,0,0,0-2.641-2.641h0a2.641,2.641,0,0,0-2.641,2.641v1.694" transform="translate(243.443 110.986)" fill="none" stroke="#000" stroke-linecap="round" stroke-linejoin="round" stroke-miterlimit="10" stroke-width="1"/>
          </g>
          <g id="g14338" transform="translate(17.218 10.971)">
            <path id="path14340" d="M-222.845,0l-10.591,6.115L-244.027,0" transform="translate(244.027)" fill="none" stroke="#000" stroke-linecap="round" stroke-linejoin="round" stroke-miterlimit="10" stroke-width="1"/>
          </g>
          <g id="g14342" transform="translate(27.809 17.086)">
            <path id="path14344" d="M0,0V6.9" fill="none" stroke="#000" stroke-linecap="round" stroke-linejoin="round" stroke-miterlimit="10" stroke-width="1"/>
          </g>
        </g>
      </g>
    </g>
    <path id="Trazado_1039722" data-name="Trazado 1039722" d="M14,0H206a14,14,0,0,1,14,14V152a14,14,0,0,1-14,14H14A14,14,0,0,1,0,152V14A14,14,0,0,1,14,0Z" transform="translate(-5917 -6542)" fill="#f3f0ea"/>
    <path id="Trazado_1039723" data-name="Trazado 1039723" d="M8.57,17H.773V15.453l3.68-3.922a9.078,9.078,0,0,0,1.121-1.445,2.322,2.322,0,0,0,.363-1.172,1.738,1.738,0,0,0-.383-1.191,1.382,1.382,0,0,0-1.094-.434,1.49,1.49,0,0,0-1.207.527A2.089,2.089,0,0,0,2.813,9.2H.547a3.729,3.729,0,0,1,.5-1.9,3.5,3.5,0,0,1,1.4-1.348A4.262,4.262,0,0,1,4.5,5.469a4.036,4.036,0,0,1,2.73.844A2.985,2.985,0,0,1,8.2,8.7a3.825,3.825,0,0,1-.437,1.719,9.551,9.551,0,0,1-1.5,2.039L3.68,15.18H8.57Zm1.594-1.109a1.137,1.137,0,0,1,.363-.875,1.412,1.412,0,0,1,1.828,0,1.137,1.137,0,0,1,.363.875,1.121,1.121,0,0,1-.359.863,1.435,1.435,0,0,1-1.836,0A1.121,1.121,0,0,1,10.164,15.891Zm11.008-2.9V17H18.828V5.625h4.438a5.134,5.134,0,0,1,2.254.469,3.454,3.454,0,0,1,1.5,1.332,3.714,3.714,0,0,1,.523,1.965,3.266,3.266,0,0,1-1.145,2.637,4.767,4.767,0,0,1-3.168.965Zm0-1.9h2.094a2.059,2.059,0,0,0,1.418-.437,1.591,1.591,0,0,0,.488-1.25,1.876,1.876,0,0,0-.492-1.352,1.839,1.839,0,0,0-1.359-.531H21.172Zm12.578-.43a6.134,6.134,0,0,0-.812-.062,1.654,1.654,0,0,0-1.68.867V17H29V8.547h2.133L31.2,9.555a2.092,2.092,0,0,1,1.883-1.164,2.366,2.366,0,0,1,.7.1ZM34.2,12.7a5.013,5.013,0,0,1,.484-2.242A3.546,3.546,0,0,1,36.082,8.93,4.069,4.069,0,0,1,38.2,8.391a3.849,3.849,0,0,1,2.793,1.047A4.2,4.2,0,0,1,42.2,12.281l.016.578a4.418,4.418,0,0,1-1.086,3.121,4.209,4.209,0,0,1-5.832,0A4.5,4.5,0,0,1,34.2,12.8Zm2.258.164a3.151,3.151,0,0,0,.453,1.84,1.629,1.629,0,0,0,2.578.008,3.448,3.448,0,0,0,.461-2.012,3.12,3.12,0,0,0-.461-1.828,1.5,1.5,0,0,0-1.3-.648,1.475,1.475,0,0,0-1.281.645A3.506,3.506,0,0,0,36.461,12.859Zm6.789-.148a5.094,5.094,0,0,1,.887-3.148,2.877,2.877,0,0,1,2.426-1.172,2.589,2.589,0,0,1,2.039.922V5h2.266V17H48.828l-.109-.9a2.657,2.657,0,0,1-2.172,1.055,2.869,2.869,0,0,1-2.395-1.176A5.258,5.258,0,0,1,43.25,12.711Zm2.258.164a3.328,3.328,0,0,0,.414,1.82,1.349,1.349,0,0,0,1.2.633,1.511,1.511,0,0,0,1.477-.883V11.109a1.489,1.489,0,0,0-1.461-.883Q45.508,10.227,45.508,12.875ZM57.68,16.141a2.831,2.831,0,0,1-2.312,1.016,2.67,2.67,0,0,1-2.074-.781,3.335,3.335,0,0,1-.73-2.289V8.547H54.82v5.461q0,1.32,1.2,1.32a1.631,1.631,0,0,0,1.578-.8V8.547h2.266V17H57.742Zm7.406-.8a1.481,1.481,0,0,0,1.016-.344,1.2,1.2,0,0,0,.406-.914h2.117a2.9,2.9,0,0,1-.469,1.574,3.093,3.093,0,0,1-1.262,1.109,3.949,3.949,0,0,1-1.77.395A3.67,3.67,0,0,1,62.266,16a4.56,4.56,0,0,1-1.047-3.184v-.148a4.508,4.508,0,0,1,1.039-3.117,3.627,3.627,0,0,1,2.852-1.164,3.555,3.555,0,0,1,2.543.9,3.2,3.2,0,0,1,.973,2.4H66.508a1.539,1.539,0,0,0-.406-1.066,1.513,1.513,0,0,0-2.223.164,3.324,3.324,0,0,0-.4,1.863v.234a3.366,3.366,0,0,0,.4,1.875A1.378,1.378,0,0,0,65.086,15.336Zm8.344,0a1.481,1.481,0,0,0,1.016-.344,1.2,1.2,0,0,0,.406-.914h2.117a2.9,2.9,0,0,1-.469,1.574,3.093,3.093,0,0,1-1.262,1.109,3.949,3.949,0,0,1-1.77.395A3.67,3.67,0,0,1,70.609,16a4.56,4.56,0,0,1-1.047-3.184v-.148A4.508,4.508,0,0,1,70.6,9.555a3.627,3.627,0,0,1,2.852-1.164,3.555,3.555,0,0,1,2.543.9,3.2,3.2,0,0,1,.973,2.4H74.852a1.539,1.539,0,0,0-.406-1.066,1.513,1.513,0,0,0-2.223.164,3.324,3.324,0,0,0-.4,1.863v.234a3.366,3.366,0,0,0,.4,1.875A1.378,1.378,0,0,0,73.43,15.336ZM80.641,17H78.375V8.547h2.266Zm-2.4-10.641a1.112,1.112,0,0,1,.34-.836,1.465,1.465,0,0,1,1.848,0,1.105,1.105,0,0,1,.344.836,1.108,1.108,0,0,1-.348.844,1.448,1.448,0,0,1-1.836,0A1.108,1.108,0,0,1,78.242,6.359ZM82.148,12.7a5.013,5.013,0,0,1,.484-2.242A3.546,3.546,0,0,1,84.027,8.93a4.069,4.069,0,0,1,2.113-.539,3.849,3.849,0,0,1,2.793,1.047,4.2,4.2,0,0,1,1.207,2.844l.016.578A4.418,4.418,0,0,1,89.07,15.98a4.209,4.209,0,0,1-5.832,0,4.5,4.5,0,0,1-1.09-3.187Zm2.258.164a3.151,3.151,0,0,0,.453,1.84,1.629,1.629,0,0,0,2.578.008A3.448,3.448,0,0,0,87.9,12.7a3.12,3.12,0,0,0-.461-1.828,1.5,1.5,0,0,0-1.3-.648,1.475,1.475,0,0,0-1.281.645A3.506,3.506,0,0,0,84.406,12.859ZM86.586,5h2.461L86.883,7.422H85.047Zm7.039,3.547.07.977a2.951,2.951,0,0,1,2.43-1.133,2.453,2.453,0,0,1,2,.789,3.682,3.682,0,0,1,.672,2.359V17H96.539V11.594a1.465,1.465,0,0,0-.312-1.043,1.4,1.4,0,0,0-1.039-.324,1.553,1.553,0,0,0-1.43.813V17H91.5V8.547Zm-82.3,44.445V57H8.984V45.625h4.438a5.134,5.134,0,0,1,2.254.469,3.454,3.454,0,0,1,1.5,1.332,3.714,3.714,0,0,1,.523,1.965,3.266,3.266,0,0,1-1.145,2.637,4.767,4.767,0,0,1-3.168.965Zm0-1.9h2.094a2.059,2.059,0,0,0,1.418-.437,1.591,1.591,0,0,0,.488-1.25,1.876,1.876,0,0,0-.492-1.352,1.839,1.839,0,0,0-1.359-.531H11.328Zm12.578-.43a6.134,6.134,0,0,0-.812-.062,1.654,1.654,0,0,0-1.68.867V57H19.156V48.547h2.133l.063,1.008a2.092,2.092,0,0,1,1.883-1.164,2.366,2.366,0,0,1,.7.1Zm.453,2.031a5.013,5.013,0,0,1,.484-2.242,3.546,3.546,0,0,1,1.395-1.523,4.069,4.069,0,0,1,2.113-.539,3.849,3.849,0,0,1,2.793,1.047,4.2,4.2,0,0,1,1.207,2.844l.016.578a4.418,4.418,0,0,1-1.086,3.121,3.775,3.775,0,0,1-2.914,1.176,3.793,3.793,0,0,1-2.918-1.172,4.5,4.5,0,0,1-1.09-3.187Zm2.258.164a3.151,3.151,0,0,0,.453,1.84,1.629,1.629,0,0,0,2.578.008,3.448,3.448,0,0,0,.461-2.012,3.12,3.12,0,0,0-.461-1.828,1.5,1.5,0,0,0-1.3-.648,1.475,1.475,0,0,0-1.281.645A3.506,3.506,0,0,0,26.617,52.859Zm6.789-.148a5.094,5.094,0,0,1,.887-3.148,2.877,2.877,0,0,1,2.426-1.172,2.589,2.589,0,0,1,2.039.922V45h2.266V57H38.984l-.109-.9A2.657,2.657,0,0,1,36.7,57.156a2.869,2.869,0,0,1-2.395-1.176A5.258,5.258,0,0,1,33.406,52.711Zm2.258.164a3.328,3.328,0,0,0,.414,1.82,1.349,1.349,0,0,0,1.2.633,1.511,1.511,0,0,0,1.477-.883V51.109a1.489,1.489,0,0,0-1.461-.883Q35.664,50.227,35.664,52.875Zm12.172,3.266a2.831,2.831,0,0,1-2.312,1.016,2.67,2.67,0,0,1-2.074-.781,3.335,3.335,0,0,1-.73-2.289V48.547h2.258v5.461q0,1.32,1.2,1.32a1.631,1.631,0,0,0,1.578-.8V48.547h2.266V57H47.9Zm7.406-.8a1.481,1.481,0,0,0,1.016-.344,1.2,1.2,0,0,0,.406-.914h2.117a2.9,2.9,0,0,1-.469,1.574,3.093,3.093,0,0,1-1.262,1.109,3.949,3.949,0,0,1-1.77.395A3.67,3.67,0,0,1,52.422,56a4.56,4.56,0,0,1-1.047-3.184v-.148a4.508,4.508,0,0,1,1.039-3.117,3.627,3.627,0,0,1,2.852-1.164,3.555,3.555,0,0,1,2.543.9,3.2,3.2,0,0,1,.973,2.4H56.664a1.539,1.539,0,0,0-.406-1.066,1.513,1.513,0,0,0-2.223.164,3.324,3.324,0,0,0-.4,1.863v.234a3.366,3.366,0,0,0,.4,1.875A1.378,1.378,0,0,0,55.242,55.336Zm7.531-8.867v2.078h1.445V50.2H62.773v4.219a1.007,1.007,0,0,0,.18.672.9.9,0,0,0,.688.2,3.6,3.6,0,0,0,.664-.055v1.711a4.648,4.648,0,0,1-1.367.2,2.156,2.156,0,0,1-2.422-2.4V50.2H59.281V48.547h1.234V46.469ZM64.891,52.7a5.013,5.013,0,0,1,.484-2.242A3.546,3.546,0,0,1,66.77,48.93a4.069,4.069,0,0,1,2.113-.539,3.849,3.849,0,0,1,2.793,1.047,4.2,4.2,0,0,1,1.207,2.844l.016.578a4.418,4.418,0,0,1-1.086,3.121,4.209,4.209,0,0,1-5.832,0,4.5,4.5,0,0,1-1.09-3.187Zm2.258.164A3.151,3.151,0,0,0,67.6,54.7a1.629,1.629,0,0,0,2.578.008,3.448,3.448,0,0,0,.461-2.012,3.12,3.12,0,0,0-.461-1.828,1.5,1.5,0,0,0-1.3-.648,1.475,1.475,0,0,0-1.281.645A3.506,3.506,0,0,0,67.148,52.859Zm7.25,3.031a1.137,1.137,0,0,1,.363-.875,1.412,1.412,0,0,1,1.828,0,1.137,1.137,0,0,1,.363.875,1.121,1.121,0,0,1-.359.863,1.435,1.435,0,0,1-1.836,0A1.121,1.121,0,0,1,74.4,55.891Zm0-6.4a1.137,1.137,0,0,1,.363-.875,1.412,1.412,0,0,1,1.828,0,1.137,1.137,0,0,1,.363.875,1.121,1.121,0,0,1-.359.863,1.435,1.435,0,0,1-1.836,0A1.121,1.121,0,0,1,74.4,49.492Zm13.516,5.266a1.064,1.064,0,0,0-.441-.91,4.249,4.249,0,0,0-1.539-.559,7.277,7.277,0,0,1-1.742-.562,2.479,2.479,0,0,1-.953-.781,1.869,1.869,0,0,1-.309-1.078,2.193,2.193,0,0,1,.879-1.758,3.432,3.432,0,0,1,2.246-.719,3.532,3.532,0,0,1,2.332.742,2.357,2.357,0,0,1,.895,1.9H87.828a1.3,1.3,0,0,0-.5-1.023,1.888,1.888,0,0,0-1.27-.43,1.976,1.976,0,0,0-1.234.344,1.082,1.082,0,0,0-.445.9.877.877,0,0,0,.414.789,5.1,5.1,0,0,0,1.5.508,7.8,7.8,0,0,1,1.754.578,2.558,2.558,0,0,1,1,.809,1.988,1.988,0,0,1,.324,1.152,2.163,2.163,0,0,1-.906,1.816,3.8,3.8,0,0,1-2.352.684,4.257,4.257,0,0,1-1.8-.359,2.922,2.922,0,0,1-1.223-1,2.42,2.42,0,0,1-.441-1.395h1.445a1.5,1.5,0,0,0,.582,1.152,2.258,2.258,0,0,0,1.434.426,2.331,2.331,0,0,0,1.316-.332A1.02,1.02,0,0,0,87.914,54.758Zm6.836,2.4a3.693,3.693,0,0,1-2.8-1.129,4.19,4.19,0,0,1-1.078-3.02v-.266a5.073,5.073,0,0,1,.48-2.246A3.748,3.748,0,0,1,92.7,48.949a3.378,3.378,0,0,1,1.871-.559,3.166,3.166,0,0,1,2.563,1.086,4.7,4.7,0,0,1,.914,3.109v.6H92.32a3,3,0,0,0,.73,2.02,2.3,2.3,0,0,0,1.777.77,2.517,2.517,0,0,0,1.3-.312,3.259,3.259,0,0,0,.93-.828l.883.688A3.55,3.55,0,0,1,94.75,57.156Zm-.18-7.578a1.928,1.928,0,0,0-1.469.637A3.1,3.1,0,0,0,92.367,52H96.6v-.109a2.753,2.753,0,0,0-.594-1.707A1.815,1.815,0,0,0,94.57,49.578ZM104.391,57V49.664h-1.336V48.547h1.336V47.68a2.878,2.878,0,0,1,.727-2.1,2.745,2.745,0,0,1,2.055-.742,3.793,3.793,0,0,1,.992.133l-.078,1.172a4.151,4.151,0,0,0-.781-.07,1.413,1.413,0,0,0-1.086.41,1.66,1.66,0,0,0-.383,1.176v.891h1.8v1.117h-1.8V57Zm10.063,0a3.036,3.036,0,0,1-.2-.891,3.225,3.225,0,0,1-2.406,1.047,2.984,2.984,0,0,1-2.051-.707,2.288,2.288,0,0,1-.8-1.793,2.39,2.39,0,0,1,1-2.051,4.733,4.733,0,0,1,2.824-.73h1.406v-.664A1.623,1.623,0,0,0,113.773,50a1.821,1.821,0,0,0-1.336-.449,2.107,2.107,0,0,0-1.3.391,1.151,1.151,0,0,0-.523.945h-1.453a2,2,0,0,1,.449-1.223,3.066,3.066,0,0,1,1.219-.934,4.1,4.1,0,0,1,1.691-.344,3.342,3.342,0,0,1,2.289.73,2.635,2.635,0,0,1,.859,2.012v3.891a4.757,4.757,0,0,0,.3,1.852V57Zm-2.4-1.1a2.54,2.54,0,0,0,1.289-.352,2.127,2.127,0,0,0,.883-.914V52.9h-1.133q-2.656,0-2.656,1.555a1.316,1.316,0,0,0,.453,1.063A1.742,1.742,0,0,0,112.055,55.9Zm13.039-3.031a5.026,5.026,0,0,1-.891,3.113,2.846,2.846,0,0,1-2.391,1.176,2.947,2.947,0,0,1-2.477-1.133l-.07.977h-1.328V45h1.445v4.477a2.93,2.93,0,0,1,2.414-1.086,2.863,2.863,0,0,1,2.418,1.164,5.177,5.177,0,0,1,.879,3.188Zm-1.445-.164a3.906,3.906,0,0,0-.57-2.281,1.888,1.888,0,0,0-1.641-.8,2.122,2.122,0,0,0-2.055,1.328V54.6a2.181,2.181,0,0,0,2.07,1.328,1.878,1.878,0,0,0,1.617-.8A4.153,4.153,0,0,0,123.648,52.7ZM131,49.844a4.331,4.331,0,0,0-.711-.055A1.9,1.9,0,0,0,128.359,51v6h-1.445V48.547h1.406l.023.977a2.251,2.251,0,0,1,2.016-1.133A1.477,1.477,0,0,1,131,48.5ZM133.9,57h-1.445V48.547H133.9Zm-1.562-10.7a.863.863,0,0,1,.215-.594.807.807,0,0,1,.637-.242.819.819,0,0,1,.641.242.854.854,0,0,1,.219.594.826.826,0,0,1-.219.586.834.834,0,0,1-.641.234.821.821,0,0,1-.637-.234A.834.834,0,0,1,132.336,46.3Zm7.266,9.672a2.082,2.082,0,0,0,1.352-.469,1.649,1.649,0,0,0,.641-1.172h1.367a2.621,2.621,0,0,1-.5,1.383,3.293,3.293,0,0,1-1.23,1.047,3.55,3.55,0,0,1-1.629.391A3.482,3.482,0,0,1,136.855,56a4.59,4.59,0,0,1-1.02-3.152v-.242a5.089,5.089,0,0,1,.453-2.2,3.451,3.451,0,0,1,1.3-1.492,3.7,3.7,0,0,1,2-.531,3.39,3.39,0,0,1,2.363.852,3.043,3.043,0,0,1,1,2.211h-1.367a1.992,1.992,0,0,0-.621-1.348,1.932,1.932,0,0,0-1.379-.527,2.023,2.023,0,0,0-1.707.793,3.724,3.724,0,0,0-.605,2.293v.273a3.65,3.65,0,0,0,.6,2.25A2.033,2.033,0,0,0,139.6,55.977ZM149.8,57a3.036,3.036,0,0,1-.2-.891,3.225,3.225,0,0,1-2.406,1.047,2.984,2.984,0,0,1-2.051-.707,2.287,2.287,0,0,1-.8-1.793,2.39,2.39,0,0,1,1-2.051,4.733,4.733,0,0,1,2.824-.73h1.406v-.664A1.623,1.623,0,0,0,149.125,50a1.821,1.821,0,0,0-1.336-.449,2.107,2.107,0,0,0-1.3.391,1.151,1.151,0,0,0-.523.945h-1.453a2,2,0,0,1,.449-1.223,3.066,3.066,0,0,1,1.219-.934,4.1,4.1,0,0,1,1.691-.344,3.342,3.342,0,0,1,2.289.73,2.635,2.635,0,0,1,.859,2.012v3.891a4.757,4.757,0,0,0,.3,1.852V57Zm-2.4-1.1a2.54,2.54,0,0,0,1.289-.352,2.127,2.127,0,0,0,.883-.914V52.9h-1.133q-2.656,0-2.656,1.555a1.316,1.316,0,0,0,.453,1.063A1.742,1.742,0,0,0,147.406,55.9ZM14.234,77a3.036,3.036,0,0,1-.2-.891,3.225,3.225,0,0,1-2.406,1.047,2.984,2.984,0,0,1-2.051-.707,2.287,2.287,0,0,1-.8-1.793,2.39,2.39,0,0,1,1-2.051,4.733,4.733,0,0,1,2.824-.73h1.406v-.664A1.623,1.623,0,0,0,13.555,70a1.821,1.821,0,0,0-1.336-.449,2.108,2.108,0,0,0-1.3.391,1.151,1.151,0,0,0-.523.945H8.945a2,2,0,0,1,.449-1.223,3.066,3.066,0,0,1,1.219-.934,4.1,4.1,0,0,1,1.691-.344,3.342,3.342,0,0,1,2.289.73,2.635,2.635,0,0,1,.859,2.012v3.891a4.757,4.757,0,0,0,.3,1.852V77Zm-2.4-1.1a2.54,2.54,0,0,0,1.289-.352,2.127,2.127,0,0,0,.883-.914V72.9H12.875q-2.656,0-2.656,1.555a1.316,1.316,0,0,0,.453,1.063A1.742,1.742,0,0,0,11.836,75.9Zm7.25-7.352.047,1.063a3.08,3.08,0,0,1,2.531-1.219q2.68,0,2.7,3.023V77H22.922V71.406a1.946,1.946,0,0,0-.418-1.352,1.675,1.675,0,0,0-1.277-.437,2.086,2.086,0,0,0-1.234.375,2.546,2.546,0,0,0-.828.984V77H17.719V68.547ZM28.508,66.5v2.047h1.578v1.117H28.508v5.242a1.171,1.171,0,0,0,.211.762.888.888,0,0,0,.719.254,3.5,3.5,0,0,0,.688-.094V77a4.19,4.19,0,0,1-1.109.156,1.8,1.8,0,0,1-1.461-.586,2.517,2.517,0,0,1-.492-1.664V69.664H25.523V68.547h1.539V66.5Zm6.773,10.656a3.693,3.693,0,0,1-2.8-1.129,4.19,4.19,0,0,1-1.078-3.02v-.266a5.073,5.073,0,0,1,.48-2.246,3.748,3.748,0,0,1,1.344-1.547,3.378,3.378,0,0,1,1.871-.559,3.166,3.166,0,0,1,2.563,1.086,4.7,4.7,0,0,1,.914,3.109v.6H32.852a3,3,0,0,0,.73,2.02,2.3,2.3,0,0,0,1.777.77,2.517,2.517,0,0,0,1.3-.312,3.259,3.259,0,0,0,.93-.828l.883.688A3.55,3.55,0,0,1,35.281,77.156Zm-.18-7.578a1.928,1.928,0,0,0-1.469.637A3.1,3.1,0,0,0,32.9,72h4.234v-.109a2.753,2.753,0,0,0-.594-1.707A1.815,1.815,0,0,0,35.1,69.578Zm10.07,5.18a1.064,1.064,0,0,0-.441-.91,4.249,4.249,0,0,0-1.539-.559,7.277,7.277,0,0,1-1.742-.562,2.479,2.479,0,0,1-.953-.781,1.869,1.869,0,0,1-.309-1.078,2.193,2.193,0,0,1,.879-1.758,3.432,3.432,0,0,1,2.246-.719,3.532,3.532,0,0,1,2.332.742,2.357,2.357,0,0,1,.895,1.9H45.086a1.3,1.3,0,0,0-.5-1.023,1.888,1.888,0,0,0-1.27-.43,1.976,1.976,0,0,0-1.234.344,1.082,1.082,0,0,0-.445.9.877.877,0,0,0,.414.789,5.1,5.1,0,0,0,1.5.508A7.8,7.8,0,0,1,45.3,72.7a2.558,2.558,0,0,1,1,.809,1.988,1.988,0,0,1,.324,1.152,2.163,2.163,0,0,1-.906,1.816,3.8,3.8,0,0,1-2.352.684,4.257,4.257,0,0,1-1.8-.359,2.922,2.922,0,0,1-1.223-1A2.42,2.42,0,0,1,39.9,74.4h1.445a1.5,1.5,0,0,0,.582,1.152,2.258,2.258,0,0,0,1.434.426,2.331,2.331,0,0,0,1.316-.332A1.02,1.02,0,0,0,45.172,74.758Zm10.055.125L57.2,68.547h1.547l-3.4,9.758q-.789,2.109-2.508,2.109l-.273-.023-.539-.1V79.117l.391.031a1.923,1.923,0,0,0,1.145-.3,2.148,2.148,0,0,0,.676-1.086l.32-.859-3.016-8.359h1.578Zm13.688-.125a1.064,1.064,0,0,0-.441-.91,4.249,4.249,0,0,0-1.539-.559,7.277,7.277,0,0,1-1.742-.562,2.478,2.478,0,0,1-.953-.781,1.869,1.869,0,0,1-.309-1.078,2.193,2.193,0,0,1,.879-1.758,3.432,3.432,0,0,1,2.246-.719,3.532,3.532,0,0,1,2.332.742,2.357,2.357,0,0,1,.895,1.9H68.828a1.3,1.3,0,0,0-.5-1.023,1.888,1.888,0,0,0-1.27-.43,1.976,1.976,0,0,0-1.234.344,1.082,1.082,0,0,0-.445.9.877.877,0,0,0,.414.789,5.1,5.1,0,0,0,1.5.508,7.8,7.8,0,0,1,1.754.578,2.559,2.559,0,0,1,1,.809,1.988,1.988,0,0,1,.324,1.152,2.163,2.163,0,0,1-.906,1.816,3.8,3.8,0,0,1-2.352.684,4.257,4.257,0,0,1-1.8-.359,2.922,2.922,0,0,1-1.223-1,2.42,2.42,0,0,1-.441-1.395h1.445a1.5,1.5,0,0,0,.582,1.152,2.258,2.258,0,0,0,1.434.426,2.331,2.331,0,0,0,1.316-.332A1.02,1.02,0,0,0,68.914,74.758Zm6.836,2.4a3.693,3.693,0,0,1-2.8-1.129,4.19,4.19,0,0,1-1.078-3.02v-.266a5.073,5.073,0,0,1,.48-2.246A3.748,3.748,0,0,1,73.7,68.949a3.378,3.378,0,0,1,1.871-.559,3.166,3.166,0,0,1,2.563,1.086,4.7,4.7,0,0,1,.914,3.109v.6H73.32a3,3,0,0,0,.73,2.02,2.3,2.3,0,0,0,1.777.77,2.517,2.517,0,0,0,1.3-.312,3.259,3.259,0,0,0,.93-.828l.883.688A3.55,3.55,0,0,1,75.75,77.156Zm-.18-7.578a1.928,1.928,0,0,0-1.469.637A3.1,3.1,0,0,0,73.367,72H77.6v-.109a2.753,2.753,0,0,0-.594-1.707A1.815,1.815,0,0,0,75.57,69.578ZM89.9,77a3.036,3.036,0,0,1-.2-.891,3.225,3.225,0,0,1-2.406,1.047,2.984,2.984,0,0,1-2.051-.707,2.287,2.287,0,0,1-.8-1.793,2.39,2.39,0,0,1,1-2.051,4.733,4.733,0,0,1,2.824-.73h1.406v-.664A1.623,1.623,0,0,0,89.219,70a1.821,1.821,0,0,0-1.336-.449,2.108,2.108,0,0,0-1.3.391,1.151,1.151,0,0,0-.523.945H84.609a2,2,0,0,1,.449-1.223,3.066,3.066,0,0,1,1.219-.934,4.1,4.1,0,0,1,1.691-.344,3.342,3.342,0,0,1,2.289.73,2.635,2.635,0,0,1,.859,2.012v3.891a4.757,4.757,0,0,0,.3,1.852V77Zm-2.4-1.1a2.54,2.54,0,0,0,1.289-.352,2.127,2.127,0,0,0,.883-.914V72.9H88.539q-2.656,0-2.656,1.555a1.316,1.316,0,0,0,.453,1.063A1.742,1.742,0,0,0,87.5,75.9ZM94.953,77H93.508V65h1.445Zm3.672-8.453.039.938a3.122,3.122,0,0,1,2.508-1.094,2.417,2.417,0,0,1,2.414,1.359,3.2,3.2,0,0,1,1.1-.984,3.242,3.242,0,0,1,1.6-.375q2.781,0,2.828,2.945V77h-1.445V71.422a1.941,1.941,0,0,0-.414-1.355,1.823,1.823,0,0,0-1.391-.449,1.916,1.916,0,0,0-1.336.48,1.949,1.949,0,0,0-.617,1.293V77h-1.453V71.461a1.613,1.613,0,0,0-1.8-1.844A1.934,1.934,0,0,0,98.7,70.828V77H97.258V68.547ZM116.508,77a3.036,3.036,0,0,1-.2-.891,3.225,3.225,0,0,1-2.406,1.047,2.984,2.984,0,0,1-2.051-.707,2.287,2.287,0,0,1-.8-1.793,2.39,2.39,0,0,1,1-2.051,4.733,4.733,0,0,1,2.824-.73h1.406v-.664A1.623,1.623,0,0,0,115.828,70a1.821,1.821,0,0,0-1.336-.449,2.108,2.108,0,0,0-1.3.391,1.151,1.151,0,0,0-.523.945h-1.453a2,2,0,0,1,.449-1.223,3.066,3.066,0,0,1,1.219-.934,4.1,4.1,0,0,1,1.691-.344,3.342,3.342,0,0,1,2.289.73,2.635,2.635,0,0,1,.859,2.012v3.891a4.757,4.757,0,0,0,.3,1.852V77Zm-2.4-1.1a2.54,2.54,0,0,0,1.289-.352,2.127,2.127,0,0,0,.883-.914V72.9h-1.133q-2.656,0-2.656,1.555a1.316,1.316,0,0,0,.453,1.063A1.742,1.742,0,0,0,114.109,75.9Zm9.273.078a2.082,2.082,0,0,0,1.352-.469,1.649,1.649,0,0,0,.641-1.172h1.367a2.621,2.621,0,0,1-.5,1.383,3.293,3.293,0,0,1-1.23,1.047,3.55,3.55,0,0,1-1.629.391A3.482,3.482,0,0,1,120.637,76a4.59,4.59,0,0,1-1.02-3.152v-.242a5.089,5.089,0,0,1,.453-2.2,3.451,3.451,0,0,1,1.3-1.492,3.7,3.7,0,0,1,2-.531,3.39,3.39,0,0,1,2.363.852,3.043,3.043,0,0,1,1,2.211h-1.367a1.992,1.992,0,0,0-.621-1.348,1.932,1.932,0,0,0-1.379-.527,2.023,2.023,0,0,0-1.707.793,3.724,3.724,0,0,0-.605,2.293v.273a3.65,3.65,0,0,0,.6,2.25A2.033,2.033,0,0,0,123.383,75.977Zm8.492,1.18a3.693,3.693,0,0,1-2.8-1.129A4.19,4.19,0,0,1,128,73.008v-.266a5.073,5.073,0,0,1,.48-2.246,3.748,3.748,0,0,1,1.344-1.547,3.378,3.378,0,0,1,1.871-.559,3.166,3.166,0,0,1,2.563,1.086,4.7,4.7,0,0,1,.914,3.109v.6h-5.727a3,3,0,0,0,.73,2.02,2.3,2.3,0,0,0,1.777.77,2.517,2.517,0,0,0,1.3-.312,3.258,3.258,0,0,0,.93-.828l.883.688A3.55,3.55,0,0,1,131.875,77.156Zm-.18-7.578a1.928,1.928,0,0,0-1.469.637A3.1,3.1,0,0,0,129.492,72h4.234v-.109a2.753,2.753,0,0,0-.594-1.707A1.815,1.815,0,0,0,131.7,69.578Zm6.516-1.031.047,1.063a3.08,3.08,0,0,1,2.531-1.219q2.68,0,2.7,3.023V77h-1.445V71.406a1.946,1.946,0,0,0-.418-1.352,1.675,1.675,0,0,0-1.277-.437,2.086,2.086,0,0,0-1.234.375,2.546,2.546,0,0,0-.828.984V77h-1.445V68.547ZM150.891,77a3.036,3.036,0,0,1-.2-.891,3.225,3.225,0,0,1-2.406,1.047,2.984,2.984,0,0,1-2.051-.707,2.287,2.287,0,0,1-.8-1.793,2.39,2.39,0,0,1,1-2.051,4.733,4.733,0,0,1,2.824-.73h1.406v-.664A1.623,1.623,0,0,0,150.211,70a1.821,1.821,0,0,0-1.336-.449,2.108,2.108,0,0,0-1.3.391,1.151,1.151,0,0,0-.523.945H145.6a2,2,0,0,1,.449-1.223,3.066,3.066,0,0,1,1.219-.934,4.1,4.1,0,0,1,1.691-.344,3.342,3.342,0,0,1,2.289.73,2.635,2.635,0,0,1,.859,2.012v3.891a4.757,4.757,0,0,0,.3,1.852V77Zm-2.4-1.1a2.54,2.54,0,0,0,1.289-.352,2.127,2.127,0,0,0,.883-.914V72.9h-1.133q-2.656,0-2.656,1.555a1.316,1.316,0,0,0,.453,1.063A1.742,1.742,0,0,0,148.492,75.9Zm5.914.344a.905.905,0,0,1,.223-.625.848.848,0,0,1,.668-.25.874.874,0,0,1,.676.25.887.887,0,0,1,.23.625.839.839,0,0,1-.23.6.89.89,0,0,1-.676.242.8.8,0,0,1-.891-.844ZM14.883,94.016A1.2,1.2,0,0,0,14.414,93a6.148,6.148,0,0,0-1.687-.75,11.963,11.963,0,0,1-1.93-.777,3.153,3.153,0,0,1-1.937-2.82A2.747,2.747,0,0,1,9.379,87a3.389,3.389,0,0,1,1.492-1.129,5.616,5.616,0,0,1,2.184-.406,5.112,5.112,0,0,1,2.172.441,3.458,3.458,0,0,1,1.48,1.246,3.261,3.261,0,0,1,.527,1.828H14.891A1.534,1.534,0,0,0,14.4,87.77a2.023,2.023,0,0,0-1.383-.434,2.162,2.162,0,0,0-1.336.363,1.146,1.146,0,0,0-.477.957,1.1,1.1,0,0,0,.559.93,6.311,6.311,0,0,0,1.645.7,7.106,7.106,0,0,1,2.914,1.492A2.972,2.972,0,0,1,17.234,94a2.737,2.737,0,0,1-1.117,2.316,4.891,4.891,0,0,1-3.008.84,5.808,5.808,0,0,1-2.391-.48,3.783,3.783,0,0,1-1.645-1.316,3.371,3.371,0,0,1-.566-1.937h2.352q0,1.883,2.25,1.883a2.189,2.189,0,0,0,1.3-.34A1.106,1.106,0,0,0,14.883,94.016Zm7.68,3.141a4.15,4.15,0,0,1-3.027-1.141,4.054,4.054,0,0,1-1.168-3.039v-.219a5.106,5.106,0,0,1,.492-2.277,3.612,3.612,0,0,1,1.395-1.547,3.914,3.914,0,0,1,2.059-.543,3.508,3.508,0,0,1,2.73,1.094,4.444,4.444,0,0,1,1,3.1v.922H20.656a2.1,2.1,0,0,0,.66,1.328,2,2,0,0,0,1.395.5,2.437,2.437,0,0,0,2.039-.945l1.109,1.242a3.389,3.389,0,0,1-1.375,1.121A4.511,4.511,0,0,1,22.563,97.156ZM22.3,90.219a1.414,1.414,0,0,0-1.09.453,2.341,2.341,0,0,0-.535,1.3H23.82v-.18a1.669,1.669,0,0,0-.406-1.16A1.459,1.459,0,0,0,22.3,90.219Zm9.766.445a6.134,6.134,0,0,0-.812-.062,1.654,1.654,0,0,0-1.68.867V97H27.32V88.547h2.133l.063,1.008A2.092,2.092,0,0,1,31.4,88.391a2.366,2.366,0,0,1,.7.1Zm4.391,3.578,1.57-5.7h2.359L37.539,97H35.383l-2.852-8.453h2.359ZM43.766,97H41.5V88.547h2.266Zm-2.4-10.641a1.112,1.112,0,0,1,.34-.836,1.465,1.465,0,0,1,1.848,0,1.193,1.193,0,0,1,0,1.68,1.448,1.448,0,0,1-1.836,0A1.108,1.108,0,0,1,41.367,86.359Zm7.773,8.977a1.481,1.481,0,0,0,1.016-.344,1.2,1.2,0,0,0,.406-.914H52.68a2.9,2.9,0,0,1-.469,1.574,3.093,3.093,0,0,1-1.262,1.109,3.949,3.949,0,0,1-1.77.395A3.67,3.67,0,0,1,46.32,96a4.56,4.56,0,0,1-1.047-3.184v-.148a4.508,4.508,0,0,1,1.039-3.117,3.627,3.627,0,0,1,2.852-1.164,3.555,3.555,0,0,1,2.543.9,3.2,3.2,0,0,1,.973,2.4H50.563a1.539,1.539,0,0,0-.406-1.066,1.513,1.513,0,0,0-2.223.164,3.324,3.324,0,0,0-.4,1.863v.234a3.366,3.366,0,0,0,.4,1.875A1.378,1.378,0,0,0,49.141,95.336ZM56.352,97H54.086V88.547h2.266Zm-2.4-10.641a1.112,1.112,0,0,1,.34-.836,1.465,1.465,0,0,1,1.848,0,1.193,1.193,0,0,1,0,1.68,1.448,1.448,0,0,1-1.836,0A1.108,1.108,0,0,1,53.953,86.359ZM57.859,92.7a5.013,5.013,0,0,1,.484-2.242,3.546,3.546,0,0,1,1.395-1.523,4.069,4.069,0,0,1,2.113-.539,3.849,3.849,0,0,1,2.793,1.047,4.2,4.2,0,0,1,1.207,2.844l.016.578a4.418,4.418,0,0,1-1.086,3.121,4.209,4.209,0,0,1-5.832,0,4.5,4.5,0,0,1-1.09-3.187Zm2.258.164a3.151,3.151,0,0,0,.453,1.84,1.629,1.629,0,0,0,2.578.008,3.448,3.448,0,0,0,.461-2.012,3.12,3.12,0,0,0-.461-1.828,1.5,1.5,0,0,0-1.3-.648,1.475,1.475,0,0,0-1.281.645A3.506,3.506,0,0,0,60.117,92.859Zm7.25,3.031a1.137,1.137,0,0,1,.363-.875,1.412,1.412,0,0,1,1.828,0,1.137,1.137,0,0,1,.363.875,1.121,1.121,0,0,1-.359.863,1.435,1.435,0,0,1-1.836,0A1.121,1.121,0,0,1,67.367,95.891Zm0-6.4a1.137,1.137,0,0,1,.363-.875,1.412,1.412,0,0,1,1.828,0,1.137,1.137,0,0,1,.363.875,1.121,1.121,0,0,1-.359.863,1.435,1.435,0,0,1-1.836,0A1.121,1.121,0,0,1,67.367,89.492Zm13.516,5.266a1.064,1.064,0,0,0-.441-.91,4.249,4.249,0,0,0-1.539-.559,7.277,7.277,0,0,1-1.742-.562,2.478,2.478,0,0,1-.953-.781,1.869,1.869,0,0,1-.309-1.078,2.193,2.193,0,0,1,.879-1.758,3.432,3.432,0,0,1,2.246-.719,3.532,3.532,0,0,1,2.332.742,2.357,2.357,0,0,1,.895,1.9H80.8a1.3,1.3,0,0,0-.5-1.023,1.888,1.888,0,0,0-1.27-.43,1.976,1.976,0,0,0-1.234.344,1.082,1.082,0,0,0-.445.9.877.877,0,0,0,.414.789,5.1,5.1,0,0,0,1.5.508,7.8,7.8,0,0,1,1.754.578,2.559,2.559,0,0,1,1,.809,1.988,1.988,0,0,1,.324,1.152,2.163,2.163,0,0,1-.906,1.816,3.8,3.8,0,0,1-2.352.684,4.257,4.257,0,0,1-1.8-.359,2.922,2.922,0,0,1-1.223-1,2.42,2.42,0,0,1-.441-1.395h1.445a1.5,1.5,0,0,0,.582,1.152,2.258,2.258,0,0,0,1.434.426,2.331,2.331,0,0,0,1.316-.332A1.02,1.02,0,0,0,80.883,94.758Zm6.836,2.4a3.693,3.693,0,0,1-2.8-1.129,4.19,4.19,0,0,1-1.078-3.02v-.266a5.073,5.073,0,0,1,.48-2.246,3.748,3.748,0,0,1,1.344-1.547,3.378,3.378,0,0,1,1.871-.559A3.166,3.166,0,0,1,90.1,89.477a4.7,4.7,0,0,1,.914,3.109v.6H85.289a3,3,0,0,0,.73,2.02,2.3,2.3,0,0,0,1.777.77,2.517,2.517,0,0,0,1.3-.312,3.259,3.259,0,0,0,.93-.828l.883.688A3.55,3.55,0,0,1,87.719,97.156Zm-.18-7.578a1.928,1.928,0,0,0-1.469.637A3.1,3.1,0,0,0,85.336,92H89.57v-.109a2.753,2.753,0,0,0-.594-1.707A1.815,1.815,0,0,0,87.539,89.578Zm16.25,3.289a5.062,5.062,0,0,1-.883,3.109,2.829,2.829,0,0,1-2.391,1.18,3.1,3.1,0,0,1-2.422-.977v4.07H96.648v-11.7h1.32l.07.938a2.977,2.977,0,0,1,2.453-1.094,2.882,2.882,0,0,1,2.41,1.148,5.117,5.117,0,0,1,.887,3.2Zm-1.445-.164a3.735,3.735,0,0,0-.609-2.258,1.963,1.963,0,0,0-1.672-.828,2.125,2.125,0,0,0-1.969,1.164V94.82a2.129,2.129,0,0,0,1.984,1.156,1.954,1.954,0,0,0,1.652-.824A4.077,4.077,0,0,0,102.344,92.7Zm7.367-2.859a4.331,4.331,0,0,0-.711-.055A1.9,1.9,0,0,0,107.07,91v6h-1.445V88.547h1.406l.023.977a2.251,2.251,0,0,1,2.016-1.133,1.477,1.477,0,0,1,.641.109ZM110.5,92.7a4.993,4.993,0,0,1,.488-2.234,3.643,3.643,0,0,1,1.359-1.531,3.7,3.7,0,0,1,1.988-.539,3.565,3.565,0,0,1,2.793,1.2,4.6,4.6,0,0,1,1.066,3.18v.1a5.036,5.036,0,0,1-.473,2.215,3.589,3.589,0,0,1-1.352,1.527,3.743,3.743,0,0,1-2.02.547,3.556,3.556,0,0,1-2.785-1.2A4.575,4.575,0,0,1,110.5,92.8Zm1.453.172a3.616,3.616,0,0,0,.652,2.258,2.211,2.211,0,0,0,3.5-.012,3.955,3.955,0,0,0,.648-2.418,3.61,3.61,0,0,0-.66-2.254,2.1,2.1,0,0,0-1.754-.863,2.075,2.075,0,0,0-1.727.852A3.925,3.925,0,0,0,111.953,92.867Zm7.7-.164a4.952,4.952,0,0,1,.922-3.129,3.137,3.137,0,0,1,4.766-.168V85h1.445V97h-1.328l-.07-.906a2.943,2.943,0,0,1-2.414,1.063,2.887,2.887,0,0,1-2.395-1.2,5.008,5.008,0,0,1-.926-3.141Zm1.445.164a3.749,3.749,0,0,0,.594,2.25,1.92,1.92,0,0,0,1.641.813,2.109,2.109,0,0,0,2.008-1.234V90.813a2.125,2.125,0,0,0-1.992-1.2,1.929,1.929,0,0,0-1.656.82A4.128,4.128,0,0,0,121.1,92.867Zm13.148,3.3a3.07,3.07,0,0,1-2.477.992,2.628,2.628,0,0,1-2.059-.785A3.4,3.4,0,0,1,129,94.047v-5.5h1.445v5.461q0,1.922,1.563,1.922a2.163,2.163,0,0,0,2.2-1.234V88.547h1.445V97h-1.375Zm6.992-.187a2.082,2.082,0,0,0,1.352-.469,1.649,1.649,0,0,0,.641-1.172H144.6a2.621,2.621,0,0,1-.5,1.383,3.293,3.293,0,0,1-1.23,1.047,3.55,3.55,0,0,1-1.629.391A3.482,3.482,0,0,1,138.5,96a4.59,4.59,0,0,1-1.02-3.152v-.242a5.089,5.089,0,0,1,.453-2.2,3.451,3.451,0,0,1,1.3-1.492,3.7,3.7,0,0,1,2-.531,3.39,3.39,0,0,1,2.363.852,3.043,3.043,0,0,1,1,2.211h-1.367a1.992,1.992,0,0,0-.621-1.348,1.932,1.932,0,0,0-1.379-.527,2.023,2.023,0,0,0-1.707.793,3.724,3.724,0,0,0-.605,2.293v.273a3.65,3.65,0,0,0,.6,2.25A2.033,2.033,0,0,0,141.242,95.977Zm8.492,1.18a3.693,3.693,0,0,1-2.8-1.129,4.19,4.19,0,0,1-1.078-3.02v-.266a5.073,5.073,0,0,1,.48-2.246,3.748,3.748,0,0,1,1.344-1.547,3.378,3.378,0,0,1,1.871-.559,3.166,3.166,0,0,1,2.563,1.086,4.7,4.7,0,0,1,.914,3.109v.6H147.3a3,3,0,0,0,.73,2.02,2.3,2.3,0,0,0,1.777.77,2.517,2.517,0,0,0,1.3-.312,3.258,3.258,0,0,0,.93-.828l.883.688A3.55,3.55,0,0,1,149.734,97.156Zm-.18-7.578a1.928,1.928,0,0,0-1.469.637A3.1,3.1,0,0,0,147.352,92h4.234v-.109a2.753,2.753,0,0,0-.594-1.707A1.815,1.815,0,0,0,149.555,89.578Zm11.875,5.3,1.969-6.336h1.547l-3.4,9.758q-.789,2.109-2.508,2.109l-.273-.023-.539-.1V99.117l.391.031a1.923,1.923,0,0,0,1.145-.3,2.148,2.148,0,0,0,.676-1.086l.32-.859-3.016-8.359h1.578ZM12.406,115.977a2.082,2.082,0,0,0,1.352-.469,1.649,1.649,0,0,0,.641-1.172h1.367a2.621,2.621,0,0,1-.5,1.383,3.293,3.293,0,0,1-1.23,1.047,3.55,3.55,0,0,1-1.629.391A3.482,3.482,0,0,1,9.66,116a4.59,4.59,0,0,1-1.02-3.152v-.242a5.089,5.089,0,0,1,.453-2.2,3.451,3.451,0,0,1,1.3-1.492,3.7,3.7,0,0,1,2-.531,3.39,3.39,0,0,1,2.363.852,3.043,3.043,0,0,1,1,2.211H14.4a1.992,1.992,0,0,0-.621-1.348,1.932,1.932,0,0,0-1.379-.527,2.023,2.023,0,0,0-1.707.793,3.724,3.724,0,0,0-.605,2.293v.273a3.65,3.65,0,0,0,.6,2.25A2.033,2.033,0,0,0,12.406,115.977Zm4.6-3.281a4.993,4.993,0,0,1,.488-2.234,3.643,3.643,0,0,1,1.359-1.531,3.7,3.7,0,0,1,1.988-.539,3.565,3.565,0,0,1,2.793,1.2,4.6,4.6,0,0,1,1.066,3.18v.1a5.036,5.036,0,0,1-.473,2.215,3.589,3.589,0,0,1-1.352,1.527,3.743,3.743,0,0,1-2.02.547,3.556,3.556,0,0,1-2.785-1.2,4.575,4.575,0,0,1-1.066-3.164Zm1.453.172a3.616,3.616,0,0,0,.652,2.258,2.211,2.211,0,0,0,3.5-.012,3.955,3.955,0,0,0,.648-2.418,3.61,3.61,0,0,0-.66-2.254,2.1,2.1,0,0,0-1.754-.863,2.075,2.075,0,0,0-1.727.852A3.925,3.925,0,0,0,18.461,112.867Zm9.422-4.32.047,1.063a3.08,3.08,0,0,1,2.531-1.219q2.68,0,2.7,3.023V117H31.719v-5.594a1.946,1.946,0,0,0-.418-1.352,1.675,1.675,0,0,0-1.277-.437,2.086,2.086,0,0,0-1.234.375,2.546,2.546,0,0,0-.828.984V117H26.516v-8.453Zm12.383,6.211a1.064,1.064,0,0,0-.441-.91,4.249,4.249,0,0,0-1.539-.559,7.277,7.277,0,0,1-1.742-.562,2.479,2.479,0,0,1-.953-.781,1.869,1.869,0,0,1-.309-1.078,2.193,2.193,0,0,1,.879-1.758,3.432,3.432,0,0,1,2.246-.719,3.532,3.532,0,0,1,2.332.742,2.357,2.357,0,0,1,.895,1.9H40.18a1.3,1.3,0,0,0-.5-1.023,1.888,1.888,0,0,0-1.27-.43,1.976,1.976,0,0,0-1.234.344,1.082,1.082,0,0,0-.445.9.877.877,0,0,0,.414.789,5.1,5.1,0,0,0,1.5.508,7.8,7.8,0,0,1,1.754.578,2.558,2.558,0,0,1,1,.809,1.988,1.988,0,0,1,.324,1.152,2.163,2.163,0,0,1-.906,1.816,3.8,3.8,0,0,1-2.352.684,4.257,4.257,0,0,1-1.8-.359,2.922,2.922,0,0,1-1.223-1,2.42,2.42,0,0,1-.441-1.395h1.445a1.5,1.5,0,0,0,.582,1.152,2.258,2.258,0,0,0,1.434.426,2.331,2.331,0,0,0,1.316-.332A1.02,1.02,0,0,0,40.266,114.758Zm8.547,1.406a3.07,3.07,0,0,1-2.477.992,2.628,2.628,0,0,1-2.059-.785,3.4,3.4,0,0,1-.715-2.324v-5.5h1.445v5.461q0,1.922,1.563,1.922a2.163,2.163,0,0,0,2.2-1.234v-6.148h1.445V117H48.844Zm4.961-7.617.039.938a3.122,3.122,0,0,1,2.508-1.094,2.417,2.417,0,0,1,2.414,1.359,3.2,3.2,0,0,1,1.1-.984,3.242,3.242,0,0,1,1.6-.375q2.781,0,2.828,2.945V117H62.813v-5.578a1.941,1.941,0,0,0-.414-1.355,1.823,1.823,0,0,0-1.391-.449,1.916,1.916,0,0,0-1.336.48,1.949,1.949,0,0,0-.617,1.293V117H57.6v-5.539a1.613,1.613,0,0,0-1.8-1.844,1.934,1.934,0,0,0-1.945,1.211V117H52.406v-8.453Zm16.172,8.609a3.693,3.693,0,0,1-2.8-1.129,4.19,4.19,0,0,1-1.078-3.02v-.266a5.073,5.073,0,0,1,.48-2.246,3.748,3.748,0,0,1,1.344-1.547,3.378,3.378,0,0,1,1.871-.559,3.166,3.166,0,0,1,2.563,1.086,4.7,4.7,0,0,1,.914,3.109v.6H67.516a3,3,0,0,0,.73,2.02,2.3,2.3,0,0,0,1.777.77,2.517,2.517,0,0,0,1.3-.312,3.259,3.259,0,0,0,.93-.828l.883.688A3.55,3.55,0,0,1,69.945,117.156Zm-.18-7.578a1.928,1.928,0,0,0-1.469.637A3.1,3.1,0,0,0,67.563,112H71.8v-.109a2.753,2.753,0,0,0-.594-1.707A1.815,1.815,0,0,0,69.766,109.578ZM84.094,117a3.036,3.036,0,0,1-.2-.891,3.225,3.225,0,0,1-2.406,1.047,2.984,2.984,0,0,1-2.051-.707,2.287,2.287,0,0,1-.8-1.793,2.39,2.39,0,0,1,1-2.051,4.733,4.733,0,0,1,2.824-.73h1.406v-.664A1.623,1.623,0,0,0,83.414,110a1.821,1.821,0,0,0-1.336-.449,2.108,2.108,0,0,0-1.3.391,1.151,1.151,0,0,0-.523.945H78.8a2,2,0,0,1,.449-1.223,3.066,3.066,0,0,1,1.219-.934,4.1,4.1,0,0,1,1.691-.344,3.342,3.342,0,0,1,2.289.73,2.635,2.635,0,0,1,.859,2.012v3.891a4.757,4.757,0,0,0,.3,1.852V117Zm-2.4-1.1a2.54,2.54,0,0,0,1.289-.352,2.127,2.127,0,0,0,.883-.914V112.9H82.734q-2.656,0-2.656,1.555a1.316,1.316,0,0,0,.453,1.063A1.742,1.742,0,0,0,81.7,115.9Zm7.453,1.1H87.7V105h1.445Zm7.633-8.453.039.938a3.122,3.122,0,0,1,2.508-1.094,2.417,2.417,0,0,1,2.414,1.359,3.2,3.2,0,0,1,1.1-.984,3.242,3.242,0,0,1,1.6-.375q2.781,0,2.828,2.945V117H105.82v-5.578a1.941,1.941,0,0,0-.414-1.355,1.823,1.823,0,0,0-1.391-.449,1.916,1.916,0,0,0-1.336.48,1.949,1.949,0,0,0-.617,1.293V117h-1.453v-5.539a1.613,1.613,0,0,0-1.8-1.844,1.934,1.934,0,0,0-1.945,1.211V117H95.414v-8.453ZM111.016,117H109.57v-8.453h1.445Zm-1.562-10.7a.863.863,0,0,1,.215-.594.807.807,0,0,1,.637-.242.819.819,0,0,1,.641.242.854.854,0,0,1,.219.594.826.826,0,0,1-.219.586.834.834,0,0,1-.641.234.821.821,0,0,1-.637-.234A.834.834,0,0,1,109.453,106.3Zm8.8,8.453a1.064,1.064,0,0,0-.441-.91,4.249,4.249,0,0,0-1.539-.559,7.277,7.277,0,0,1-1.742-.562,2.478,2.478,0,0,1-.953-.781,1.869,1.869,0,0,1-.309-1.078,2.193,2.193,0,0,1,.879-1.758,3.432,3.432,0,0,1,2.246-.719,3.532,3.532,0,0,1,2.332.742,2.357,2.357,0,0,1,.895,1.9h-1.453a1.3,1.3,0,0,0-.5-1.023,1.888,1.888,0,0,0-1.27-.43,1.976,1.976,0,0,0-1.234.344,1.082,1.082,0,0,0-.445.9.877.877,0,0,0,.414.789,5.1,5.1,0,0,0,1.5.508,7.8,7.8,0,0,1,1.754.578,2.559,2.559,0,0,1,1,.809,1.988,1.988,0,0,1,.324,1.152,2.163,2.163,0,0,1-.906,1.816,3.8,3.8,0,0,1-2.352.684,4.257,4.257,0,0,1-1.8-.359,2.922,2.922,0,0,1-1.223-1,2.42,2.42,0,0,1-.441-1.395h1.445a1.5,1.5,0,0,0,.582,1.152,2.258,2.258,0,0,0,1.434.426,2.331,2.331,0,0,0,1.316-.332A1.02,1.02,0,0,0,118.25,114.758Zm4.688-6.211.039.938a3.122,3.122,0,0,1,2.508-1.094,2.417,2.417,0,0,1,2.414,1.359,3.2,3.2,0,0,1,1.1-.984,3.242,3.242,0,0,1,1.6-.375q2.781,0,2.828,2.945V117h-1.445v-5.578a1.941,1.941,0,0,0-.414-1.355,1.823,1.823,0,0,0-1.391-.449,1.917,1.917,0,0,0-1.336.48,1.949,1.949,0,0,0-.617,1.293V117h-1.453v-5.539a1.613,1.613,0,0,0-1.8-1.844,1.934,1.934,0,0,0-1.945,1.211V117H121.57v-8.453Zm12.281,4.148a4.993,4.993,0,0,1,.488-2.234,3.642,3.642,0,0,1,1.359-1.531,3.7,3.7,0,0,1,1.988-.539,3.565,3.565,0,0,1,2.793,1.2,4.6,4.6,0,0,1,1.066,3.18v.1a5.036,5.036,0,0,1-.473,2.215,3.589,3.589,0,0,1-1.352,1.527,3.743,3.743,0,0,1-2.02.547,3.556,3.556,0,0,1-2.785-1.2,4.575,4.575,0,0,1-1.066-3.164Zm1.453.172a3.616,3.616,0,0,0,.652,2.258,2.211,2.211,0,0,0,3.5-.012,3.954,3.954,0,0,0,.648-2.418,3.61,3.61,0,0,0-.66-2.254,2.1,2.1,0,0,0-1.754-.863,2.075,2.075,0,0,0-1.727.852A3.925,3.925,0,0,0,136.672,112.867Zm13.977-6.367v2.047h1.578v1.117h-1.578v5.242a1.171,1.171,0,0,0,.211.762.888.888,0,0,0,.719.254,3.5,3.5,0,0,0,.688-.094V117a4.19,4.19,0,0,1-1.109.156,1.8,1.8,0,0,1-1.461-.586,2.517,2.517,0,0,1-.492-1.664v-5.242h-1.539v-1.117H149.2V106.5Zm4.836,10.5h-1.445v-8.453h1.445Zm-1.562-10.7a.863.863,0,0,1,.215-.594.807.807,0,0,1,.637-.242.819.819,0,0,1,.641.242.854.854,0,0,1,.219.594.826.826,0,0,1-.219.586.834.834,0,0,1-.641.234.821.821,0,0,1-.637-.234A.834.834,0,0,1,153.922,106.3Zm7.383,10.852a3.693,3.693,0,0,1-2.8-1.129,4.19,4.19,0,0,1-1.078-3.02v-.266a5.073,5.073,0,0,1,.48-2.246,3.748,3.748,0,0,1,1.344-1.547,3.378,3.378,0,0,1,1.871-.559,3.166,3.166,0,0,1,2.563,1.086,4.7,4.7,0,0,1,.914,3.109v.6h-5.727a3,3,0,0,0,.73,2.02,2.3,2.3,0,0,0,1.777.77,2.517,2.517,0,0,0,1.3-.312,3.258,3.258,0,0,0,.93-.828l.883.688A3.55,3.55,0,0,1,161.3,117.156Zm-.18-7.578a1.928,1.928,0,0,0-1.469.637,3.1,3.1,0,0,0-.734,1.785h4.234v-.109a2.753,2.753,0,0,0-.594-1.707A1.815,1.815,0,0,0,161.125,109.578Zm6.508-1.031.039.938a3.122,3.122,0,0,1,2.508-1.094,2.417,2.417,0,0,1,2.414,1.359,3.2,3.2,0,0,1,1.1-.984,3.242,3.242,0,0,1,1.6-.375q2.781,0,2.828,2.945V117h-1.445v-5.578a1.941,1.941,0,0,0-.414-1.355,1.823,1.823,0,0,0-1.391-.449,1.917,1.917,0,0,0-1.336.48,1.949,1.949,0,0,0-.617,1.293V117h-1.453v-5.539a1.613,1.613,0,0,0-1.8-1.844,1.934,1.934,0,0,0-1.945,1.211V117h-1.445v-8.453Zm19.8,4.32a5.062,5.062,0,0,1-.883,3.109,2.829,2.829,0,0,1-2.391,1.18,3.1,3.1,0,0,1-2.422-.977v4.07H180.3v-11.7h1.32l.07.938a2.977,2.977,0,0,1,2.453-1.094,2.882,2.882,0,0,1,2.41,1.148,5.117,5.117,0,0,1,.887,3.2Zm-1.445-.164a3.735,3.735,0,0,0-.609-2.258,1.963,1.963,0,0,0-1.672-.828,2.125,2.125,0,0,0-1.969,1.164v4.039a2.129,2.129,0,0,0,1.984,1.156,1.954,1.954,0,0,0,1.652-.824A4.077,4.077,0,0,0,185.992,112.7Zm2.9-.008a4.993,4.993,0,0,1,.488-2.234,3.642,3.642,0,0,1,1.359-1.531,3.7,3.7,0,0,1,1.988-.539,3.565,3.565,0,0,1,2.793,1.2,4.6,4.6,0,0,1,1.066,3.18v.1a5.036,5.036,0,0,1-.473,2.215,3.589,3.589,0,0,1-1.352,1.527,3.743,3.743,0,0,1-2.02.547,3.556,3.556,0,0,1-2.785-1.2,4.575,4.575,0,0,1-1.066-3.164Zm1.453.172a3.616,3.616,0,0,0,.652,2.258,2.211,2.211,0,0,0,3.5-.012,3.954,3.954,0,0,0,.648-2.418,3.61,3.61,0,0,0-.66-2.254,2.1,2.1,0,0,0-1.754-.863,2.075,2.075,0,0,0-1.727.852A3.925,3.925,0,0,0,190.344,112.867Z" transform="translate(-5902 -6524)" fill="#12263f"/>
    <path id="Trazado_1039724" data-name="Trazado 1039724" d="M3,0A3,3,0,1,1,0,3,3,3,0,0,1,3,0Z" transform="translate(-5902 -6478)" fill="#ff7630"/>
    <path id="Trazado_1039725" data-name="Trazado 1039725" d="M3,0A3,3,0,1,1,0,3,3,3,0,0,1,3,0Z" transform="translate(-5902 -6438)" fill="#ff7630"/>
    <path id="Trazado_1037090-2" data-name="Trazado 1037090" d="M128.37,209.937,36.449,188.8A207.337,207.337,0,0,1,149.829,47.963l40.782,85.022a113.014,113.014,0,0,0-62.241,76.952" transform="matrix(-0.629, -0.777, 0.777, -0.629, -5844.6, -6425.75)" fill="#e2dacc"/>
    <path id="Trazado_1037095-2" data-name="Trazado 1037095" d="M52.7,79.365l15.721,2.427,15.72,2.428-9.961,12.4-9.963,12.4L58.456,94.193Z" transform="matrix(-0.629, -0.777, 0.777, -0.629, -5839.622, -6437.121)" fill="#e2dacc"/>
    <path id="Trazado_1037102-2" data-name="Trazado 1037102" d="M.875.563,99.6.4,101,17H0Z" transform="translate(-5862 -6658.169)" fill="#e2dacc"/>
    <g id="Grupo_1173380" data-name="Grupo 1173380" transform="translate(-5842.076 -6634.262)">
      <path id="Trazado_1037326" data-name="Trazado 1037326" d="M108.745,88.4v2.675a1.444,1.444,0,0,1-1.442,1.442h-2.015a17.3,17.3,0,0,1-2.034,4.907l1.426,1.426a1.442,1.442,0,0,1,0,2.037l-3.785,3.785a1.442,1.442,0,0,1-2.037,0l-1.426-1.426a17.232,17.232,0,0,1-4.907,2.034V107.3a1.443,1.443,0,0,1-1.438,1.442H85.735a1.444,1.444,0,0,1-1.442-1.442v-2.015a17.245,17.245,0,0,1-4.9-2.034l-1.426,1.426a1.446,1.446,0,0,1-2.04,0l-3.782-3.785a1.442,1.442,0,0,1,0-2.037l1.423-1.426a17.266,17.266,0,0,1-2.034-4.907H69.516a1.443,1.443,0,0,1-1.438-1.442V85.728a1.443,1.443,0,0,1,1.438-1.442h2.015a17.3,17.3,0,0,1,2.034-4.907l-1.423-1.426a1.442,1.442,0,0,1,0-2.037l3.782-3.785a1.446,1.446,0,0,1,2.04,0l1.426,1.426a17.248,17.248,0,0,1,4.9-2.034V69.509a1.444,1.444,0,0,1,1.442-1.442h5.352a1.443,1.443,0,0,1,1.438,1.442v2.015a17.226,17.226,0,0,1,4.907,2.034l1.426-1.426a1.442,1.442,0,0,1,2.037,0l3.785,3.785a1.442,1.442,0,0,1,0,2.037l-1.426,1.426a17.3,17.3,0,0,1,2.034,4.907H107.3a1.444,1.444,0,0,1,1.442,1.442Z" transform="translate(-57.157 -57.14)" fill="#777878" fill-rule="evenodd"/>
      <path id="Trazado_1037327" data-name="Trazado 1037327" d="M92.526,105.281V107.3a1.443,1.443,0,0,1-1.438,1.442H85.735a1.444,1.444,0,0,1-1.442-1.442v-2.015a17.245,17.245,0,0,1-4.9-2.034l-1.426,1.426a1.446,1.446,0,0,1-2.04,0l-3.782-3.785a1.442,1.442,0,0,1,0-2.037l1.423-1.426a17.266,17.266,0,0,1-2.034-4.907H69.516a1.443,1.443,0,0,1-1.438-1.442V85.728a1.443,1.443,0,0,1,1.438-1.442h2.015a17.3,17.3,0,0,1,2.034-4.907l-1.423-1.426a1.442,1.442,0,0,1,0-2.037l3.782-3.785a1.446,1.446,0,0,1,2.04,0l1.426,1.426a17.248,17.248,0,0,1,4.9-2.034V69.509a1.444,1.444,0,0,1,1.442-1.442h5.352a1.443,1.443,0,0,1,1.438,1.442v2.015a16.9,16.9,0,1,0,0,33.757Z" transform="translate(-57.157 -57.14)" fill="#6a6e6d" fill-rule="evenodd"/>
      <path id="Trazado_1037328" data-name="Trazado 1037328" d="M12.12,16.616a.647.647,0,1,1-1.251-.328l.436-1.644A25.974,25.974,0,0,0,46.5,52.3a.648.648,0,1,1,.761,1.049,27.269,27.269,0,0,1-37.1-39.36l-1.3.54a.648.648,0,0,1-.491-1.2l3.963-1.638a.649.649,0,0,1,.9.754l-1.11,4.171ZM16.4,9.963A.647.647,0,0,1,15.656,8.9,27.27,27.27,0,0,1,52.468,48.4l1.353-.558a.646.646,0,1,1,.491,1.2L50.37,50.67a.648.648,0,0,1-.908-.788l1.1-4.128a.647.647,0,0,1,1.251.331l-.42,1.586a25.975,25.975,0,0,0-35-37.707Z" transform="translate(0 -0.008)" fill="#777878"/>
      <g id="Grupo_1173375" data-name="Grupo 1173375" transform="translate(19.368 19.377)">
        <path id="Trazado_1037329" data-name="Trazado 1037329" d="M158.028,169.93a11.885,11.885,0,1,0-11.885-11.885A11.91,11.91,0,0,0,158.028,169.93Z" transform="translate(-146.143 -146.16)" fill="#e8e8e8" fill-rule="evenodd"/>
        <path id="Trazado_1037330" data-name="Trazado 1037330" d="M202.78,148.713a11.888,11.888,0,0,1,0,23.218,11.888,11.888,0,0,1,0-23.218Z" transform="translate(-188.334 -148.437)" fill="#f8f8f8" fill-rule="evenodd"/>
        <path id="Trazado_1037331" data-name="Trazado 1037331" d="M188.414,168.5l-4.1,2.368-4.1,2.368V182.7l4.1,2.368,4.1,2.368,4.1-2.368,4.1-2.368v-9.465l-4.1-2.368Z" transform="translate(-176.529 -166.081)" fill="#e0a877" fill-rule="evenodd"/>
        <path id="Trazado_1037332" data-name="Trazado 1037332" d="M255.986,187.435l4.1-2.368,4.1-2.368v-9.465l-4.1-2.368-4.1-2.368Z" transform="translate(-244.101 -166.081)" fill="#c98e60" fill-rule="evenodd"/>
        <path id="Trazado_1037333" data-name="Trazado 1037333" d="M188.414,168.5l-4.1,2.368-4.1,2.368,4.1,2.365,4.1,2.368,4.1-2.368,4.1-2.365-4.1-2.368Z" transform="translate(-176.529 -166.081)" fill="#d49768" fill-rule="evenodd"/>
        <path id="Trazado_1037334" data-name="Trazado 1037334" d="M208.852,183.55l-1.279.739-1.279.739,8.2,4.733,1.279-.739,1.279-.739Z" transform="translate(-199.786 -179.504)" fill="#fc657c" fill-rule="evenodd"/>
        <path id="Trazado_1037335" data-name="Trazado 1037335" d="M282.064,228.767l2.558-1.478v3.748l-2.558,1.478Z" transform="translate(-267.357 -218.511)" fill="#f6576f" fill-rule="evenodd"/>
      </g>
      <path id="Trazado_1037336" data-name="Trazado 1037336" d="M38.8,35.62V27.652l-1.518.877V31.9a.649.649,0,0,1-.325.564L34.4,33.946a.653.653,0,0,1-.325.086.647.647,0,0,1-.65-.65V30.759l-1.521.877V39.6l6.9-3.984Zm-15.1,0L30.6,39.6V31.636l-6.9-3.984Zm.65-9.094,6.9,3.984,1.518-.877-6.9-3.981-1.515.874Zm10.37,5.729,1.258-.727V29.281l-1.258.727ZM27.17,24.9l6.9,3.981,1.258-.727-6.9-3.981Zm2.564-1.478,6.9,3.981,1.518-.877-6.9-3.981Zm10.1,2.583a.03.03,0,0,1,.015.012.453.453,0,0,1,.058.049v0c.018.018.034.037.049.055s.009.012.015.015c.009.018.021.034.031.052a.066.066,0,0,1,.009.015c.012.021.025.046.037.068v0a.478.478,0,0,1,.025.071c0,.006,0,.012,0,.018a.425.425,0,0,1,.012.061c0,.006,0,.012,0,.018a.708.708,0,0,1,.006.08v9.468a.649.649,0,0,1-.325.564l-8.2,4.736h-.006a.306.306,0,0,1-.071.037H31.5a.255.255,0,0,1-.068.025.042.042,0,0,0-.018.006l-.058.009a.169.169,0,0,0-.021.006l-.077,0c-.028,0-.052,0-.077,0-.006,0-.015,0-.021-.006l-.058-.009a.044.044,0,0,0-.018-.006.278.278,0,0,1-.071-.025h0a.406.406,0,0,1-.074-.037h0l-8.2-4.736a.649.649,0,0,1-.325-.564V26.526a.348.348,0,0,1,.006-.08.039.039,0,0,1,0-.018.44.44,0,0,1,.012-.061.039.039,0,0,1,0-.018.478.478,0,0,1,.025-.071v0c.012-.021.021-.046.034-.068a.07.07,0,0,1,.009-.015l.034-.052a.03.03,0,0,0,.012-.015c.015-.018.031-.037.049-.055a0,0,0,0,0,0,0,.426.426,0,0,1,.055-.049c.006-.006.012-.009.015-.012l.055-.037s.006,0,.009,0l8.2-4.733a.649.649,0,0,1,.65,0l8.2,4.733a.011.011,0,0,1,.006,0l.055.037Zm2.65,5.257A11.235,11.235,0,1,0,31.253,42.5,11.247,11.247,0,0,0,42.488,31.262Zm1.3,0A12.535,12.535,0,1,1,31.253,18.727,12.55,12.55,0,0,1,43.788,31.262Zm10.03,16.572-1.343.555A27.273,27.273,0,0,0,15.653,8.89a.656.656,0,0,0-.159.908.649.649,0,0,0,.9.159,25.971,25.971,0,0,1,35,37.7l.42-1.576a.651.651,0,1,0-1.258-.334l-1.11,4.171c0,.006,0,.015-.006.025a.129.129,0,0,1-.006.034.911.911,0,0,0-.009.092v.021a.448.448,0,0,0,.012.11.088.088,0,0,0,.006.028.613.613,0,0,0,.021.08.152.152,0,0,1,.012.034c.015.031.034.064.052.1a.042.042,0,0,1,.009.012c.021.028.043.052.068.08,0,0,.006.009.009.012l.012.009c.006.006.012.015.018.018a.351.351,0,0,0,.04.031.4.4,0,0,0,.046.031.394.394,0,0,0,.061.034.3.3,0,0,0,.046.021.652.652,0,0,0,.074.021.23.23,0,0,0,.043.012.5.5,0,0,0,.117.012h0a.556.556,0,0,0,.123-.012h0a.591.591,0,0,0,.114-.034l.006,0h0l3.99-1.647a.65.65,0,1,0-.5-1.2ZM48.131,34.728h2.015a.793.793,0,0,0,.791-.791V28.588a.793.793,0,0,0-.791-.791H48.131a.65.65,0,0,1-.632-.5,16.6,16.6,0,0,0-1.957-4.723.65.65,0,0,1,.1-.8l1.426-1.426a.792.792,0,0,0,0-1.116l-3.785-3.785a.792.792,0,0,0-1.116,0l-1.426,1.426a.654.654,0,0,1-.8.1,16.546,16.546,0,0,0-4.72-1.957.65.65,0,0,1-.5-.632V12.369a.793.793,0,0,0-.791-.791H28.579a.793.793,0,0,0-.791.791v2.015a.65.65,0,0,1-.5.632,16.712,16.712,0,0,0-4.723,1.957.65.65,0,0,1-.8-.1l-1.426-1.426a.792.792,0,0,0-1.116,0l-3.785,3.785a.8.8,0,0,0,0,1.12l1.426,1.423a.65.65,0,0,1,.1.8A16.6,16.6,0,0,0,15.006,27.3a.65.65,0,0,1-.632.5H12.359a.791.791,0,0,0-.788.791v5.349a.791.791,0,0,0,.788.791h2.015a.65.65,0,0,1,.632.5,16.661,16.661,0,0,0,1.957,4.723.65.65,0,0,1-.1.8l-1.426,1.426a.8.8,0,0,0,0,1.119l3.785,3.782a.792.792,0,0,0,1.116,0l1.426-1.426a.648.648,0,0,1,.46-.19.638.638,0,0,1,.337.1,16.62,16.62,0,0,0,4.723,1.957.65.65,0,0,1,.5.632v2.015a.791.791,0,0,0,.791.788h5.349a.791.791,0,0,0,.791-.788V48.141a.65.65,0,0,1,.5-.632,16.547,16.547,0,0,0,4.72-1.957.653.653,0,0,1,.8.1l1.426,1.426a.792.792,0,0,0,1.116,0l3.785-3.785a.792.792,0,0,0,0-1.116l-1.426-1.426a.65.65,0,0,1-.1-.8A16.748,16.748,0,0,0,47.5,35.225a.65.65,0,0,1,.632-.5Zm.5,1.3a17.8,17.8,0,0,1-1.721,4.153l1.07,1.07a2.1,2.1,0,0,1,0,2.957L44.2,47.993a2.1,2.1,0,0,1-2.957,0l-1.07-1.07a17.69,17.69,0,0,1-4.153,1.721v1.512a2.092,2.092,0,0,1-2.092,2.089H28.579a2.092,2.092,0,0,1-2.092-2.089V48.644a17.807,17.807,0,0,1-4.153-1.721l-1.07,1.07a2.1,2.1,0,0,1-2.957,0l-3.785-3.785a2.1,2.1,0,0,1,0-2.954l1.07-1.073a17.8,17.8,0,0,1-1.721-4.153H12.359a2.092,2.092,0,0,1-2.089-2.092V28.588A2.092,2.092,0,0,1,12.359,26.5h1.512a17.7,17.7,0,0,1,1.721-4.153l-1.07-1.07a2.1,2.1,0,0,1,0-2.957l3.785-3.785a2.092,2.092,0,0,1,2.957,0l1.07,1.07a17.8,17.8,0,0,1,4.153-1.721V12.369a2.094,2.094,0,0,1,2.092-2.092h5.349a2.094,2.094,0,0,1,2.092,2.092v1.512A17.956,17.956,0,0,1,40.172,15.6l1.07-1.07a2.092,2.092,0,0,1,2.957,0l3.785,3.785a2.1,2.1,0,0,1,0,2.957l-1.07,1.07A17.825,17.825,0,0,1,48.634,26.5h1.512a2.094,2.094,0,0,1,2.092,2.092v5.349a2.094,2.094,0,0,1-2.092,2.092Zm-1.23,16.4a.652.652,0,0,1-.144.911A27.254,27.254,0,0,1,31.25,58.529q-1.012,0-2.024-.074A27.272,27.272,0,0,1,10.154,13.985l-1.291.534a.65.65,0,0,1-.5-1.2l3.99-1.647s.006,0,.012,0a.088.088,0,0,1,.031-.009.234.234,0,0,1,.08-.021.131.131,0,0,1,.034-.006.631.631,0,0,1,.107-.009h.006a.619.619,0,0,1,.1.015.129.129,0,0,1,.034.006.355.355,0,0,1,.08.028l.031.009a.569.569,0,0,1,.092.055.184.184,0,0,1,.025.015l.043.034a.279.279,0,0,1,.028.031l.015.009s0,.006.006.009a.614.614,0,0,1,.071.092l.009.018a.54.54,0,0,1,.043.083c0,.012.009.021.012.034a.866.866,0,0,1,.025.1s0,.009,0,.012a.666.666,0,0,1,.009.11.105.105,0,0,0,0,.031c0,.028-.006.055-.009.086a.092.092,0,0,0-.006.031.019.019,0,0,0,0,.012l-1.11,4.174a.651.651,0,1,1-1.258-.337l.432-1.626A25.97,25.97,0,0,0,46.5,52.29a.65.65,0,0,1,.908.141Z" transform="translate(0 0)" fill="#070202"/>
    </g>
    <g id="Grupo_1173126-2" data-name="Grupo 1173126" transform="translate(-6206.051 -11081.676)">
      <rect id="Rectángulo_421139-2" data-name="Rectángulo 421139" width="220" height="166" rx="14" transform="translate(285.051 4842)" fill="#f3f0ea"/>
      <text id="_3._Homogeneidad_Producto:_es_uniforme._Servicio:_varía_según_quién_lo_presta." data-name="3. Homogeneidad

  Producto: es uniforme.    
  Servicio: varía según   
  quién lo presta." transform="translate(303 4875)" fill="#12263f" font-size="16" font-family="Roboto-Bold, Roboto" font-weight="700"><tspan x="0" y="17">3. Homogeneidad</tspan><tspan x="0" y="37"></tspan><tspan x="0" y="57" xml:space="preserve">  Producto: </tspan><tspan y="57" font-family="Roboto-Regular, Roboto" font-weight="400">es uniforme.</tspan><tspan y="57" xml:space="preserve">    </tspan><tspan x="0" y="77" xml:space="preserve">  Servicio:</tspan><tspan y="77" xml:space="preserve" font-family="Roboto-Regular, Roboto" font-weight="400"> varía según   </tspan><tspan font-family="Roboto-Regular, Roboto" font-weight="400"><tspan x="0" y="97" xml:space="preserve">  quién lo presta.</tspan></tspan></text>
      <circle id="Elipse_13123-2" data-name="Elipse 13123" cx="3" cy="3" r="3" transform="translate(303.051 4921)" fill="#ff7630"/>
      <circle id="Elipse_13124-2" data-name="Elipse 13124" cx="3" cy="3" r="3" transform="translate(303.051 4961)" fill="#ff7630"/>
    </g>
    <path id="Trazado_1037090-3" data-name="Trazado 1037090" d="M128.37,209.937,36.449,188.8A207.337,207.337,0,0,1,149.829,47.963l40.782,85.022a113.014,113.014,0,0,0-62.241,76.952" transform="matrix(-0.629, -0.777, 0.777, -0.629, -5844.6, -6112.919)" fill="#997b4d"/>
    <path id="Trazado_1037095-3" data-name="Trazado 1037095" d="M52.7,79.365l15.721,2.427,15.72,2.428-9.961,12.4-9.963,12.4L58.456,94.193Z" transform="matrix(-0.629, -0.777, 0.777, -0.629, -5839.622, -6124.291)" fill="#997b4d"/>
    <path id="Trazado_1037102-3" data-name="Trazado 1037102" d="M.875.563,99.6.4,101,17H0Z" transform="translate(-5862 -6345.339)" fill="#997b4d"/>
    <g id="Grupo_1173381" data-name="Grupo 1173381" transform="translate(-5847.068 -6326.431)">
      <path id="Trazado_1037297" data-name="Trazado 1037297" d="M120.279,305.448l11.294-5.8c2.057-1.057,4.806,2.316,1.571,4.308L119.7,312.235c-1.9,1.066-3.448,1.836-5.15,1.782-5.2-.164-9.729-3.93-13.41-2.588l-1.523.555L95.5,300.692c4.536-1.644,8.569-5.833,12.461-4.021l10.917,5.083A2.8,2.8,0,0,1,120.279,305.448Z" transform="translate(-77.13 -258.261)" fill="#ecc8a4" fill-rule="evenodd"/>
      <path id="Trazado_1037298" data-name="Trazado 1037298" d="M16.539,324.394l5.687-2.074a.813.813,0,0,1,1.041.485l5.13,14.069a.814.814,0,0,1-.485,1.041L24.4,339.2a.807.807,0,0,1-.99-.371l-7.3-13.278a.812.812,0,0,1,.433-1.154Z" transform="translate(-5.402 -281.762)" fill="#c4c4c4" fill-rule="evenodd"/>
      <path id="Trazado_1037299" data-name="Trazado 1037299" d="M247.382,89.61l-11.348-6.552v13.1l11.348,6.552,11.348-6.552v-13.1Z" transform="translate(-203.932 -65.923)" fill="#e4b463" fill-rule="evenodd"/>
      <path id="Trazado_1037300" data-name="Trazado 1037300" d="M236.034,22.558l11.348,6.552,11.348-6.552-11.348-6.552Z" transform="translate(-203.932 -5.423)" fill="#f7e172" fill-rule="evenodd"/>
      <path id="Trazado_1037301" data-name="Trazado 1037301" d="M160.514,180.939a6.94,6.94,0,0,1,2.4.993l1.06-1.06,2.019,2.019-1.06,1.06a6.942,6.942,0,0,1,.993,2.4h1.5V189.2h-1.5a6.942,6.942,0,0,1-.993,2.4l1.06,1.06-2.019,2.019-1.06-1.06a6.944,6.944,0,0,1-2.4.993v1.5h-2.855v-1.5a6.943,6.943,0,0,1-2.4-.993l-1.06,1.06-2.019-2.019,1.06-1.06a6.942,6.942,0,0,1-.993-2.4h-1.5v-2.855h1.5a6.942,6.942,0,0,1,.993-2.4l-1.06-1.06,2.019-2.019,1.06,1.06a6.939,6.939,0,0,1,2.4-.993v-1.5h2.855Zm-1.427,10.323a3.488,3.488,0,1,0-3.488-3.488A3.488,3.488,0,0,0,159.087,191.261Z" transform="translate(-126.985 -152.887)" fill="#b4d46e" fill-rule="evenodd"/>
      <path id="Trazado_1037302" data-name="Trazado 1037302" d="M32.1,31.983a2.9,2.9,0,1,1-2.9,2.9A2.9,2.9,0,0,1,32.1,31.983Zm0,6.977a4.075,4.075,0,1,0-4.075-4.075A4.075,4.075,0,0,0,32.1,38.96Zm23.605,6.232L42.273,53.469c-1.772.995-3.252,1.753-4.835,1.7A20.821,20.821,0,0,1,31.1,53.615c-2.592-.934-5.041-1.816-7.285-1l-.972.354-3.719-10.2c1.947-.791,3.688-1.924,5.51-2.878a.588.588,0,0,0,.157.29L26.8,42.2a.587.587,0,0,0,.829,0l.734-.734a7.479,7.479,0,0,0,1.721.713v1.038a.586.586,0,0,0,.586.586h2.854a.586.586,0,0,0,.586-.586V42.181a7.482,7.482,0,0,0,1.721-.713l.734.734a.589.589,0,0,0,.829,0l.059-.06L41.5,44.023a2.194,2.194,0,1,1-1.826,3.989l-6.163-2.869a.586.586,0,0,0-.494,1.063l6.163,2.869a3.359,3.359,0,0,0,1.424.317,3.394,3.394,0,0,0,2.98-1.77L54.711,41.9a1.575,1.575,0,0,1,1.99.775c.5.883.126,1.822-.995,2.513ZM22.309,55.6a.226.226,0,0,0,.135-.289l-5.13-14.069a.228.228,0,0,0-.289-.134l-5.688,2.074a.222.222,0,0,0-.12.32l7.3,13.279a.221.221,0,0,0,.275.1L22.309,55.6Zm2.047-19.876h.912a.587.587,0,0,1,.575.467,6.326,6.326,0,0,0,.909,2.194.586.586,0,0,1-.075.736l-.646.646,1.19,1.189.645-.646a.587.587,0,0,1,.737-.075,6.332,6.332,0,0,0,2.193.909.588.588,0,0,1,.467.574v.913h1.682v-.912a.588.588,0,0,1,.467-.575,6.312,6.312,0,0,0,2.193-.909.587.587,0,0,1,.737.075l.645.646,1.19-1.189-.646-.646a.586.586,0,0,1-.075-.736,6.32,6.32,0,0,0,.909-2.194.587.587,0,0,1,.575-.467h.912V34.044h-.912a.587.587,0,0,1-.575-.467,6.347,6.347,0,0,0-.909-2.193.587.587,0,0,1,.075-.737L38.175,30l-1.19-1.19-.645.646a.587.587,0,0,1-.737.075,6.343,6.343,0,0,0-2.193-.909.586.586,0,0,1-.467-.574v-.913H31.261v.913a.586.586,0,0,1-.467.574,6.344,6.344,0,0,0-2.193.909.587.587,0,0,1-.737-.075l-.645-.646L26.03,30l.646.645a.586.586,0,0,1,.075.737,6.347,6.347,0,0,0-.909,2.193.587.587,0,0,1-.574.467h-.912v1.682ZM32.688,18.15v7.816h.841a.585.585,0,0,1,.586.586v1.037a7.485,7.485,0,0,1,1.721.714l.734-.734a.586.586,0,0,1,.83,0l2.018,2.018a.586.586,0,0,1,0,.829l-.734.734a7.474,7.474,0,0,1,.713,1.721h1.037a.586.586,0,0,1,.586.586v1.253l1.843,1.064V24.025ZM43.45,11.26l4.5,2.6L37.776,19.733l-4.5-2.6Zm0,11.75-4.5-2.6,10.176-5.875,4.5,2.6ZM54.212,29.9V18.15L44.036,24.025v11.75Zm3.511,12.2a2.716,2.716,0,0,0-3.547-1.242L43.987,46.1a3.426,3.426,0,0,0-1.992-3.137l-3.654-1.7,1.078-1.077a.586.586,0,0,0,0-.829l-.733-.734A7.479,7.479,0,0,0,39.4,36.9h1.037a.585.585,0,0,0,.586-.586v-.247l2.209,1.268a.571.571,0,0,0,.378.021l.135-.057,11.349-6.552a.586.586,0,0,0,.293-.508v-13.1a.585.585,0,0,0-.293-.508L43.743,10.075a.586.586,0,0,0-.586,0L31.808,16.627a.588.588,0,0,0-.293.508v8.832h-.84a.586.586,0,0,0-.586.586V27.59a7.483,7.483,0,0,0-1.721.714l-.734-.734a.586.586,0,0,0-.83,0l-2.018,2.018a.589.589,0,0,0,0,.83l.734.734a7.489,7.489,0,0,0-.713,1.721H23.77a.586.586,0,0,0-.586.586v2.854a.586.586,0,0,0,.586.586h1.037a7.473,7.473,0,0,0,.517,1.352c-2.176.968-4.331,2.486-6.607,3.419l-.3-.828a1.4,1.4,0,0,0-1.793-.834L10.935,42.08a1.4,1.4,0,0,0-.746,1.988l7.3,13.278a1.391,1.391,0,0,0,1.7.64L22.711,56.7a1.4,1.4,0,0,0,.834-1.793l-.306-.838.972-.355c1.845-.672,4,.1,6.487,1a21.623,21.623,0,0,0,6.887,1.627,11.034,11.034,0,0,0,5.273-1.86l.021-.012,13.444-8.284c2.029-1.249,2.022-2.982,1.4-4.086Z" transform="translate(0 0)" fill="#1c0838" fill-rule="evenodd"/>
    </g>
    <g id="Grupo_1173135" data-name="Grupo 1173135" transform="translate(-6901.051 -10468)">
      <rect id="Rectángulo_421142" data-name="Rectángulo 421142" width="220" height="172" rx="14" transform="translate(984.051 4543)" fill="#f3f0ea"/>
      <text id="_4._Perecibilidad_Producto:_se_puede_guardar._Servicio:_no_se_puede_almacenar." data-name="4. Perecibilidad

  Producto: se puede 
  guardar.
  Servicio: no se puede 
  almacenar." transform="translate(1011.051 4573)" fill="#12263f" font-size="16" font-family="Roboto-Bold, Roboto" font-weight="700"><tspan x="0" y="17">4. Perecibilidad</tspan><tspan x="0" y="37"></tspan><tspan x="0" y="57" xml:space="preserve">  Producto: </tspan><tspan y="57" font-family="Roboto-Regular, Roboto" font-weight="400">se puede </tspan><tspan font-family="Roboto-Regular, Roboto" font-weight="400"><tspan x="0" y="77" xml:space="preserve">  guardar.</tspan></tspan><tspan x="0" y="97" xml:space="preserve">  Servicio: </tspan><tspan y="97" font-family="Roboto-Regular, Roboto" font-weight="400">no se puede </tspan><tspan font-family="Roboto-Regular, Roboto" font-weight="400"><tspan x="0" y="117" xml:space="preserve">  almacenar.</tspan></tspan></text>
      <circle id="Elipse_13119" data-name="Elipse 13119" cx="3" cy="3" r="3" transform="translate(1011.051 4620)" fill="#ff7630"/>
      <circle id="Elipse_13120" data-name="Elipse 13120" cx="3" cy="3" r="3" transform="translate(1011.051 4660)" fill="#ff7630"/>
    </g>
    <path id="Trazado_1037090-4" data-name="Trazado 1037090" d="M128.37,209.937,36.449,188.8A207.337,207.337,0,0,1,149.829,47.963l40.782,85.022a113.014,113.014,0,0,0-62.241,76.952" transform="matrix(-0.629, -0.777, 0.777, -0.629, -5844.6, -5800.089)" fill="#6c8bb1"/>
    <path id="Trazado_1037095-4" data-name="Trazado 1037095" d="M52.7,79.365l15.721,2.427,15.72,2.428-9.961,12.4-9.963,12.4L58.456,94.193Z" transform="matrix(-0.629, -0.777, 0.777, -0.629, -5839.622, -5811.46)" fill="#6c8bb1"/>
    <path id="Trazado_1037102-4" data-name="Trazado 1037102" d="M.875.563,99.6.4,101,17H0Z" transform="translate(-5862 -6032.508)" fill="#6c8bb1"/>
    <g id="Grupo_1173382" data-name="Grupo 1173382" transform="translate(-5836.324 -6007.707)">
      <path id="Trazado_1037303" data-name="Trazado 1037303" d="M331.722,203.9h9.722v26.346a2.917,2.917,0,0,1-2.917,2.917h-6.805Z" transform="translate(-299.382 -184.08)" fill="#e8bc85"/>
      <path id="Trazado_1037304" data-name="Trazado 1037304" d="M115.957,233.166H95.639a2.917,2.917,0,0,1-2.917-2.917V203.9h26.152V230.25A2.917,2.917,0,0,1,115.957,233.166Z" transform="translate(-83.617 -184.08)" fill="#f0d5b3"/>
      <g id="Grupo_1173366" data-name="Grupo 1173366" transform="translate(14.611 27.261)">
        <path id="Trazado_1037305" data-name="Trazado 1037305" d="M149.451,294.755s7.622,1.368,11.754-2.531,3.209-11.587,3.209-11.587-7.622-1.368-11.754,2.531S149.451,294.755,149.451,294.755Z" transform="translate(-149.363 -280.404)" fill="#c7efbc"/>
      </g>
      <g id="Grupo_1173367" data-name="Grupo 1173367" transform="translate(17.209 19.823)">
        <path id="Trazado_1037306" data-name="Trazado 1037306" d="M0,0H1.458V7.3H0Z" transform="matrix(0.981, -0.195, 0.195, 0.981, 0, 10.337)" fill="#fff"/>
        <path id="Trazado_1037307" data-name="Trazado 1037307" d="M0,0H1.458V6.279H0Z" transform="matrix(0.251, -0.968, 0.968, 0.251, 5.214, 14.961)" fill="#fff"/>
        <path id="Trazado_1037308" data-name="Trazado 1037308" d="M389.222,273.9h1.458V290.43h-1.458Z" transform="translate(-368.501 -267.098)" fill="#fff"/>
        <path id="Trazado_1037309" data-name="Trazado 1037309" d="M389.222,203.9h1.458v4.861h-1.458Z" transform="translate(-368.501 -203.903)" fill="#fff"/>
      </g>
      <g id="Outline_24_" transform="translate(0.1)">
        <path id="Trazado_1037310" data-name="Trazado 1037310" d="M234.241,1.482,234.2.024c-.5.015-1,.044-1.5.087l.127,1.453C233.294,1.523,233.77,1.5,234.241,1.482Z" transform="translate(-210.088 -0.022)"/>
        <path id="Trazado_1037311" data-name="Trazado 1037311" d="M1.558,27.457A23.564,23.564,0,0,1,21.436,4.165l-.213-1.443A24.46,24.46,0,0,0,5.912,11.379,25.328,25.328,0,0,0,.1,27.457,24.227,24.227,0,0,0,2.689,38.389l1.3-.652a22.782,22.782,0,0,1-2.435-10.28Z" transform="translate(-0.1 -2.457)"/>
        <path id="Trazado_1037312" data-name="Trazado 1037312" d="M34.051,376.432c.234.405.483.81.74,1.2l1.221-.8c-.243-.372-.478-.755-.7-1.137Z" transform="translate(-30.75 -339.177)"/>
        <path id="Trazado_1037313" data-name="Trazado 1037313" d="M264.649.083c-.494-.042-1-.07-1.5-.083l-.039,1.458c.471.012.947.039,1.413.078Z" transform="translate(-237.543)"/>
        <path id="Trazado_1037314" data-name="Trazado 1037314" d="M458.172,376.252l1.221.8c.273-.418.537-.849.783-1.28l-1.266-.725C458.678,375.451,458.43,375.858,458.172,376.252Z" transform="translate(-413.638 -338.583)"/>
        <path id="Trazado_1037315" data-name="Trazado 1037315" d="M307.682,11.243A24.439,24.439,0,0,0,292.31,2.6L292.1,4.04a23.549,23.549,0,0,1,19.95,23.309,22.779,22.779,0,0,1-2.4,10.208l1.306.648a24.223,24.223,0,0,0,2.55-10.856A25.346,25.346,0,0,0,307.682,11.243Z" transform="translate(-263.714 -2.345)"/>
        <path id="Trazado_1037316" data-name="Trazado 1037316" d="M141.975,288.547l.531.1a19.933,19.933,0,0,0,3.254.25c2.707,0,6.522-.508,9.129-2.968,4.349-4.1,3.472-11.875,3.433-12.2l-.064-.535-.531-.1c-.326-.059-8.034-1.386-12.383,2.718s-3.472,11.875-3.433,12.2Zm11.913-3.683c-2.767,2.611-7.341,2.673-9.668,2.505l12.731-12.012C156.983,277.691,156.655,282.254,153.889,284.864Zm-7.544-8c2.719-2.565,7.184-2.669,9.545-2.514l-12.609,11.9C143.262,283.884,143.625,279.434,146.344,276.868Z" transform="translate(-128.036 -246.314)"/>
        <path id="Trazado_1037317" data-name="Trazado 1037317" d="M114.534,73.781a7.05,7.05,0,0,0-8.782-6.832l.36,1.413a5.591,5.591,0,0,1,6.964,5.419v5.558h-7V73.782a7.048,7.048,0,1,0-14.1,0v5.558H85.222v27.076a3.65,3.65,0,0,0,3.646,3.646h27.124a3.65,3.65,0,0,0,3.646-3.646V79.339h-5.1Zm-21.1,0a5.59,5.59,0,1,1,11.18,0V79.34H101.9V73.782a5.536,5.536,0,0,1,.365-1.988l-1.362-.522a6.989,6.989,0,0,0-.461,2.509V79.34h-7Zm17.937,32.633a2.19,2.19,0,0,1-2.187,2.187H88.868a2.19,2.19,0,0,1-2.187-2.187V80.8h24.694Zm4.618,2.187h-2.63l2.144-3.736,1.863,3.247A2.176,2.176,0,0,1,115.992,108.6Zm2.187-27.8v25.617c0,.057,0,.112-.007.168l-2.666-4.647-2.678,4.668q0-.094,0-.189V80.8Z" transform="translate(-76.946 -60.245)"/>
      </g>
    </g>
    <g id="Grupo_1173383" data-name="Grupo 1173383">
      <g id="Grupo_1173137" data-name="Grupo 1173137" transform="translate(-6856.051 -10508)">
        <rect id="Rectángulo_421143" data-name="Rectángulo 421143" width="220" height="178" rx="14" transform="translate(937.051 4910)" fill="#f3f0ea"/>
        <text id="_5._Propiedad_Producto:_el_cliente_lo_posee._Servicio:_el_cliente_solo_lo_experimenta." data-name="5. Propiedad

  Producto: el cliente lo  
  posee.
  Servicio: el cliente solo  
  lo experimenta." transform="translate(957 4945)" fill="#12263f" font-size="16" font-family="Roboto-Bold, Roboto" font-weight="700"><tspan x="0" y="17">5. Propiedad</tspan><tspan x="0" y="37"></tspan><tspan x="0" y="57" xml:space="preserve">  Producto: </tspan><tspan y="57" xml:space="preserve" font-family="Roboto-Regular, Roboto" font-weight="400">el cliente lo  </tspan><tspan font-family="Roboto-Regular, Roboto" font-weight="400"><tspan x="0" y="77" xml:space="preserve">  posee.</tspan></tspan><tspan x="0" y="97" xml:space="preserve">  Servicio: </tspan><tspan y="97" xml:space="preserve" font-family="Roboto-Regular, Roboto" font-weight="400">el cliente solo  </tspan><tspan font-family="Roboto-Regular, Roboto" font-weight="400"><tspan x="0" y="117" xml:space="preserve">  lo experimenta.</tspan></tspan></text>
        <circle id="Elipse_13121" data-name="Elipse 13121" cx="3" cy="3" r="3" transform="translate(957.051 4991)" fill="#ff7630"/>
        <circle id="Elipse_13122" data-name="Elipse 13122" cx="3" cy="3" r="3" transform="translate(957.051 5032)" fill="#ff7630"/>
      </g>
      <g id="Grupo_1173138" data-name="Grupo 1173138" transform="translate(0 15)">
        <path id="Trazado_1037090-5" data-name="Trazado 1037090" d="M128.37,209.937,36.449,188.8A207.337,207.337,0,0,1,149.829,47.963l40.782,85.022a113.014,113.014,0,0,0-62.241,76.952" transform="matrix(-0.629, -0.777, 0.777, -0.629, -5844.6, -5487.258)" fill="#997b4d"/>
        <path id="Trazado_1037095-5" data-name="Trazado 1037095" d="M52.7,79.365l15.721,2.427,15.72,2.428-9.961,12.4-9.963,12.4L58.456,94.193Z" transform="matrix(-0.629, -0.777, 0.777, -0.629, -5839.622, -5498.629)" fill="#997b4d"/>
        <path id="Trazado_1037102-5" data-name="Trazado 1037102" d="M.875.563,99.6.4,101,17H0Z" transform="translate(-5862 -5719.678)" fill="#997b4d"/>
      </g>
      <g id="_x31_4_Value" transform="translate(-5855.692 -5644.092)">
        <g id="Grupo_1173374" data-name="Grupo 1173374" transform="translate(23.353 -36.568)">
          <g id="Grupo_1173369" data-name="Grupo 1173369" transform="translate(7.847 28.919)">
            <path id="Trazado_1037318" data-name="Trazado 1037318" d="M127.732,258.747a2.732,2.732,0,0,0-2.71-3.068h-6.192l-.19-.183a9.318,9.318,0,0,0-6.451-2.6h-.351a9.322,9.322,0,0,0-5.763,1.994l-4.921,3.882,5.749,10.614h16.181a7.143,7.143,0,0,0,5.2-2.246l11.084-11.814a3.072,3.072,0,1,0-4.493-4.191l-7.146,7.61a2.732,2.732,0,0,1-2.71,2.394H114.458" transform="translate(-101.155 -250.155)" fill="#f4feff"/>
          </g>
          <g id="Grupo_1173370" data-name="Grupo 1173370" transform="translate(0.618 35.302)">
            <path id="Trazado_1037319" data-name="Trazado 1037319" d="M43.317,327.589l-7.5-13.379a1.514,1.514,0,0,0-2.2-.5l-3.5,2.477a1.514,1.514,0,0,0-.438,1.99l7.607,13.238a1.514,1.514,0,0,0,2.171.493l3.4-2.336A1.514,1.514,0,0,0,43.317,327.589Z" transform="translate(-29.477 -313.436)" fill="#ff6067"/>
          </g>
          <g id="Grupo_1173371" data-name="Grupo 1173371" transform="translate(8.392 0)">
            <circle id="Elipse_13145" data-name="Elipse 13145" cx="11.728" cy="11.728" r="11.728" transform="translate(0 16.583) rotate(-45)" fill="#81b840"/>
          </g>
          <g id="Grupo_1173372" data-name="Grupo 1173372" transform="translate(19.52 16.998)">
            <path id="Trazado_1037320" data-name="Trazado 1037320" d="M227.809,134.544V137.7a2.112,2.112,0,0,1-2.112,2.112H219a2.112,2.112,0,0,1-2.112-2.112v-3.155a2.579,2.579,0,0,1,2.579-2.579h5.761A2.579,2.579,0,0,1,227.809,134.544Z" transform="translate(-216.891 -131.965)" fill="#f4feff"/>
          </g>
          <g id="Grupo_1173373" data-name="Grupo 1173373" transform="translate(22.17 8.318)">
            <path id="Trazado_1037321" data-name="Trazado 1037321" d="M248.779,48.714c0,1.551-1.259,3.546-2.81,3.546s-2.81-1.995-2.81-3.546a2.81,2.81,0,0,1,5.619,0Z" transform="translate(-243.16 -45.904)" fill="#f4feff"/>
          </g>
          <path id="Trazado_1037322" data-name="Trazado 1037322" d="M31.334,252.41l-.492-.876a2.129,2.129,0,0,0-3.086-.7l-3.5,2.477a2.12,2.12,0,0,0-.616,2.8l7.607,13.238a2.131,2.131,0,0,0,3.052.694l3.4-2.337a2.119,2.119,0,0,0,.651-2.8l-.216-.385h15a7.787,7.787,0,0,0,5.65-2.44l11.085-11.815a3.687,3.687,0,1,0-5.39-5.032l-6.231,6.634a3.352,3.352,0,0,0-3.177-2.287H49.125l-.012-.011a10.4,10.4,0,0,0-13.372-.643ZM37,266.7l-3.4,2.336a.9.9,0,0,1-1.289-.293L24.705,255.5a.9.9,0,0,1,.26-1.181l3.5-2.477a.9.9,0,0,1,1.3.294l7.505,13.379A.9.9,0,0,1,37,266.7Zm4.885-18.657a8.236,8.236,0,0,1,6.375,2.425c.137.107.256.355.616.355h6.192a2.116,2.116,0,0,1,0,4.232H44.5a.615.615,0,1,0,0,1.23H55.068a3.352,3.352,0,0,0,3.287-2.726l7.02-7.475a2.457,2.457,0,1,1,3.593,3.353L57.885,261.245a6.552,6.552,0,0,1-4.754,2.053H37.441l-5.454-9.837L36.5,249.9a8.746,8.746,0,0,1,5.383-1.862Z" transform="translate(-23.353 -215.759)"/>
          <path id="Trazado_1037323" data-name="Trazado 1037323" d="M173.33,17.8a12.343,12.343,0,1,0-12.343,12.343A12.357,12.357,0,0,0,173.33,17.8Zm-23.455,0a11.113,11.113,0,1,1,11.112,11.113A11.125,11.125,0,0,1,149.875,17.8Z" transform="translate(-136.008 -1.218)"/>
          <path id="Trazado_1037324" data-name="Trazado 1037324" d="M220.213,134.945a2.73,2.73,0,0,0,2.727-2.727v-3.155a3.2,3.2,0,0,0-3.194-3.193h-5.761a3.2,3.2,0,0,0-3.194,3.193v3.155a2.73,2.73,0,0,0,2.728,2.727Zm-5.434-1.23v-.995a.615.615,0,1,0-1.23,0v.995h-.029a1.5,1.5,0,0,1-1.5-1.5v-3.155a1.966,1.966,0,0,1,1.964-1.964h5.761a1.966,1.966,0,0,1,1.964,1.964v3.155a1.5,1.5,0,0,1-1.17,1.459v-.956a.615.615,0,1,0-1.23,0v.995h-4.531Z" transform="translate(-191.887 -109.485)"/>
          <path id="Trazado_1037325" data-name="Trazado 1037325" d="M240.488,47.393c1.9,0,3.425-2.276,3.425-4.16a3.424,3.424,0,1,0-6.849,0C237.064,45.117,238.592,47.393,240.488,47.393Zm0-6.355a2.2,2.2,0,0,1,2.195,2.195c0,1.28-1.065,2.931-2.195,2.931s-2.194-1.651-2.194-2.931A2.2,2.2,0,0,1,240.488,41.038Z" transform="translate(-215.509 -32.105)"/>
        </g>
      </g>
    </g>
  </g>
</svg>
