<svg xmlns="http://www.w3.org/2000/svg" xmlns:xlink="http://www.w3.org/1999/xlink" width="85" height="91" viewBox="0 0 85 91">
  <defs>
    <clipPath id="clip-path">
      <path id="path6210" d="M0-682.665H72.051v72.051H0Z" transform="translate(0 682.665)"/>
    </clipPath>
  </defs>
  <g id="Grupo_1162062" data-name="Grupo 1162062" transform="translate(-1335.051 -1369)">
    <g id="g6204" transform="translate(1341.051 2060.665)">
      <g id="g6206" transform="translate(0 -682.665)">
        <g id="g6208" clip-path="url(#clip-path)">
          <g id="g6214" transform="translate(15.903 1.055)">
            <path id="path6216" d="M-382.985-592.725h-43.253a1.938,1.938,0,0,1-1.938-1.938v-66.063a1.938,1.938,0,0,1,1.938-1.938h43.253a1.938,1.938,0,0,1,1.938,1.938v66.063a1.938,1.938,0,0,1-1.938,1.938" transform="translate(428.176 662.665)" fill="#f3eae6"/>
          </g>
          <g id="g6218" transform="translate(15.903 1.055)">
            <path id="path6220" d="M-382.986,0h-2.283V63.78a1.938,1.938,0,0,1-1.938,1.938h-40.97V68a1.939,1.939,0,0,0,1.939,1.938h43.253A1.938,1.938,0,0,0-381.048,68V1.938A1.938,1.938,0,0,0-382.986,0" transform="translate(428.178)" fill="#e9e0dc"/>
          </g>
          <g id="g6222" transform="translate(21.247 6.972)">
            <path id="path6224" d="M-293.745-364.6h-32.879a1.782,1.782,0,0,1-1.782-1.782v-39.459a1.782,1.782,0,0,1,1.782-1.782h32.879a1.782,1.782,0,0,1,1.782,1.782v39.459a1.782,1.782,0,0,1-1.782,1.782" transform="translate(328.406 407.626)" fill="#99e6fc"/>
          </g>
          <g id="g6226" transform="translate(21.247 6.972)">
            <path id="path6228" d="M-293.745,0h-2.44V37.019a1.782,1.782,0,0,1-1.782,1.782h-30.439v2.44a1.782,1.782,0,0,0,1.782,1.782h32.879a1.782,1.782,0,0,0,1.782-1.782V1.782A1.782,1.782,0,0,0-293.745,0" transform="translate(328.406)" fill="#62dbfb"/>
          </g>
          <g id="g6230" transform="translate(6.204 21.055)">
            <path id="path6232" d="M-39.875-147.5a1.094,1.094,0,0,0,1.446.609L-27.3-151.6a.91.91,0,0,0,.493-.505l2.37-6.02a.911.911,0,0,0,0-.666l-1.067-2.724a.911.911,0,0,0-.452-.488l-5.828-2.809a.911.911,0,0,0-.705-.036l-11.368,4.1a1.094,1.094,0,0,0-.648,1.428Z" transform="translate(44.58 164.901)" fill="#97da7b"/>
          </g>
          <g id="g6234" transform="translate(29.6 29.825)">
            <path id="path6236" d="M-10.493,0l-1.229,12.178a1.869,1.869,0,0,0,1.86,2.057H2.784L-3.71,3.909A8.372,8.372,0,0,0-10.493,0" transform="translate(11.731)" fill="#cb97e7"/>
          </g>
          <g id="g6238" transform="translate(22.007 54.106)">
            <path id="path6240" d="M-17.889-8.945a1.055,1.055,0,0,1-1.055,1.055A1.055,1.055,0,0,1-20-8.945,1.055,1.055,0,0,1-18.945-10a1.055,1.055,0,0,1,1.055,1.055" transform="translate(20 10)"/>
          </g>
          <g id="g6242" transform="translate(54.729 45.753)">
            <path id="path6244" d="M-69.417-.059A3.133,3.133,0,0,0-72.05,1.076,3.133,3.133,0,0,0-74.682-.059,3.15,3.15,0,0,0-77.6,2.816a3.131,3.131,0,0,0,.909,2.475c.44.44,2.986,2.194,4.108,2.96a.945.945,0,0,0,1.065,0A48.725,48.725,0,0,0-67.294,5.17a3.129,3.129,0,0,0,.8-2.282A3.151,3.151,0,0,0-69.417-.059" transform="translate(77.608 0.066)" fill="#feaee1"/>
          </g>
          <g id="g6246" transform="translate(50.528 57.386)">
            <path id="path6248" d="M-52.457-.044a2.368,2.368,0,0,0-1.989.857,2.367,2.367,0,0,0-1.989-.857,2.38,2.38,0,0,0-2.2,2.172A2.366,2.366,0,0,0-57.952,4c.333.333,2.256,1.658,3.1,2.237a.714.714,0,0,0,.8,0,36.806,36.806,0,0,0,3.19-2.33,2.364,2.364,0,0,0,.6-1.724A2.381,2.381,0,0,0-52.457-.044" transform="translate(58.646 0.05)" fill="#feaee1"/>
          </g>
          <g id="g6250" transform="translate(30.838 18.676)">
            <path id="path6252" d="M-156.683-197.7l-2.184-21.646a1.869,1.869,0,0,0-1.86-1.681h-11.63a1.869,1.869,0,0,0-1.86,1.681l-.955,9.468a8.371,8.371,0,0,1,6.783,3.909l6.494,10.326h3.352a1.869,1.869,0,0,0,1.86-2.057" transform="translate(175.172 221.026)" fill="#ffe177"/>
          </g>
          <g id="g6254" transform="translate(15.903 37.973)">
            <path id="path6256" d="M-257.437-279.86h-28.438a1.938,1.938,0,0,1-1.939-1.938v-31.084" transform="translate(287.814 312.883)" fill="none" stroke="#000" stroke-linecap="round" stroke-miterlimit="10" stroke-width="1"/>
          </g>
          <g id="g6258" transform="translate(50.502 52.825)">
            <path id="path6260" d="M-106.2,0V16.232a1.939,1.939,0,0,1-1.938,1.938h-10.593" transform="translate(118.729)" fill="none" stroke="#000" stroke-linecap="round" stroke-miterlimit="10" stroke-width="1"/>
          </g>
          <g id="g6262" transform="translate(15.903 1.055)">
            <path id="path6264" d="M0-169.752v-18.092a1.938,1.938,0,0,1,1.938-1.938H45.191a1.939,1.939,0,0,1,1.939,1.938v42.091" transform="translate(0 189.782)" fill="none" stroke="#000" stroke-linecap="round" stroke-miterlimit="10" stroke-width="1"/>
          </g>
          <g id="g6266" transform="translate(21.247 35.304)">
            <path id="path6268" d="M-281.765-124.489h-31.466a1.782,1.782,0,0,1-1.782-1.782v-12.908" transform="translate(315.013 139.178)" fill="none" stroke="#000" stroke-linecap="round" stroke-miterlimit="10" stroke-width="1"/>
          </g>
          <g id="g6270" transform="translate(33.822 6.972)">
            <path id="path6272" d="M0,0H22.086a1.782,1.782,0,0,1,1.782,1.782V38.433" fill="none" stroke="#000" stroke-linecap="round" stroke-miterlimit="10" stroke-width="1"/>
          </g>
          <g id="g6274" transform="translate(21.247 6.972)">
            <path id="path6276" d="M0-124.433v-12.9a1.782,1.782,0,0,1,1.782-1.782H8.353" transform="translate(0 139.116)" fill="none" stroke="#000" stroke-linecap="round" stroke-miterlimit="10" stroke-width="1"/>
          </g>
          <g id="g6278" transform="translate(6.204 21.055)">
            <path id="path6280" d="M-39.875-147.5a1.094,1.094,0,0,0,1.446.609L-27.3-151.6a.91.91,0,0,0,.493-.505l2.37-6.02a.911.911,0,0,0,0-.666l-1.067-2.724a.911.911,0,0,0-.452-.488l-5.828-2.809a.911.911,0,0,0-.705-.036l-11.368,4.1a1.094,1.094,0,0,0-.648,1.428Z" transform="translate(44.58 164.901)" fill="none" stroke="#000" stroke-linecap="round" stroke-miterlimit="10" stroke-width="1"/>
          </g>
          <g id="g6282" transform="translate(12.542 27.554)">
            <path id="path6284" d="M0,0,2.218,5.664" fill="none" stroke="#000" stroke-linecap="round" stroke-miterlimit="10" stroke-width="1"/>
          </g>
          <g id="g6286" transform="translate(16.805 26.009)">
            <path id="path6288" d="M0,0,2.218,5.664" fill="none" stroke="#000" stroke-linecap="round" stroke-miterlimit="10" stroke-width="1"/>
          </g>
          <g id="g6290" transform="translate(30.838 29.825)">
            <path id="path6292" d="M-112.518-120.638l-6.494-10.326a8.372,8.372,0,0,0-6.783-3.909" transform="translate(125.794 134.873)" fill="none" stroke="#000" stroke-linecap="round" stroke-miterlimit="10" stroke-width="1"/>
          </g>
          <g id="g6294" transform="translate(29.6 18.676)">
            <path id="path6296" d="M-151.415-215.129h-16a1.869,1.869,0,0,1-1.86-2.057l2.184-21.646a1.869,1.869,0,0,1,1.86-1.682h11.63a1.869,1.869,0,0,1,1.86,1.682l2.183,21.646A1.869,1.869,0,0,1-151.415-215.129Z" transform="translate(169.281 240.514)" fill="none" stroke="#000" stroke-linecap="round" stroke-miterlimit="10" stroke-width="1"/>
          </g>
          <g id="g6298" transform="translate(36.294 11.125)">
            <path id="path6300" d="M-53.807-63.994h-6.349v-4.377a3.175,3.175,0,0,1,3.174-3.175,3.175,3.175,0,0,1,3.175,3.175Z" transform="translate(60.156 71.545)" fill="none" stroke="#000" stroke-linecap="round" stroke-miterlimit="10" stroke-width="1"/>
          </g>
          <g id="g6302" transform="translate(26.797 55.161)">
            <path id="path6304" d="M0,0H15.923" fill="none" stroke="#000" stroke-linecap="round" stroke-linejoin="round" stroke-miterlimit="10" stroke-width="1"/>
          </g>
          <g id="g6306" transform="translate(26.797 60.591)">
            <path id="path6308" d="M0,0H23.7" fill="none" stroke="#000" stroke-linecap="round" stroke-linejoin="round" stroke-miterlimit="10" stroke-width="1"/>
          </g>
          <g id="g6310" transform="translate(54.729 45.753)">
            <path id="path6312" d="M-69.417-.059A3.133,3.133,0,0,0-72.05,1.076,3.133,3.133,0,0,0-74.682-.059,3.15,3.15,0,0,0-77.6,2.816a3.131,3.131,0,0,0,.909,2.475c.44.44,2.986,2.194,4.108,2.96a.945.945,0,0,0,1.065,0A48.725,48.725,0,0,0-67.294,5.17a3.129,3.129,0,0,0,.8-2.282A3.151,3.151,0,0,0-69.417-.059Z" transform="translate(77.608 0.066)" fill="none" stroke="#000" stroke-linecap="round" stroke-linejoin="round" stroke-miterlimit="10" stroke-width="1"/>
          </g>
          <g id="g6314" transform="translate(50.528 57.386)">
            <path id="path6316" d="M-52.457-.044a2.368,2.368,0,0,0-1.989.857,2.367,2.367,0,0,0-1.989-.857,2.38,2.38,0,0,0-2.2,2.172A2.366,2.366,0,0,0-57.952,4c.333.333,2.256,1.658,3.1,2.237a.714.714,0,0,0,.8,0,36.806,36.806,0,0,0,3.19-2.33,2.364,2.364,0,0,0,.6-1.724A2.381,2.381,0,0,0-52.457-.044Z" transform="translate(58.646 0.05)" fill="none" stroke="#000" stroke-linecap="round" stroke-linejoin="round" stroke-miterlimit="10" stroke-width="1"/>
          </g>
          <g id="g6318" transform="translate(25.711 23.768)">
            <path id="path6320" d="M0-15.04l5.738-1.775" transform="translate(0 16.815)" fill="none" stroke="#000" stroke-linecap="round" stroke-miterlimit="10" stroke-width="1"/>
          </g>
        </g>
      </g>
    </g>
    <rect id="Rectángulo_418192" data-name="Rectángulo 418192" width="85" height="91" transform="translate(1335.051 1369)" fill="none"/>
  </g>
</svg>
