<svg xmlns="http://www.w3.org/2000/svg" xmlns:xlink="http://www.w3.org/1999/xlink" width="108.176" height="108.176" viewBox="0 0 108.176 108.176">
  <defs>
    <filter id="Trazado_873210" x="0" y="0" width="108.176" height="108.176" filterUnits="userSpaceOnUse">
      <feOffset dy="3" input="SourceAlpha"/>
      <feGaussianBlur stdDeviation="3" result="blur"/>
      <feFlood flood-opacity="0.412"/>
      <feComposite operator="in" in2="blur"/>
      <feComposite in="SourceGraphic"/>
    </filter>
  </defs>
  <g id="Grupo_1149014" data-name="Grupo 1149014" transform="translate(-1207.892 -416.825)">
    <g id="Grupo_1107631" data-name="Grupo 1107631" transform="translate(1216.892 422.825)">
      <g transform="matrix(1, 0, 0, 1, -9, -6)" filter="url(#Trazado_873210)">
        <g id="Trazado_873210-2" data-name="Trazado 873210" transform="translate(9 6)" fill="#d3e6fe">
          <path d="M 45.08791732788086 88.17583465576172 C 39.27021026611328 88.17583465576172 33.62758255004883 87.03688049316406 28.31677055358887 84.79059600830078 C 23.18613052368164 82.62051391601562 18.57793045043945 79.51343536376953 14.62015724182129 75.55567932128906 C 10.66239738464355 71.59791564941406 7.555317401885986 66.98970031738281 5.385237216949463 61.85906219482422 C 3.138957262039185 56.54826354980469 1.99999737739563 50.90563583374023 1.99999737739563 45.08791732788086 C 1.99999737739563 39.27021026611328 3.138957262039185 33.62758255004883 5.385237216949463 28.31677055358887 C 7.555317401885986 23.18613052368164 10.66239738464355 18.57793045043945 14.62015724182129 14.62015724182129 C 18.57793045043945 10.66239738464355 23.18613052368164 7.555317401885986 28.31677055358887 5.385237216949463 C 33.62758255004883 3.138957262039185 39.27021026611328 1.99999737739563 45.08791732788086 1.99999737739563 C 50.90563583374023 1.99999737739563 56.54826354980469 3.138957262039185 61.85906219482422 5.385237216949463 C 66.98970031738281 7.555317401885986 71.59791564941406 10.66239738464355 75.55567932128906 14.62015724182129 C 79.51343536376953 18.57793045043945 82.62051391601562 23.18613052368164 84.79059600830078 28.31677055358887 C 87.03688049316406 33.62758255004883 88.17583465576172 39.27021026611328 88.17583465576172 45.08791732788086 C 88.17583465576172 50.90563583374023 87.03688049316406 56.54826354980469 84.79059600830078 61.85906219482422 C 82.62051391601562 66.98970031738281 79.51343536376953 71.59791564941406 75.55567932128906 75.55567932128906 C 71.59791564941406 79.51343536376953 66.98970031738281 82.62051391601562 61.85906219482422 84.79059600830078 C 56.54826354980469 87.03688049316406 50.90563583374023 88.17583465576172 45.08791732788086 88.17583465576172 Z" stroke="none"/>
          <path d="M 45.08791732788086 3.999992370605469 C 39.5393180847168 3.999992370605469 34.1588249206543 5.085792541503906 29.09587097167969 7.227241516113281 C 24.20362854003906 9.296485900878906 19.80910491943359 12.2596435546875 16.03436279296875 16.03436279296875 C 12.2596435546875 19.80910491943359 9.296485900878906 24.20362854003906 7.227241516113281 29.09587097167969 C 5.085792541503906 34.1588249206543 3.999992370605469 39.5393180847168 3.999992370605469 45.08791732788086 C 3.999992370605469 50.63651657104492 5.085792541503906 56.01702499389648 7.227241516113281 61.07996368408203 C 9.296485900878906 65.97221374511719 12.2596435546875 70.36672973632812 16.03436279296875 74.14147186279297 C 19.80910491943359 77.91620635986328 24.20362854003906 80.87934875488281 29.09587097167969 82.94859313964844 C 34.1588249206543 85.09004211425781 39.5393180847168 86.17584228515625 45.08791732788086 86.17584228515625 C 50.63651657104492 86.17584228515625 56.01702499389648 85.09004211425781 61.07996368408203 82.94859313964844 C 65.97221374511719 80.87934875488281 70.36672973632812 77.91620635986328 74.14147186279297 74.14147186279297 C 77.91620635986328 70.36672973632812 80.87934875488281 65.97221374511719 82.94859313964844 61.07996368408203 C 85.09004211425781 56.01702499389648 86.17584228515625 50.63651657104492 86.17584228515625 45.08791732788086 C 86.17584228515625 39.5393180847168 85.09004211425781 34.1588249206543 82.94859313964844 29.09587097167969 C 80.87934875488281 24.20362854003906 77.91620635986328 19.80910491943359 74.14147186279297 16.03436279296875 C 70.36672973632812 12.2596435546875 65.97221374511719 9.296485900878906 61.07996368408203 7.227241516113281 C 56.01702499389648 5.085792541503906 50.63651657104492 3.999992370605469 45.08791732788086 3.999992370605469 M 45.08791732788086 -7.62939453125e-06 C 69.98930358886719 -7.62939453125e-06 90.17584228515625 20.18654632568359 90.17584228515625 45.08791732788086 C 90.17584228515625 69.98930358886719 69.98930358886719 90.17584228515625 45.08791732788086 90.17584228515625 C 20.18654632568359 90.17584228515625 -7.62939453125e-06 69.98930358886719 -7.62939453125e-06 45.08791732788086 C -7.62939453125e-06 20.18654632568359 20.18654632568359 -7.62939453125e-06 45.08791732788086 -7.62939453125e-06 Z" stroke="none" fill="#fff"/>
        </g>
      </g>
    </g>
    <g id="Grupo_1108455" data-name="Grupo 1108455" transform="translate(1234.473 440.397)">
      <path id="Trazado_896766" data-name="Trazado 896766" d="M141.83,29.35h20.749a9.358,9.358,0,0,1,0,18.717H141.83a9.358,9.358,0,1,1,0-18.717Z" transform="translate(-119.89 -28.516)" fill="#6ecbd6" fill-rule="evenodd"/>
      <path id="Trazado_896767" data-name="Trazado 896767" d="M177.13,29.35H197.88A9.353,9.353,0,0,1,206.43,42.5a9.273,9.273,0,0,1-3.8.81H181.88a9.346,9.346,0,0,1-8.55-13.152A9.283,9.283,0,0,1,177.13,29.35Z" transform="translate(-155.19 -28.516)" fill="#aadee9" fill-rule="evenodd"/>
      <path id="Trazado_896768" data-name="Trazado 896768" d="M286.2,283.878l-2.4,10.473a3.393,3.393,0,0,1-3.284,2.75H265.855c-1.583,0-2.549.114-2.767-.867l-3.368-13.32,25.325-.024C286.007,282.889,286.34,283.259,286.2,283.878Z" transform="translate(-232.048 -251.986)" fill="#b9d9f2" fill-rule="evenodd"/>
      <path id="Trazado_896769" data-name="Trazado 896769" d="M310.7,283.869l-2.364,10.308a25.732,25.732,0,0,1-10.685-2.609c-4.74-2.243-8.347-5.459-10.133-8.667l22.028-.02C310.51,282.88,310.843,283.25,310.7,283.869Z" transform="translate(-256.551 -251.977)" fill="#e5f0fa" fill-rule="evenodd"/>
      <path id="Trazado_896770" data-name="Trazado 896770" d="M227.544,274.992c1.006,0,1.143,2.478.138,2.478h-15.4c-1.886,0-2.45,2.491-.154,2.491h10.843c1.006,0,1.129,2.316.125,2.316H211.147a3.424,3.424,0,0,1-2.417-5.84c.823-.827,2.276-1.059,1.8-2.679l-3.02-10.359a3.214,3.214,0,0,0-3.12-2.344h-2.468c-1.4,0-1.318-2.135.121-2.135h2.679a4.933,4.933,0,0,1,4.643,3.54l3.509,11.017a2,2,0,0,0,1.889,1.513h12.778Z" transform="translate(-180.22 -230.859)" fill="#63cbe7"/>
      <g id="Grupo_1108454" data-name="Grupo 1108454" transform="translate(0.83 4.733)">
        <path id="Trazado_896771" data-name="Trazado 896771" d="M265.627,432.32a2.789,2.789,0,1,1-2.787,2.791A2.789,2.789,0,0,1,265.627,432.32Z" transform="translate(-235.628 -388.427)" fill="#999" fill-rule="evenodd"/>
        <path id="Trazado_896772" data-name="Trazado 896772" d="M367.187,432.32a2.789,2.789,0,1,1-2.787,2.791A2.789,2.789,0,0,1,367.187,432.32Z" transform="translate(-325.143 -388.427)" fill="#999" fill-rule="evenodd"/>
        <path id="Trazado_896773" data-name="Trazado 896773" d="M40.437,316.13h8.731a7.058,7.058,0,0,1,7.037,7.037V330.2H33.4v-7.037A7.058,7.058,0,0,1,40.437,316.13Z" transform="translate(-33.4 -286.017)" fill="#ce2027" fill-rule="evenodd"/>
        <path id="Trazado_896774" data-name="Trazado 896774" d="M60.383,316.13h8.731a7.058,7.058,0,0,1,7.037,7.037v3.022a12.911,12.911,0,0,1-8.347,1.433c-6.374-.857-11.568-5.285-11.774-9.972A6.983,6.983,0,0,1,60.383,316.13Z" transform="translate(-53.346 -286.017)" fill="#ed2024" fill-rule="evenodd"/>
        <path id="Trazado_896775" data-name="Trazado 896775" d="M100.13,260.3c.414-.77.31-2.5.31-7.41h6.78c0,4.905-.1,6.718.266,7.5C105.354,262.7,102.211,262.862,100.13,260.3Z" transform="translate(-92.216 -230.277)" fill="#f9b5b2" fill-rule="evenodd"/>
        <path id="Trazado_896776" data-name="Trazado 896776" d="M91.03,175.6a15.661,15.661,0,0,1-.676,4.341c-.1.282-.2.561-.3.83-2.047,5.019-6.788,5.49-9.34,1.413-1.5-1.825-2.309-6.916-1.022-10.416,5.309-3.742,6.758-2.619,10.876,0A26.005,26.005,0,0,1,91.03,175.6Z" transform="translate(-73.638 -156.658)" fill="#f9b5b2" fill-rule="evenodd"/>
        <path id="Trazado_896777" data-name="Trazado 896777" d="M323.656,62.23l1.778,3.584,3.96.585-2.861,2.8.669,3.944-3.546-1.853-3.544,1.853.665-3.944-2.857-2.8,3.957-.585Z" transform="translate(-284.175 -62.23)" fill="#fed640" fill-rule="evenodd"/>
        <path id="Trazado_896778" data-name="Trazado 896778" d="M349.516,62.23l1.779,3.584,3.96.585-2.862,2.8.192,1.129a8.587,8.587,0,0,1-5.325-4.444l.478-.071Z" transform="translate(-310.036 -62.23)" fill="#f8ed3f" fill-rule="evenodd"/>
        <path id="Trazado_896779" data-name="Trazado 896779" d="M188.806,62.23l1.779,3.584,3.957.585-2.857,2.8.669,3.944-3.547-1.853-3.546,1.853.669-3.944-2.858-2.8,3.958-.585Z" transform="translate(-165.319 -62.23)" fill="#fed640" fill-rule="evenodd"/>
        <path id="Trazado_896780" data-name="Trazado 896780" d="M214.745,62.23l1.779,3.584,3.957.585-2.857,2.8.2,1.193a8.606,8.606,0,0,1-5.325-4.508l.467-.071Z" transform="translate(-191.258 -62.23)" fill="#f8ed3f" fill-rule="evenodd"/>
        <path id="Trazado_896781" data-name="Trazado 896781" d="M46.722,131.128c-.013-.4-.02-.76-.017-1.14,0-.508.451-.75.931-.925a13.844,13.844,0,0,1,10.093-.168c.467.174.9.4.925.9a9.557,9.557,0,0,1-.084,1.695c.938.326,1.486-.1,2.091-.887a2.3,2.3,0,0,0,.074-2.7,3.305,3.305,0,0,0,.02-6.284,3.207,3.207,0,0,0-5.383-2.219,3.039,3.039,0,0,0-5.668.286,2.7,2.7,0,0,0-5.107,1.4,2.541,2.541,0,0,0-.669,4.882,2.826,2.826,0,0,0-.76,3.328A3.763,3.763,0,0,0,46.722,131.128Z" transform="translate(-41.278 -111.03)" fill="#b3782c" fill-rule="evenodd"/>
        <path id="Trazado_896782" data-name="Trazado 896782" d="M74.534,154.545a2.894,2.894,0,0,1,.37-.158A13.844,13.844,0,0,1,85,154.219c.467.174.9.4.925.9a9.557,9.557,0,0,1-.084,1.695c.938.326,1.486-.1,2.091-.887a2.3,2.3,0,0,0,.074-2.7,3.305,3.305,0,0,0,.753-5.937,3.21,3.21,0,0,0-2.45.841,3.039,3.039,0,0,0-5.668.286,2.7,2.7,0,0,0-5.106,1.4,2.543,2.543,0,0,0-1,4.722Z" transform="translate(-68.545 -136.353)" fill="#bd8e41" fill-rule="evenodd"/>
      </g>
      <path id="Trazado_896783" data-name="Trazado 896783" d="M33.484,46.556c.031,1.724.487,4.3,1.466,5.494h0a.558.558,0,0,1,.064.088c1.288,2.061,3.443,3.073,5.51,1.779,2-1.254,2.965-4.182,3.177-6.469a12.013,12.013,0,0,0,.081-1.567,1.491,1.491,0,0,0-.39-.192,13.092,13.092,0,0,0-9.525.174,1.442,1.442,0,0,0-.383.185C33.481,46.221,33.481,46.386,33.484,46.556Zm-1.567,1.426a4.59,4.59,0,0,1-3.553-2.32,3.655,3.655,0,0,1,.259-3.483,3.371,3.371,0,0,1,1.123-5.732,3.541,3.541,0,0,1,5.783-2.212,3.874,3.874,0,0,1,2.626-1.429A10.217,10.217,0,0,1,48.338,22.32H69.091a10.189,10.189,0,0,1,0,20.377H49.332a4.117,4.117,0,0,1-1.55,1.634,3.136,3.136,0,0,1-.511,2.794,2.792,2.792,0,0,1-2.038,1.325,13.619,13.619,0,0,1-.81,3,.346.346,0,0,1-.027.064,9.333,9.333,0,0,1-1.349,2.32c0,.867.011,1.53.044,2.047.013.174.027.326.044.454A7.886,7.886,0,0,1,50.864,64.2v7.037a.83.83,0,0,1-.83.83H27.23a.828.828,0,0,1-.83-.83V64.2a7.888,7.888,0,0,1,7.867-7.867h.253a3.226,3.226,0,0,0,.053-.4c.04-.4.057-.918.064-1.59a7.874,7.874,0,0,1-1-1.281,7.472,7.472,0,0,1-1.2-2.5,14.518,14.518,0,0,1-.514-2.58ZM39.821,33a3.874,3.874,0,0,1,1.745,1.233,4.032,4.032,0,0,1,5.2,1.167l.185-1.1L44.4,31.812a.831.831,0,0,1,.46-1.413l3.53-.521,1.583-3.194a.831.831,0,0,1,1.486,0l1.583,3.194,3.53.521A.831.831,0,0,1,57,31.845L54.48,34.306l.6,3.524a.829.829,0,0,1-1.248.843l-3.117-1.631-1.94,1.015a4.123,4.123,0,0,1,1.015,2.978h19.3a8.528,8.528,0,0,0,0-17.056H48.337A8.558,8.558,0,0,0,39.821,33ZM31.826,46.294a1.652,1.652,0,0,1,.581-1.506,2.817,2.817,0,0,1,.9-.48,14.73,14.73,0,0,1,10.667-.168c.746.282,1.426.722,1.459,1.647.011.3.011.6,0,.891a2.672,2.672,0,0,0,.524-.559A1.469,1.469,0,0,0,46,44.391a.826.826,0,0,1,.464-1.264,2.471,2.471,0,0,0,.678-4.336,2.033,2.033,0,0,1-1.267-1.166,2.377,2.377,0,0,0-3.991-1.593.826.826,0,0,1-1.318-.273h0a2.209,2.209,0,0,0-4.118.209.831.831,0,0,1-1.539.1,1.876,1.876,0,0,0-3.187-.218,1.855,1.855,0,0,0-.343,1.213.831.831,0,0,1-.737.878,1.711,1.711,0,0,0-.451,3.288.829.829,0,0,1,.222,1.4v0a2,2,0,0,0-.538,2.353A2.917,2.917,0,0,0,31.826,46.294ZM51.752,31l-1.035-2.084L49.7,30.964a.835.835,0,0,1-.639.495l-2.307.339,1.64,1.607a.827.827,0,0,1,.262.75l-.39,2.3,2.067-1.079a.822.822,0,0,1,.766,0l2.067,1.079-.39-2.3a.829.829,0,0,1,.235-.726L54.677,31.8l-2.307-.339v0A.819.819,0,0,1,51.752,31Zm15.7-4.316,1.583,3.194,3.53.521a.83.83,0,0,1,.427,1.446l-2.514,2.461.6,3.524a.828.828,0,0,1-1.248.843l-3.117-1.631L63.546,38.7a.826.826,0,0,1-1.2-.867l.6-3.524-2.551-2.494a.833.833,0,0,1,.46-1.413l3.53-.521,1.583-3.194A.83.83,0,0,1,67.453,26.685ZM67.746,31,66.71,28.917,65.7,30.964a.835.835,0,0,1-.642.495l-2.307.339,1.64,1.607a.809.809,0,0,1,.262.75l-.39,2.3,2.067-1.079a.822.822,0,0,1,.766,0l2.067,1.079-.39-2.3A.84.84,0,0,1,69,33.428L70.672,31.8l-2.3-.339v0A.822.822,0,0,1,67.746,31ZM31.716,70.41V65.125a.83.83,0,0,1,1.66,0V70.41H43.885V65.125a.83.83,0,0,1,1.66,0V70.41H49.2V64.2A6.226,6.226,0,0,0,43,57.993h-.148a6.01,6.01,0,0,1-4.085,1.779,5.364,5.364,0,0,1-3.914-1.779h-.585A6.226,6.226,0,0,0,28.059,64.2v6.21Zm9.7-15.1a5.1,5.1,0,0,1-5.151.246,6.839,6.839,0,0,1-.172,1.332,3.708,3.708,0,0,0,5.473.04A8.742,8.742,0,0,1,41.411,55.314Zm16.124,7.564a.672.672,0,0,1-.051-.154l-1.469-4.616a.833.833,0,0,1-.148-.46l-1.1-3.439a.955.955,0,0,1-.033-.108,4.1,4.1,0,0,0-3.832-2.892H48.226a.292.292,0,0,0-.282.407c.017.04.068.071.158.071h2.47a4.046,4.046,0,0,1,3.916,2.941L57.5,64.984c.68,2.327-1.2,2.683-2.01,3.5a2.527,2.527,0,0,0-.659,2.542,3.587,3.587,0,0,1,1.14-.682A2.379,2.379,0,0,1,58.463,68.1h15.29c-.121-.031-.024.037-.031-.306-.007-.315-.077-.218-.024-.511H60.944a2.839,2.839,0,0,1-2.676-2.095Zm1.365-1.16h3.106l-.965-3.251H57.865Zm-1.567-4.911h3.214l-.817-2.74H56.463Zm2.928-4.4a1.386,1.386,0,0,1,.172,0L79.4,52.393c1.325,0,2.256.7,1.96,2l-2.4,10.473a4.256,4.256,0,0,1-3.61,3.368,1.551,1.551,0,0,1-1.486,1.523h-15.4a.852.852,0,0,0-.773.387,3.624,3.624,0,0,1,1.332.444h8.466a3.618,3.618,0,1,1-1.735,3.973h-5a3.618,3.618,0,1,1-6.973-1.917,4.22,4.22,0,0,1,.541-5.338c.786-.786,1.853-.975,1.6-1.862L52.9,55.089a2.383,2.383,0,0,0-2.327-1.745H48.1a1.834,1.834,0,0,1-1.677-2.609,1.865,1.865,0,0,1,1.8-1.187H50.9a5.983,5.983,0,0,1,4.935,2.868Zm1.2,1.654.817,2.743h5.3v-2.75Zm7.776-.007v2.75h5.8l.821-2.756Zm8.348-.009-.821,2.76h2.344l.625-2.734C79.472,54.024,77.946,54.047,77.583,54.047Zm1.14,4.42H76.269L75.3,61.718H77.98ZM77.6,63.38H74.805l-.68,2.293a1.615,1.615,0,0,1,.992.914A2.59,2.59,0,0,0,77.343,64.5Zm-5.188,2.239.665-2.239H69.234v2.239Zm-4.838,0V63.38H64.232l.667,2.239Zm-4.407,0L62.5,63.38H59.428l.416,1.308a1.184,1.184,0,0,0,1.1.931Zm.572-3.9h3.836V58.468h-4.8Zm5.5,0h4.337l.968-3.251H69.234ZM65.752,72.9a3.585,3.585,0,0,1,.222-.656H60.531a3.585,3.585,0,0,1,.222.656Zm4.908-.554a1.957,1.957,0,1,0,0,2.767A1.96,1.96,0,0,0,70.66,72.35Zm-12.045,0a1.957,1.957,0,1,0,0,2.767A1.961,1.961,0,0,0,58.615,72.35ZM73.786,68.1l0-.007c-.031,0-.06,0-.077,0Z" transform="translate(-26.4 -22.32)"/>
    </g>
  </g>
</svg>
