<svg xmlns="http://www.w3.org/2000/svg" xmlns:xlink="http://www.w3.org/1999/xlink" width="116.234" height="116.234" viewBox="0 0 116.234 116.234">
  <defs>
    <filter id="Trazado_873211" x="0" y="0" width="116.234" height="116.234" filterUnits="userSpaceOnUse">
      <feOffset dy="3" input="SourceAlpha"/>
      <feGaussianBlur stdDeviation="3" result="blur"/>
      <feFlood flood-opacity="0.412"/>
      <feComposite operator="in" in2="blur"/>
      <feComposite in="SourceGraphic"/>
    </filter>
  </defs>
  <g id="Grupo_1149013" data-name="Grupo 1149013" transform="translate(-1011.433 -457.999)">
    <g id="Grupo_1108458" data-name="Grupo 1108458" transform="translate(20.611 85)">
      <g transform="matrix(1, 0, 0, 1, 990.82, 373)" filter="url(#Trazado_873211)">
        <g id="Trazado_873211-2" data-name="Trazado 873211" transform="translate(9 6)" fill="#ffe8c3">
          <path d="M 49.1171875 96.234375 C 42.75553131103516 96.234375 36.5852165222168 94.98888397216797 30.77767372131348 92.53248596191406 C 25.1672306060791 90.15946960449219 20.12811660766602 86.76187133789062 15.80030155181885 82.43407440185547 C 11.47250175476074 78.10626983642578 8.074901580810547 73.06716156005859 5.701887607574463 67.45671844482422 C 3.245487451553345 61.6491584777832 2.000001668930054 55.47884368896484 2.000001668930054 49.1171875 C 2.000001668930054 42.75553131103516 3.245487451553345 36.5852165222168 5.701887607574463 30.77767372131348 C 8.074901580810547 25.1672306060791 11.47250175476074 20.12811660766602 15.80030155181885 15.80030155181885 C 20.12811660766602 11.47250175476074 25.1672306060791 8.074901580810547 30.77767372131348 5.701887607574463 C 36.5852165222168 3.245487451553345 42.75553131103516 2.000001668930054 49.1171875 2.000001668930054 C 55.47884368896484 2.000001668930054 61.6491584777832 3.245487451553345 67.45671844482422 5.701887607574463 C 73.06716156005859 8.074901580810547 78.10626983642578 11.47250175476074 82.43407440185547 15.80030155181885 C 86.76187133789062 20.12811660766602 90.15946960449219 25.1672306060791 92.53248596191406 30.77767372131348 C 94.98888397216797 36.5852165222168 96.234375 42.75553131103516 96.234375 49.1171875 C 96.234375 55.47885894775391 94.98888397216797 61.6491584777832 92.53248596191406 67.45671844482422 C 90.15946960449219 73.06716156005859 86.76187133789062 78.10626983642578 82.43407440185547 82.43407440185547 C 78.10626983642578 86.76187133789062 73.06716156005859 90.15946960449219 67.45671844482422 92.53248596191406 C 61.6491584777832 94.98888397216797 55.47885894775391 96.234375 49.1171875 96.234375 Z" stroke="none"/>
          <path d="M 49.1171875 4.000007629394531 C 43.02463912963867 4.000007629394531 37.11647033691406 5.192337036132812 31.55677032470703 7.54388427734375 C 26.18472290039062 9.816070556640625 21.35930633544922 13.06975555419922 17.21452331542969 17.21452331542969 C 13.06975555419922 21.35930633544922 9.816070556640625 26.18472290039062 7.54388427734375 31.55677032470703 C 5.192337036132812 37.11647033691406 4.000007629394531 43.02463912963867 4.000007629394531 49.1171875 C 4.000007629394531 55.20973587036133 5.192337036132812 61.117919921875 7.54388427734375 66.67760467529297 C 9.816070556640625 72.04965209960938 13.06975555419922 76.87509155273438 17.21452331542969 81.01985168457031 C 21.35930633544922 85.16463470458984 26.18472290039062 88.41830444335938 31.55677032470703 90.69049072265625 C 37.11647033691406 93.04203796386719 43.02463912963867 94.23436737060547 49.1171875 94.23436737060547 C 55.20973587036133 94.23436737060547 61.117919921875 93.04203796386719 66.67760467529297 90.69049072265625 C 72.04965209960938 88.41830444335938 76.87509155273438 85.16463470458984 81.01985168457031 81.01985168457031 C 85.16463470458984 76.87509155273438 88.41830444335938 72.04965209960938 90.69049072265625 66.67760467529297 C 93.04203796386719 61.117919921875 94.23436737060547 55.20973587036133 94.23436737060547 49.1171875 C 94.23436737060547 43.02463912963867 93.04203796386719 37.11647033691406 90.69049072265625 31.55677032470703 C 88.41830444335938 26.18472290039062 85.16463470458984 21.35930633544922 81.01985168457031 17.21452331542969 C 76.87509155273438 13.06975555419922 72.04965209960938 9.816070556640625 66.67760467529297 7.54388427734375 C 61.117919921875 5.192337036132812 55.20973587036133 4.000007629394531 49.1171875 4.000007629394531 M 49.1171875 7.62939453125e-06 C 76.24387359619141 7.62939453125e-06 98.23436737060547 21.99052429199219 98.23436737060547 49.1171875 C 98.23436737060547 76.24387359619141 76.24387359619141 98.23436737060547 49.1171875 98.23436737060547 C 21.99052429199219 98.23436737060547 7.62939453125e-06 76.24387359619141 7.62939453125e-06 49.1171875 C 7.62939453125e-06 21.99052429199219 21.99052429199219 7.62939453125e-06 49.1171875 7.62939453125e-06 Z" stroke="none" fill="#fff"/>
        </g>
      </g>
    </g>
    <g id="Grupo_1108462" data-name="Grupo 1108462" transform="translate(1024.202 474.75)">
      <g id="Grupo_1108460" data-name="Grupo 1108460" transform="translate(22.236 22.019)">
        <path id="Trazado_896800" data-name="Trazado 896800" d="M23,35H69.221V83.476H23Z" transform="translate(-23 -35)" fill="#fc9f02"/>
        <path id="Trazado_896801" data-name="Trazado 896801" d="M57.105,57.95l2.752,5.578,6.155.895-4.454,4.341,1.051,6.13L57.105,72,51.6,74.893l1.052-6.13L48.2,64.422l6.155-.895Z" transform="translate(-33.995 -45.014)" fill="#ffd92e"/>
        <path id="Trazado_896802" data-name="Trazado 896802" d="M23,113.373l9.853-9.853H59.368l9.853,9.853Z" transform="translate(-23 -64.897)" fill="#fb7817"/>
      </g>
      <g id="Grupo_1108461" data-name="Grupo 1108461" transform="translate(21.25 5.25)">
        <path id="Trazado_896803" data-name="Trazado 896803" d="M66.187,63.353a.986.986,0,0,0-.8-.671l-5.642-.82L57.226,56.75a.986.986,0,0,0-1.769,0l-2.523,5.112-5.642.82a.986.986,0,0,0-.546,1.683l4.083,3.979-.964,5.619A.986.986,0,0,0,51.3,75l5.046-2.653L61.387,75a.986.986,0,0,0,1.431-1.04l-.964-5.619,4.083-3.979A.986.986,0,0,0,66.187,63.353Zm-6.08,3.94a.985.985,0,0,0-.282.873l.713,4.16L56.8,70.362a.987.987,0,0,0-.918,0l-3.735,1.964.713-4.16a.985.985,0,0,0-.282-.873l-3.022-2.946,4.177-.607a.984.984,0,0,0,.742-.539l1.865-3.787L58.209,63.2a.985.985,0,0,0,.743.539l4.177.607Z" transform="translate(-32.244 -27.481)"/>
        <path id="Trazado_896804" data-name="Trazado 896804" d="M68.458,21.033H58.171V18.074a12.824,12.824,0,1,0-25.647,0v2.959H22.236a.986.986,0,0,0-.986.986V50.365a.986.986,0,1,0,1.973,0V23.006h9.3v5.461a.986.986,0,0,0,1.973,0V23.006H56.2v5.461a.986.986,0,0,0,1.973,0V23.006h9.3v9.1a.986.986,0,0,0,1.973,0V22.019a.986.986,0,0,0-.986-.986Zm-33.961,0V18.074a10.851,10.851,0,1,1,21.7,0v2.959Z" transform="translate(-21.25 -5.25)"/>
        <path id="Trazado_896805" data-name="Trazado 896805" d="M68.458,74.354a.986.986,0,0,0-.986.986V98.266L59.3,90.1a.987.987,0,0,0-.7-.289H32.089a.987.987,0,0,0-.7.288l-8.169,8.169V85.653a.986.986,0,0,0-1.973,0v14.994a.986.986,0,0,0,.986.986H34.379a.986.986,0,0,0,0-1.973H24.618l7.88-7.88H58.2l7.88,7.88H39.516a.986.986,0,0,0,0,1.973H68.458a.986.986,0,0,0,.986-.986V75.338A.986.986,0,0,0,68.458,74.354Z" transform="translate(-21.25 -35.402)"/>
        <path id="Trazado_896806" data-name="Trazado 896806" d="M104.236,60.268a.986.986,0,0,0-.986.986v2.8a.986.986,0,1,0,1.973,0v-2.8a.986.986,0,0,0-.986-.986Z" transform="translate(-57.029 -29.256)"/>
      </g>
    </g>
  </g>
</svg>
