<svg xmlns="http://www.w3.org/2000/svg" xmlns:xlink="http://www.w3.org/1999/xlink" width="120.218" height="120.218" viewBox="0 0 120.218 120.218">
  <defs>
    <filter id="Trazado_873212" x="0" y="0" width="120.218" height="120.218" filterUnits="userSpaceOnUse">
      <feOffset dy="3" input="SourceAlpha"/>
      <feGaussianBlur stdDeviation="3" result="blur"/>
      <feFlood flood-opacity="0.412"/>
      <feComposite operator="in" in2="blur"/>
      <feComposite in="SourceGraphic"/>
    </filter>
  </defs>
  <g id="Grupo_1149012" data-name="Grupo 1149012" transform="translate(-1024.157 -162.086)">
    <g id="Grupo_1107650" data-name="Grupo 1107650" transform="translate(12447.157 12570.086)">
      <g transform="matrix(1, 0, 0, 1, -11423, -12408)" filter="url(#Trazado_873212)">
        <g id="Trazado_873212-2" data-name="Trazado 873212" transform="translate(9 6)" fill="#e2dacc">
          <path d="M 51.10888671875 100.2177734375 C 44.47834396362305 100.2177734375 38.04719924926758 98.91961669921875 31.99410057067871 96.359375 C 26.14648628234863 93.88604736328125 20.89438629150391 90.34483337402344 16.38365745544434 85.83411407470703 C 11.87294387817383 81.32338714599609 8.331729888916016 76.0712890625 5.858400821685791 70.22367095947266 C 3.298158168792725 64.17057037353516 2.000000953674316 57.73942947387695 2.000000953674316 51.10888671875 C 2.000000953674316 44.47834396362305 3.298158168792725 38.04719924926758 5.858400821685791 31.99410057067871 C 8.331729888916016 26.14648628234863 11.87294387817383 20.89438629150391 16.38365745544434 16.38365745544434 C 20.89438629150391 11.87294387817383 26.14648628234863 8.331729888916016 31.99410057067871 5.858400821685791 C 38.04719924926758 3.298158168792725 44.47834396362305 2.000000953674316 51.10888671875 2.000000953674316 C 57.73942947387695 2.000000953674316 64.17057037353516 3.298158168792725 70.22367095947266 5.858400821685791 C 76.0712890625 8.331729888916016 81.32338714599609 11.87294387817383 85.83411407470703 16.38365745544434 C 90.34483337402344 20.89438629150391 93.88604736328125 26.14648628234863 96.359375 31.99410057067871 C 98.91961669921875 38.04719924926758 100.2177734375 44.47834396362305 100.2177734375 51.10888671875 C 100.2177734375 57.73942947387695 98.91961669921875 64.17057037353516 96.359375 70.22367095947266 C 93.88604736328125 76.0712890625 90.34483337402344 81.32338714599609 85.83411407470703 85.83411407470703 C 81.32338714599609 90.34483337402344 76.0712890625 93.88604736328125 70.22367095947266 96.359375 C 64.17057037353516 98.91961669921875 57.73942947387695 100.2177734375 51.10888671875 100.2177734375 Z" stroke="none"/>
          <path d="M 51.10888671875 4 C 44.74747085571289 4 38.57845306396484 5.245002746582031 32.77321624755859 7.700401306152344 C 27.16400146484375 10.07290649414062 22.12557220458984 13.47018432617188 17.79788970947266 17.79788970947266 C 13.47018432617188 22.12557220458984 10.07290649414062 27.16400146484375 7.700401306152344 32.77321624755859 C 5.245002746582031 38.57845306396484 4 44.74747085571289 4 51.10888671875 C 4 57.47030258178711 5.245002746582031 63.63932037353516 7.700401306152344 69.44456481933594 C 10.07290649414062 75.05378723144531 13.47018432617188 80.09222412109375 17.79786682128906 84.41990661621094 C 22.12557220458984 88.74758911132812 27.16400146484375 92.14486694335938 32.77321624755859 94.51737213134766 C 38.57845306396484 96.97277069091797 44.74747085571289 98.2177734375 51.10888671875 98.2177734375 C 57.47030258178711 98.2177734375 63.63932037353516 96.97277069091797 69.44456481933594 94.51737213134766 C 75.05378723144531 92.14486694335938 80.09222412109375 88.74758911132812 84.41990661621094 84.41990661621094 C 88.74758911132812 80.09222412109375 92.14486694335938 75.05378723144531 94.51737213134766 69.44456481933594 C 96.97277069091797 63.63932037353516 98.2177734375 57.47030258178711 98.2177734375 51.10888671875 C 98.2177734375 44.74747085571289 96.97277069091797 38.57845306396484 94.51737213134766 32.77321624755859 C 92.14486694335938 27.16400146484375 88.74758911132812 22.12557220458984 84.41990661621094 17.79786682128906 C 80.09222412109375 13.47018432617188 75.05378723144531 10.07290649414062 69.44456481933594 7.700401306152344 C 63.63932037353516 5.245002746582031 57.47030258178711 4 51.10888671875 4 M 51.10888671875 0 C 79.33555603027344 0 102.2177734375 22.88224029541016 102.2177734375 51.10888671875 C 102.2177734375 79.33555603027344 79.33555603027344 102.2177734375 51.10888671875 102.2177734375 C 22.88224029541016 102.2177734375 0 79.33555603027344 0 51.10888671875 C 0 22.88224029541016 22.88224029541016 0 51.10888671875 0 Z" stroke="none" fill="#fff"/>
        </g>
      </g>
    </g>
    <g id="Grupo_1108456" data-name="Grupo 1108456" transform="translate(1032.929 167.861)">
      <g id="Grupo_1108456-2" data-name="Grupo 1108456" transform="translate(16.009 16.008)">
        <path id="Trazado_896784" data-name="Trazado 896784" d="M68.692,27.193a12.9,12.9,0,1,1-9.118,3.777A12.9,12.9,0,0,1,68.692,27.193ZM20.949,49.239a1.362,1.362,0,0,0-1.36,1.36V52.68a1.362,1.362,0,0,0,1.36,1.36H55.188a1.362,1.362,0,0,0,1.36-1.36V50.6a1.362,1.362,0,0,0-1.36-1.36H53.96V29.832a5.511,5.511,0,0,0,1.374-.775,3.971,3.971,0,0,0,1.638-3.126.8.8,0,0,0-.076-.343L53.21,16.514a.808.808,0,0,0-.749-.5H23.676a.81.81,0,0,0-.765.545l-3.67,9.035a.8.8,0,0,0-.076.343A3.97,3.97,0,0,0,20.8,29.057a5.506,5.506,0,0,0,1.374.775V49.239Zm8.062,37.043L16.133,65.93a.807.807,0,0,1,.253-1.112l8.024-5.077a.807.807,0,0,1,1.112.253l2.038,3.22L38.843,59.3a7.814,7.814,0,0,1,5.219-.028l16.817,5.632a4.175,4.175,0,0,1,2.342,1.961l12.2-6.322a4.391,4.391,0,0,1,3.189-.343A4.1,4.1,0,0,1,81.1,62.142a4.2,4.2,0,0,1-1.611,5.727L59.167,79.6a7.81,7.81,0,0,1-5.551,1.215L38.624,78.652l-.947.552.722,1.142a.807.807,0,0,1-.253,1.112l-8.024,5.077a.807.807,0,0,1-1.112-.253ZM63.66,25.357l-1.114-.427a16.353,16.353,0,1,1,6.145,31.507.81.81,0,0,0,0,1.618,17.969,17.969,0,1,0-6.725-34.631l.384-1a.808.808,0,1,0-1.511-.575l-1.1,2.878a.808.808,0,0,0,.468,1.043l2.878,1.1a.808.808,0,1,0,.575-1.511Z" transform="translate(-16.009 -16.008)" fill-rule="evenodd"/>
        <path id="Trazado_896785" data-name="Trazado 896785" d="M316.558,106.287a11.277,11.277,0,1,0,3.3,7.974,11.277,11.277,0,0,0-3.3-7.974Zm-7.166,14.319v1a.81.81,0,1,1-1.618,0v-1a4.331,4.331,0,0,1-.723-.2,3.408,3.408,0,0,1-2.342-3.329.81.81,0,0,1,1.618,0,1.858,1.858,0,0,0,1.281,1.812,2.917,2.917,0,0,0,1.952,0,1.858,1.858,0,0,0,1.281-1.812c0-1.507-1.217-1.773-2.432-2.038-1.85-.4-3.7-.807-3.7-3.6a3.408,3.408,0,0,1,2.342-3.329,4.331,4.331,0,0,1,.723-.2v-1a.81.81,0,1,1,1.618,0v1a4.327,4.327,0,0,1,.723.2,3.408,3.408,0,0,1,2.343,3.329.81.81,0,0,1-1.618,0,1.858,1.858,0,0,0-1.281-1.812,2.914,2.914,0,0,0-1.952,0,1.858,1.858,0,0,0-1.281,1.812c0,1.492,1.21,1.756,2.422,2.021,1.853.4,3.709.81,3.709,3.618a3.409,3.409,0,0,1-2.343,3.329,4.355,4.355,0,0,1-.723.2Z" transform="translate(-255.9 -90.181)" fill="#f8c52d" fill-rule="evenodd"/>
        <path id="Trazado_896786" data-name="Trazado 896786" d="M118.16,88.916h-7.087a2.719,2.719,0,0,0,.841,1.047,4.685,4.685,0,0,0,5.405,0A2.719,2.719,0,0,0,118.16,88.916Z" transform="translate(-97.08 -78.184)" fill="#f7f7f8" fill-rule="evenodd"/>
        <path id="Trazado_896787" data-name="Trazado 896787" d="M179.624,88.916h-7.087a2.719,2.719,0,0,0,.841,1.047,4.685,4.685,0,0,0,5.4,0A2.72,2.72,0,0,0,179.624,88.916Z" transform="translate(-149.497 -78.184)" fill="#e6e6e6" fill-rule="evenodd"/>
        <path id="Trazado_896788" data-name="Trazado 896788" d="M241.087,88.916H234a2.719,2.719,0,0,0,.841,1.047,4.685,4.685,0,0,0,5.405,0A2.72,2.72,0,0,0,241.087,88.916Z" transform="translate(-201.913 -78.184)" fill="#f7f7f8" fill-rule="evenodd"/>
        <path id="Trazado_896789" data-name="Trazado 896789" d="M112.637,27l-1.522,7.5h7.252V27Z" transform="translate(-97.116 -25.383)" fill="#85beed" fill-rule="evenodd"/>
        <path id="Trazado_896790" data-name="Trazado 896790" d="M58.3,34.5,59.819,27H54.153l-3.045,7.5Z" transform="translate(-45.942 -25.383)" fill="#00a0e6" fill-rule="evenodd"/>
        <path id="Trazado_896791" data-name="Trazado 896791" d="M221.466,27l1.522,7.5h7.189L227.132,27Z" transform="translate(-191.224 -25.383)" fill="#85beed" fill-rule="evenodd"/>
        <path id="Trazado_896792" data-name="Trazado 896792" d="M178.626,34.5,177.1,27h-5.729v7.5Z" transform="translate(-148.505 -25.383)" fill="#00a0e6" fill-rule="evenodd"/>
        <path id="Trazado_896793" data-name="Trazado 896793" d="M53.152,90.821a4.411,4.411,0,0,0,2.7-.858,2.719,2.719,0,0,0,.841-1.047H49.609a2.719,2.719,0,0,0,.841,1.047A4.441,4.441,0,0,0,53.152,90.821Z" transform="translate(-44.663 -78.184)" fill="#e6e6e6" fill-rule="evenodd"/>
        <path id="Trazado_896794" data-name="Trazado 896794" d="M85.049,252.764H51.327v1.565H85.049Z" transform="translate(-46.128 -217.915)" fill="#d8906c" fill-rule="evenodd"/>
      </g>
      <path id="Trazado_896795" data-name="Trazado 896795" d="M91.966,153.019h7.478v13.064H91.966Z" transform="translate(-64.777 -116.844)" fill="#fff"/>
      <path id="Trazado_896796" data-name="Trazado 896796" d="M70.693,120.056V106.183a.81.81,0,0,1,.81-.81h9.1a.81.81,0,0,1,.81.81v13.873H97.465V101.043a6.583,6.583,0,0,1-.7.037,6.035,6.035,0,0,1-3.695-1.206,4.653,4.653,0,0,1-.829-.827,4.663,4.663,0,0,1-.829.827,6.265,6.265,0,0,1-7.389,0,4.663,4.663,0,0,1-.829-.827,4.653,4.653,0,0,1-.829.827,6.265,6.265,0,0,1-7.389,0,4.672,4.672,0,0,1-.829-.827,4.662,4.662,0,0,1-.829.826,6.035,6.035,0,0,1-3.695,1.206,6.582,6.582,0,0,1-.7-.037v19.013Zm14.119-14.539h9.3a.81.81,0,0,1,.81.81v5.762a.81.81,0,0,1-.81.81h-9.3a.81.81,0,0,1-.81-.81v-5.763A.81.81,0,0,1,84.811,105.518Z" transform="translate(-45.121 -70.817)" fill="#fbc979" fill-rule="evenodd"/>
      <path id="Trazado_896797" data-name="Trazado 896797" d="M182.389,153.99h7.685v4.144h-7.685Z" transform="translate(-141.89 -117.672)" fill="#fff"/>
      <path id="Trazado_896798" data-name="Trazado 896798" d="M100.49,322.115l8.37,13.227,1.219-.711a.8.8,0,0,1,.543-.116l15.268,2.205a6.447,6.447,0,0,0,2.32-.066,6.839,6.839,0,0,0,2.167-.927c6.794-3.922,13.578-7.9,20.4-11.776a2.585,2.585,0,0,0,.974-3.51,2.5,2.5,0,0,0-1.519-1.181,2.782,2.782,0,0,0-2.02.223l-12.449,6.451a4.207,4.207,0,0,1-2.479,4.2,3.871,3.871,0,0,1-3.016.216l-12.284-4.114a.806.806,0,1,1,.512-1.53l12.284,4.114a2.29,2.29,0,0,0,1.783-.132,2.5,2.5,0,0,0,1.335-3.455,2.546,2.546,0,0,0-1.546-1.317L115.6,318.308a6.2,6.2,0,0,0-4.183.021Z" transform="translate(-72.046 -257.502)" fill="#ffcbc1" fill-rule="evenodd"/>
      <path id="Trazado_896799" data-name="Trazado 896799" d="M29.049,329.533l12.016,18.989,6.66-4.214L35.709,325.319Z" transform="translate(-11.121 -263.782)" fill="#689ff2" fill-rule="evenodd"/>
    </g>
  </g>
</svg>
