<svg xmlns="http://www.w3.org/2000/svg" width="83" height="83" viewBox="0 0 83 83">
  <g id="Grupo_1173193" data-name="Grupo 1173193" transform="translate(4303.383 8782.465)">
    <circle id="Elipse_13114" data-name="Elipse 13114" cx="41.5" cy="41.5" r="41.5" transform="translate(-4303.383 -8782.465)" fill="#e2dacc"/>
    <g id="Grupo_1173192" data-name="Grupo 1173192" transform="translate(-4286.82 -8818.349)">
      <path id="Trazado_1037174" data-name="Trazado 1037174" d="M16.6,103.37v32.684a1.6,1.6,0,0,1-1.6-1.6V103.37Z" transform="translate(-13.539 -40.855)" fill="#f7a4a2"/>
      <g id="Grupo_1173191" data-name="Grupo 1173191" transform="translate(0 58.106)">
        <g id="Grupo_1173188" data-name="Grupo 1173188" transform="translate(1.461 1.108)">
          <g id="Grupo_1173187" data-name="Grupo 1173187">
            <g id="Grupo_1173186" data-name="Grupo 1173186">
              <g id="XMLID_21_">
                <g id="Grupo_1173185" data-name="Grupo 1173185">
                  <path id="Trazado_1037175" data-name="Trazado 1037175" d="M224.166,92.794a7.111,7.111,0,0,0-1.482.156l-3.857-6.77-.092-.16a.731.731,0,0,0-1-.274.794.794,0,0,0-.114.08.719.719,0,0,0-.16.193l-.17-.1,7.115-12.654.972-1.73-.019.006a8.817,8.817,0,0,0-5.062,4.6.613.613,0,0,1-.029.057l-.386.674-3.367,5.88-.008,0-.076-.043a.732.732,0,0,0,0-.724l-.578-1.014-.694-1.218L212.744,75.5a10.283,10.283,0,0,0-5.892-5.336l-1.846-.647a.731.731,0,0,0-.879,1.046l.211.377,8.537,15.237-3.83,6.691a7.066,7.066,0,1,0,6.015,6.988,7.04,7.04,0,0,0-1.488-4.337l2.273-4.043,2.471,4.412A6.991,6.991,0,0,0,217.1,99.86a7.066,7.066,0,1,0,7.065-7.066ZM208,104.119a4.259,4.259,0,1,1,4.26-4.259A4.263,4.263,0,0,1,208,104.119Zm16.171,0a4.259,4.259,0,1,1,4.26-4.259A4.263,4.263,0,0,1,224.166,104.119Z" transform="translate(-182.818 -69.479)" fill="#b9db84"/>
                  <g id="Grupo_1173184" data-name="Grupo 1173184" transform="translate(4.544 1.102)">
                    <path id="Trazado_1037176" data-name="Trazado 1037176" d="M400,337.63a4.259,4.259,0,1,0,4.26,4.26A4.264,4.264,0,0,0,400,337.63Zm0,7.058a2.8,2.8,0,1,1,2.8-2.8A2.8,2.8,0,0,1,400,344.688Z" transform="translate(-363.195 -312.61)" fill="#bcbec0"/>
                    <path id="Trazado_1037177" data-name="Trazado 1037177" d="M234,337.63a4.259,4.259,0,1,0,4.26,4.26A4.264,4.264,0,0,0,234,337.63Zm0,7.058a2.8,2.8,0,1,1,2.8-2.8A2.8,2.8,0,0,1,234,344.688Z" transform="translate(-213.366 -312.61)" fill="#bcbec0"/>
                    <path id="Trazado_1037178" data-name="Trazado 1037178" d="M72.669,80.79H61.65a3.011,3.011,0,0,1,.122.853V85.19h10.9a2.2,2.2,0,0,0,0-4.4Z" transform="translate(-61.65 -80.79)" fill="#bcbec0"/>
                    <path id="Trazado_1037179" data-name="Trazado 1037179" d="M73.8,140.79H62.9v4.4H73.8a2.2,2.2,0,0,0,0-4.4Z" transform="translate(-62.778 -134.945)" fill="#bcbec0"/>
                    <path id="Trazado_1037180" data-name="Trazado 1037180" d="M73.8,200.79H62.9v4.4H73.8a2.2,2.2,0,0,0,0-4.4Z" transform="translate(-62.778 -189.1)" fill="#bcbec0"/>
                    <path id="Trazado_1037181" data-name="Trazado 1037181" d="M73.8,260.79H62.9v4.4H73.8a2.2,2.2,0,0,0,0-4.4Z" transform="translate(-62.778 -243.256)" fill="#bcbec0"/>
                  </g>
                  <path id="Trazado_1037182" data-name="Trazado 1037182" d="M19.666,74.711V95.793h-.731a.731.731,0,0,1-.731-.731V107.14a1.6,1.6,0,0,1-3.2,0V74.711a1.6,1.6,0,0,1,3.2,0v-.123a.731.731,0,0,1,.731-.731h.609A3.012,3.012,0,0,1,19.666,74.711Z" transform="translate(-15 -72.756)" fill="#f9b8b7"/>
                </g>
              </g>
            </g>
          </g>
        </g>
        <path id="Trazado_1037183" data-name="Trazado 1037183" d="M424.233,341.89a4.259,4.259,0,0,1-1.914,3.554l-.765-1.247a2.8,2.8,0,0,0-2.92-4.764q-.383-.622-.764-1.246a4.257,4.257,0,0,1,6.363,3.7Z" transform="translate(-377.164 -310.401)" fill="#a7a9ac"/>
        <path id="Trazado_1037184" data-name="Trazado 1037184" d="M61.772,82.99V81.643a3.011,3.011,0,0,0-.122-.853H72.669a2.2,2.2,0,0,1,2.2,2.2Z" transform="translate(-55.644 -78.58)" fill="#a7a9ac"/>
        <path id="Trazado_1037185" data-name="Trazado 1037185" d="M19.666,74.711v1.346H15V74.711a1.6,1.6,0,0,1,3.2,0v-.123a.731.731,0,0,1,.731-.731h.609A3.011,3.011,0,0,1,19.666,74.711Z" transform="translate(-13.539 -71.648)" fill="#f7a4a2"/>
        <g id="Grupo_1173189" data-name="Grupo 1173189" transform="translate(22.678 1.108)">
          <path id="Trazado_1037186" data-name="Trazado 1037186" d="M245.206,82.708l.076.043-.654,1.142L243.1,81.211l-1.587-2.785a10.248,10.248,0,0,0-3.08-3.818,10.28,10.28,0,0,0-4.76-3.467l-.565-.2-.211-.377a.731.731,0,0,1,.879-1.046l1.846.647a10.283,10.283,0,0,1,5.892,5.336l2.422,4.249.694,1.218.578,1.014A.732.732,0,0,1,245.206,82.708Z" transform="translate(-232.804 -69.479)" fill="#9fc562"/>
          <path id="Trazado_1037187" data-name="Trazado 1037187" d="M395.54,95.966l.386-.674a.628.628,0,0,0,.029-.057,8.817,8.817,0,0,1,5.062-4.6l.019-.006-.972,1.73A10.28,10.28,0,0,0,395.54,95.966Z" transform="translate(-379.687 -88.57)" fill="#9fc562"/>
          <path id="Trazado_1037188" data-name="Trazado 1037188" d="M379.013,249.7a7.124,7.124,0,0,1-4.927,6.734,7.066,7.066,0,0,0-5.569-12.671l-3.857-6.77.746-1.328a.791.791,0,0,1,.114-.08.731.731,0,0,1,1,.274l.092.16,3.857,6.77a7.071,7.071,0,0,1,8.548,6.91Z" transform="translate(-351.815 -219.315)" fill="#9fc562"/>
        </g>
        <g id="Grupo_1173190" data-name="Grupo 1173190" transform="translate(0 0)">
          <path id="Trazado_1037189" data-name="Trazado 1037189" d="M17.025,64.716a2.2,2.2,0,0,0,0-4.4H6.005A3.063,3.063,0,0,0,0,61.17V93.6a3.064,3.064,0,0,0,6.127,0v-5.18a.731.731,0,0,0-1.461,0V93.6a1.6,1.6,0,1,1-3.2,0V61.17a1.6,1.6,0,0,1,3.2,0V84.921a.731.731,0,0,0,1.461,0V82.25h10.9a2.2,2.2,0,1,0,0-4.4H6.127V76.406h10.9a2.2,2.2,0,0,0,0-4.4H6.127V70.561h10.9a2.2,2.2,0,0,0,0-4.4H6.127V64.716Zm.739-2.2a.74.74,0,0,1-.739.739H6.127V61.777h10.9A.74.74,0,0,1,17.764,62.516Zm-.739,16.8a.739.739,0,1,1,0,1.478H6.127V79.312Zm0-5.845a.739.739,0,0,1,0,1.478H6.127V73.467Zm0-5.845a.739.739,0,0,1,0,1.478H6.127V67.622Z" transform="translate(0 -58.106)"/>
          <path id="Trazado_1037190" data-name="Trazado 1037190" d="M229.74,341.893A4.259,4.259,0,1,0,234,337.634,4.264,4.264,0,0,0,229.74,341.893Zm7.057,0a2.8,2.8,0,1,1-2.8-2.8A2.8,2.8,0,0,1,236.8,341.893Z" transform="translate(-207.36 -310.404)"/>
          <path id="Trazado_1037191" data-name="Trazado 1037191" d="M400,337.635a4.259,4.259,0,1,0,4.259,4.259A4.264,4.264,0,0,0,400,337.635Zm0,7.057a2.8,2.8,0,1,1,2.8-2.8A2.8,2.8,0,0,1,400,344.692Z" transform="translate(-357.189 -310.405)"/>
          <path id="Trazado_1037192" data-name="Trazado 1037192" d="M224.163,92.794a7.108,7.108,0,0,0-1.482.156l-3.857-6.77,3.461-6.156a.731.731,0,0,0-1.274-.716l-8.834,15.711-.017.014a.731.731,0,0,0-.043,1.032,5.6,5.6,0,1,1-4.125-1.81c.623,0,1.754.329,2.152-.367L220.27,76.2c.01-.018.02-.037.029-.057a8.817,8.817,0,0,1,5.062-4.6l.018-.006-2.631,4.678a.731.731,0,0,0,1.274.716l3.58-6.366a.731.731,0,0,0-.878-1.048l-1.845.647a10.286,10.286,0,0,0-5.892,5.336l-3.13,5.468L212.741,75.5a10.286,10.286,0,0,0-5.892-5.337L205,69.52a.731.731,0,0,0-.879,1.047l8.749,15.614-3.831,6.693a7.066,7.066,0,1,0,6.016,6.987,7.043,7.043,0,0,0-1.488-4.336l2.273-4.043,2.473,4.413A6.988,6.988,0,0,0,217.1,99.86a7.066,7.066,0,1,0,7.066-7.066ZM206.344,71.537l.022.008a8.817,8.817,0,0,1,5.062,4.6c.009.019.018.037.028.055l3.557,6.243L213.72,84.7Zm17.819,33.927a5.611,5.611,0,0,1-5.6-5.6,5.543,5.543,0,0,1,1.094-3.325.73.73,0,0,0,.18-.925l-3.149-5.621,1.306-2.323,3.65,6.406c.433.76,1.859.184,2.525.184a5.6,5.6,0,1,1,0,11.21Z" transform="translate(-181.353 -68.371)"/>
        </g>
      </g>
    </g>
  </g>
</svg>
