<svg xmlns="http://www.w3.org/2000/svg" width="83" height="83" viewBox="0 0 83 83">
  <g id="Grupo_1173694" data-name="Grupo 1173694" transform="translate(4303.383 8401.465)">
    <circle id="Elipse_13114" data-name="Elipse 13114" cx="41.5" cy="41.5" r="41.5" transform="translate(-4303.383 -8401.465)" fill="#e2dacc"/>
    <g id="Grupo_1173199" data-name="Grupo 1173199" transform="translate(-4291.904 -8389.726)">
      <g id="Grupo_1173197" data-name="Grupo 1173197" transform="translate(7.498 7.226)">
        <g id="Grupo_1173194" data-name="Grupo 1173194" transform="translate(11.967 0)">
          <path id="Trazado_1037193" data-name="Trazado 1037193" d="M170.927,7.47l-1.933-.244H140.98a1.444,1.444,0,0,0-1.444,1.444V31.392a1.444,1.444,0,0,0,1.444,1.444h21.885a.722.722,0,0,1,.466.17l3.376,2.85.929.55s.672-.274.672-.633v-2.46a.722.722,0,0,1,.722-.722h1.9a1.444,1.444,0,0,0,1.444-1.444V8.914A1.444,1.444,0,0,0,170.927,7.47Z" transform="translate(-139.536 -7.226)" fill="#fed059"/>
          <path id="Trazado_1037194" data-name="Trazado 1037194" d="M443.785,7.226h-2.3A1.444,1.444,0,0,1,442.93,8.67V29.942a1.444,1.444,0,0,1-1.443,1.43h-1.444a.722.722,0,0,0-.722.722v3.763l.778.657a.648.648,0,0,0,.418.153h0a.649.649,0,0,0,.648-.649v-2.46a.722.722,0,0,1,.722-.722h1.9a1.444,1.444,0,0,0,1.444-1.444V8.67A1.444,1.444,0,0,0,443.785,7.226Z" transform="translate(-412.15 -7.226)" fill="#ffbc50"/>
        </g>
        <g id="Grupo_1173195" data-name="Grupo 1173195" transform="translate(0 15.556)">
          <path id="Trazado_1037195" data-name="Trazado 1037195" d="M38.747,179.138l-1.654-.273H9.025A1.527,1.527,0,0,0,7.5,180.392V202.8a1.527,1.527,0,0,0,1.527,1.527h1.527a.763.763,0,0,1,.763.763v2.6a.686.686,0,0,0,.686.686h0a.686.686,0,0,0,.442-.162l4.393-3.708a.764.764,0,0,1,.493-.18H37.136l1.757-.117a1.527,1.527,0,0,0,1.527-1.527l-.146-22.02A1.527,1.527,0,0,0,38.747,179.138Z" transform="translate(-7.498 -178.865)" fill="#e8edf2"/>
          <path id="Trazado_1037196" data-name="Trazado 1037196" d="M335.56,180.388V202.8a1.527,1.527,0,0,1-1.526,1.527h-2.175a1.527,1.527,0,0,0,1.526-1.527v-22.41a1.527,1.527,0,0,0-1.526-1.527h2.175A1.527,1.527,0,0,1,335.56,180.388Z" transform="translate(-302.46 -178.861)" fill="#d4e3e8"/>
        </g>
        <g id="Grupo_1173196" data-name="Grupo 1173196" transform="translate(6.751 26.461)">
          <circle id="Elipse_13132" data-name="Elipse 13132" cx="1.761" cy="1.761" r="1.761" transform="translate(8.027 3.667)" fill="#fed059"/>
          <path id="Trazado_1037197" data-name="Trazado 1037197" d="M147.7,381.592h-6.028a1.5,1.5,0,0,1-1.5-1.5v-.109a1.5,1.5,0,0,1,1.5-1.5H147.7a1.5,1.5,0,0,1,1.5,1.5v.109A1.5,1.5,0,0,1,147.7,381.592Z" transform="translate(-134.898 -371.295)" fill="#fed059"/>
          <path id="Trazado_1037198" data-name="Trazado 1037198" d="M88.291,299.986a3.152,3.152,0,0,1-3.24,3.15,3.194,3.194,0,0,1-3.063-3.216v-.4a.346.346,0,0,1,.346-.346h5.611a.346.346,0,0,1,.346.346Z" transform="translate(-81.988 -299.178)" fill="#fed059"/>
          <path id="Trazado_1037199" data-name="Trazado 1037199" d="M234.716,299.986a3.152,3.152,0,0,1-3.24,3.15,3.194,3.194,0,0,1-3.063-3.216v-.4a.346.346,0,0,1,.346-.346h5.611a.346.346,0,0,1,.346.346Z" transform="translate(-215.142 -299.178)" fill="#fed059"/>
        </g>
      </g>
      <g id="Grupo_1173198" data-name="Grupo 1173198" transform="translate(7.498 7.251)">
        <path id="Trazado_1037200" data-name="Trazado 1037200" d="M382.623,7.5h2.6a1.53,1.53,0,0,1,1.53,1.53v22.3a1.53,1.53,0,0,1-1.53,1.53H383.7a.765.765,0,0,0-.766.765v2.607a.687.687,0,0,1-1.13.525l-4.4-3.716a.767.767,0,0,0-.494-.18H375.02" transform="translate(-341.71 -7.5)" fill="none" stroke="#000" stroke-linecap="round" stroke-linejoin="round" stroke-miterlimit="10" stroke-width="1"/>
        <line id="Línea_686" data-name="Línea 686" y1="4.238" transform="translate(11.968 11.176)" fill="none" stroke="#000" stroke-linecap="round" stroke-linejoin="round" stroke-miterlimit="10" stroke-width="1"/>
        <path id="Trazado_1037201" data-name="Trazado 1037201" d="M139.55,15.5V9.03a1.53,1.53,0,0,1,1.53-1.53h24.243" transform="translate(-127.582 -7.5)" fill="none" stroke="#000" stroke-linecap="round" stroke-linejoin="round" stroke-miterlimit="10" stroke-width="1"/>
        <path id="Trazado_1037202" data-name="Trazado 1037202" d="M36.682,205.308h2.365a1.53,1.53,0,0,0,1.53-1.531v-22.3a1.53,1.53,0,0,0-1.53-1.53H9.03a1.53,1.53,0,0,0-1.53,1.53v5.148" transform="translate(-7.5 -164.32)" fill="none" stroke="#000" stroke-linecap="round" stroke-linejoin="round" stroke-miterlimit="10" stroke-width="1"/>
        <path id="Trazado_1037203" data-name="Trazado 1037203" d="M7.5,288.63v13.977a1.53,1.53,0,0,0,1.53,1.531h1.53a.765.765,0,0,1,.765.765v2.606a.687.687,0,0,0,1.13.525l4.4-3.715a.762.762,0,0,1,.493-.18H33.51" transform="translate(-7.5 -263.15)" fill="none" stroke="#000" stroke-linecap="round" stroke-linejoin="round" stroke-miterlimit="10" stroke-width="1"/>
        <line id="Línea_687" data-name="Línea 687" y1="10.731" transform="translate(16.538 19.14)" fill="none" stroke="#000" stroke-linecap="round" stroke-linejoin="round" stroke-miterlimit="10" stroke-width="1"/>
        <path id="Trazado_1037204" data-name="Trazado 1037204" d="M173.948,340.845a1.774,1.774,0,1,1-1.775-1.775A1.774,1.774,0,0,1,173.948,340.845Z" transform="translate(-155.636 -309.018)" fill="none" stroke="#000" stroke-linecap="round" stroke-linejoin="round" stroke-miterlimit="10" stroke-width="1"/>
        <path id="Trazado_1037205" data-name="Trazado 1037205" d="M148.887,379.732v.11a1.517,1.517,0,0,1-1.512,1.512H141.3a1.516,1.516,0,0,1-1.512-1.512v-.11a1.516,1.516,0,0,1,1.512-1.512h6.073A1.516,1.516,0,0,1,148.887,379.732Z" transform="translate(-127.8 -344.62)" fill="none" stroke="#000" stroke-linecap="round" stroke-linejoin="round" stroke-miterlimit="10" stroke-width="1"/>
        <path id="Trazado_1037206" data-name="Trazado 1037206" d="M87.512,298.659v.465a3.175,3.175,0,0,1-3.265,3.174,3.218,3.218,0,0,1-3.087-3.24v-.4a.349.349,0,0,1,.349-.349h5.654A.349.349,0,0,1,87.512,298.659Z" transform="translate(-74.484 -271.953)" fill="none" stroke="#000" stroke-linecap="round" stroke-linejoin="round" stroke-miterlimit="10" stroke-width="1"/>
        <path id="Trazado_1037207" data-name="Trazado 1037207" d="M235.061,298.659v.465A3.175,3.175,0,0,1,231.8,302.3a3.218,3.218,0,0,1-3.086-3.24v-.4a.349.349,0,0,1,.349-.349h5.654A.348.348,0,0,1,235.061,298.659Z" transform="translate(-208.661 -271.953)" fill="none" stroke="#000" stroke-linecap="round" stroke-linejoin="round" stroke-miterlimit="10" stroke-width="1"/>
        <path id="Trazado_1037208" data-name="Trazado 1037208" d="M129.611,239.246l-.011-2.423a1.151,1.151,0,0,0-.377-.854,9.444,9.444,0,0,0-12.6,0,1.15,1.15,0,0,0-.377.857v2.42" transform="translate(-106.386 -213.07)" fill="none" stroke="#000" stroke-linecap="round" stroke-linejoin="round" stroke-miterlimit="10" stroke-width="1"/>
        <line id="Línea_688" data-name="Línea 688" x2="4.527" transform="translate(36.386 4.777)" fill="none" stroke="#000" stroke-linecap="round" stroke-linejoin="round" stroke-miterlimit="10" stroke-width="1"/>
        <line id="Línea_689" data-name="Línea 689" x2="17.092" transform="translate(16.122 4.777)" fill="none" stroke="#000" stroke-linecap="round" stroke-linejoin="round" stroke-miterlimit="10" stroke-width="1"/>
        <line id="Línea_690" data-name="Línea 690" x2="11.101" transform="translate(24.783 8.403)" fill="none" stroke="#000" stroke-linecap="round" stroke-linejoin="round" stroke-miterlimit="10" stroke-width="1"/>
        <line id="Línea_691" data-name="Línea 691" x2="5.489" transform="translate(16.122 8.403)" fill="none" stroke="#000" stroke-linecap="round" stroke-linejoin="round" stroke-miterlimit="10" stroke-width="1"/>
        <line id="Línea_692" data-name="Línea 692" x2="9.196" transform="translate(31.717 12.028)" fill="none" stroke="#000" stroke-linecap="round" stroke-linejoin="round" stroke-miterlimit="10" stroke-width="1"/>
        <line id="Línea_693" data-name="Línea 693" x2="5.741" transform="translate(31.547 15.63)" fill="none" stroke="#000" stroke-linecap="round" stroke-linejoin="round" stroke-miterlimit="10" stroke-width="1"/>
        <line id="Línea_694" data-name="Línea 694" x2="7.746" transform="translate(33.168 19.279)" fill="none" stroke="#000" stroke-linecap="round" stroke-linejoin="round" stroke-miterlimit="10" stroke-width="1"/>
        <line id="Línea_695" data-name="Línea 695" x2="12.423" transform="translate(16.122 12.028)" fill="none" stroke="#000" stroke-linecap="round" stroke-linejoin="round" stroke-miterlimit="10" stroke-width="1"/>
      </g>
    </g>
  </g>
</svg>
