<svg xmlns="http://www.w3.org/2000/svg" width="85" height="83.583" viewBox="0 0 85 83.583">
  <g id="partner-relationship-marketing-seo-team" transform="translate(-2 -3)">
    <path id="Trazado_1037460" data-name="Trazado 1037460" d="M39.833,38.5v5.667A2.842,2.842,0,0,1,37,47H5.833A2.842,2.842,0,0,1,3,44.167V38.5A8.513,8.513,0,0,1,11.5,30H31.333A8.5,8.5,0,0,1,39.833,38.5Z" transform="translate(0.417 11.25)" fill="#ff6243"/>
    <path id="Trazado_1037461" data-name="Trazado 1037461" d="M71.833,38.5v5.667A2.842,2.842,0,0,1,69,47H37.833A2.842,2.842,0,0,1,35,44.167V38.5A8.513,8.513,0,0,1,43.5,30H63.333A8.5,8.5,0,0,1,71.833,38.5Z" transform="translate(13.75 11.25)" fill="#00b6bd"/>
    <path id="Trazado_1037462" data-name="Trazado 1037462" d="M65.167,38.5v5.667A2.842,2.842,0,0,1,62.333,47H56.667A2.842,2.842,0,0,0,59.5,44.167V38.5A8.5,8.5,0,0,0,51,30h5.667A8.5,8.5,0,0,1,65.167,38.5Z" transform="translate(20.417 11.25)" fill="#007579"/>
    <ellipse id="Elipse_13146" data-name="Elipse 13146" cx="9" cy="8.5" rx="9" ry="8.5" transform="translate(68.051 63.666)" fill="#ffde55"/>
    <path id="Trazado_1037463" data-name="Trazado 1037463" d="M64.5,4V9.667a8.479,8.479,0,0,1-4.25,7.352V15.333L48.917,12.5,43.25,15.333v2.833H41.833A2.842,2.842,0,0,1,39,15.333V12.5A8.5,8.5,0,0,1,47.5,4Z" transform="translate(15.417 0.417)" fill="#c6c5ca"/>
    <path id="Trazado_1037464" data-name="Trazado 1037464" d="M60.833,32.837,50.917,38.5,41,32.837l5.667-4.25v-5.4a8.445,8.445,0,0,0,8.5,0v5.4Z" transform="translate(16.25 8.412)" fill="#ffdaaa"/>
    <path id="Trazado_1037465" data-name="Trazado 1037465" d="M59,12.833v8.5a8.5,8.5,0,0,1-17,0v-8.5L47.667,10Z" transform="translate(16.667 2.917)" fill="#ffdaaa"/>
    <path id="Trazado_1037466" data-name="Trazado 1037466" d="M55.833,57.5v5.667A2.842,2.842,0,0,1,53,66H21.833A2.842,2.842,0,0,1,19,63.167V57.5A8.513,8.513,0,0,1,27.5,49H47.333A8.5,8.5,0,0,1,55.833,57.5Z" transform="translate(7.083 19.167)" fill="#2488ff"/>
    <path id="Trazado_1037467" data-name="Trazado 1037467" d="M49.167,57.5v5.667A2.842,2.842,0,0,1,46.333,66H40.667A2.842,2.842,0,0,0,43.5,63.167V57.5A8.5,8.5,0,0,0,35,49h5.667A8.5,8.5,0,0,1,49.167,57.5Z" transform="translate(13.75 19.167)" fill="#005ece"/>
    <path id="Trazado_1037468" data-name="Trazado 1037468" d="M48.5,23v5.667a8.511,8.511,0,0,1-4.25,7.352V34.333L32.917,31.5,27.25,34.333v2.833H25.833A2.842,2.842,0,0,1,23,34.333V31.5A8.5,8.5,0,0,1,31.5,23Z" transform="translate(8.75 8.333)" fill="#ffde55"/>
    <path id="Trazado_1037469" data-name="Trazado 1037469" d="M44.833,51.837,34.917,57.5,25,51.837l5.667-4.25v-5.4a8.445,8.445,0,0,0,8.5,0v5.4Z" transform="translate(9.583 16.329)" fill="#ffdaaa"/>
    <path id="Trazado_1037470" data-name="Trazado 1037470" d="M43,31.833v8.5a8.5,8.5,0,1,1-17,0v-8.5L31.667,29Z" transform="translate(10 10.833)" fill="#ffdaaa"/>
    <path id="Trazado_1037471" data-name="Trazado 1037471" d="M32.5,4V9.667a8.479,8.479,0,0,1-4.25,7.352V15.333L16.917,12.5,11.25,15.333v2.833H9.833A2.842,2.842,0,0,1,7,15.333V12.5A8.5,8.5,0,0,1,15.5,4Z" transform="translate(2.083 0.417)" fill="#b39a7c"/>
    <path id="Trazado_1037472" data-name="Trazado 1037472" d="M28.833,32.837,18.917,38.5,9,32.837l5.667-4.25v-5.4a8.445,8.445,0,0,0,8.5,0v5.4Z" transform="translate(2.917 8.412)" fill="#ffdaaa"/>
    <path id="Trazado_1037473" data-name="Trazado 1037473" d="M27,12.833v8.5a8.5,8.5,0,0,1-17,0v-8.5L15.667,10Z" transform="translate(3.333 2.917)" fill="#ffdaaa"/>
    <ellipse id="Elipse_13147" data-name="Elipse 13147" cx="9" cy="8.5" rx="9" ry="8.5" transform="translate(3.051 63.666)" fill="#ffde55"/>
    <path id="Trazado_1037474" data-name="Trazado 1037474" d="M42.779,23v5.667a8.511,8.511,0,0,1-4.25,7.352V34.333l-1.8-.453a9.318,9.318,0,0,0,.595-.864,8.426,8.426,0,0,0,1.2-4.349V23Z" transform="translate(14.471 8.333)" fill="#ebbf00"/>
    <path id="Trazado_1037475" data-name="Trazado 1037475" d="M37.5,42.19v4.25a8.445,8.445,0,0,1-8.5,0V42.19A8.445,8.445,0,0,0,37.5,42.19Z" transform="translate(11.25 16.329)" fill="#ffb655"/>
    <path id="Trazado_1037476" data-name="Trazado 1037476" d="M41.75,31.833v8.5a8.5,8.5,0,0,1-3.076,6.546,8.511,8.511,0,0,1-7.549,1.685,8.508,8.508,0,0,0,2.125-.878,8.241,8.241,0,0,0,1.176-.807A8.5,8.5,0,0,0,37.5,40.333v-8.5L29,29.708,30.417,29Z" transform="translate(11.25 10.833)" fill="#ffb655"/>
    <path id="Trazado_1037477" data-name="Trazado 1037477" d="M26.779,4V9.667a8.511,8.511,0,0,1-4.25,7.352V15.333l-1.8-.453a9.319,9.319,0,0,0,.595-.864,8.426,8.426,0,0,0,1.2-4.349V4Z" transform="translate(7.804 0.417)" fill="#957856"/>
    <path id="Trazado_1037478" data-name="Trazado 1037478" d="M21.5,23.19v4.25a8.445,8.445,0,0,1-8.5,0V23.19a8.445,8.445,0,0,0,8.5,0Z" transform="translate(4.583 8.412)" fill="#ffb655"/>
    <path id="Trazado_1037479" data-name="Trazado 1037479" d="M25.75,12.833v8.5a8.5,8.5,0,0,1-3.076,6.546,8.511,8.511,0,0,1-7.549,1.685,8.509,8.509,0,0,0,2.125-.878,8.241,8.241,0,0,0,1.176-.807A8.5,8.5,0,0,0,21.5,21.333v-8.5L13,10.708,14.417,10Z" transform="translate(4.583 2.917)" fill="#ffb655"/>
    <path id="Trazado_1037480" data-name="Trazado 1037480" d="M58.779,4V9.667a8.511,8.511,0,0,1-4.25,7.352V15.333l-1.8-.453a9.319,9.319,0,0,0,.595-.864,8.426,8.426,0,0,0,1.2-4.349V4Z" transform="translate(21.137 0.417)" fill="#898890"/>
    <path id="Trazado_1037481" data-name="Trazado 1037481" d="M53.5,23.19v4.25a8.445,8.445,0,0,1-8.5,0V23.19A8.445,8.445,0,0,0,53.5,23.19Z" transform="translate(17.917 8.412)" fill="#ffb655"/>
    <path id="Trazado_1037482" data-name="Trazado 1037482" d="M57.75,12.833v8.5a8.5,8.5,0,0,1-3.076,6.546,8.511,8.511,0,0,1-7.549,1.685,8.508,8.508,0,0,0,2.125-.878,8.241,8.241,0,0,0,1.176-.808A8.5,8.5,0,0,0,53.5,21.333v-8.5L45,10.708,46.417,10Z" transform="translate(17.917 2.917)" fill="#ffb655"/>
    <path id="Trazado_1037483" data-name="Trazado 1037483" d="M13,14h2.833v2.833H13Z" transform="translate(4.583 4.583)"/>
    <path id="Trazado_1037484" data-name="Trazado 1037484" d="M17,14h2.833v2.833H17Z" transform="translate(6.25 4.583)"/>
    <path id="Trazado_1037485" data-name="Trazado 1037485" d="M45,14h2.833v2.833H45Z" transform="translate(17.917 4.583)"/>
    <path id="Trazado_1037486" data-name="Trazado 1037486" d="M49,14h2.833v2.833H49Z" transform="translate(19.583 4.583)"/>
    <path id="Trazado_1037487" data-name="Trazado 1037487" d="M29,33h2.833v2.833H29Z" transform="translate(11.25 12.5)"/>
    <path id="Trazado_1037488" data-name="Trazado 1037488" d="M33,33h2.833v2.833H33Z" transform="translate(12.917 12.5)"/>
    <path id="Trazado_1037489" data-name="Trazado 1037489" d="M22,56h2.833v2.833H22Z" transform="translate(8.333 22.083)"/>
    <path id="Trazado_1037490" data-name="Trazado 1037490" d="M26,56H43v2.833H26Z" transform="translate(10 22.083)"/>
    <path id="Trazado_1037491" data-name="Trazado 1037491" d="M40,56h2.833v2.833H40Z" transform="translate(15.833 22.083)"/>
    <path id="Trazado_1037492" data-name="Trazado 1037492" d="M77.593,39.862l-4.76-3.57v-3.91a9.931,9.931,0,0,0,4.25-8.132V18.187a9.89,9.89,0,0,0,4.25-8.1V4.417A1.417,1.417,0,0,0,79.917,3h-17A9.928,9.928,0,0,0,53,12.917V15.75A4.263,4.263,0,0,0,57.25,20v4.25a9.931,9.931,0,0,0,4.25,8.132v3.91l-2.961,2.224A10.766,10.766,0,0,0,58.667,37V31.333a1.417,1.417,0,0,0-1.417-1.417h-17a9.929,9.929,0,0,0-9.817,8.571l-2.932-2.2v-3.91a9.931,9.931,0,0,0,4.25-8.132V18.187a9.917,9.917,0,0,0,4.25-8.1V4.417A1.417,1.417,0,0,0,34.583,3h-17a9.928,9.928,0,0,0-9.917,9.917V15.75A4.263,4.263,0,0,0,11.917,20v4.25a9.931,9.931,0,0,0,4.25,8.132v3.91l-4.76,3.57a9.66,9.66,0,0,0-6.488,2.876A9.767,9.767,0,0,0,2,49.75v5.667a4.263,4.263,0,0,0,4.25,4.25H37.417a3.982,3.982,0,0,0,1.417-.255v3.8l-4.76,3.57a9.917,9.917,0,0,0-9.407,9.888v5.667a4.263,4.263,0,0,0,4.25,4.25H60.083a4.263,4.263,0,0,0,4.25-4.25V76.667a9.917,9.917,0,0,0-9.407-9.888l-4.76-3.57v-3.8a3.982,3.982,0,0,0,1.417.255H82.75A4.263,4.263,0,0,0,87,55.417V49.75a9.917,9.917,0,0,0-9.407-9.888ZM57.25,15.75v1.417a1.417,1.417,0,0,1-1.417-1.417V12.917a7.083,7.083,0,0,1,7.083-7.083H78.5v4.25a7.042,7.042,0,0,1-1.813,4.7,1.519,1.519,0,0,0-.68-.411L64.673,11.542a1.377,1.377,0,0,0-.977.113l-5.667,2.833A1.384,1.384,0,0,0,57.25,15.75Zm2.833,8.5V16.628l4.42-2.21,9.747,2.437V24.25a7.083,7.083,0,1,1-14.167,0Zm3.683,13.883A1.436,1.436,0,0,0,64.333,37V33.756a9.976,9.976,0,0,0,5.667,0V37a1.436,1.436,0,0,0,.567,1.133L74.5,41.094l-7.338,4.193-7.338-4.193ZM11.917,15.75v1.417A1.417,1.417,0,0,1,10.5,15.75V12.917a7.083,7.083,0,0,1,7.083-7.083H33.167v4.25a7.042,7.042,0,0,1-1.813,4.7,1.519,1.519,0,0,0-.68-.411L19.34,11.542a1.385,1.385,0,0,0-.977.113L12.7,14.489A1.384,1.384,0,0,0,11.917,15.75Zm2.833,8.5V16.628l4.42-2.21,9.747,2.437V24.25a7.083,7.083,0,1,1-14.167,0Zm3.683,13.883A1.436,1.436,0,0,0,19,37V33.756a9.976,9.976,0,0,0,5.667,0V37a1.437,1.437,0,0,0,.567,1.133l3.938,2.961-7.338,4.193L14.5,41.094ZM6.25,56.833a1.417,1.417,0,0,1-1.417-1.417V49.75a7.077,7.077,0,0,1,6.731-7.069l9.561,5.468a1.479,1.479,0,0,0,1.417,0l7.9-4.519a4.267,4.267,0,0,0,4.137,3.287v4.25a9.9,9.9,0,0,0,1.785,5.667ZM35.362,41.406a1.384,1.384,0,0,0-.779,1.261v1.417a1.417,1.417,0,0,1-1.417-1.417V39.833A7.083,7.083,0,0,1,40.25,32.75H55.833V37a7.042,7.042,0,0,1-1.813,4.7,1.519,1.519,0,0,0-.68-.411L42.007,38.459a1.385,1.385,0,0,0-.977.113ZM61.5,76.667v5.667a1.417,1.417,0,0,1-1.417,1.417H28.917A1.417,1.417,0,0,1,27.5,82.333V76.667A7.09,7.09,0,0,1,34.229,69.6l9.562,5.468a1.479,1.479,0,0,0,1.417,0L54.771,69.6A7.09,7.09,0,0,1,61.5,76.667Zm-9.662-8.656L44.5,72.2l-7.338-4.193L41.1,65.05a1.437,1.437,0,0,0,.567-1.133V60.672a9.976,9.976,0,0,0,5.667,0v3.244A1.437,1.437,0,0,0,47.9,65.05Zm-.255-16.844a7.083,7.083,0,1,1-14.167,0V43.545l4.42-2.21,9.747,2.437Zm32.583,4.25a1.417,1.417,0,0,1-1.417,1.417H52.632a9.9,9.9,0,0,0,1.785-5.667V45.1a9.9,9.9,0,0,0,2.437-2.422H56.9l9.562,5.468a1.479,1.479,0,0,0,1.417,0l9.562-5.468a7.09,7.09,0,0,1,6.729,7.069Z" transform="translate(0)"/>
    <path id="Trazado_1037493" data-name="Trazado 1037493" d="M11.667,49H8.833v2.833H6v2.833H8.833V57.5h2.833V54.667H14.5V51.833H11.667Z" transform="translate(1.667 19.167)"/>
    <path id="Trazado_1037494" data-name="Trazado 1037494" d="M11.917,45a9.917,9.917,0,1,0,9.917,9.917A9.917,9.917,0,0,0,11.917,45Zm0,17A7.083,7.083,0,1,1,19,54.917,7.083,7.083,0,0,1,11.917,62Z" transform="translate(0 17.5)"/>
    <path id="Trazado_1037495" data-name="Trazado 1037495" d="M57.667,49H54.833v2.833H52v2.833h2.833V57.5h2.833V54.667H60.5V51.833H57.667Z" transform="translate(20.833 19.167)"/>
    <path id="Trazado_1037496" data-name="Trazado 1037496" d="M57.917,45a9.917,9.917,0,1,0,9.917,9.917A9.917,9.917,0,0,0,57.917,45Zm0,17A7.083,7.083,0,1,1,65,54.917,7.083,7.083,0,0,1,57.917,62Z" transform="translate(19.167 17.5)"/>
    <path id="Trazado_1037497" data-name="Trazado 1037497" d="M31.833,20.5h2.833V17.667H37.5V14.833H34.667V12H31.833v2.833H29v2.833h2.833Z" transform="translate(11.25 3.75)"/>
  </g>
</svg>
