<svg xmlns="http://www.w3.org/2000/svg" width="88.688" height="86.196" viewBox="0 0 88.688 86.196">
  <g id="Grupo_1173651" data-name="Grupo 1173651" transform="translate(-32.389 -39.135)">
    <path id="Trazado_1037855" data-name="Trazado 1037855" d="M79.147,177.065a45.452,45.452,0,0,1-16.477,3.3,23.767,23.767,0,1,1,0-47.535,45.453,45.453,0,0,1,16.477,3.3,2.93,2.93,0,0,1,1.882,2.77V143.2a2.336,2.336,0,0,1-3.314,2.129,37.2,37.2,0,0,0-15.045-3.475,14.748,14.748,0,0,0,0,29.5,37.2,37.2,0,0,0,15.045-3.475A2.336,2.336,0,0,1,81.029,170V174.3a2.93,2.93,0,0,1-1.882,2.77Z" transform="translate(-5.187 -74.604)" fill="#60b7fe" fill-rule="evenodd"/>
    <path id="Trazado_1037856" data-name="Trazado 1037856" d="M200.517,137.981a48.682,48.682,0,0,1,7.311,2.253A2.93,2.93,0,0,1,209.71,143V147.3a2.336,2.336,0,0,1-3.314,2.129,40.2,40.2,0,0,0-5.879-2.149Z" transform="translate(-133.867 -78.703)" fill="#19cfba" fill-rule="evenodd"/>
    <path id="Trazado_1037857" data-name="Trazado 1037857" d="M207.828,313.133a48.683,48.683,0,0,1-7.311,2.253v-9.3a40.206,40.206,0,0,0,5.879-2.149,2.336,2.336,0,0,1,3.314,2.129v4.294A2.93,2.93,0,0,1,207.828,313.133Z" transform="translate(-133.867 -210.672)" fill="#fa6e85" fill-rule="evenodd"/>
    <circle id="Elipse_13179" data-name="Elipse 13179" cx="11.21" cy="11.21" r="11.21" transform="translate(97.319 70.786)" fill="#fa6e85"/>
    <circle id="Elipse_13180" data-name="Elipse 13180" cx="11.21" cy="11.21" r="11.21" transform="translate(74.639 116.744) rotate(-67.486)" fill="#19cfba"/>
    <path id="Trazado_1037858" data-name="Trazado 1037858" d="M399.356,115.464a3.03,3.03,0,0,1,3.03,3.03c0,2.75-2.887,5.883-5.309,6.952-2.422-1.069-5.309-4.2-5.309-6.952a3.034,3.034,0,0,1,5.309-2A3.022,3.022,0,0,1,399.356,115.464Z" transform="translate(-286.146 -60.775)" fill="#fa6e85" fill-rule="evenodd"/>
    <path id="Trazado_1037859" data-name="Trazado 1037859" d="M399.514,339.09v-5.9c3.191-.354,4.877,1.386,4.877,3.32v2.578h2.146a2.68,2.68,0,0,1,2.672,2.672v3.293a2.68,2.68,0,0,1-2.672,2.672h-7.023a2.081,2.081,0,0,1-2.077-2.077v-4.482A2.081,2.081,0,0,1,399.514,339.09Z" transform="translate(-290.659 -234.099)" fill="#f0b16e" fill-rule="evenodd"/>
    <circle id="Elipse_13181" data-name="Elipse 13181" cx="11.21" cy="11.21" r="11.21" transform="translate(74.862 60.166) rotate(-69.699)" fill="#ffbf31"/>
    <path id="Trazado_1037860" data-name="Trazado 1037860" d="M91.515,58.836v-.753a1.346,1.346,0,0,1,2.692,0v.753a1.346,1.346,0,0,1-2.692,0Zm-7.179,0v-.753a1.346,1.346,0,0,1,2.692,0v.753a1.346,1.346,0,0,1-2.692,0Zm-.848,7.044a1.347,1.347,0,0,1,.1-1.9,1.409,1.409,0,0,1,1.944.125,4.929,4.929,0,0,0,3.739,1.72,5.033,5.033,0,0,0,3.789-1.72,1.335,1.335,0,1,1,1.994,1.775,7.672,7.672,0,0,1-11.566,0Zm5.783-14.946a9.866,9.866,0,1,0,9.871,9.856,9.881,9.881,0,0,0-9.871-9.856Zm0,22.419A12.555,12.555,0,1,0,76.708,60.79,12.584,12.584,0,0,0,89.271,73.353Zm27.967,44.838a1.347,1.347,0,0,1-1.346,1.346h-7.029a.717.717,0,0,1-.7-.733v-4.482a.706.706,0,0,1,.7-.738,1.346,1.346,0,0,0,1.346-1.341v-4.572c1.179.136,2.193.759,2.193,1.989v2.582a1.346,1.346,0,0,0,1.346,1.341h2.144a1.334,1.334,0,0,1,1.346,1.331v3.275Zm-1.346-7.293h-.8v-1.236a4.553,4.553,0,0,0-1.5-3.37A6.261,6.261,0,0,0,108.714,105a1.331,1.331,0,0,0-1.2,1.346v4.821a3.437,3.437,0,0,0-2.044,3.156V118.8a3.4,3.4,0,0,0,3.39,3.42h7.029a4.062,4.062,0,0,0,4.038-4.033v-3.275a4.049,4.049,0,0,0-4.038-4.018Zm-7.229-47.62c1.218,0,1.206,1.042,2.293,1.042,1.041,0,1.045-1.042,2.293-1.042a1.675,1.675,0,0,1,1.645,1.685c0,1.885-2.044,4.337-3.938,5.449-1.894-1.112-3.988-3.564-3.988-5.449a1.685,1.685,0,0,1,1.695-1.685Zm1.745,9.861a1.251,1.251,0,0,0,1.1,0c2.941-1.291,6.082-4.891,6.082-8.176a4.354,4.354,0,0,0-4.337-4.372,4.1,4.1,0,0,0-2.293.648,4.395,4.395,0,0,0-6.68,3.724c0,3.285,3.191,6.885,6.132,8.176ZM85.134,101.061v-3.3l-3.988,3.265a1.361,1.361,0,0,1-1.895-.2,1.382,1.382,0,0,1,.2-1.884l6.182-5.05a1.343,1.343,0,0,1,2.193,1.022V98.23l3.938-3.265a1.343,1.343,0,1,1,1.7,2.084l-6.132,5.05a1.338,1.338,0,0,1-2.194-1.037Zm8.325-21.526L87.327,84.61a1.347,1.347,0,0,1-2.193-1.042v-3.3l-3.988,3.245a1.353,1.353,0,0,1-1.895-.18,1.4,1.4,0,0,1,.2-1.9l6.182-5.05a1.346,1.346,0,0,1,2.193,1.037v3.3l3.938-3.265a1.361,1.361,0,0,1,1.895.2,1.329,1.329,0,0,1-.2,1.88Zm-1.944,36.418V115.2a1.346,1.346,0,0,1,2.692,0v.753a1.346,1.346,0,0,1-2.692,0Zm-7.179,0V115.2a1.346,1.346,0,0,1,2.692,0v.753a1.346,1.346,0,0,1-2.692,0ZM95.054,123a7.672,7.672,0,0,1-11.566,0,1.347,1.347,0,0,1,.1-1.9,1.4,1.4,0,0,1,1.944.125,4.929,4.929,0,0,0,3.739,1.72,5.034,5.034,0,0,0,3.789-1.72A1.335,1.335,0,1,1,95.054,123Zm-5.783,4.786a9.866,9.866,0,1,0-9.871-9.876A9.891,9.891,0,0,0,89.271,127.783Zm0-22.424a12.555,12.555,0,1,0,12.563,12.548A12.568,12.568,0,0,0,89.271,105.359Zm21.536-18.082v-.753a1.35,1.35,0,0,1,1.346-1.346,1.383,1.383,0,0,1,1.346,1.346v.753a1.369,1.369,0,0,1-1.346,1.346A1.337,1.337,0,0,1,110.808,87.277Zm-7.179,0v-.753a1.35,1.35,0,0,1,1.346-1.346,1.383,1.383,0,0,1,1.346,1.346v.753a1.369,1.369,0,0,1-1.346,1.346A1.337,1.337,0,0,1,103.629,87.277Zm10.718,7.064a7.752,7.752,0,0,1-11.616,0,1.4,1.4,0,0,1,.15-1.9,1.348,1.348,0,0,1,1.894.13,5.019,5.019,0,0,0,7.528,0,1.348,1.348,0,0,1,1.895-.13,1.313,1.313,0,0,1,.15,1.9Zm-5.833,4.766a9.866,9.866,0,1,0-9.821-9.861A9.9,9.9,0,0,0,108.514,99.107Zm0-22.419a12.553,12.553,0,1,0,12.563,12.558A12.556,12.556,0,0,0,108.514,76.688Zm-34,30.251a1.608,1.608,0,0,1-1.047,1.521,49.1,49.1,0,0,1-5.434,1.795v-6.576a49.325,49.325,0,0,0,5.085-1.939.981.981,0,0,1,1.4.9ZM35.081,89.246A22.468,22.468,0,0,1,57.515,66.812a39.73,39.73,0,0,1,7.827.8v6.471a35.766,35.766,0,0,0-7.827-.932,16.085,16.085,0,1,0,0,32.17,35.766,35.766,0,0,0,7.827-.932v6.471a39.376,39.376,0,0,1-7.827.808A22.456,22.456,0,0,1,35.081,89.246Zm39.434-17.7v4.3a.967.967,0,0,1-1.4.9,44.9,44.9,0,0,0-5.085-1.914v-6.6a49.054,49.054,0,0,1,5.434,1.79,1.614,1.614,0,0,1,1.047,1.525Zm2.692,31.093v4.3a4.246,4.246,0,0,1-2.742,4.013,46.5,46.5,0,0,1-16.95,3.4,25.116,25.116,0,1,1,0-50.232,46.6,46.6,0,0,1,16.95,3.4,4.277,4.277,0,0,1,2.742,4.018v4.3A3.694,3.694,0,0,1,71.972,79.2a35.677,35.677,0,0,0-14.457-3.355,13.4,13.4,0,1,0,0,26.8,35.669,35.669,0,0,0,14.457-3.35,3.691,3.691,0,0,1,5.235,3.35Z" transform="translate(0 -7.251)" fill="#1e2f3f" fill-rule="evenodd"/>
  </g>
</svg>
