<svg xmlns="http://www.w3.org/2000/svg" width="469" height="1365" viewBox="0 0 469 1365">
  <g id="Grupo_1173699" data-name="Grupo 1173699" transform="translate(3226 7492)">
    <path id="Trazado_1038006" data-name="Trazado 1038006" d="M14,0H455a14,14,0,0,1,14,14V1351a14,14,0,0,1-14,14H14a14,14,0,0,1-14-14V14A14,14,0,0,1,14,0Z" transform="translate(-3226 -7492)" fill="#ebf4ff"/>
    <path id="Trazado_1038007" data-name="Trazado 1038007" d="M16,0H384a16,16,0,0,1,16,16V287a16,16,0,0,1-16,16H16A16,16,0,0,1,0,287V16A16,16,0,0,1,16,0Z" transform="translate(-3186 -7458)" fill="#f9f7f4"/>
    <path id="Trazado_1038008" data-name="Trazado 1038008" d="M11,0H286.5a11,11,0,0,1,11,11V44a11,11,0,0,1-11,11H11A11,11,0,0,1,0,44V11A11,11,0,0,1,11,0Z" transform="translate(-3131 -7231.969)" fill="#d8e9ff"/>
    <path id="Trazado_1038009" data-name="Trazado 1038009" d="M5.586,17V5.625h3.5A5.315,5.315,0,0,1,11.77,6.3a4.712,4.712,0,0,1,1.848,1.922,5.928,5.928,0,0,1,.664,2.832v.523a5.945,5.945,0,0,1-.652,2.82,4.672,4.672,0,0,1-1.84,1.914A5.355,5.355,0,0,1,9.109,17ZM7.93,7.523v7.594H9.063a2.545,2.545,0,0,0,2.1-.9,4.06,4.06,0,0,0,.742-2.57v-.6a4.124,4.124,0,0,0-.719-2.629,2.537,2.537,0,0,0-2.1-.895Zm11.8,9.633A4.15,4.15,0,0,1,16.7,16.016a4.054,4.054,0,0,1-1.168-3.039v-.219a5.106,5.106,0,0,1,.492-2.277,3.612,3.612,0,0,1,1.395-1.547,3.914,3.914,0,0,1,2.059-.543,3.508,3.508,0,0,1,2.73,1.094,4.444,4.444,0,0,1,1,3.1v.922H17.82a2.1,2.1,0,0,0,.66,1.328,2,2,0,0,0,1.395.5,2.437,2.437,0,0,0,2.039-.945l1.109,1.242a3.389,3.389,0,0,1-1.375,1.121A4.511,4.511,0,0,1,19.727,17.156Zm-.258-6.937a1.414,1.414,0,0,0-1.09.453,2.341,2.341,0,0,0-.535,1.3h3.141v-.18a1.669,1.669,0,0,0-.406-1.16A1.459,1.459,0,0,0,19.469,10.219ZM26.6,8.547l.07.945a2.971,2.971,0,0,1,2.43-1.1A2.255,2.255,0,0,1,31.344,9.68a2.9,2.9,0,0,1,2.539-1.289,2.521,2.521,0,0,1,2.047.8A3.681,3.681,0,0,1,36.6,11.6V17H34.336V11.609a1.61,1.61,0,0,0-.281-1.051,1.246,1.246,0,0,0-.992-.332,1.409,1.409,0,0,0-1.406.969l.008,5.8H29.406V11.617a1.59,1.59,0,0,0-.289-1.062,1.259,1.259,0,0,0-.984-.328,1.463,1.463,0,0,0-1.391.8V17H24.484V8.547ZM37.984,12.7a5.013,5.013,0,0,1,.484-2.242A3.546,3.546,0,0,1,39.863,8.93a4.069,4.069,0,0,1,2.113-.539A3.849,3.849,0,0,1,44.77,9.438a4.2,4.2,0,0,1,1.207,2.844l.016.578a4.418,4.418,0,0,1-1.086,3.121,4.209,4.209,0,0,1-5.832,0,4.5,4.5,0,0,1-1.09-3.187Zm2.258.164A3.151,3.151,0,0,0,40.7,14.7a1.629,1.629,0,0,0,2.578.008,3.448,3.448,0,0,0,.461-2.012,3.12,3.12,0,0,0-.461-1.828,1.5,1.5,0,0,0-1.3-.648,1.475,1.475,0,0,0-1.281.645A3.506,3.506,0,0,0,40.242,12.859Zm6.813-.148a4.954,4.954,0,0,1,.926-3.133,3,3,0,0,1,2.5-1.187,2.631,2.631,0,0,1,2.164.953l.094-.8h2.047v8.172a3.613,3.613,0,0,1-.5,1.93,3.236,3.236,0,0,1-1.418,1.25,4.985,4.985,0,0,1-2.141.43,4.635,4.635,0,0,1-1.812-.371A3.217,3.217,0,0,1,47.57,19l1-1.375a2.645,2.645,0,0,0,2.047.945,1.936,1.936,0,0,0,1.4-.48,1.8,1.8,0,0,0,.5-1.363v-.453a2.612,2.612,0,0,1-2.055.883A2.992,2.992,0,0,1,48,15.965a4.953,4.953,0,0,1-.941-3.16Zm2.258.164a3.076,3.076,0,0,0,.461,1.8,1.467,1.467,0,0,0,1.266.652,1.568,1.568,0,0,0,1.477-.773V11a1.565,1.565,0,0,0-1.461-.773,1.476,1.476,0,0,0-1.277.664A3.467,3.467,0,0,0,49.313,12.875Zm11.953-2.211a6.134,6.134,0,0,0-.812-.062,1.654,1.654,0,0,0-1.68.867V17H56.516V8.547h2.133l.063,1.008a2.092,2.092,0,0,1,1.883-1.164,2.366,2.366,0,0,1,.7.1ZM67.25,17a2.507,2.507,0,0,1-.227-.758,2.732,2.732,0,0,1-2.133.914,3,3,0,0,1-2.059-.719,2.312,2.312,0,0,1-.816-1.812,2.389,2.389,0,0,1,1-2.062,4.915,4.915,0,0,1,2.879-.727H66.93v-.484a1.393,1.393,0,0,0-.3-.937,1.183,1.183,0,0,0-.949-.352,1.345,1.345,0,0,0-.895.273.929.929,0,0,0-.324.75H62.2a2.268,2.268,0,0,1,.453-1.359,3,3,0,0,1,1.281-.98A4.669,4.669,0,0,1,65.8,8.391a3.689,3.689,0,0,1,2.48.785,2.747,2.747,0,0,1,.918,2.207v3.664a4.041,4.041,0,0,0,.336,1.82V17Zm-1.867-1.57a1.945,1.945,0,0,0,.922-.223,1.462,1.462,0,0,0,.625-.6V13.156h-.844q-1.7,0-1.8,1.172l-.008.133a.9.9,0,0,0,.3.7A1.153,1.153,0,0,0,65.383,15.43ZM66.242,5H68.7L66.539,7.422H64.7Zm5.234,12V10.2H70.219V8.547h1.258V8.156a3.17,3.17,0,0,1,.98-2.457,3.945,3.945,0,0,1,2.723-.863,9.031,9.031,0,0,1,2.563.461l-.328,1.867a10,10,0,0,0-1.187-.293A5.835,5.835,0,0,0,75.32,6.8q-1.578,0-1.578,1.4v.344h1.664V10.2H73.742V17Zm7.32,0H76.531V8.547H78.8Zm5.383-1.664a1.481,1.481,0,0,0,1.016-.344,1.2,1.2,0,0,0,.406-.914h2.117a2.9,2.9,0,0,1-.469,1.574,3.093,3.093,0,0,1-1.262,1.109,3.949,3.949,0,0,1-1.77.395A3.67,3.67,0,0,1,81.359,16a4.56,4.56,0,0,1-1.047-3.184v-.148a4.508,4.508,0,0,1,1.039-3.117A3.627,3.627,0,0,1,84.2,8.391a3.555,3.555,0,0,1,2.543.9,3.2,3.2,0,0,1,.973,2.4H85.6a1.539,1.539,0,0,0-.406-1.066,1.513,1.513,0,0,0-2.223.164,3.324,3.324,0,0,0-.4,1.863v.234a3.366,3.366,0,0,0,.4,1.875A1.378,1.378,0,0,0,84.18,15.336ZM93.906,17a2.507,2.507,0,0,1-.227-.758,2.732,2.732,0,0,1-2.133.914,3,3,0,0,1-2.059-.719,2.312,2.312,0,0,1-.816-1.812,2.389,2.389,0,0,1,1-2.062,4.915,4.915,0,0,1,2.879-.727h1.039v-.484a1.393,1.393,0,0,0-.3-.937,1.183,1.183,0,0,0-.949-.352,1.345,1.345,0,0,0-.895.273.929.929,0,0,0-.324.75H88.859a2.268,2.268,0,0,1,.453-1.359,3,3,0,0,1,1.281-.98,4.669,4.669,0,0,1,1.859-.355,3.689,3.689,0,0,1,2.48.785,2.747,2.747,0,0,1,.918,2.207v3.664a4.041,4.041,0,0,0,.336,1.82V17Zm-1.867-1.57a1.945,1.945,0,0,0,.922-.223,1.462,1.462,0,0,0,.625-.6V13.156h-.844q-1.7,0-1.8,1.172l-.008.133a.9.9,0,0,0,.3.7A1.153,1.153,0,0,0,92.039,15.43Zm10.125-.766a.727.727,0,0,0-.41-.652,4.659,4.659,0,0,0-1.316-.426q-3.016-.633-3.016-2.562a2.323,2.323,0,0,1,.934-1.879,3.766,3.766,0,0,1,2.441-.754,4.053,4.053,0,0,1,2.574.758,2.388,2.388,0,0,1,.965,1.969h-2.258a1.092,1.092,0,0,0-.312-.8,1.322,1.322,0,0,0-.977-.316,1.351,1.351,0,0,0-.883.258.814.814,0,0,0-.312.656.7.7,0,0,0,.355.605,3.657,3.657,0,0,0,1.2.4,9.8,9.8,0,0,1,1.422.379,2.336,2.336,0,0,1,1.789,2.273,2.2,2.2,0,0,1-.992,1.871,4.28,4.28,0,0,1-2.562.715,4.47,4.47,0,0,1-1.887-.379,3.166,3.166,0,0,1-1.293-1.039,2.414,2.414,0,0,1-.469-1.426H99.3a1.179,1.179,0,0,0,.445.922,1.766,1.766,0,0,0,1.109.32,1.635,1.635,0,0,0,.98-.246A.766.766,0,0,0,102.164,14.664Zm3.758,1.227a1.137,1.137,0,0,1,.363-.875,1.412,1.412,0,0,1,1.828,0,1.137,1.137,0,0,1,.363.875,1.121,1.121,0,0,1-.359.863,1.435,1.435,0,0,1-1.836,0A1.121,1.121,0,0,1,105.922,15.891Zm0-6.4a1.137,1.137,0,0,1,.363-.875,1.412,1.412,0,0,1,1.828,0,1.137,1.137,0,0,1,.363.875,1.121,1.121,0,0,1-.359.863,1.435,1.435,0,0,1-1.836,0A1.121,1.121,0,0,1,105.922,9.492Zm12.125,7.664a3.693,3.693,0,0,1-2.8-1.129,4.19,4.19,0,0,1-1.078-3.02v-.266a5.073,5.073,0,0,1,.48-2.246A3.748,3.748,0,0,1,116,8.949a3.378,3.378,0,0,1,1.871-.559,3.166,3.166,0,0,1,2.563,1.086,4.7,4.7,0,0,1,.914,3.109v.6h-5.727a3,3,0,0,0,.73,2.02,2.3,2.3,0,0,0,1.777.77,2.517,2.517,0,0,0,1.3-.312,3.259,3.259,0,0,0,.93-.828l.883.688A3.55,3.55,0,0,1,118.047,17.156Zm-.18-7.578a1.928,1.928,0,0,0-1.469.637A3.1,3.1,0,0,0,115.664,12H119.9v-.109a2.753,2.753,0,0,0-.594-1.707A1.815,1.815,0,0,0,117.867,9.578Zm4.8,3.125a4.952,4.952,0,0,1,.922-3.129,3.137,3.137,0,0,1,4.766-.168V5H129.8V17h-1.328l-.07-.906a2.943,2.943,0,0,1-2.414,1.063,2.887,2.887,0,0,1-2.395-1.2,5.008,5.008,0,0,1-.926-3.141Zm1.445.164a3.749,3.749,0,0,0,.594,2.25,1.92,1.92,0,0,0,1.641.813,2.108,2.108,0,0,0,2.008-1.234V10.813a2.125,2.125,0,0,0-1.992-1.2,1.929,1.929,0,0,0-1.656.82A4.128,4.128,0,0,0,124.109,12.867ZM137.258,17a3.036,3.036,0,0,1-.2-.891,3.225,3.225,0,0,1-2.406,1.047,2.984,2.984,0,0,1-2.051-.707,2.287,2.287,0,0,1-.8-1.793,2.39,2.39,0,0,1,1-2.051,4.733,4.733,0,0,1,2.824-.73h1.406v-.664A1.623,1.623,0,0,0,136.578,10a1.821,1.821,0,0,0-1.336-.449,2.107,2.107,0,0,0-1.3.391,1.151,1.151,0,0,0-.523.945h-1.453a2,2,0,0,1,.449-1.223,3.066,3.066,0,0,1,1.219-.934,4.1,4.1,0,0,1,1.691-.344,3.342,3.342,0,0,1,2.289.73,2.635,2.635,0,0,1,.859,2.012v3.891a4.757,4.757,0,0,0,.3,1.852V17Zm-2.4-1.1a2.54,2.54,0,0,0,1.289-.352,2.127,2.127,0,0,0,.883-.914V12.9H135.9q-2.656,0-2.656,1.555a1.316,1.316,0,0,0,.453,1.063A1.742,1.742,0,0,0,134.859,15.9Zm5.531-3.2a4.952,4.952,0,0,1,.922-3.129,3.137,3.137,0,0,1,4.766-.168V5h1.445V17H146.2l-.07-.906a2.943,2.943,0,0,1-2.414,1.063,2.887,2.887,0,0,1-2.395-1.2,5.008,5.008,0,0,1-.926-3.141Zm1.445.164a3.749,3.749,0,0,0,.594,2.25,1.919,1.919,0,0,0,1.641.813,2.108,2.108,0,0,0,2.008-1.234V10.813a2.125,2.125,0,0,0-1.992-1.2,1.929,1.929,0,0,0-1.656.82A4.128,4.128,0,0,0,141.836,12.867Zm7.883,6.4-.82-.562a3.77,3.77,0,0,0,.766-2.109v-1.3h1.414v1.133A3.559,3.559,0,0,1,150.691,18,3.7,3.7,0,0,1,149.719,19.266Zm6.8-6.562a4.968,4.968,0,0,1,.914-3.145,3.151,3.151,0,0,1,4.836-.074l.07-.937h1.32V16.8a3.439,3.439,0,0,1-.973,2.586,3.589,3.589,0,0,1-2.613.945,4.348,4.348,0,0,1-1.789-.391,3.08,3.08,0,0,1-1.336-1.07L157.7,18a2.826,2.826,0,0,0,2.273,1.148,2.214,2.214,0,0,0,1.645-.594,2.269,2.269,0,0,0,.59-1.672v-.727a2.971,2.971,0,0,1-2.367,1,2.887,2.887,0,0,1-2.4-1.2A5.224,5.224,0,0,1,156.523,12.7Zm1.453.164a3.79,3.79,0,0,0,.586,2.246,1.9,1.9,0,0,0,1.641.816,2.117,2.117,0,0,0,2.008-1.242V10.828a2.142,2.142,0,0,0-1.992-1.211,1.921,1.921,0,0,0-1.648.82A4.128,4.128,0,0,0,157.977,12.867Zm11.375,4.289a3.693,3.693,0,0,1-2.8-1.129,4.19,4.19,0,0,1-1.078-3.02v-.266a5.073,5.073,0,0,1,.48-2.246A3.748,3.748,0,0,1,167.3,8.949a3.378,3.378,0,0,1,1.871-.559,3.166,3.166,0,0,1,2.563,1.086,4.7,4.7,0,0,1,.914,3.109v.6h-5.727a3,3,0,0,0,.73,2.02,2.3,2.3,0,0,0,1.777.77,2.517,2.517,0,0,0,1.3-.312,3.258,3.258,0,0,0,.93-.828l.883.688A3.55,3.55,0,0,1,169.352,17.156Zm-.18-7.578a1.928,1.928,0,0,0-1.469.637A3.1,3.1,0,0,0,166.969,12H171.2v-.109a2.753,2.753,0,0,0-.594-1.707A1.815,1.815,0,0,0,169.172,9.578Zm.7-4.578h1.75l-2.094,2.3h-1.164Zm5.813,3.547.047,1.063a3.08,3.08,0,0,1,2.531-1.219q2.68,0,2.7,3.023V17h-1.445V11.406a1.946,1.946,0,0,0-.418-1.352,1.675,1.675,0,0,0-1.277-.437,2.086,2.086,0,0,0-1.234.375,2.546,2.546,0,0,0-.828.984V17H174.32V8.547Zm10.969,8.609a3.693,3.693,0,0,1-2.8-1.129,4.19,4.19,0,0,1-1.078-3.02v-.266a5.073,5.073,0,0,1,.48-2.246,3.748,3.748,0,0,1,1.344-1.547,3.378,3.378,0,0,1,1.871-.559,3.166,3.166,0,0,1,2.563,1.086,4.7,4.7,0,0,1,.914,3.109v.6h-5.727a3,3,0,0,0,.73,2.02,2.3,2.3,0,0,0,1.777.77,2.517,2.517,0,0,0,1.3-.312,3.258,3.258,0,0,0,.93-.828l.883.688A3.55,3.55,0,0,1,186.656,17.156Zm-.18-7.578a1.928,1.928,0,0,0-1.469.637A3.1,3.1,0,0,0,184.273,12h4.234v-.109a2.753,2.753,0,0,0-.594-1.707A1.815,1.815,0,0,0,186.477,9.578Zm9.234.266A4.331,4.331,0,0,0,195,9.789,1.9,1.9,0,0,0,193.07,11v6h-1.445V8.547h1.406l.023.977a2.251,2.251,0,0,1,2.016-1.133,1.477,1.477,0,0,1,.641.109ZM196.5,12.7a4.993,4.993,0,0,1,.488-2.234,3.642,3.642,0,0,1,1.359-1.531,3.7,3.7,0,0,1,1.988-.539,3.565,3.565,0,0,1,2.793,1.2,4.6,4.6,0,0,1,1.066,3.18v.1a5.036,5.036,0,0,1-.473,2.215,3.589,3.589,0,0,1-1.352,1.527,3.743,3.743,0,0,1-2.02.547,3.556,3.556,0,0,1-2.785-1.2A4.575,4.575,0,0,1,196.5,12.8Zm1.453.172a3.616,3.616,0,0,0,.652,2.258,2.211,2.211,0,0,0,3.5-.012,3.954,3.954,0,0,0,.648-2.418,3.61,3.61,0,0,0-.66-2.254,2.1,2.1,0,0,0-1.754-.863,2.075,2.075,0,0,0-1.727.852A3.925,3.925,0,0,0,197.953,12.867Zm8.008,6.4-.82-.562a3.77,3.77,0,0,0,.766-2.109v-1.3h1.414v1.133A3.559,3.559,0,0,1,206.934,18,3.7,3.7,0,0,1,205.961,19.266ZM214.68,17h-1.445V8.547h1.445ZM213.117,6.3a.863.863,0,0,1,.215-.594.807.807,0,0,1,.637-.242.819.819,0,0,1,.641.242.854.854,0,0,1,.219.594.826.826,0,0,1-.219.586.834.834,0,0,1-.641.234.821.821,0,0,1-.637-.234A.834.834,0,0,1,213.117,6.3Zm5.242,2.242.047,1.063a3.08,3.08,0,0,1,2.531-1.219q2.68,0,2.7,3.023V17H222.2V11.406a1.946,1.946,0,0,0-.418-1.352,1.675,1.675,0,0,0-1.277-.437,2.086,2.086,0,0,0-1.234.375,2.546,2.546,0,0,0-.828.984V17h-1.445V8.547Zm7.117,4.156a4.968,4.968,0,0,1,.914-3.145,3.151,3.151,0,0,1,4.836-.074l.07-.937h1.32V16.8a3.439,3.439,0,0,1-.973,2.586,3.589,3.589,0,0,1-2.613.945,4.348,4.348,0,0,1-1.789-.391,3.08,3.08,0,0,1-1.336-1.07l.75-.867a2.826,2.826,0,0,0,2.273,1.148,2.214,2.214,0,0,0,1.645-.594,2.269,2.269,0,0,0,.59-1.672v-.727a2.971,2.971,0,0,1-2.367,1,2.887,2.887,0,0,1-2.4-1.2A5.224,5.224,0,0,1,225.477,12.7Zm1.453.164a3.79,3.79,0,0,0,.586,2.246,1.9,1.9,0,0,0,1.641.816,2.117,2.117,0,0,0,2.008-1.242V10.828a2.142,2.142,0,0,0-1.992-1.211,1.921,1.921,0,0,0-1.648.82A4.128,4.128,0,0,0,226.93,12.867Zm11.953-3.023a4.331,4.331,0,0,0-.711-.055A1.9,1.9,0,0,0,236.242,11v6H234.8V8.547H236.2l.023.977a2.251,2.251,0,0,1,2.016-1.133,1.477,1.477,0,0,1,.641.109Zm4.836,7.313a3.693,3.693,0,0,1-2.8-1.129,4.19,4.19,0,0,1-1.078-3.02v-.266a5.073,5.073,0,0,1,.48-2.246,3.748,3.748,0,0,1,1.344-1.547,3.378,3.378,0,0,1,1.871-.559A3.166,3.166,0,0,1,246.1,9.477a4.7,4.7,0,0,1,.914,3.109v.6h-5.727a3,3,0,0,0,.73,2.02,2.3,2.3,0,0,0,1.777.77,2.517,2.517,0,0,0,1.3-.312,3.258,3.258,0,0,0,.93-.828l.883.688A3.55,3.55,0,0,1,243.719,17.156Zm-.18-7.578a1.928,1.928,0,0,0-1.469.637A3.1,3.1,0,0,0,241.336,12h4.234v-.109a2.753,2.753,0,0,0-.594-1.707A1.815,1.815,0,0,0,243.539,9.578Zm10.07,5.18a1.064,1.064,0,0,0-.441-.91,4.249,4.249,0,0,0-1.539-.559,7.277,7.277,0,0,1-1.742-.562,2.479,2.479,0,0,1-.953-.781,1.869,1.869,0,0,1-.309-1.078,2.193,2.193,0,0,1,.879-1.758,3.432,3.432,0,0,1,2.246-.719,3.532,3.532,0,0,1,2.332.742,2.357,2.357,0,0,1,.895,1.9h-1.453a1.3,1.3,0,0,0-.5-1.023,1.888,1.888,0,0,0-1.27-.43,1.976,1.976,0,0,0-1.234.344,1.082,1.082,0,0,0-.445.9.877.877,0,0,0,.414.789,5.1,5.1,0,0,0,1.5.508,7.8,7.8,0,0,1,1.754.578,2.558,2.558,0,0,1,1,.809,1.988,1.988,0,0,1,.324,1.152,2.163,2.163,0,0,1-.906,1.816,3.8,3.8,0,0,1-2.352.684A4.257,4.257,0,0,1,250,16.8a2.922,2.922,0,0,1-1.223-1,2.42,2.42,0,0,1-.441-1.395h1.445a1.5,1.5,0,0,0,.582,1.152,2.258,2.258,0,0,0,1.434.426,2.331,2.331,0,0,0,1.316-.332A1.02,1.02,0,0,0,253.609,14.758Zm2.945-2.062a4.993,4.993,0,0,1,.488-2.234A3.643,3.643,0,0,1,258.4,8.93a3.7,3.7,0,0,1,1.988-.539,3.565,3.565,0,0,1,2.793,1.2,4.6,4.6,0,0,1,1.066,3.18v.1a5.036,5.036,0,0,1-.473,2.215,3.589,3.589,0,0,1-1.352,1.527,3.743,3.743,0,0,1-2.02.547,3.556,3.556,0,0,1-2.785-1.2,4.575,4.575,0,0,1-1.066-3.164Zm1.453.172a3.616,3.616,0,0,0,.652,2.258,2.211,2.211,0,0,0,3.5-.012A3.955,3.955,0,0,0,262.8,12.7a3.61,3.61,0,0,0-.66-2.254,2.1,2.1,0,0,0-1.754-.863,2.075,2.075,0,0,0-1.727.852A3.925,3.925,0,0,0,258.008,12.867Zm12.977,1.891a1.064,1.064,0,0,0-.441-.91A4.249,4.249,0,0,0,269,13.289a7.276,7.276,0,0,1-1.742-.562,2.478,2.478,0,0,1-.953-.781A1.869,1.869,0,0,1,266,10.867a2.193,2.193,0,0,1,.879-1.758,3.432,3.432,0,0,1,2.246-.719,3.532,3.532,0,0,1,2.332.742,2.357,2.357,0,0,1,.895,1.9H270.9a1.3,1.3,0,0,0-.5-1.023,1.888,1.888,0,0,0-1.27-.43,1.976,1.976,0,0,0-1.234.344,1.082,1.082,0,0,0-.445.9.877.877,0,0,0,.414.789,5.1,5.1,0,0,0,1.5.508,7.8,7.8,0,0,1,1.754.578,2.559,2.559,0,0,1,1,.809,1.988,1.988,0,0,1,.324,1.152,2.163,2.163,0,0,1-.906,1.816,3.8,3.8,0,0,1-2.352.684,4.257,4.257,0,0,1-1.8-.359,2.922,2.922,0,0,1-1.223-1,2.42,2.42,0,0,1-.441-1.395h1.445a1.5,1.5,0,0,0,.582,1.152,2.258,2.258,0,0,0,1.434.426,2.331,2.331,0,0,0,1.316-.332A1.02,1.02,0,0,0,270.984,14.758Zm3.359,1.484a.905.905,0,0,1,.223-.625.848.848,0,0,1,.668-.25.874.874,0,0,1,.676.25.887.887,0,0,1,.23.625.839.839,0,0,1-.23.6.89.89,0,0,1-.676.242.8.8,0,0,1-.891-.844Z" transform="translate(-3123 -7213.969)" fill="#00104e"/>
    <g id="Grupo_1173646" data-name="Grupo 1173646">
      <path id="Trazado_1037782" data-name="Trazado 1037782" d="M215.88,69.484l-23.736-41.06c-2.7-4.612-9.224-8.324-14.512-8.324H130.16c-5.287,0-11.812,3.825-14.512,8.324L92.025,69.484c-2.7,4.612-2.7,12.149,0,16.761l23.736,41.06c2.7,4.612,9.224,8.324,14.512,8.324h47.472c5.287,0,11.812-3.825,14.512-8.324l23.736-41.06C218.579,81.634,218.579,74.1,215.88,69.484Z" transform="translate(-3137.01 -7448.117)" fill="#9d978d"/>
      <path id="Trazado_1037781" data-name="Trazado 1037781" d="M235.561,77.206l-27.447-47.48c-3.122-5.333-10.667-9.626-16.78-9.626H136.439c-6.114,0-13.659,4.423-16.78,9.626L92.341,77.206c-3.122,5.333-3.122,14.049,0,19.382l27.447,47.48c3.122,5.333,10.667,9.626,16.78,9.626h54.894c6.114,0,13.659-4.423,16.78-9.626l27.447-47.48C238.683,91.254,238.683,82.539,235.561,77.206Z" transform="translate(-3147.01 -7457.148)" fill="none" stroke="#706c65" stroke-width="2"/>
      <line id="Línea_733" data-name="Línea 733" y2="56" transform="translate(-2982.551 -7303.035)" fill="none" stroke="#9d978d" stroke-width="2"/>
      <line id="Línea_734" data-name="Línea 734" x2="297" transform="translate(-3130.5 -7246.535)" fill="none" stroke="#706c65" stroke-width="2"/>
      <path id="Trazado_1037783" data-name="Trazado 1037783" d="M224.492,72.863l-25.36-43.869c-2.885-4.928-9.856-8.894-15.5-8.894h-50.72c-5.649,0-12.62,4.086-15.5,8.894L92.163,72.863c-2.885,4.928-2.885,12.98,0,17.908l25.36,43.869c2.885,4.928,9.856,8.894,15.5,8.894h50.72c5.649,0,12.62-4.086,15.5-8.894l25.36-43.869C227.377,85.844,227.377,77.791,224.492,72.863Z" transform="translate(-3141.386 -7452.069)" fill="none" stroke="#706c65" stroke-width="1" stroke-dasharray="8"/>
      <g id="Grupo_1173640" data-name="Grupo 1173640" transform="translate(-3023.717 -7413.212)">
        <g id="Grupo_1173618" data-name="Grupo 1173618" transform="translate(8.962 8.932)">
          <path id="Trazado_1037809" data-name="Trazado 1037809" d="M16,464H73.742v3.849H16Z" transform="translate(-16 -410.108)" fill="#898890"/>
          <circle id="Elipse_13168" data-name="Elipse 13168" cx="2.887" cy="2.887" r="2.887" transform="translate(19.247 27.908)" fill="#ffdaaa"/>
          <path id="Trazado_1037810" data-name="Trazado 1037810" d="M164.812,296a4.812,4.812,0,0,1,4.812,4.812v.962H160v-.962A4.812,4.812,0,0,1,164.812,296Z" transform="translate(-142.677 -262.317)" fill="#57565c"/>
          <path id="Trazado_1037811" data-name="Trazado 1037811" d="M160,368h9.624v11.548H160Z" transform="translate(-142.677 -325.656)" fill="#d80027"/>
          <circle id="Elipse_13169" data-name="Elipse 13169" cx="2.887" cy="2.887" r="2.887" transform="translate(5.774 16.36)" fill="#ffdaaa"/>
          <path id="Trazado_1037812" data-name="Trazado 1037812" d="M52.812,200a4.812,4.812,0,0,1,4.812,4.812v.962H48v-.962A4.812,4.812,0,0,1,52.812,200Z" transform="translate(-44.151 -177.866)" fill="#57565c"/>
          <path id="Trazado_1037813" data-name="Trazado 1037813" d="M48,272h9.624v23.1H48Z" transform="translate(-44.151 -241.204)" fill="#ffda44"/>
          <circle id="Elipse_13170" data-name="Elipse 13170" cx="2.887" cy="2.887" r="2.887" transform="translate(46.193 0)" fill="#ffdaaa"/>
          <path id="Trazado_1037814" data-name="Trazado 1037814" d="M388.812,64a4.812,4.812,0,0,1,4.812,4.812v.962H384v-.962A4.812,4.812,0,0,1,388.812,64Z" transform="translate(-339.731 -58.226)" fill="#57565c"/>
          <path id="Trazado_1037815" data-name="Trazado 1037815" d="M384,136h9.624v39.457H384Z" transform="translate(-339.731 -121.565)" fill="#91cc04"/>
          <circle id="Elipse_13171" data-name="Elipse 13171" cx="2.887" cy="2.887" r="2.887" transform="translate(32.72 12.511)" fill="#ffdaaa"/>
          <path id="Trazado_1037816" data-name="Trazado 1037816" d="M276.812,168a4.812,4.812,0,0,1,4.812,4.812v.962H272v-.962A4.812,4.812,0,0,1,276.812,168Z" transform="translate(-241.204 -149.715)" fill="#57565c"/>
          <path id="Trazado_1037817" data-name="Trazado 1037817" d="M272,240h9.624v26.946H272Z" transform="translate(-241.204 -213.054)" fill="#ff9811"/>
        </g>
        <g id="Grupo_1173619" data-name="Grupo 1173619" transform="translate(8 7.965)">
          <path id="Trazado_1037818" data-name="Trazado 1037818" d="M66.7,167.457H63.817V128.962a.962.962,0,0,0-.962-.962H53.231a.962.962,0,0,0-.962.962v38.494H50.344V141.473a.962.962,0,0,0-.962-.962H39.758a.962.962,0,0,0-.962.962v25.984H36.871V156.871a.962.962,0,0,0-.962-.962H26.285a.962.962,0,0,0-.962.962v10.586H23.4V145.323a.962.962,0,0,0-.962-.962H12.812a.962.962,0,0,0-.962.962v22.134H8.962a.962.962,0,0,0-.962.962v3.849a.962.962,0,0,0,.962.962H66.7a.962.962,0,0,0,.962-.962v-3.849A.962.962,0,0,0,66.7,167.457ZM54.193,129.925h7.7v37.532h-7.7ZM40.72,142.435h7.7v25.021h-7.7Zm-13.473,15.4h7.7v9.624h-7.7ZM13.774,146.285h7.7v21.172h-7.7Zm51.968,25.021H9.925v-1.925H65.742Z" transform="translate(-8 -113.56)"/>
          <path id="Trazado_1037819" data-name="Trazado 1037819" d="M152.962,253.443h9.624a.962.962,0,0,0,.962-.962v-.962a5.778,5.778,0,0,0-2.983-5.052,3.849,3.849,0,1,0-5.583,0A5.778,5.778,0,0,0,152,251.518v.962A.962.962,0,0,0,152.962,253.443Zm2.887-9.624a1.925,1.925,0,1,1,1.925,1.925A1.925,1.925,0,0,1,155.849,243.819Zm1.925,3.849a3.854,3.854,0,0,1,3.849,3.849h-7.7A3.854,3.854,0,0,1,157.774,247.668Z" transform="translate(-134.677 -212.057)"/>
          <path id="Trazado_1037820" data-name="Trazado 1037820" d="M40.962,157.443h9.624a.962.962,0,0,0,.962-.962v-.962a5.778,5.778,0,0,0-2.983-5.052,3.849,3.849,0,1,0-5.583,0A5.778,5.778,0,0,0,40,155.518v.962A.962.962,0,0,0,40.962,157.443Zm2.887-9.624a1.925,1.925,0,1,1,1.925,1.925A1.925,1.925,0,0,1,43.849,147.819Zm1.925,3.849a3.854,3.854,0,0,1,3.849,3.849h-7.7A3.854,3.854,0,0,1,45.774,151.668Z" transform="translate(-36.151 -127.605)"/>
          <path id="Trazado_1037821" data-name="Trazado 1037821" d="M376.962,21.443h9.624a.962.962,0,0,0,.962-.962v-.962a5.778,5.778,0,0,0-2.983-5.052,3.849,3.849,0,1,0-5.583,0A5.778,5.778,0,0,0,376,19.518v.962A.962.962,0,0,0,376.962,21.443Zm2.887-9.624a1.925,1.925,0,1,1,1.925,1.925A1.925,1.925,0,0,1,379.849,11.819Zm1.925,3.849a3.854,3.854,0,0,1,3.849,3.849h-7.7A3.854,3.854,0,0,1,381.774,15.668Z" transform="translate(-331.731 -7.965)"/>
          <path id="Trazado_1037822" data-name="Trazado 1037822" d="M264.962,125.443h9.624a.962.962,0,0,0,.962-.962v-.962a5.778,5.778,0,0,0-2.983-5.052,3.849,3.849,0,1,0-5.583,0A5.778,5.778,0,0,0,264,123.518v.962A.962.962,0,0,0,264.962,125.443Zm2.887-9.624a1.925,1.925,0,1,1,1.925,1.925A1.925,1.925,0,0,1,267.849,115.819Zm1.925,3.849a3.854,3.854,0,0,1,3.849,3.849h-7.7A3.854,3.854,0,0,1,269.774,119.668Z" transform="translate(-233.204 -99.455)"/>
        </g>
      </g>
    </g>
    <path id="Trazado_1038010" data-name="Trazado 1038010" d="M16,0H384a16,16,0,0,1,16,16V295a16,16,0,0,1-16,16H16A16,16,0,0,1,0,295V16A16,16,0,0,1,16,0Z" transform="translate(-3186 -7142)" fill="#f9f7f4"/>
    <path id="Trazado_1038011" data-name="Trazado 1038011" d="M11,0H286.5a11,11,0,0,1,11,11V44a11,11,0,0,1-11,11H11A11,11,0,0,1,0,44V11A11,11,0,0,1,11,0Z" transform="translate(-3131 -6916)" fill="#d8e9ff"/>
    <path id="Trazado_1038012" data-name="Trazado 1038012" d="M11.883,15.563a4.068,4.068,0,0,1-1.789,1.176,7.492,7.492,0,0,1-2.562.418,5.076,5.076,0,0,1-2.59-.645,4.3,4.3,0,0,1-1.719-1.871A6.585,6.585,0,0,1,2.6,11.758v-.773a6.994,6.994,0,0,1,.574-2.949A4.248,4.248,0,0,1,4.832,6.129a4.771,4.771,0,0,1,2.535-.66,4.751,4.751,0,0,1,3.164.965,4.123,4.123,0,0,1,1.352,2.809H9.6a2.268,2.268,0,0,0-.691-1.43,2.208,2.208,0,0,0-1.473-.453,2.078,2.078,0,0,0-1.82.9,4.724,4.724,0,0,0-.633,2.672v.727a4.5,4.5,0,0,0,.68,2.7,2.327,2.327,0,0,0,1.992.914,2.6,2.6,0,0,0,1.883-.562V12.75H7.406V11.023h4.477Zm5.641,1.594A4.15,4.15,0,0,1,14.5,16.016a4.054,4.054,0,0,1-1.168-3.039v-.219a5.106,5.106,0,0,1,.492-2.277,3.612,3.612,0,0,1,1.395-1.547,3.914,3.914,0,0,1,2.059-.543A3.508,3.508,0,0,1,20,9.484a4.444,4.444,0,0,1,1,3.1v.922H15.617a2.1,2.1,0,0,0,.66,1.328,2,2,0,0,0,1.395.5,2.437,2.437,0,0,0,2.039-.945l1.109,1.242a3.389,3.389,0,0,1-1.375,1.121A4.511,4.511,0,0,1,17.523,17.156Zm-.258-6.937a1.414,1.414,0,0,0-1.09.453,2.341,2.341,0,0,0-.535,1.3h3.141v-.18a1.669,1.669,0,0,0-.406-1.16A1.459,1.459,0,0,0,17.266,10.219ZM21.93,12.7a5.013,5.013,0,0,1,.484-2.242A3.546,3.546,0,0,1,23.809,8.93a4.069,4.069,0,0,1,2.113-.539,3.849,3.849,0,0,1,2.793,1.047,4.2,4.2,0,0,1,1.207,2.844l.016.578a4.418,4.418,0,0,1-1.086,3.121,3.775,3.775,0,0,1-2.914,1.176,3.793,3.793,0,0,1-2.918-1.172A4.5,4.5,0,0,1,21.93,12.8Zm2.258.164a3.151,3.151,0,0,0,.453,1.84,1.629,1.629,0,0,0,2.578.008A3.448,3.448,0,0,0,27.68,12.7a3.12,3.12,0,0,0-.461-1.828,1.5,1.5,0,0,0-1.3-.648,1.475,1.475,0,0,0-1.281.645A3.506,3.506,0,0,0,24.188,12.859ZM31,12.711a4.954,4.954,0,0,1,.926-3.133,3,3,0,0,1,2.5-1.187,2.631,2.631,0,0,1,2.164.953l.094-.8h2.047v8.172a3.613,3.613,0,0,1-.5,1.93A3.236,3.236,0,0,1,36.8,19.9a4.985,4.985,0,0,1-2.141.43,4.635,4.635,0,0,1-1.812-.371A3.217,3.217,0,0,1,31.516,19l1-1.375a2.645,2.645,0,0,0,2.047.945,1.936,1.936,0,0,0,1.4-.48,1.8,1.8,0,0,0,.5-1.363v-.453a2.612,2.612,0,0,1-2.055.883,2.992,2.992,0,0,1-2.465-1.191A4.953,4.953,0,0,1,31,12.8Zm2.258.164a3.076,3.076,0,0,0,.461,1.8,1.467,1.467,0,0,0,1.266.652,1.568,1.568,0,0,0,1.477-.773V11A1.565,1.565,0,0,0,35,10.227a1.476,1.476,0,0,0-1.277.664A3.467,3.467,0,0,0,33.258,12.875Zm11.953-2.211A6.134,6.134,0,0,0,44.4,10.6a1.654,1.654,0,0,0-1.68.867V17H40.461V8.547h2.133l.063,1.008a2.092,2.092,0,0,1,1.883-1.164,2.366,2.366,0,0,1,.7.1ZM51.2,17a2.507,2.507,0,0,1-.227-.758,2.732,2.732,0,0,1-2.133.914,3,3,0,0,1-2.059-.719,2.312,2.312,0,0,1-.816-1.812,2.389,2.389,0,0,1,1-2.062,4.915,4.915,0,0,1,2.879-.727h1.039v-.484a1.393,1.393,0,0,0-.3-.937,1.183,1.183,0,0,0-.949-.352,1.345,1.345,0,0,0-.895.273.929.929,0,0,0-.324.75H46.148A2.268,2.268,0,0,1,46.6,9.727a3,3,0,0,1,1.281-.98,4.669,4.669,0,0,1,1.859-.355,3.689,3.689,0,0,1,2.48.785,2.747,2.747,0,0,1,.918,2.207v3.664a4.041,4.041,0,0,0,.336,1.82V17Zm-1.867-1.57a1.945,1.945,0,0,0,.922-.223,1.462,1.462,0,0,0,.625-.6V13.156h-.844q-1.7,0-1.8,1.172l-.008.133a.9.9,0,0,0,.3.7A1.153,1.153,0,0,0,49.328,15.43ZM50.188,5h2.461L50.484,7.422H48.648Zm5.234,12V10.2H54.164V8.547h1.258V8.156A3.17,3.17,0,0,1,56.4,5.7a3.945,3.945,0,0,1,2.723-.863,9.031,9.031,0,0,1,2.563.461l-.328,1.867a10,10,0,0,0-1.187-.293,5.835,5.835,0,0,0-.906-.066q-1.578,0-1.578,1.4v.344h1.664V10.2H57.688V17Zm7.32,0H60.477V8.547h2.266Zm5.383-1.664a1.481,1.481,0,0,0,1.016-.344,1.2,1.2,0,0,0,.406-.914h2.117a2.9,2.9,0,0,1-.469,1.574,3.093,3.093,0,0,1-1.262,1.109,3.949,3.949,0,0,1-1.77.395A3.67,3.67,0,0,1,65.3,16a4.56,4.56,0,0,1-1.047-3.184v-.148A4.508,4.508,0,0,1,65.3,9.555a3.627,3.627,0,0,1,2.852-1.164,3.555,3.555,0,0,1,2.543.9,3.2,3.2,0,0,1,.973,2.4H69.547a1.539,1.539,0,0,0-.406-1.066,1.513,1.513,0,0,0-2.223.164,3.324,3.324,0,0,0-.4,1.863v.234a3.366,3.366,0,0,0,.4,1.875A1.378,1.378,0,0,0,68.125,15.336ZM77.852,17a2.507,2.507,0,0,1-.227-.758,2.732,2.732,0,0,1-2.133.914,3,3,0,0,1-2.059-.719,2.312,2.312,0,0,1-.816-1.812,2.389,2.389,0,0,1,1-2.062,4.915,4.915,0,0,1,2.879-.727h1.039v-.484a1.393,1.393,0,0,0-.3-.937,1.183,1.183,0,0,0-.949-.352,1.345,1.345,0,0,0-.895.273.929.929,0,0,0-.324.75H72.8a2.268,2.268,0,0,1,.453-1.359,3,3,0,0,1,1.281-.98A4.669,4.669,0,0,1,76.4,8.391a3.689,3.689,0,0,1,2.48.785,2.747,2.747,0,0,1,.918,2.207v3.664a4.041,4.041,0,0,0,.336,1.82V17Zm-1.867-1.57a1.945,1.945,0,0,0,.922-.223,1.462,1.462,0,0,0,.625-.6V13.156h-.844q-1.7,0-1.8,1.172l-.008.133a.9.9,0,0,0,.3.7A1.153,1.153,0,0,0,75.984,15.43Zm10.125-.766a.727.727,0,0,0-.41-.652,4.659,4.659,0,0,0-1.316-.426q-3.016-.633-3.016-2.562A2.323,2.323,0,0,1,82.3,9.145a3.766,3.766,0,0,1,2.441-.754,4.053,4.053,0,0,1,2.574.758,2.388,2.388,0,0,1,.965,1.969H86.023a1.092,1.092,0,0,0-.312-.8A1.322,1.322,0,0,0,84.734,10a1.351,1.351,0,0,0-.883.258.814.814,0,0,0-.312.656.7.7,0,0,0,.355.605,3.657,3.657,0,0,0,1.2.4,9.8,9.8,0,0,1,1.422.379A2.336,2.336,0,0,1,88.3,14.57a2.2,2.2,0,0,1-.992,1.871,4.28,4.28,0,0,1-2.562.715,4.47,4.47,0,0,1-1.887-.379,3.166,3.166,0,0,1-1.293-1.039,2.414,2.414,0,0,1-.469-1.426h2.141a1.179,1.179,0,0,0,.445.922,1.766,1.766,0,0,0,1.109.32,1.635,1.635,0,0,0,.98-.246A.766.766,0,0,0,86.109,14.664Zm3.758,1.227a1.137,1.137,0,0,1,.363-.875,1.412,1.412,0,0,1,1.828,0,1.137,1.137,0,0,1,.363.875,1.121,1.121,0,0,1-.359.863,1.435,1.435,0,0,1-1.836,0A1.121,1.121,0,0,1,89.867,15.891Zm0-6.4a1.137,1.137,0,0,1,.363-.875,1.412,1.412,0,0,1,1.828,0,1.137,1.137,0,0,1,.363.875,1.121,1.121,0,0,1-.359.863,1.435,1.435,0,0,1-1.836,0A1.121,1.121,0,0,1,89.867,9.492ZM100.055,17H98.609V5h1.445Zm7.531-.836a3.07,3.07,0,0,1-2.477.992,2.628,2.628,0,0,1-2.059-.785,3.4,3.4,0,0,1-.715-2.324v-5.5h1.445v5.461q0,1.922,1.563,1.922a2.163,2.163,0,0,0,2.2-1.234V8.547h1.445V17h-1.375Zm3.258-3.461a4.968,4.968,0,0,1,.914-3.145,3.151,3.151,0,0,1,4.836-.074l.07-.937h1.32V16.8a3.439,3.439,0,0,1-.973,2.586,3.589,3.589,0,0,1-2.613.945,4.348,4.348,0,0,1-1.789-.391,3.08,3.08,0,0,1-1.336-1.07l.75-.867a2.826,2.826,0,0,0,2.273,1.148,2.214,2.214,0,0,0,1.645-.594,2.269,2.269,0,0,0,.59-1.672v-.727a2.971,2.971,0,0,1-2.367,1,2.887,2.887,0,0,1-2.4-1.2A5.224,5.224,0,0,1,110.844,12.7Zm1.453.164a3.79,3.79,0,0,0,.586,2.246,1.9,1.9,0,0,0,1.641.816,2.117,2.117,0,0,0,2.008-1.242V10.828a2.142,2.142,0,0,0-1.992-1.211,1.921,1.921,0,0,0-1.648.82A4.128,4.128,0,0,0,112.3,12.867ZM125.383,17a3.036,3.036,0,0,1-.2-.891,3.225,3.225,0,0,1-2.406,1.047,2.984,2.984,0,0,1-2.051-.707,2.288,2.288,0,0,1-.8-1.793,2.39,2.39,0,0,1,1-2.051,4.733,4.733,0,0,1,2.824-.73h1.406v-.664A1.623,1.623,0,0,0,124.7,10a1.821,1.821,0,0,0-1.336-.449,2.108,2.108,0,0,0-1.3.391,1.151,1.151,0,0,0-.523.945h-1.453a2,2,0,0,1,.449-1.223,3.066,3.066,0,0,1,1.219-.934,4.1,4.1,0,0,1,1.691-.344,3.342,3.342,0,0,1,2.289.73,2.635,2.635,0,0,1,.859,2.012v3.891a4.757,4.757,0,0,0,.3,1.852V17Zm-2.4-1.1a2.54,2.54,0,0,0,1.289-.352,2.127,2.127,0,0,0,.883-.914V12.9h-1.133q-2.656,0-2.656,1.555a1.316,1.316,0,0,0,.453,1.063A1.742,1.742,0,0,0,122.984,15.9Zm9.969-6.055a4.331,4.331,0,0,0-.711-.055A1.9,1.9,0,0,0,130.313,11v6h-1.445V8.547h1.406l.023.977a2.251,2.251,0,0,1,2.016-1.133,1.477,1.477,0,0,1,.641.109Zm4.938,2.859a4.952,4.952,0,0,1,.922-3.129,3.137,3.137,0,0,1,4.766-.168V5h1.445V17H143.7l-.07-.906a2.943,2.943,0,0,1-2.414,1.063,2.887,2.887,0,0,1-2.395-1.2,5.008,5.008,0,0,1-.926-3.141Zm1.445.164a3.749,3.749,0,0,0,.594,2.25,1.919,1.919,0,0,0,1.641.813,2.108,2.108,0,0,0,2.008-1.234V10.813a2.125,2.125,0,0,0-1.992-1.2,1.929,1.929,0,0,0-1.656.82A4.128,4.128,0,0,0,139.336,12.867Zm11.438,4.289a3.693,3.693,0,0,1-2.8-1.129,4.19,4.19,0,0,1-1.078-3.02v-.266a5.073,5.073,0,0,1,.48-2.246,3.748,3.748,0,0,1,1.344-1.547,3.378,3.378,0,0,1,1.871-.559,3.166,3.166,0,0,1,2.563,1.086,4.7,4.7,0,0,1,.914,3.109v.6h-5.727a3,3,0,0,0,.73,2.02,2.3,2.3,0,0,0,1.777.77,2.517,2.517,0,0,0,1.3-.312,3.258,3.258,0,0,0,.93-.828l.883.688A3.55,3.55,0,0,1,150.773,17.156Zm-.18-7.578a1.928,1.928,0,0,0-1.469.637A3.1,3.1,0,0,0,148.391,12h4.234v-.109a2.753,2.753,0,0,0-.594-1.707A1.815,1.815,0,0,0,150.594,9.578Zm13.2.266a4.331,4.331,0,0,0-.711-.055A1.9,1.9,0,0,0,161.148,11v6H159.7V8.547h1.406l.023.977a2.251,2.251,0,0,1,2.016-1.133,1.477,1.477,0,0,1,.641.109Zm4.836,7.313a3.693,3.693,0,0,1-2.8-1.129,4.19,4.19,0,0,1-1.078-3.02v-.266a5.073,5.073,0,0,1,.48-2.246,3.748,3.748,0,0,1,1.344-1.547,3.378,3.378,0,0,1,1.871-.559,3.166,3.166,0,0,1,2.563,1.086,4.7,4.7,0,0,1,.914,3.109v.6H166.2a3,3,0,0,0,.73,2.02,2.3,2.3,0,0,0,1.777.77,2.517,2.517,0,0,0,1.3-.312,3.258,3.258,0,0,0,.93-.828l.883.688A3.55,3.55,0,0,1,168.625,17.156Zm-.18-7.578a1.928,1.928,0,0,0-1.469.637A3.1,3.1,0,0,0,166.242,12h4.234v-.109a2.753,2.753,0,0,0-.594-1.707A1.815,1.815,0,0,0,168.445,9.578Zm10.07,5.18a1.064,1.064,0,0,0-.441-.91,4.249,4.249,0,0,0-1.539-.559,7.277,7.277,0,0,1-1.742-.562,2.479,2.479,0,0,1-.953-.781,1.869,1.869,0,0,1-.309-1.078,2.193,2.193,0,0,1,.879-1.758,3.432,3.432,0,0,1,2.246-.719,3.532,3.532,0,0,1,2.332.742,2.357,2.357,0,0,1,.895,1.9H178.43a1.3,1.3,0,0,0-.5-1.023,1.888,1.888,0,0,0-1.27-.43,1.976,1.976,0,0,0-1.234.344,1.082,1.082,0,0,0-.445.9.877.877,0,0,0,.414.789,5.1,5.1,0,0,0,1.5.508,7.8,7.8,0,0,1,1.754.578,2.558,2.558,0,0,1,1,.809,1.988,1.988,0,0,1,.324,1.152,2.163,2.163,0,0,1-.906,1.816,3.8,3.8,0,0,1-2.352.684,4.257,4.257,0,0,1-1.8-.359,2.922,2.922,0,0,1-1.223-1,2.42,2.42,0,0,1-.441-1.395h1.445a1.5,1.5,0,0,0,.582,1.152,2.258,2.258,0,0,0,1.434.426,2.331,2.331,0,0,0,1.316-.332A1.02,1.02,0,0,0,178.516,14.758Zm4.9,2.242h-1.445V8.547h1.445ZM181.852,6.3a.863.863,0,0,1,.215-.594.807.807,0,0,1,.637-.242.819.819,0,0,1,.641.242.854.854,0,0,1,.219.594.826.826,0,0,1-.219.586.834.834,0,0,1-.641.234.821.821,0,0,1-.637-.234A.834.834,0,0,1,181.852,6.3Zm3.523,6.4a4.952,4.952,0,0,1,.922-3.129,3.137,3.137,0,0,1,4.766-.168V5h1.445V17H191.18l-.07-.906a2.943,2.943,0,0,1-2.414,1.063,2.887,2.887,0,0,1-2.395-1.2,5.008,5.008,0,0,1-.926-3.141Zm1.445.164a3.749,3.749,0,0,0,.594,2.25,1.919,1.919,0,0,0,1.641.813,2.108,2.108,0,0,0,2.008-1.234V10.813a2.125,2.125,0,0,0-1.992-1.2,1.929,1.929,0,0,0-1.656.82A4.128,4.128,0,0,0,186.82,12.867Zm11.438,4.289a3.693,3.693,0,0,1-2.8-1.129,4.19,4.19,0,0,1-1.078-3.02v-.266a5.073,5.073,0,0,1,.48-2.246,3.748,3.748,0,0,1,1.344-1.547,3.378,3.378,0,0,1,1.871-.559,3.166,3.166,0,0,1,2.563,1.086,4.7,4.7,0,0,1,.914,3.109v.6h-5.727a3,3,0,0,0,.73,2.02,2.3,2.3,0,0,0,1.777.77,2.517,2.517,0,0,0,1.3-.312,3.258,3.258,0,0,0,.93-.828l.883.688A3.55,3.55,0,0,1,198.258,17.156Zm-.18-7.578a1.928,1.928,0,0,0-1.469.637A3.1,3.1,0,0,0,195.875,12h4.234v-.109a2.753,2.753,0,0,0-.594-1.707A1.815,1.815,0,0,0,198.078,9.578Zm6.516-1.031.047,1.063a3.08,3.08,0,0,1,2.531-1.219q2.68,0,2.7,3.023V17H208.43V11.406a1.946,1.946,0,0,0-.418-1.352,1.675,1.675,0,0,0-1.277-.437,2.086,2.086,0,0,0-1.234.375,2.546,2.546,0,0,0-.828.984V17h-1.445V8.547Zm10.852,7.43a2.082,2.082,0,0,0,1.352-.469,1.649,1.649,0,0,0,.641-1.172H218.8a2.621,2.621,0,0,1-.5,1.383,3.293,3.293,0,0,1-1.23,1.047,3.55,3.55,0,0,1-1.629.391A3.482,3.482,0,0,1,212.7,16a4.59,4.59,0,0,1-1.02-3.152v-.242a5.089,5.089,0,0,1,.453-2.2,3.451,3.451,0,0,1,1.3-1.492,3.7,3.7,0,0,1,2-.531,3.39,3.39,0,0,1,2.363.852,3.043,3.043,0,0,1,1,2.211h-1.367a1.992,1.992,0,0,0-.621-1.348,1.932,1.932,0,0,0-1.379-.527,2.023,2.023,0,0,0-1.707.793,3.724,3.724,0,0,0-.605,2.293v.273a3.65,3.65,0,0,0,.6,2.25A2.033,2.033,0,0,0,215.445,15.977ZM222,17h-1.445V8.547H222ZM220.438,6.3a.863.863,0,0,1,.215-.594.807.807,0,0,1,.637-.242.819.819,0,0,1,.641.242.854.854,0,0,1,.219.594.826.826,0,0,1-.219.586.834.834,0,0,1-.641.234.821.821,0,0,1-.637-.234A.834.834,0,0,1,220.438,6.3ZM229.531,17a3.036,3.036,0,0,1-.2-.891,3.225,3.225,0,0,1-2.406,1.047,2.984,2.984,0,0,1-2.051-.707,2.287,2.287,0,0,1-.8-1.793,2.39,2.39,0,0,1,1-2.051,4.733,4.733,0,0,1,2.824-.73H229.3v-.664A1.623,1.623,0,0,0,228.852,10a1.821,1.821,0,0,0-1.336-.449,2.107,2.107,0,0,0-1.3.391,1.151,1.151,0,0,0-.523.945h-1.453a2,2,0,0,1,.449-1.223,3.066,3.066,0,0,1,1.219-.934,4.1,4.1,0,0,1,1.691-.344,3.342,3.342,0,0,1,2.289.73,2.635,2.635,0,0,1,.859,2.012v3.891a4.757,4.757,0,0,0,.3,1.852V17Zm-2.4-1.1a2.54,2.54,0,0,0,1.289-.352,2.127,2.127,0,0,0,.883-.914V12.9h-1.133q-2.656,0-2.656,1.555a1.316,1.316,0,0,0,.453,1.063A1.742,1.742,0,0,0,227.133,15.9Zm5.914.344a.905.905,0,0,1,.223-.625.848.848,0,0,1,.668-.25.874.874,0,0,1,.676.25.887.887,0,0,1,.23.625.839.839,0,0,1-.23.6.89.89,0,0,1-.676.242.8.8,0,0,1-.891-.844Z" transform="translate(-3101 -6898)" fill="#00104e"/>
    <g id="Grupo_1173645" data-name="Grupo 1173645">
      <path id="Trazado_822601" data-name="Trazado 822601" d="M215.88,69.484l-23.736-41.06c-2.7-4.612-9.224-8.324-14.512-8.324H130.16c-5.287,0-11.812,3.825-14.512,8.324L92.025,69.484c-2.7,4.612-2.7,12.149,0,16.761l23.736,41.06c2.7,4.612,9.224,8.324,14.512,8.324h47.472c5.287,0,11.812-3.825,14.512-8.324l23.736-41.06C218.579,81.634,218.579,74.1,215.88,69.484Z" transform="translate(-3139.484 -7132.147)" fill="#6c8bb1"/>
      <path id="Trazado_825276" data-name="Trazado 825276" d="M235.561,77.206l-27.447-47.48c-3.122-5.333-10.667-9.626-16.78-9.626H136.439c-6.114,0-13.659,4.423-16.78,9.626L92.341,77.206c-3.122,5.333-3.122,14.049,0,19.382l27.447,47.48c3.122,5.333,10.667,9.626,16.78,9.626h54.894c6.114,0,13.659-4.423,16.78-9.626l27.447-47.48C238.683,91.254,238.683,82.539,235.561,77.206Z" transform="translate(-3149.484 -7141.179)" fill="none" stroke="#4d637e" stroke-width="2"/>
      <line id="Línea_570" data-name="Línea 570" y2="56" transform="translate(-2985.025 -6987.065)" fill="none" stroke="#4d637e" stroke-width="2"/>
      <line id="Línea_571" data-name="Línea 571" x2="190" transform="translate(-3080.525 -6930.565)" fill="none" stroke="#4d637e" stroke-width="2"/>
      <path id="Trazado_1037784" data-name="Trazado 1037784" d="M224.492,72.863l-25.36-43.869c-2.885-4.928-9.856-8.894-15.5-8.894h-50.72c-5.649,0-12.62,4.086-15.5,8.894L92.163,72.863c-2.885,4.928-2.885,12.98,0,17.908l25.36,43.869c2.885,4.928,9.856,8.894,15.5,8.894h50.72c5.649,0,12.62-4.086,15.5-8.894l25.36-43.869C227.377,85.844,227.377,77.791,224.492,72.863Z" transform="translate(-3144.81 -7136.1)" fill="none" stroke="#4d637e" stroke-width="1" stroke-dasharray="8"/>
      <g id="Grupo_1173641" data-name="Grupo 1173641" transform="translate(-3021.102 -7089.833)">
        <g id="Grupo_1173630" data-name="Grupo 1173630" transform="translate(1.147 1.545)">
          <g id="Grupo_1173621" data-name="Grupo 1173621" transform="translate(11.468 59.583)">
            <path id="Trazado_1037823" data-name="Trazado 1037823" d="M119.719,426.43c8.309.689,14.153,2.328,14.153,4.239,0,2.533-10.268,4.587-22.936,4.587S88,433.2,88,430.669c0-1.911,5.844-3.549,14.153-4.239,3.32,2.653,6.54,4.239,8.783,4.239S116.4,429.083,119.719,426.43Z" transform="translate(-88 -426.43)" fill="#aab2bd"/>
          </g>
          <g id="Grupo_1173622" data-name="Grupo 1173622" transform="translate(11.474 11.779)">
            <path id="Trazado_1037824" data-name="Trazado 1037824" d="M133.628,114.9c.089-.089.179-.175.272-.258a22.95,22.95,0,0,0-17.245-21.69,6.85,6.85,0,0,1,1.2,3.878H104.089a6.85,6.85,0,0,1,1.2-3.878A22.95,22.95,0,0,0,88.04,114.64c.093.083.183.169.272.258s.179.183.262.28a6.846,6.846,0,0,1,1.753,4.586H88.517c1.735,8.422,7.857,16.345,13.67,20.991,3.32,2.653,6.54,4.239,8.783,4.239s5.463-1.585,8.783-4.239c5.813-4.646,11.935-12.569,13.67-20.991h-1.811a6.846,6.846,0,0,1,1.753-4.586C133.449,115.082,133.538,114.989,133.628,114.9Z" transform="translate(-88.04 -92.95)" fill="#ef7385"/>
          </g>
          <g id="Grupo_1173623" data-name="Grupo 1173623" transform="translate(20.184 20.403)">
            <circle id="Elipse_13172" data-name="Elipse 13172" cx="13.911" cy="13.911" r="13.911" transform="translate(0 0)" fill="#69d6f4"/>
          </g>
          <g id="Grupo_1173624" data-name="Grupo 1173624" transform="translate(55.046 31.712)">
            <path id="Trazado_1037825" data-name="Trazado 1037825" d="M398.881,232a6.881,6.881,0,0,1,6.881,6.881H392a6.846,6.846,0,0,1,1.753-4.586c.083-.1.172-.189.262-.28s.179-.175.272-.258A7.356,7.356,0,0,1,398.881,232Z" transform="translate(-392 -232)" fill="#e6e9ed"/>
          </g>
          <g id="Grupo_1173625" data-name="Grupo 1173625" transform="translate(27.523 8.776)">
            <path id="Trazado_1037826" data-name="Trazado 1037826" d="M206.881,72a6.854,6.854,0,0,1,4.865,2.016,6.942,6.942,0,0,1,.82.988,6.85,6.85,0,0,1,1.2,3.878H200A6.85,6.85,0,0,1,201.2,75a6.941,6.941,0,0,1,.82-.988A6.854,6.854,0,0,1,206.881,72Z" transform="translate(-200 -72)" fill="#5cd6b3"/>
          </g>
          <g id="Grupo_1173626" data-name="Grupo 1173626" transform="translate(0 31.712)">
            <path id="Trazado_1037827" data-name="Trazado 1037827" d="M14.881,232a7.356,7.356,0,0,1,4.593,1.757c.093.083.183.169.272.258s.179.183.262.28a6.846,6.846,0,0,1,1.753,4.586H8A6.881,6.881,0,0,1,14.881,232Z" transform="translate(-8 -232)" fill="#fcd770"/>
          </g>
          <g id="Grupo_1173627" data-name="Grupo 1173627" transform="translate(57.28 22.258)">
            <circle id="Elipse_13173" data-name="Elipse 13173" cx="4.637" cy="4.637" r="4.637" transform="translate(0 0)" fill="#f0d0b4"/>
          </g>
          <g id="Grupo_1173628" data-name="Grupo 1173628" transform="translate(29.458 0)">
            <ellipse id="Elipse_13174" data-name="Elipse 13174" cx="4.637" cy="4.173" rx="4.637" ry="4.173" transform="translate(0)" fill="#f0d0b4"/>
          </g>
          <g id="Grupo_1173629" data-name="Grupo 1173629" transform="translate(2.563 22.258)">
            <circle id="Elipse_13175" data-name="Elipse 13175" cx="4.637" cy="4.637" r="4.637" transform="translate(0 0)" fill="#f0d0b4"/>
          </g>
        </g>
        <path id="Trazado_1037828" data-name="Trazado 1037828" d="M48.895,58.512A39.244,39.244,0,0,0,58.92,41.285H71.1V40.138a8.034,8.034,0,0,0-4.307-7.11,5.732,5.732,0,1,0-8.98-6.64,24.147,24.147,0,0,0-15.9-14.069,8.081,8.081,0,0,0-2.646-2.228,5.734,5.734,0,1,0-7.441,0,8.081,8.081,0,0,0-2.645,2.227,24.148,24.148,0,0,0-15.9,14.069,5.732,5.732,0,1,0-8.979,6.64A8.034,8.034,0,0,0,0,40.138v1.147H12.182A39.244,39.244,0,0,0,22.207,58.512q.884.914,1.779,1.739a47.761,47.761,0,0,0-7.734,1.438c-2.054.6-4.784,1.641-4.784,3.678,0,1.938,2.428,3.326,7.64,4.368A88.073,88.073,0,0,0,35.551,71.1a88.073,88.073,0,0,0,16.443-1.366c5.212-1.042,7.64-2.43,7.64-4.368,0-2.036-2.73-3.074-4.784-3.678a47.76,47.76,0,0,0-7.734-1.438q.893-.825,1.779-1.739ZM61.927,34.521v4.471H57.455A5.751,5.751,0,0,1,61.927,34.521Zm6.766,4.471H64.221V34.521A5.751,5.751,0,0,1,68.693,38.991ZM63.074,25.23a3.44,3.44,0,1,1-3.44,3.44A3.444,3.444,0,0,1,63.074,25.23ZM57.309,34.4H50.416A14.932,14.932,0,0,0,36.7,20.686V18.349h6.881V17.2a8.013,8.013,0,0,0-.256-2.012A21.865,21.865,0,0,1,57.309,34.4ZM41.285,35.551a15.592,15.592,0,0,1-.382,3.44H30.2a15.677,15.677,0,0,1,0-6.881H40.9A15.591,15.591,0,0,1,41.285,35.551Zm-5.734,12.14-1.2-1.2a15.432,15.432,0,0,1-3.435-5.2H40.19a15.432,15.432,0,0,1-3.435,5.2Zm-4.64-17.874a15.431,15.431,0,0,1,3.435-5.2l1.2-1.2,1.2,1.2a15.432,15.432,0,0,1,3.435,5.2Zm7.8-6.48a12.669,12.669,0,0,1,8.074,6.48h-4.15A17.662,17.662,0,0,0,38.711,23.337Zm-10.245,6.48h-4.15a12.669,12.669,0,0,1,8.074-6.48,17.662,17.662,0,0,0-3.925,6.48Zm-5.53,5.734a12.584,12.584,0,0,1,.477-3.44h4.442a18.015,18.015,0,0,0,0,6.881H23.413a12.584,12.584,0,0,1-.477-3.44Zm5.53,5.734a17.662,17.662,0,0,0,3.925,6.48,12.669,12.669,0,0,1-8.074-6.48Zm14.17,0h4.15a12.669,12.669,0,0,1-8.074,6.48A17.662,17.662,0,0,0,42.636,41.285Zm5.53-5.734a12.584,12.584,0,0,1-.477,3.44H43.247a18.015,18.015,0,0,0,0-6.881h4.442A12.584,12.584,0,0,1,48.166,35.551Zm-7-19.5H36.7V11.585A5.751,5.751,0,0,1,41.17,16.055ZM32.11,5.734a3.44,3.44,0,1,1,3.44,3.44A3.444,3.444,0,0,1,32.11,5.734ZM34.4,11.585v4.471H29.932A5.751,5.751,0,0,1,34.4,11.585Zm-6.625,3.6a8.014,8.014,0,0,0-.256,2.013v1.147H34.4v2.337A14.932,14.932,0,0,0,20.686,34.4H13.793A21.865,21.865,0,0,1,27.779,15.189ZM9.174,34.521a5.751,5.751,0,0,1,4.472,4.471H9.174ZM4.587,28.67a3.44,3.44,0,1,1,3.44,3.44A3.444,3.444,0,0,1,4.587,28.67Zm2.294,5.851v4.471H2.409A5.751,5.751,0,0,1,6.881,34.521Zm7.666,6.764h1.509V40.138a7.979,7.979,0,0,0-.776-3.44h5.407a14.909,14.909,0,0,0,29.729,0h5.407a7.979,7.979,0,0,0-.776,3.44v1.147h1.509c-3.293,12.463-15.82,22.936-21,22.936S17.84,53.748,14.547,41.285ZM53.719,63.754c2.762.749,3.452,1.432,3.6,1.619-.264.386-1.778,1.378-6.386,2.232a88.412,88.412,0,0,1-15.378,1.2,88.412,88.412,0,0,1-15.378-1.2c-4.607-.854-6.122-1.847-6.386-2.232.144-.187.834-.87,3.6-1.619a54.259,54.259,0,0,1,9.023-1.442c3.407,2.659,6.693,4.2,9.144,4.2s5.737-1.544,9.144-4.2a54.269,54.269,0,0,1,9.023,1.442Z"/>
        <path id="Trazado_1037854" data-name="Trazado 1037854" d="M48.895,58.512A39.244,39.244,0,0,0,58.92,41.285H71.1V40.138a8.034,8.034,0,0,0-4.307-7.11,5.732,5.732,0,1,0-8.98-6.64,24.147,24.147,0,0,0-15.9-14.069,8.081,8.081,0,0,0-2.646-2.228,5.734,5.734,0,1,0-7.441,0,8.081,8.081,0,0,0-2.645,2.227,24.148,24.148,0,0,0-15.9,14.069,5.732,5.732,0,1,0-8.979,6.64A8.034,8.034,0,0,0,0,40.138v1.147H12.182A39.244,39.244,0,0,0,22.207,58.512q.884.914,1.779,1.739a47.761,47.761,0,0,0-7.734,1.438c-2.054.6-4.784,1.641-4.784,3.678,0,1.938,2.428,3.326,7.64,4.368A88.073,88.073,0,0,0,35.551,71.1a88.073,88.073,0,0,0,16.443-1.366c5.212-1.042,7.64-2.43,7.64-4.368,0-2.036-2.73-3.074-4.784-3.678a47.76,47.76,0,0,0-7.734-1.438q.893-.825,1.779-1.739ZM61.927,34.521v4.471H57.455A5.751,5.751,0,0,1,61.927,34.521Zm6.766,4.471H64.221V34.521A5.751,5.751,0,0,1,68.693,38.991ZM63.074,25.23a3.44,3.44,0,1,1-3.44,3.44A3.444,3.444,0,0,1,63.074,25.23ZM57.309,34.4H50.416A14.932,14.932,0,0,0,36.7,20.686V18.349h6.881V17.2a8.013,8.013,0,0,0-.256-2.012A21.865,21.865,0,0,1,57.309,34.4ZM41.285,35.551a15.592,15.592,0,0,1-.382,3.44H30.2a15.677,15.677,0,0,1,0-6.881H40.9A15.591,15.591,0,0,1,41.285,35.551Zm-5.734,12.14-1.2-1.2a15.432,15.432,0,0,1-3.435-5.2H40.19a15.432,15.432,0,0,1-3.435,5.2Zm-4.64-17.874a15.431,15.431,0,0,1,3.435-5.2l1.2-1.2,1.2,1.2a15.432,15.432,0,0,1,3.435,5.2Zm7.8-6.48a12.669,12.669,0,0,1,8.074,6.48h-4.15A17.662,17.662,0,0,0,38.711,23.337Zm-10.245,6.48h-4.15a12.669,12.669,0,0,1,8.074-6.48,17.662,17.662,0,0,0-3.925,6.48Zm-5.53,5.734a12.584,12.584,0,0,1,.477-3.44h4.442a18.015,18.015,0,0,0,0,6.881H23.413a12.584,12.584,0,0,1-.477-3.44Zm5.53,5.734a17.662,17.662,0,0,0,3.925,6.48,12.669,12.669,0,0,1-8.074-6.48Zm14.17,0h4.15a12.669,12.669,0,0,1-8.074,6.48A17.662,17.662,0,0,0,42.636,41.285Zm5.53-5.734a12.584,12.584,0,0,1-.477,3.44H43.247a18.015,18.015,0,0,0,0-6.881h4.442A12.584,12.584,0,0,1,48.166,35.551Zm-7-19.5H36.7V11.585A5.751,5.751,0,0,1,41.17,16.055ZM32.11,5.734a3.44,3.44,0,1,1,3.44,3.44A3.444,3.444,0,0,1,32.11,5.734ZM34.4,11.585v4.471H29.932A5.751,5.751,0,0,1,34.4,11.585Zm-6.625,3.6a8.014,8.014,0,0,0-.256,2.013v1.147H34.4v2.337A14.932,14.932,0,0,0,20.686,34.4H13.793A21.865,21.865,0,0,1,27.779,15.189ZM9.174,34.521a5.751,5.751,0,0,1,4.472,4.471H9.174ZM4.587,28.67a3.44,3.44,0,1,1,3.44,3.44A3.444,3.444,0,0,1,4.587,28.67Zm2.294,5.851v4.471H2.409A5.751,5.751,0,0,1,6.881,34.521Zm7.666,6.764h1.509V40.138a7.979,7.979,0,0,0-.776-3.44h5.407a14.909,14.909,0,0,0,29.729,0h5.407a7.979,7.979,0,0,0-.776,3.44v1.147h1.509c-3.293,12.463-15.82,22.936-21,22.936S17.84,53.748,14.547,41.285ZM53.719,63.754c2.762.749,3.452,1.432,3.6,1.619-.264.386-1.778,1.378-6.386,2.232a88.412,88.412,0,0,1-15.378,1.2,88.412,88.412,0,0,1-15.378-1.2c-4.607-.854-6.122-1.847-6.386-2.232.144-.187.834-.87,3.6-1.619a54.259,54.259,0,0,1,9.023-1.442c3.407,2.659,6.693,4.2,9.144,4.2s5.737-1.544,9.144-4.2a54.269,54.269,0,0,1,9.023,1.442Z"/>
      </g>
    </g>
    <path id="Trazado_1038013" data-name="Trazado 1038013" d="M16,0H384a16,16,0,0,1,16,16V299a16,16,0,0,1-16,16H16A16,16,0,0,1,0,299V16A16,16,0,0,1,16,0Z" transform="translate(-3186 -6814)" fill="#f9f7f4"/>
    <path id="Trazado_1038014" data-name="Trazado 1038014" d="M11,0H286.5a11,11,0,0,1,11,11V44a11,11,0,0,1-11,11H11A11,11,0,0,1,0,44V11A11,11,0,0,1,11,0Z" transform="translate(-3134.275 -6587)" fill="#d8e9ff"/>
    <path id="Trazado_1038015" data-name="Trazado 1038015" d="M4.4,12.992V17H2.055V5.625H6.492a5.134,5.134,0,0,1,2.254.469,3.454,3.454,0,0,1,1.5,1.332,3.714,3.714,0,0,1,.523,1.965,3.266,3.266,0,0,1-1.145,2.637,4.767,4.767,0,0,1-3.168.965Zm0-1.9H6.492a2.059,2.059,0,0,0,1.418-.437A1.591,1.591,0,0,0,8.4,9.406a1.876,1.876,0,0,0-.492-1.352,1.839,1.839,0,0,0-1.359-.531H4.4ZM16.8,14.664a.727.727,0,0,0-.41-.652,4.659,4.659,0,0,0-1.316-.426q-3.016-.633-3.016-2.562A2.323,2.323,0,0,1,13,9.145a3.766,3.766,0,0,1,2.441-.754,4.053,4.053,0,0,1,2.574.758,2.388,2.388,0,0,1,.965,1.969H16.719a1.092,1.092,0,0,0-.312-.8A1.322,1.322,0,0,0,15.43,10a1.351,1.351,0,0,0-.883.258.814.814,0,0,0-.312.656.7.7,0,0,0,.355.605,3.657,3.657,0,0,0,1.2.4,9.8,9.8,0,0,1,1.422.379A2.336,2.336,0,0,1,19,14.57a2.2,2.2,0,0,1-.992,1.871,4.28,4.28,0,0,1-2.562.715,4.47,4.47,0,0,1-1.887-.379,3.166,3.166,0,0,1-1.293-1.039,2.414,2.414,0,0,1-.469-1.426h2.141a1.179,1.179,0,0,0,.445.922,1.766,1.766,0,0,0,1.109.32,1.635,1.635,0,0,0,.98-.246A.766.766,0,0,0,16.8,14.664ZM22.836,17H20.57V8.547h2.266Zm-2.4-10.641a1.112,1.112,0,0,1,.34-.836,1.465,1.465,0,0,1,1.848,0,1.105,1.105,0,0,1,.344.836,1.108,1.108,0,0,1-.348.844,1.448,1.448,0,0,1-1.836,0A1.108,1.108,0,0,1,20.438,6.359Zm7.773,8.977a1.481,1.481,0,0,0,1.016-.344,1.2,1.2,0,0,0,.406-.914H31.75a2.9,2.9,0,0,1-.469,1.574,3.093,3.093,0,0,1-1.262,1.109,3.949,3.949,0,0,1-1.77.395A3.67,3.67,0,0,1,25.391,16a4.56,4.56,0,0,1-1.047-3.184v-.148a4.508,4.508,0,0,1,1.039-3.117,3.627,3.627,0,0,1,2.852-1.164,3.555,3.555,0,0,1,2.543.9,3.2,3.2,0,0,1,.973,2.4H29.633a1.539,1.539,0,0,0-.406-1.066A1.513,1.513,0,0,0,27,10.793a3.324,3.324,0,0,0-.4,1.863v.234a3.366,3.366,0,0,0,.4,1.875A1.378,1.378,0,0,0,28.211,15.336ZM32.688,12.7a5.013,5.013,0,0,1,.484-2.242A3.546,3.546,0,0,1,34.566,8.93a4.069,4.069,0,0,1,2.113-.539,3.849,3.849,0,0,1,2.793,1.047,4.2,4.2,0,0,1,1.207,2.844l.016.578a4.418,4.418,0,0,1-1.086,3.121,4.209,4.209,0,0,1-5.832,0,4.5,4.5,0,0,1-1.09-3.187Zm2.258.164A3.151,3.151,0,0,0,35.4,14.7a1.629,1.629,0,0,0,2.578.008,3.448,3.448,0,0,0,.461-2.012,3.12,3.12,0,0,0-.461-1.828,1.5,1.5,0,0,0-1.3-.648,1.475,1.475,0,0,0-1.281.645A3.506,3.506,0,0,0,34.945,12.859Zm6.813-.148a4.954,4.954,0,0,1,.926-3.133,3,3,0,0,1,2.5-1.187,2.631,2.631,0,0,1,2.164.953l.094-.8h2.047v8.172a3.613,3.613,0,0,1-.5,1.93,3.236,3.236,0,0,1-1.418,1.25,4.985,4.985,0,0,1-2.141.43,4.635,4.635,0,0,1-1.812-.371A3.217,3.217,0,0,1,42.273,19l1-1.375a2.645,2.645,0,0,0,2.047.945,1.936,1.936,0,0,0,1.4-.48,1.8,1.8,0,0,0,.5-1.363v-.453a2.612,2.612,0,0,1-2.055.883A2.992,2.992,0,0,1,42.7,15.965a4.953,4.953,0,0,1-.941-3.16Zm2.258.164a3.076,3.076,0,0,0,.461,1.8,1.467,1.467,0,0,0,1.266.652,1.568,1.568,0,0,0,1.477-.773V11a1.565,1.565,0,0,0-1.461-.773,1.476,1.476,0,0,0-1.277.664A3.467,3.467,0,0,0,44.016,12.875Zm11.953-2.211a6.134,6.134,0,0,0-.812-.062,1.654,1.654,0,0,0-1.68.867V17H51.219V8.547h2.133l.063,1.008A2.092,2.092,0,0,1,55.3,8.391a2.366,2.366,0,0,1,.7.1ZM61.953,17a2.507,2.507,0,0,1-.227-.758,2.732,2.732,0,0,1-2.133.914,3,3,0,0,1-2.059-.719,2.312,2.312,0,0,1-.816-1.812,2.389,2.389,0,0,1,1-2.062,4.915,4.915,0,0,1,2.879-.727h1.039v-.484a1.393,1.393,0,0,0-.3-.937,1.183,1.183,0,0,0-.949-.352,1.345,1.345,0,0,0-.895.273.929.929,0,0,0-.324.75H56.906a2.268,2.268,0,0,1,.453-1.359,3,3,0,0,1,1.281-.98A4.669,4.669,0,0,1,60.5,8.391a3.689,3.689,0,0,1,2.48.785,2.747,2.747,0,0,1,.918,2.207v3.664a4.041,4.041,0,0,0,.336,1.82V17Zm-1.867-1.57a1.945,1.945,0,0,0,.922-.223,1.462,1.462,0,0,0,.625-.6V13.156h-.844q-1.7,0-1.8,1.172l-.008.133a.9.9,0,0,0,.3.7A1.153,1.153,0,0,0,60.086,15.43ZM60.945,5h2.461L61.242,7.422H59.406ZM66.18,17V10.2H64.922V8.547H66.18V8.156A3.17,3.17,0,0,1,67.16,5.7a3.945,3.945,0,0,1,2.723-.863,9.031,9.031,0,0,1,2.563.461l-.328,1.867a10,10,0,0,0-1.187-.293,5.835,5.835,0,0,0-.906-.066q-1.578,0-1.578,1.4v.344h1.664V10.2H68.445V17Zm7.32,0H71.234V8.547H73.5Zm5.383-1.664a1.481,1.481,0,0,0,1.016-.344,1.2,1.2,0,0,0,.406-.914h2.117a2.9,2.9,0,0,1-.469,1.574,3.093,3.093,0,0,1-1.262,1.109,3.949,3.949,0,0,1-1.77.395A3.67,3.67,0,0,1,76.063,16a4.56,4.56,0,0,1-1.047-3.184v-.148a4.508,4.508,0,0,1,1.039-3.117,3.627,3.627,0,0,1,2.852-1.164,3.555,3.555,0,0,1,2.543.9,3.2,3.2,0,0,1,.973,2.4H80.3a1.539,1.539,0,0,0-.406-1.066,1.513,1.513,0,0,0-2.223.164,3.324,3.324,0,0,0-.4,1.863v.234a3.366,3.366,0,0,0,.4,1.875A1.378,1.378,0,0,0,78.883,15.336ZM88.609,17a2.507,2.507,0,0,1-.227-.758,2.732,2.732,0,0,1-2.133.914,3,3,0,0,1-2.059-.719,2.312,2.312,0,0,1-.816-1.812,2.389,2.389,0,0,1,1-2.062,4.915,4.915,0,0,1,2.879-.727h1.039v-.484a1.393,1.393,0,0,0-.3-.937,1.183,1.183,0,0,0-.949-.352,1.345,1.345,0,0,0-.895.273.929.929,0,0,0-.324.75H83.563a2.268,2.268,0,0,1,.453-1.359,3,3,0,0,1,1.281-.98,4.669,4.669,0,0,1,1.859-.355,3.689,3.689,0,0,1,2.48.785,2.747,2.747,0,0,1,.918,2.207v3.664a4.041,4.041,0,0,0,.336,1.82V17Zm-1.867-1.57a1.945,1.945,0,0,0,.922-.223,1.462,1.462,0,0,0,.625-.6V13.156h-.844q-1.7,0-1.8,1.172l-.008.133a.9.9,0,0,0,.3.7A1.153,1.153,0,0,0,86.742,15.43Zm10.125-.766a.727.727,0,0,0-.41-.652,4.659,4.659,0,0,0-1.316-.426q-3.016-.633-3.016-2.562a2.323,2.323,0,0,1,.934-1.879A3.766,3.766,0,0,1,95.5,8.391a4.053,4.053,0,0,1,2.574.758,2.388,2.388,0,0,1,.965,1.969H96.781a1.092,1.092,0,0,0-.312-.8A1.322,1.322,0,0,0,95.492,10a1.351,1.351,0,0,0-.883.258.814.814,0,0,0-.312.656.7.7,0,0,0,.355.605,3.657,3.657,0,0,0,1.2.4,9.8,9.8,0,0,1,1.422.379,2.336,2.336,0,0,1,1.789,2.273,2.2,2.2,0,0,1-.992,1.871,4.28,4.28,0,0,1-2.562.715,4.47,4.47,0,0,1-1.887-.379,3.166,3.166,0,0,1-1.293-1.039,2.414,2.414,0,0,1-.469-1.426H94a1.179,1.179,0,0,0,.445.922,1.766,1.766,0,0,0,1.109.32,1.635,1.635,0,0,0,.98-.246A.766.766,0,0,0,96.867,14.664Zm3.758,1.227a1.137,1.137,0,0,1,.363-.875,1.412,1.412,0,0,1,1.828,0,1.137,1.137,0,0,1,.363.875,1.121,1.121,0,0,1-.359.863,1.435,1.435,0,0,1-1.836,0A1.121,1.121,0,0,1,100.625,15.891Zm0-6.4a1.137,1.137,0,0,1,.363-.875,1.412,1.412,0,0,1,1.828,0,1.137,1.137,0,0,1,.363.875,1.121,1.121,0,0,1-.359.863,1.435,1.435,0,0,1-1.836,0A1.121,1.121,0,0,1,100.625,9.492Zm12.125,7.664a3.693,3.693,0,0,1-2.8-1.129,4.19,4.19,0,0,1-1.078-3.02v-.266a5.073,5.073,0,0,1,.48-2.246A3.748,3.748,0,0,1,110.7,8.949a3.378,3.378,0,0,1,1.871-.559,3.166,3.166,0,0,1,2.563,1.086,4.7,4.7,0,0,1,.914,3.109v.6H110.32a3,3,0,0,0,.73,2.02,2.3,2.3,0,0,0,1.777.77,2.517,2.517,0,0,0,1.3-.312,3.259,3.259,0,0,0,.93-.828l.883.688A3.55,3.55,0,0,1,112.75,17.156Zm-.18-7.578a1.928,1.928,0,0,0-1.469.637A3.1,3.1,0,0,0,110.367,12H114.6v-.109a2.753,2.753,0,0,0-.594-1.707A1.815,1.815,0,0,0,112.57,9.578Zm10.07,5.18a1.064,1.064,0,0,0-.441-.91,4.249,4.249,0,0,0-1.539-.559,7.277,7.277,0,0,1-1.742-.562,2.479,2.479,0,0,1-.953-.781,1.869,1.869,0,0,1-.309-1.078,2.193,2.193,0,0,1,.879-1.758,3.432,3.432,0,0,1,2.246-.719,3.532,3.532,0,0,1,2.332.742,2.357,2.357,0,0,1,.895,1.9h-1.453a1.3,1.3,0,0,0-.5-1.023,1.888,1.888,0,0,0-1.27-.43,1.976,1.976,0,0,0-1.234.344,1.082,1.082,0,0,0-.445.9.877.877,0,0,0,.414.789,5.1,5.1,0,0,0,1.5.508,7.8,7.8,0,0,1,1.754.578,2.558,2.558,0,0,1,1,.809,1.988,1.988,0,0,1,.324,1.152,2.163,2.163,0,0,1-.906,1.816,3.8,3.8,0,0,1-2.352.684,4.257,4.257,0,0,1-1.8-.359,2.922,2.922,0,0,1-1.223-1,2.42,2.42,0,0,1-.441-1.395h1.445a1.5,1.5,0,0,0,.582,1.152,2.258,2.258,0,0,0,1.434.426,2.331,2.331,0,0,0,1.316-.332A1.02,1.02,0,0,0,122.641,14.758ZM127.93,6.5V8.547h1.578V9.664H127.93v5.242a1.171,1.171,0,0,0,.211.762.888.888,0,0,0,.719.254,3.5,3.5,0,0,0,.688-.094V17a4.19,4.19,0,0,1-1.109.156,1.8,1.8,0,0,1-1.461-.586,2.517,2.517,0,0,1-.492-1.664V9.664h-1.539V8.547h1.539V6.5ZM132.766,17H131.32V8.547h1.445ZM131.2,6.3a.863.863,0,0,1,.215-.594.807.807,0,0,1,.637-.242.819.819,0,0,1,.641.242.854.854,0,0,1,.219.594.826.826,0,0,1-.219.586.834.834,0,0,1-.641.234.821.821,0,0,1-.637-.234A.834.834,0,0,1,131.2,6.3ZM136.648,17H135.2V5h1.445Zm1.93-4.3a4.993,4.993,0,0,1,.488-2.234,3.642,3.642,0,0,1,1.359-1.531,3.7,3.7,0,0,1,1.988-.539,3.565,3.565,0,0,1,2.793,1.2,4.6,4.6,0,0,1,1.066,3.18v.1a5.036,5.036,0,0,1-.473,2.215,3.589,3.589,0,0,1-1.352,1.527,3.743,3.743,0,0,1-2.02.547,3.556,3.556,0,0,1-2.785-1.2,4.575,4.575,0,0,1-1.066-3.164Zm1.453.172a3.616,3.616,0,0,0,.652,2.258,2.211,2.211,0,0,0,3.5-.012,3.954,3.954,0,0,0,.648-2.418,3.61,3.61,0,0,0-.66-2.254,2.1,2.1,0,0,0-1.754-.863,2.075,2.075,0,0,0-1.727.852A3.925,3.925,0,0,0,140.031,12.867ZM151.7,12.7a4.952,4.952,0,0,1,.922-3.129,3.137,3.137,0,0,1,4.766-.168V5h1.445V17H157.5l-.07-.906a2.943,2.943,0,0,1-2.414,1.063,2.887,2.887,0,0,1-2.395-1.2,5.008,5.008,0,0,1-.926-3.141Zm1.445.164a3.749,3.749,0,0,0,.594,2.25,1.919,1.919,0,0,0,1.641.813,2.108,2.108,0,0,0,2.008-1.234V10.813a2.125,2.125,0,0,0-1.992-1.2,1.929,1.929,0,0,0-1.656.82A4.128,4.128,0,0,0,153.141,12.867Zm11.438,4.289a3.693,3.693,0,0,1-2.8-1.129,4.19,4.19,0,0,1-1.078-3.02v-.266a5.073,5.073,0,0,1,.48-2.246,3.748,3.748,0,0,1,1.344-1.547,3.378,3.378,0,0,1,1.871-.559,3.166,3.166,0,0,1,2.563,1.086,4.7,4.7,0,0,1,.914,3.109v.6h-5.727a3,3,0,0,0,.73,2.02,2.3,2.3,0,0,0,1.777.77,2.517,2.517,0,0,0,1.3-.312,3.258,3.258,0,0,0,.93-.828l.883.688A3.55,3.55,0,0,1,164.578,17.156Zm-.18-7.578a1.928,1.928,0,0,0-1.469.637A3.1,3.1,0,0,0,162.2,12h4.234v-.109a2.753,2.753,0,0,0-.594-1.707A1.815,1.815,0,0,0,164.4,9.578Zm11.9,5.461,2.094-6.492h1.477L176.836,17h-1.1l-3.062-8.453h1.477ZM182.828,17h-1.445V8.547h1.445ZM181.266,6.3a.863.863,0,0,1,.215-.594.807.807,0,0,1,.637-.242.819.819,0,0,1,.641.242.854.854,0,0,1,.219.594.826.826,0,0,1-.219.586.834.834,0,0,1-.641.234.821.821,0,0,1-.637-.234A.834.834,0,0,1,181.266,6.3Zm3.523,6.4a4.952,4.952,0,0,1,.922-3.129,3.137,3.137,0,0,1,4.766-.168V5h1.445V17h-1.328l-.07-.906a2.943,2.943,0,0,1-2.414,1.063,2.887,2.887,0,0,1-2.395-1.2,5.008,5.008,0,0,1-.926-3.141Zm1.445.164a3.749,3.749,0,0,0,.594,2.25,1.919,1.919,0,0,0,1.641.813,2.108,2.108,0,0,0,2.008-1.234V10.813a2.125,2.125,0,0,0-1.992-1.2,1.929,1.929,0,0,0-1.656.82A4.128,4.128,0,0,0,186.234,12.867ZM199.383,17a3.036,3.036,0,0,1-.2-.891,3.225,3.225,0,0,1-2.406,1.047,2.984,2.984,0,0,1-2.051-.707,2.287,2.287,0,0,1-.8-1.793,2.39,2.39,0,0,1,1-2.051,4.733,4.733,0,0,1,2.824-.73h1.406v-.664A1.623,1.623,0,0,0,198.7,10a1.821,1.821,0,0,0-1.336-.449,2.107,2.107,0,0,0-1.3.391,1.151,1.151,0,0,0-.523.945h-1.453a2,2,0,0,1,.449-1.223,3.066,3.066,0,0,1,1.219-.934,4.1,4.1,0,0,1,1.691-.344,3.342,3.342,0,0,1,2.289.73,2.635,2.635,0,0,1,.859,2.012v3.891a4.757,4.757,0,0,0,.3,1.852V17Zm-2.4-1.1a2.54,2.54,0,0,0,1.289-.352,2.127,2.127,0,0,0,.883-.914V12.9h-1.133q-2.656,0-2.656,1.555a1.316,1.316,0,0,0,.453,1.063A1.742,1.742,0,0,0,196.984,15.9Zm12.609-1.016,1.969-6.336h1.547l-3.4,9.758q-.789,2.109-2.508,2.109l-.273-.023-.539-.1V19.117l.391.031a1.923,1.923,0,0,0,1.145-.3,2.148,2.148,0,0,0,.676-1.086l.32-.859-3.016-8.359h1.578Zm11.555.156,2.094-6.492h1.477L221.688,17h-1.1l-3.062-8.453H219ZM231.211,17a3.036,3.036,0,0,1-.2-.891,3.225,3.225,0,0,1-2.406,1.047,2.984,2.984,0,0,1-2.051-.707,2.287,2.287,0,0,1-.8-1.793,2.39,2.39,0,0,1,1-2.051,4.733,4.733,0,0,1,2.824-.73h1.406v-.664A1.623,1.623,0,0,0,230.531,10a1.821,1.821,0,0,0-1.336-.449,2.107,2.107,0,0,0-1.3.391,1.151,1.151,0,0,0-.523.945h-1.453a2,2,0,0,1,.449-1.223,3.066,3.066,0,0,1,1.219-.934,4.1,4.1,0,0,1,1.691-.344,3.342,3.342,0,0,1,2.289.73,2.635,2.635,0,0,1,.859,2.012v3.891a4.757,4.757,0,0,0,.3,1.852V17Zm-2.4-1.1a2.54,2.54,0,0,0,1.289-.352,2.127,2.127,0,0,0,.883-.914V12.9h-1.133q-2.656,0-2.656,1.555a1.316,1.316,0,0,0,.453,1.063A1.742,1.742,0,0,0,228.813,15.9Zm7.453,1.1H234.82V5h1.445Zm1.93-4.3a4.993,4.993,0,0,1,.488-2.234,3.642,3.642,0,0,1,1.359-1.531,3.7,3.7,0,0,1,1.988-.539,3.565,3.565,0,0,1,2.793,1.2,4.6,4.6,0,0,1,1.066,3.18v.1a5.036,5.036,0,0,1-.473,2.215,3.589,3.589,0,0,1-1.352,1.527,3.743,3.743,0,0,1-2.02.547,3.556,3.556,0,0,1-2.785-1.2A4.575,4.575,0,0,1,238.2,12.8Zm1.453.172a3.616,3.616,0,0,0,.652,2.258,2.211,2.211,0,0,0,3.5-.012,3.954,3.954,0,0,0,.648-2.418,3.61,3.61,0,0,0-.66-2.254,2.1,2.1,0,0,0-1.754-.863,2.075,2.075,0,0,0-1.727.852A3.925,3.925,0,0,0,239.648,12.867Zm12.141-3.023a4.331,4.331,0,0,0-.711-.055A1.9,1.9,0,0,0,249.148,11v6H247.7V8.547h1.406l.023.977a2.251,2.251,0,0,1,2.016-1.133,1.477,1.477,0,0,1,.641.109Zm4.836,7.313a3.693,3.693,0,0,1-2.8-1.129,4.19,4.19,0,0,1-1.078-3.02v-.266a5.073,5.073,0,0,1,.48-2.246,3.748,3.748,0,0,1,1.344-1.547,3.378,3.378,0,0,1,1.871-.559,3.166,3.166,0,0,1,2.563,1.086,4.7,4.7,0,0,1,.914,3.109v.6H254.2a3,3,0,0,0,.73,2.02,2.3,2.3,0,0,0,1.777.77,2.517,2.517,0,0,0,1.3-.312,3.259,3.259,0,0,0,.93-.828l.883.688A3.55,3.55,0,0,1,256.625,17.156Zm-.18-7.578a1.928,1.928,0,0,0-1.469.637A3.1,3.1,0,0,0,254.242,12h4.234v-.109a2.753,2.753,0,0,0-.594-1.707A1.815,1.815,0,0,0,256.445,9.578Zm10.07,5.18a1.064,1.064,0,0,0-.441-.91,4.249,4.249,0,0,0-1.539-.559,7.276,7.276,0,0,1-1.742-.562,2.478,2.478,0,0,1-.953-.781,1.869,1.869,0,0,1-.309-1.078,2.193,2.193,0,0,1,.879-1.758,3.432,3.432,0,0,1,2.246-.719,3.532,3.532,0,0,1,2.332.742,2.357,2.357,0,0,1,.895,1.9H266.43a1.3,1.3,0,0,0-.5-1.023,1.888,1.888,0,0,0-1.27-.43,1.976,1.976,0,0,0-1.234.344,1.082,1.082,0,0,0-.445.9.877.877,0,0,0,.414.789,5.1,5.1,0,0,0,1.5.508,7.8,7.8,0,0,1,1.754.578,2.559,2.559,0,0,1,1,.809,1.988,1.988,0,0,1,.324,1.152,2.163,2.163,0,0,1-.906,1.816,3.8,3.8,0,0,1-2.352.684,4.257,4.257,0,0,1-1.8-.359,2.922,2.922,0,0,1-1.223-1,2.42,2.42,0,0,1-.441-1.395h1.445a1.5,1.5,0,0,0,.582,1.152,2.258,2.258,0,0,0,1.434.426,2.331,2.331,0,0,0,1.316-.332A1.02,1.02,0,0,0,266.516,14.758Zm3.359,1.484a.905.905,0,0,1,.223-.625.848.848,0,0,1,.668-.25.874.874,0,0,1,.676.25.887.887,0,0,1,.23.625.839.839,0,0,1-.23.6.89.89,0,0,1-.676.242.8.8,0,0,1-.891-.844Z" transform="translate(-3124 -6569)" fill="#00104e"/>
    <g id="Grupo_1173643" data-name="Grupo 1173643">
      <path id="Trazado_822601-2" data-name="Trazado 822601" d="M215.88,69.484l-23.736-41.06c-2.7-4.612-9.224-8.324-14.512-8.324H130.16c-5.287,0-11.812,3.825-14.512,8.324L92.025,69.484c-2.7,4.612-2.7,12.149,0,16.761l23.736,41.06c2.7,4.612,9.224,8.324,14.512,8.324h47.472c5.287,0,11.812-3.825,14.512-8.324l23.736-41.06C218.579,81.634,218.579,74.1,215.88,69.484Z" transform="translate(-3141.01 -6803.147)" fill="#997b4d"/>
      <path id="Trazado_825276-2" data-name="Trazado 825276" d="M235.561,77.206l-27.447-47.48c-3.122-5.333-10.667-9.626-16.78-9.626H136.439c-6.114,0-13.659,4.423-16.78,9.626L92.341,77.206c-3.122,5.333-3.122,14.049,0,19.382l27.447,47.48c3.122,5.333,10.667,9.626,16.78,9.626h54.894c6.114,0,13.659-4.423,16.78-9.626l27.447-47.48C238.683,91.254,238.683,82.539,235.561,77.206Z" transform="translate(-3151.01 -6812.179)" fill="none" stroke="#997b4d" stroke-width="2"/>
      <line id="Línea_570-2" data-name="Línea 570" y2="56" transform="translate(-2986.551 -6658.065)" fill="none" stroke="#997b4d" stroke-width="2"/>
      <line id="Línea_571-2" data-name="Línea 571" x2="190" transform="translate(-3082.051 -6601.565)" fill="none" stroke="#997b4d" stroke-width="2"/>
      <path id="Trazado_1037785" data-name="Trazado 1037785" d="M224.492,72.863l-25.36-43.869c-2.885-4.928-9.856-8.894-15.5-8.894h-50.72c-5.649,0-12.62,4.086-15.5,8.894L92.163,72.863c-2.885,4.928-2.885,12.98,0,17.908l25.36,43.869c2.885,4.928,9.856,8.894,15.5,8.894h50.72c5.649,0,12.62-4.086,15.5-8.894l25.36-43.869C227.377,85.844,227.377,77.791,224.492,72.863Z" transform="translate(-3145.335 -6807.1)" fill="none" stroke="#997b4d" stroke-width="1" stroke-dasharray="8"/>
      <g id="_x34_6_Developing_Talents" transform="translate(-3046.837 -6759.906)">
        <g id="Grupo_1173632" data-name="Grupo 1173632" transform="translate(30.902 2.036)">
          <path id="Trazado_1037829" data-name="Trazado 1037829" d="M85.6,45.96C80.93,52.025,80.316,58.923,82.523,66.4a3.671,3.671,0,0,1-3.5,4.734H61.491A3.663,3.663,0,0,1,57.9,68.189c-.351-1.755-.78-3.808-1.035-4.689a2.085,2.085,0,0,0-1.551-1.4,3.661,3.661,0,0,0-1.645-.054,66.77,66.77,0,0,1-8.548,1.05A4.5,4.5,0,0,1,40.4,58.086a29.277,29.277,0,0,1,.64-3.538,1.487,1.487,0,0,0-.419-1.427,3.614,3.614,0,0,1-.6-.744,1.5,1.5,0,0,1-.038-1.434l.05-.1a1.527,1.527,0,0,0-.244-1.734,1.545,1.545,0,0,1-.181-1.843c1.031-1.771.394-3.211-1.986-4.307a2.331,2.331,0,0,1-1.288-1.568,2.458,2.458,0,0,1,.708-2.036c4.476-4.092,5.872-8.277,5.667-12.6a19.3,19.3,0,0,1,.786-5.83C47.985,7.389,61.543,4.839,75.267,9.391,90.162,14.332,95.944,31.346,85.6,45.96Z" transform="translate(-35.609 -6.639)" fill="#ebd8ae"/>
          <path id="Trazado_1037830" data-name="Trazado 1037830" d="M228.446,75.845c-4.671,6.063-5.282,12.961-3.076,20.442a3.675,3.675,0,0,1-3.5,4.732h-17.53a3.658,3.658,0,0,1-3.592-2.947c-.183-.9-.38-1.874-.57-2.729A38.7,38.7,0,0,0,223.157,41.6C234.183,48.342,237.53,63.013,228.446,75.845Z" transform="translate(-178.455 -36.523)" opacity="0.12"/>
          <path id="Trazado_1037831" data-name="Trazado 1037831" d="M216.977,181.909V176.74a5.169,5.169,0,1,0,5.169,5.17h-5.169Z" transform="translate(-188.594 -154.322)" fill="#475da9"/>
          <path id="Trazado_1037832" data-name="Trazado 1037832" d="M272.72,166.445a5.168,5.168,0,0,0-5.167-5.169h0v5.169Z" transform="translate(-237.184 -140.842)" fill="#e8f1f8"/>
          <path id="Trazado_1037833" data-name="Trazado 1037833" d="M323.811,215.185a8.654,8.654,0,0,1-2.545,6.135l4.451,4.451a14.923,14.923,0,0,0,4.384-10.586Z" transform="translate(-284.007 -187.834)" fill="#f14f4a"/>
          <path id="Trazado_1037834" data-name="Trazado 1037834" d="M152.229,122.172a8.68,8.68,0,1,1,0-17.36v-6.29a14.97,14.97,0,1,0,10.586,25.556l-4.451-4.451A8.654,8.654,0,0,1,152.229,122.172Z" transform="translate(-123.611 -86.141)" fill="#0e9c4a"/>
          <path id="Trazado_1037835" data-name="Trazado 1037835" d="M273.456,85.277a8.69,8.69,0,0,1,8.68,8.68h6.29a14.969,14.969,0,0,0-14.97-14.97Z" transform="translate(-242.332 -69.113)" fill="#e8f1f8"/>
          <path id="Trazado_1037836" data-name="Trazado 1037836" d="M272.958,347.347H253.784a4.977,4.977,0,0,1,0-9.955h1.639l3.645-5.1,3.641,5.1h10.249a4.977,4.977,0,1,1,0,9.955Z" transform="translate(-220.846 -289.917)" fill="#475da9"/>
          <path id="Trazado_1037837" data-name="Trazado 1037837" d="M280.56,379.666a4.983,4.983,0,0,1-4.976,4.976H256.41a4.977,4.977,0,0,1-4.589-3.048,4.912,4.912,0,0,0,1.928.387h19.173A4.983,4.983,0,0,0,277.9,377a4.9,4.9,0,0,0-.387-1.921A4.972,4.972,0,0,1,280.56,379.666Z" transform="translate(-223.473 -327.214)" opacity="0.12"/>
          <path id="Trazado_1037838" data-name="Trazado 1037838" d="M212.362,171.45a5.847,5.847,0,1,0,5.848,5.847.679.679,0,0,0-.679-.679h-4.49v-4.489a.679.679,0,0,0-.679-.679Zm4.439,6.527a4.49,4.49,0,1,1-5.118-5.118V177.3a.679.679,0,0,0,.679.679Z" transform="translate(-183.98 -149.711)"/>
          <path id="Trazado_1037839" data-name="Trazado 1037839" d="M262.939,162.512h5.169a.679.679,0,0,0,.679-.679,5.855,5.855,0,0,0-5.848-5.847.679.679,0,0,0-.679.679v5.168A.679.679,0,0,0,262.939,162.512Zm.68-5.117a4.5,4.5,0,0,1,3.758,3.759h-3.759Z" transform="translate(-232.572 -136.231)"/>
          <path id="Trazado_1037840" data-name="Trazado 1037840" d="M268.846,81.343a8.011,8.011,0,0,1,8,8,.679.679,0,0,0,.679.679h6.29a.679.679,0,0,0,.679-.679,15.667,15.667,0,0,0-15.649-15.649.679.679,0,0,0-.679.679v6.29A.679.679,0,0,0,268.846,81.343Zm.679-6.274a14.311,14.311,0,0,1,13.6,13.6H278.18a9.374,9.374,0,0,0-8.655-8.656V75.069Z" transform="translate(-237.721 -64.5)"/>
          <path id="Trazado_1037841" data-name="Trazado 1037841" d="M158.681,119.946a.679.679,0,0,0,0-.96l-4.451-4.451a.7.7,0,0,0-.96,0,8,8,0,1,1-5.655-13.656.679.679,0,0,0,.679-.679V93.91a.679.679,0,0,0-.679-.679,15.649,15.649,0,1,0,11.066,26.715ZM133.325,108.88A14.309,14.309,0,0,1,146.937,94.6v4.94a9.359,9.359,0,1,0,6.8,16.413l3.5,3.5a14.292,14.292,0,0,1-23.905-10.574Z" transform="translate(-118.999 -81.529)"/>
          <path id="Trazado_1037842" data-name="Trazado 1037842" d="M325.49,209.894H319.2a.679.679,0,0,0-.679.679,7.947,7.947,0,0,1-2.346,5.655.679.679,0,0,0,0,.96l4.451,4.451a.679.679,0,0,0,.96,0,15.544,15.544,0,0,0,4.583-11.066A.679.679,0,0,0,325.49,209.894Zm-4.4,10.293-3.5-3.5a9.277,9.277,0,0,0,2.257-5.439h4.94A14.172,14.172,0,0,1,321.094,220.187Z" transform="translate(-279.395 -183.222)"/>
          <path id="Trazado_1037843" data-name="Trazado 1037843" d="M310.72,394.413H294.5a.679.679,0,0,0,0,1.358H310.72a.679.679,0,0,0,0-1.358Z" transform="translate(-260.086 -344.064)"/>
          <path id="Trazado_1037844" data-name="Trazado 1037844" d="M304.5,422.8h-10a.679.679,0,0,0,0,1.358h10a.679.679,0,1,0,0-1.358Z" transform="translate(-260.087 -368.805)"/>
          <path id="Trazado_1037845" data-name="Trazado 1037845" d="M83.015,48.831h-5.1a19.711,19.711,0,0,1,3.534-7.08c5.117-7.234,6.656-15.634,4.222-23.044a22.961,22.961,0,0,0-14.9-14.566C58.291.005,43.16.975,38.144,16.1a19.952,19.952,0,0,0-.821,6.073c.218,4.642-1.513,8.479-5.45,12.075a2.816,2.816,0,0,0,.759,4.722,3.4,3.4,0,0,1,2,1.728,1.988,1.988,0,0,1-.317,1.613,2.275,2.275,0,0,0-.319,1.161,2.191,2.191,0,0,0,.592,1.5.885.885,0,0,1,.075,1.068,2.176,2.176,0,0,0,.068,2.081,4.31,4.31,0,0,0,.709.887.808.808,0,0,1,.234.771,30.538,30.538,0,0,0-.66,3.62,5.185,5.185,0,0,0,5.434,5.771,67.622,67.622,0,0,0,8.636-1.063c.95-.177,2.155.056,2.423.976.206.7.576,2.392,1.018,4.636a4.368,4.368,0,0,0,4.264,3.49H74.309A4.356,4.356,0,0,0,78.47,61.6c-.149-.5-.276-.987-.391-1.458h4.936a5.656,5.656,0,0,0,0-11.313ZM77.167,61.986a3,3,0,0,1-2.858,3.869H56.786a3,3,0,0,1-2.932-2.4c-.264-1.339-.75-3.736-1.046-4.75-.476-1.637-2.308-2.239-3.972-1.931a66.3,66.3,0,0,1-8.459,1.042,3.828,3.828,0,0,1-4.017-4.248,29.034,29.034,0,0,1,.631-3.458,2.171,2.171,0,0,0-.607-2.077,2.97,2.97,0,0,1-.487-.607.822.822,0,0,1-.025-.766,2.248,2.248,0,0,0-.292-2.614.826.826,0,0,1-.225-.57A.937.937,0,0,1,35.485,43a3.3,3.3,0,0,0,.441-2.71,4.562,4.562,0,0,0-2.685-2.531,1.47,1.47,0,0,1-.451-2.508c4.2-3.835,6.125-8.134,5.889-13.139a18.621,18.621,0,0,1,.753-5.581c4.7-14.181,19.05-15.035,30.916-11.1a21.615,21.615,0,0,1,14.032,13.7c2.3,7,.826,14.957-4.024,21.814a20.919,20.919,0,0,0-3.838,7.886h-3.4L69.676,44.02a.679.679,0,0,0-1.1,0L65.13,48.831H63.841a5.656,5.656,0,1,0,0,11.313H76.684c.138.59.295,1.2.484,1.842Zm5.848-3.2H63.841a4.3,4.3,0,1,1,0-8.6H65.48a.679.679,0,0,0,.552-.284l3.092-4.323,3.089,4.323a.678.678,0,0,0,.552.284H83.015a4.3,4.3,0,0,1,0,8.6Z" transform="translate(-30.902 -2.036)"/>
        </g>
      </g>
    </g>
    <path id="Trazado_1038016" data-name="Trazado 1038016" d="M16,0H384a16,16,0,0,1,16,16V285a16,16,0,0,1-16,16H16A16,16,0,0,1,0,285V16A16,16,0,0,1,16,0Z" transform="translate(-3186 -6480)" fill="#f9f7f4"/>
    <path id="Trazado_1038017" data-name="Trazado 1038017" d="M11,0H333.5a11,11,0,0,1,11,11V44a11,11,0,0,1-11,11H11A11,11,0,0,1,0,44V11A11,11,0,0,1,11,0Z" transform="translate(-3165.275 -6260)" fill="#d8e9ff"/>
    <path id="Trazado_1038018" data-name="Trazado 1038018" d="M12.2,13.211A4.025,4.025,0,0,1,10.844,16.1a4.76,4.76,0,0,1-3.223,1.055A4.28,4.28,0,0,1,4.18,15.684a6.038,6.038,0,0,1-1.254-4.043v-.7A6.819,6.819,0,0,1,3.5,8.055,4.332,4.332,0,0,1,5.156,6.137a4.629,4.629,0,0,1,2.5-.668,4.637,4.637,0,0,1,3.172,1.055,4.326,4.326,0,0,1,1.391,2.961H9.871a2.376,2.376,0,0,0-.613-1.6,2.271,2.271,0,0,0-1.605-.5A1.991,1.991,0,0,0,5.9,8.23a4.707,4.707,0,0,0-.6,2.605V11.7a5.038,5.038,0,0,0,.559,2.7,1.954,1.954,0,0,0,1.762.852,2.314,2.314,0,0,0,1.621-.5,2.241,2.241,0,0,0,.613-1.535Zm1.039-.516a5.013,5.013,0,0,1,.484-2.242A3.546,3.546,0,0,1,15.117,8.93a4.069,4.069,0,0,1,2.113-.539,3.849,3.849,0,0,1,2.793,1.047,4.2,4.2,0,0,1,1.207,2.844l.016.578A4.418,4.418,0,0,1,20.16,15.98a3.775,3.775,0,0,1-2.914,1.176,3.793,3.793,0,0,1-2.918-1.172,4.5,4.5,0,0,1-1.09-3.187Zm2.258.164a3.151,3.151,0,0,0,.453,1.84,1.629,1.629,0,0,0,2.578.008,3.448,3.448,0,0,0,.461-2.012,3.12,3.12,0,0,0-.461-1.828,1.5,1.5,0,0,0-1.3-.648,1.475,1.475,0,0,0-1.281.645A3.506,3.506,0,0,0,15.5,12.859Zm9.219-4.312.07.977a2.951,2.951,0,0,1,2.43-1.133,2.453,2.453,0,0,1,2,.789,3.682,3.682,0,0,1,.672,2.359V17H27.629V11.594a1.465,1.465,0,0,0-.312-1.043,1.4,1.4,0,0,0-1.039-.324,1.553,1.553,0,0,0-1.43.813V17H22.59V8.547Zm6.531,4.164a5.094,5.094,0,0,1,.887-3.148,2.877,2.877,0,0,1,2.426-1.172,2.589,2.589,0,0,1,2.039.922V5h2.266V17H36.824l-.109-.9a2.657,2.657,0,0,1-2.172,1.055,2.869,2.869,0,0,1-2.395-1.176A5.258,5.258,0,0,1,31.246,12.711Zm2.258.164a3.328,3.328,0,0,0,.414,1.82,1.349,1.349,0,0,0,1.2.633,1.511,1.511,0,0,0,1.477-.883V11.109a1.489,1.489,0,0,0-1.461-.883Q33.5,10.227,33.5,12.875Zm12.172,3.266a2.831,2.831,0,0,1-2.312,1.016,2.67,2.67,0,0,1-2.074-.781,3.335,3.335,0,0,1-.73-2.289V8.547h2.258v5.461q0,1.32,1.2,1.32a1.631,1.631,0,0,0,1.578-.8V8.547h2.266V17H45.738Zm7.406-.8a1.481,1.481,0,0,0,1.016-.344,1.2,1.2,0,0,0,.406-.914h2.117a2.9,2.9,0,0,1-.469,1.574,3.093,3.093,0,0,1-1.262,1.109,3.949,3.949,0,0,1-1.77.395A3.67,3.67,0,0,1,50.262,16a4.56,4.56,0,0,1-1.047-3.184v-.148a4.508,4.508,0,0,1,1.039-3.117,3.627,3.627,0,0,1,2.852-1.164,3.555,3.555,0,0,1,2.543.9,3.2,3.2,0,0,1,.973,2.4H54.5a1.539,1.539,0,0,0-.406-1.066,1.513,1.513,0,0,0-2.223.164,3.324,3.324,0,0,0-.4,1.863v.234a3.366,3.366,0,0,0,.4,1.875A1.378,1.378,0,0,0,53.082,15.336Zm7.531-8.867V8.547h1.445V10.2H60.613v4.219a1.007,1.007,0,0,0,.18.672.9.9,0,0,0,.688.2,3.6,3.6,0,0,0,.664-.055v1.711a4.648,4.648,0,0,1-1.367.2,2.156,2.156,0,0,1-2.422-2.4V10.2H57.121V8.547h1.234V6.469Zm7.766,9.672a2.831,2.831,0,0,1-2.312,1.016,2.67,2.67,0,0,1-2.074-.781,3.335,3.335,0,0,1-.73-2.289V8.547H65.52v5.461q0,1.32,1.2,1.32a1.631,1.631,0,0,0,1.578-.8V8.547h2.266V17H68.441ZM77.168,17a2.507,2.507,0,0,1-.227-.758,2.732,2.732,0,0,1-2.133.914,3,3,0,0,1-2.059-.719,2.312,2.312,0,0,1-.816-1.812,2.389,2.389,0,0,1,1-2.062,4.915,4.915,0,0,1,2.879-.727h1.039v-.484a1.393,1.393,0,0,0-.3-.937,1.183,1.183,0,0,0-.949-.352,1.345,1.345,0,0,0-.895.273.929.929,0,0,0-.324.75H72.121a2.268,2.268,0,0,1,.453-1.359,3,3,0,0,1,1.281-.98,4.669,4.669,0,0,1,1.859-.355,3.689,3.689,0,0,1,2.48.785,2.747,2.747,0,0,1,.918,2.207v3.664a4.041,4.041,0,0,0,.336,1.82V17ZM75.3,15.43a1.945,1.945,0,0,0,.922-.223,1.462,1.462,0,0,0,.625-.6V13.156H76q-1.7,0-1.8,1.172l-.008.133a.9.9,0,0,0,.3.7A1.153,1.153,0,0,0,75.3,15.43ZM83.23,17H80.965V5H83.23Zm5.75.156a4.15,4.15,0,0,1-3.027-1.141,4.054,4.054,0,0,1-1.168-3.039v-.219a5.106,5.106,0,0,1,.492-2.277,3.612,3.612,0,0,1,1.395-1.547,3.914,3.914,0,0,1,2.059-.543,3.508,3.508,0,0,1,2.73,1.094,4.444,4.444,0,0,1,1,3.1v.922H87.074a2.1,2.1,0,0,0,.66,1.328,2,2,0,0,0,1.395.5,2.437,2.437,0,0,0,2.039-.945l1.109,1.242A3.389,3.389,0,0,1,90.9,16.754,4.511,4.511,0,0,1,88.98,17.156Zm-.258-6.937a1.414,1.414,0,0,0-1.09.453,2.341,2.341,0,0,0-.535,1.3h3.141v-.18a1.669,1.669,0,0,0-.406-1.16A1.459,1.459,0,0,0,88.723,10.219Zm9.594,4.445a.727.727,0,0,0-.41-.652,4.659,4.659,0,0,0-1.316-.426q-3.016-.633-3.016-2.562a2.323,2.323,0,0,1,.934-1.879,3.766,3.766,0,0,1,2.441-.754,4.053,4.053,0,0,1,2.574.758,2.388,2.388,0,0,1,.965,1.969H98.23a1.092,1.092,0,0,0-.312-.8A1.322,1.322,0,0,0,96.941,10a1.351,1.351,0,0,0-.883.258.814.814,0,0,0-.312.656.7.7,0,0,0,.355.605,3.657,3.657,0,0,0,1.2.4,9.8,9.8,0,0,1,1.422.379,2.336,2.336,0,0,1,1.789,2.273,2.2,2.2,0,0,1-.992,1.871,4.28,4.28,0,0,1-2.562.715,4.47,4.47,0,0,1-1.887-.379,3.166,3.166,0,0,1-1.293-1.039,2.414,2.414,0,0,1-.469-1.426h2.141a1.179,1.179,0,0,0,.445.922,1.766,1.766,0,0,0,1.109.32,1.635,1.635,0,0,0,.98-.246A.766.766,0,0,0,98.316,14.664Zm3.758,1.227a1.137,1.137,0,0,1,.363-.875,1.412,1.412,0,0,1,1.828,0,1.137,1.137,0,0,1,.363.875,1.121,1.121,0,0,1-.359.863,1.435,1.435,0,0,1-1.836,0A1.121,1.121,0,0,1,102.074,15.891Zm0-6.4a1.137,1.137,0,0,1,.363-.875,1.412,1.412,0,0,1,1.828,0,1.137,1.137,0,0,1,.363.875,1.121,1.121,0,0,1-.359.863,1.435,1.435,0,0,1-1.836,0A1.121,1.121,0,0,1,102.074,9.492Zm10.063.078a3.073,3.073,0,0,1,2.5-1.18q2.68,0,2.7,3.023V17h-1.445V11.406a1.946,1.946,0,0,0-.418-1.352,1.675,1.675,0,0,0-1.277-.437,2.086,2.086,0,0,0-1.234.375,2.546,2.546,0,0,0-.828.984V17h-1.445V5h1.445ZM124.723,17a3.036,3.036,0,0,1-.2-.891,3.225,3.225,0,0,1-2.406,1.047,2.984,2.984,0,0,1-2.051-.707,2.288,2.288,0,0,1-.8-1.793,2.39,2.39,0,0,1,1-2.051,4.733,4.733,0,0,1,2.824-.73H124.5v-.664A1.623,1.623,0,0,0,124.043,10a1.821,1.821,0,0,0-1.336-.449,2.108,2.108,0,0,0-1.3.391,1.151,1.151,0,0,0-.523.945h-1.453a2,2,0,0,1,.449-1.223,3.066,3.066,0,0,1,1.219-.934,4.1,4.1,0,0,1,1.691-.344,3.342,3.342,0,0,1,2.289.73,2.635,2.635,0,0,1,.859,2.012v3.891a4.757,4.757,0,0,0,.3,1.852V17Zm-2.4-1.1a2.54,2.54,0,0,0,1.289-.352,2.127,2.127,0,0,0,.883-.914V12.9h-1.133q-2.656,0-2.656,1.555a1.316,1.316,0,0,0,.453,1.063A1.742,1.742,0,0,0,122.324,15.9ZM123.66,5h1.75l-2.094,2.3h-1.164Zm11.7,7.867a5.026,5.026,0,0,1-.891,3.113,2.846,2.846,0,0,1-2.391,1.176,2.947,2.947,0,0,1-2.477-1.133l-.07.977h-1.328V5h1.445V9.477a2.93,2.93,0,0,1,2.414-1.086,2.863,2.863,0,0,1,2.418,1.164,5.177,5.177,0,0,1,.879,3.188Zm-1.445-.164a3.906,3.906,0,0,0-.57-2.281,1.888,1.888,0,0,0-1.641-.8,2.122,2.122,0,0,0-2.055,1.328V14.6a2.181,2.181,0,0,0,2.07,1.328,1.878,1.878,0,0,0,1.617-.8A4.153,4.153,0,0,0,133.918,12.7Zm4.836,4.3h-1.445V8.547h1.445ZM137.191,6.3a.863.863,0,0,1,.215-.594.807.807,0,0,1,.637-.242.819.819,0,0,1,.641.242.854.854,0,0,1,.219.594.826.826,0,0,1-.219.586.834.834,0,0,1-.641.234.821.821,0,0,1-.637-.234A.834.834,0,0,1,137.191,6.3Zm5.836.2V8.547h1.578V9.664h-1.578v5.242a1.171,1.171,0,0,0,.211.762.888.888,0,0,0,.719.254,3.5,3.5,0,0,0,.688-.094V17a4.19,4.19,0,0,1-1.109.156,1.8,1.8,0,0,1-1.461-.586,2.517,2.517,0,0,1-.492-1.664V9.664h-1.539V8.547h1.539V6.5Zm2.727,6.2a4.993,4.993,0,0,1,.488-2.234A3.642,3.642,0,0,1,147.6,8.93a3.7,3.7,0,0,1,1.988-.539,3.565,3.565,0,0,1,2.793,1.2,4.6,4.6,0,0,1,1.066,3.18v.1a5.036,5.036,0,0,1-.473,2.215,3.589,3.589,0,0,1-1.352,1.527,3.743,3.743,0,0,1-2.02.547,3.556,3.556,0,0,1-2.785-1.2,4.575,4.575,0,0,1-1.066-3.164Zm1.453.172a3.616,3.616,0,0,0,.652,2.258,2.211,2.211,0,0,0,3.5-.012A3.954,3.954,0,0,0,152,12.7a3.61,3.61,0,0,0-.66-2.254,2.1,2.1,0,0,0-1.754-.863,2.075,2.075,0,0,0-1.727.852A3.925,3.925,0,0,0,147.207,12.867Zm12.977,1.891a1.064,1.064,0,0,0-.441-.91,4.249,4.249,0,0,0-1.539-.559,7.277,7.277,0,0,1-1.742-.562,2.479,2.479,0,0,1-.953-.781,1.869,1.869,0,0,1-.309-1.078,2.193,2.193,0,0,1,.879-1.758,3.432,3.432,0,0,1,2.246-.719,3.532,3.532,0,0,1,2.332.742,2.357,2.357,0,0,1,.895,1.9H160.1a1.3,1.3,0,0,0-.5-1.023,1.888,1.888,0,0,0-1.27-.43,1.976,1.976,0,0,0-1.234.344,1.082,1.082,0,0,0-.445.9.877.877,0,0,0,.414.789,5.1,5.1,0,0,0,1.5.508,7.8,7.8,0,0,1,1.754.578,2.558,2.558,0,0,1,1,.809,1.988,1.988,0,0,1,.324,1.152,2.163,2.163,0,0,1-.906,1.816,3.8,3.8,0,0,1-2.352.684,4.257,4.257,0,0,1-1.8-.359,2.922,2.922,0,0,1-1.223-1,2.42,2.42,0,0,1-.441-1.395h1.445a1.5,1.5,0,0,0,.582,1.152,2.258,2.258,0,0,0,1.434.426,2.331,2.331,0,0,0,1.316-.332A1.02,1.02,0,0,0,160.184,14.758Zm6.938-2.055a4.952,4.952,0,0,1,.922-3.129,3.137,3.137,0,0,1,4.766-.168V5h1.445V17h-1.328l-.07-.906a2.943,2.943,0,0,1-2.414,1.063,2.887,2.887,0,0,1-2.395-1.2,5.008,5.008,0,0,1-.926-3.141Zm1.445.164a3.749,3.749,0,0,0,.594,2.25,1.919,1.919,0,0,0,1.641.813,2.108,2.108,0,0,0,2.008-1.234V10.813a2.125,2.125,0,0,0-1.992-1.2,1.929,1.929,0,0,0-1.656.82A4.128,4.128,0,0,0,168.566,12.867ZM180,17.156a3.693,3.693,0,0,1-2.8-1.129,4.19,4.19,0,0,1-1.078-3.02v-.266a5.073,5.073,0,0,1,.48-2.246,3.748,3.748,0,0,1,1.344-1.547,3.378,3.378,0,0,1,1.871-.559,3.166,3.166,0,0,1,2.563,1.086,4.7,4.7,0,0,1,.914,3.109v.6h-5.727a3,3,0,0,0,.73,2.02,2.3,2.3,0,0,0,1.777.77,2.517,2.517,0,0,0,1.3-.312,3.258,3.258,0,0,0,.93-.828l.883.688A3.55,3.55,0,0,1,180,17.156Zm-.18-7.578a1.928,1.928,0,0,0-1.469.637A3.1,3.1,0,0,0,177.621,12h4.234v-.109a2.753,2.753,0,0,0-.594-1.707A1.815,1.815,0,0,0,179.824,9.578Zm12.5,6.4a2.082,2.082,0,0,0,1.352-.469,1.649,1.649,0,0,0,.641-1.172h1.367a2.621,2.621,0,0,1-.5,1.383,3.293,3.293,0,0,1-1.23,1.047,3.55,3.55,0,0,1-1.629.391A3.482,3.482,0,0,1,189.578,16a4.59,4.59,0,0,1-1.02-3.152v-.242a5.089,5.089,0,0,1,.453-2.2,3.451,3.451,0,0,1,1.3-1.492,3.7,3.7,0,0,1,2-.531,3.39,3.39,0,0,1,2.363.852,3.043,3.043,0,0,1,1,2.211h-1.367a1.992,1.992,0,0,0-.621-1.348,1.932,1.932,0,0,0-1.379-.527,2.023,2.023,0,0,0-1.707.793A3.724,3.724,0,0,0,190,12.664v.273a3.65,3.65,0,0,0,.6,2.25A2.033,2.033,0,0,0,192.324,15.977Zm4.6-3.281a4.993,4.993,0,0,1,.488-2.234,3.642,3.642,0,0,1,1.359-1.531,3.7,3.7,0,0,1,1.988-.539,3.565,3.565,0,0,1,2.793,1.2,4.6,4.6,0,0,1,1.066,3.18v.1a5.036,5.036,0,0,1-.473,2.215,3.589,3.589,0,0,1-1.352,1.527,3.743,3.743,0,0,1-2.02.547,3.556,3.556,0,0,1-2.785-1.2,4.575,4.575,0,0,1-1.066-3.164Zm1.453.172a3.616,3.616,0,0,0,.652,2.258,2.211,2.211,0,0,0,3.5-.012,3.954,3.954,0,0,0,.648-2.418,3.61,3.61,0,0,0-.66-2.254,2.1,2.1,0,0,0-1.754-.863,2.075,2.075,0,0,0-1.727.852A3.925,3.925,0,0,0,198.379,12.867Zm9.414-4.32.039.938a3.122,3.122,0,0,1,2.508-1.094,2.417,2.417,0,0,1,2.414,1.359,3.2,3.2,0,0,1,1.1-.984,3.242,3.242,0,0,1,1.6-.375q2.781,0,2.828,2.945V17h-1.445V11.422a1.941,1.941,0,0,0-.414-1.355,1.823,1.823,0,0,0-1.391-.449,1.917,1.917,0,0,0-1.336.48,1.949,1.949,0,0,0-.617,1.293V17h-1.453V11.461a1.613,1.613,0,0,0-1.8-1.844,1.934,1.934,0,0,0-1.945,1.211V17h-1.445V8.547Zm19.8,4.32a5.062,5.062,0,0,1-.883,3.109,2.829,2.829,0,0,1-2.391,1.18,3.1,3.1,0,0,1-2.422-.977v4.07h-1.445V8.547h1.32l.07.938A2.977,2.977,0,0,1,224.3,8.391a2.882,2.882,0,0,1,2.41,1.148,5.117,5.117,0,0,1,.887,3.2Zm-1.445-.164a3.735,3.735,0,0,0-.609-2.258,1.963,1.963,0,0,0-1.672-.828,2.125,2.125,0,0,0-1.969,1.164V14.82a2.129,2.129,0,0,0,1.984,1.156,1.954,1.954,0,0,0,1.652-.824A4.077,4.077,0,0,0,226.152,12.7Zm7.367-2.859a4.331,4.331,0,0,0-.711-.055A1.9,1.9,0,0,0,230.879,11v6h-1.445V8.547h1.406l.023.977a2.251,2.251,0,0,1,2.016-1.133,1.477,1.477,0,0,1,.641.109ZM239.754,17a3.036,3.036,0,0,1-.2-.891,3.225,3.225,0,0,1-2.406,1.047,2.984,2.984,0,0,1-2.051-.707,2.287,2.287,0,0,1-.8-1.793,2.39,2.39,0,0,1,1-2.051,4.733,4.733,0,0,1,2.824-.73h1.406v-.664A1.623,1.623,0,0,0,239.074,10a1.821,1.821,0,0,0-1.336-.449,2.107,2.107,0,0,0-1.3.391,1.151,1.151,0,0,0-.523.945h-1.453a2,2,0,0,1,.449-1.223,3.066,3.066,0,0,1,1.219-.934,4.1,4.1,0,0,1,1.691-.344,3.342,3.342,0,0,1,2.289.73,2.635,2.635,0,0,1,.859,2.012v3.891a4.757,4.757,0,0,0,.3,1.852V17Zm-2.4-1.1a2.54,2.54,0,0,0,1.289-.352,2.127,2.127,0,0,0,.883-.914V12.9h-1.133q-2.656,0-2.656,1.555a1.316,1.316,0,0,0,.453,1.063A1.742,1.742,0,0,0,237.355,15.9Zm12.609-1.016,1.969-6.336h1.547l-3.4,9.758q-.789,2.109-2.508,2.109l-.273-.023-.539-.1V19.117l.391.031a1.923,1.923,0,0,0,1.145-.3,2.148,2.148,0,0,0,.676-1.086l.32-.859-3.016-8.359h1.578ZM260.3,17h-1.445V5H260.3Zm5.82.156a3.693,3.693,0,0,1-2.8-1.129,4.19,4.19,0,0,1-1.078-3.02v-.266a5.073,5.073,0,0,1,.48-2.246,3.748,3.748,0,0,1,1.344-1.547,3.379,3.379,0,0,1,1.871-.559A3.166,3.166,0,0,1,268.5,9.477a4.7,4.7,0,0,1,.914,3.109v.6h-5.727a3,3,0,0,0,.73,2.02,2.3,2.3,0,0,0,1.777.77,2.517,2.517,0,0,0,1.3-.312,3.259,3.259,0,0,0,.93-.828l.883.688A3.55,3.55,0,0,1,266.121,17.156Zm-.18-7.578a1.928,1.928,0,0,0-1.469.637A3.1,3.1,0,0,0,263.738,12h4.234v-.109a2.753,2.753,0,0,0-.594-1.707A1.815,1.815,0,0,0,265.941,9.578ZM276.309,17a3.036,3.036,0,0,1-.2-.891,3.225,3.225,0,0,1-2.406,1.047,2.984,2.984,0,0,1-2.051-.707,2.288,2.288,0,0,1-.8-1.793,2.39,2.39,0,0,1,1-2.051,4.733,4.733,0,0,1,2.824-.73h1.406v-.664A1.623,1.623,0,0,0,275.629,10a1.821,1.821,0,0,0-1.336-.449,2.108,2.108,0,0,0-1.3.391,1.151,1.151,0,0,0-.523.945H271.02a2,2,0,0,1,.449-1.223,3.066,3.066,0,0,1,1.219-.934,4.1,4.1,0,0,1,1.691-.344,3.342,3.342,0,0,1,2.289.73,2.635,2.635,0,0,1,.859,2.012v3.891a4.757,4.757,0,0,0,.3,1.852V17Zm-2.4-1.1a2.54,2.54,0,0,0,1.289-.352,2.126,2.126,0,0,0,.883-.914V12.9h-1.133q-2.656,0-2.656,1.555a1.316,1.316,0,0,0,.453,1.063A1.742,1.742,0,0,0,273.91,15.9Zm7.453,1.1h-1.445V5h1.445Zm4.273-10.5V8.547h1.578V9.664h-1.578v5.242a1.171,1.171,0,0,0,.211.762.888.888,0,0,0,.719.254,3.5,3.5,0,0,0,.688-.094V17a4.19,4.19,0,0,1-1.109.156,1.8,1.8,0,0,1-1.461-.586,2.517,2.517,0,0,1-.492-1.664V9.664h-1.539V8.547h1.539V6.5ZM294.121,17a3.036,3.036,0,0,1-.2-.891,3.225,3.225,0,0,1-2.406,1.047,2.984,2.984,0,0,1-2.051-.707,2.288,2.288,0,0,1-.8-1.793,2.39,2.39,0,0,1,1-2.051,4.733,4.733,0,0,1,2.824-.73h1.406v-.664A1.623,1.623,0,0,0,293.441,10a1.821,1.821,0,0,0-1.336-.449,2.108,2.108,0,0,0-1.3.391,1.151,1.151,0,0,0-.523.945h-1.453a2,2,0,0,1,.449-1.223,3.066,3.066,0,0,1,1.219-.934,4.1,4.1,0,0,1,1.691-.344,3.342,3.342,0,0,1,2.289.73,2.635,2.635,0,0,1,.859,2.012v3.891a4.757,4.757,0,0,0,.3,1.852V17Zm-2.4-1.1a2.54,2.54,0,0,0,1.289-.352,2.126,2.126,0,0,0,.883-.914V12.9h-1.133q-2.656,0-2.656,1.555a1.316,1.316,0,0,0,.453,1.063A1.742,1.742,0,0,0,291.723,15.9Zm5.531-3.2a4.952,4.952,0,0,1,.922-3.129,3.137,3.137,0,0,1,4.766-.168V5h1.445V17h-1.328l-.07-.906a2.943,2.943,0,0,1-2.414,1.063,2.887,2.887,0,0,1-2.395-1.2,5.008,5.008,0,0,1-.926-3.141Zm1.445.164a3.749,3.749,0,0,0,.594,2.25,1.92,1.92,0,0,0,1.641.813,2.109,2.109,0,0,0,2.008-1.234V10.813a2.125,2.125,0,0,0-1.992-1.2,1.929,1.929,0,0,0-1.656.82A4.128,4.128,0,0,0,298.7,12.867Zm7.961,3.375a.905.905,0,0,1,.223-.625.848.848,0,0,1,.668-.25.874.874,0,0,1,.676.25.887.887,0,0,1,.23.625.839.839,0,0,1-.23.6.89.89,0,0,1-.676.242.8.8,0,0,1-.891-.844Z" transform="translate(-3151 -6244)" fill="#00104e"/>
    <g id="Grupo_1173644" data-name="Grupo 1173644">
      <path id="Trazado_822601-3" data-name="Trazado 822601" d="M215.88,69.484l-23.736-41.06c-2.7-4.612-9.224-8.324-14.512-8.324H130.16c-5.287,0-11.812,3.825-14.512,8.324L92.025,69.484c-2.7,4.612-2.7,12.149,0,16.761l23.736,41.06c2.7,4.612,9.224,8.324,14.512,8.324h47.472c5.287,0,11.812-3.825,14.512-8.324l23.736-41.06C218.579,81.634,218.579,74.1,215.88,69.484Z" transform="translate(-3148.484 -6476.147)" fill="#cca467"/>
      <path id="Trazado_825276-3" data-name="Trazado 825276" d="M235.561,77.206l-27.447-47.48c-3.122-5.333-10.667-9.626-16.78-9.626H136.439c-6.114,0-13.659,4.423-16.78,9.626L92.341,77.206c-3.122,5.333-3.122,14.049,0,19.382l27.447,47.48c3.122,5.333,10.667,9.626,16.78,9.626h54.894c6.114,0,13.659-4.423,16.78-9.626l27.447-47.48C238.683,91.254,238.683,82.539,235.561,77.206Z" transform="translate(-3158.484 -6485.179)" fill="none" stroke="#cca467" stroke-width="2"/>
      <line id="Línea_570-3" data-name="Línea 570" y2="56" transform="translate(-2994.025 -6331.065)" fill="none" stroke="#cca467" stroke-width="2"/>
      <line id="Línea_571-3" data-name="Línea 571" x2="190" transform="translate(-3089.525 -6274.565)" fill="none" stroke="#cca467" stroke-width="2"/>
      <path id="Trazado_1037786" data-name="Trazado 1037786" d="M224.492,72.863l-25.36-43.869c-2.885-4.928-9.856-8.894-15.5-8.894h-50.72c-5.649,0-12.62,4.086-15.5,8.894L92.163,72.863c-2.885,4.928-2.885,12.98,0,17.908l25.36,43.869c2.885,4.928,9.856,8.894,15.5,8.894h50.72c5.649,0,12.62-4.086,15.5-8.894l25.36-43.869C227.377,85.844,227.377,77.791,224.492,72.863Z" transform="translate(-3152.861 -6480.1)" fill="none" stroke="#cca467" stroke-width="1" stroke-dasharray="8"/>
      <g id="Grupo_1173642" data-name="Grupo 1173642" transform="translate(-3028.66 -6432.916)">
        <g id="Grupo_1173637" data-name="Grupo 1173637" transform="translate(4.069 4.069)">
          <g id="Grupo_1173633" data-name="Grupo 1173633" transform="translate(0 0)">
            <path id="Trazado_1037846" data-name="Trazado 1037846" d="M34.565,4A30.565,30.565,0,1,0,65.131,34.565,30.565,30.565,0,0,0,34.565,4Zm0,52.4A21.832,21.832,0,1,1,56.4,34.565,21.858,21.858,0,0,1,34.565,56.4Z" transform="translate(-4 -4)" fill="#e53935"/>
            <path id="Trazado_1037847" data-name="Trazado 1037847" d="M55.647,32A21.829,21.829,0,0,1,18.379,47.436L12.2,53.614A30.567,30.567,0,0,0,64.38,32Z" transform="translate(-3.249 -1.435)" fill="#43a047"/>
            <path id="Trazado_1037848" data-name="Trazado 1037848" d="M62.565,34.565H53.832A21.854,21.854,0,0,0,32,12.733V4A30.571,30.571,0,0,1,62.565,34.565Z" transform="translate(-1.435 -4)" fill="#1e88e5"/>
          </g>
          <g id="Grupo_1173636" data-name="Grupo 1173636" transform="translate(18.558 15.283)">
            <g id="Grupo_1173634" data-name="Grupo 1173634" transform="translate(0)">
              <path id="Trazado_1037849" data-name="Trazado 1037849" d="M40.649,26H34.1a4.332,4.332,0,0,0-1.092.154A4.327,4.327,0,0,0,31.916,26h-6.55A4.366,4.366,0,0,0,21,30.366v4.366a1.092,1.092,0,0,0,1.092,1.092h3.275v8.733a1.092,1.092,0,0,0,1.092,1.092h4.366a1.092,1.092,0,0,0,1.092-1.092V35.825H34.1v8.733a1.092,1.092,0,0,0,1.092,1.092h4.366a1.092,1.092,0,0,0,1.092-1.092V35.825h3.275a1.092,1.092,0,0,0,1.092-1.092V30.366A4.366,4.366,0,0,0,40.649,26Z" transform="translate(-21 -17.267)" fill="#37474f"/>
              <circle id="Elipse_13176" data-name="Elipse 13176" cx="4.366" cy="4.366" r="4.366" transform="translate(12.008)" fill="#37474f"/>
              <circle id="Elipse_13177" data-name="Elipse 13177" cx="4.366" cy="4.366" r="4.366" transform="translate(3.275)" fill="#37474f"/>
            </g>
            <g id="Grupo_1173635" data-name="Grupo 1173635" transform="translate(4.366)">
              <path id="Trazado_1037850" data-name="Trazado 1037850" d="M35.916,26h-6.55A4.366,4.366,0,0,0,25,30.366v6.55a1.092,1.092,0,0,0,1.092,1.092h3.275v8.733a1.092,1.092,0,0,0,1.092,1.092h4.366a1.092,1.092,0,0,0,1.092-1.092V38.008h3.275a1.092,1.092,0,0,0,1.092-1.092v-6.55A4.366,4.366,0,0,0,35.916,26Z" transform="translate(-25 -17.267)" fill="#455a64"/>
              <circle id="Elipse_13178" data-name="Elipse 13178" cx="4.366" cy="4.366" r="4.366" transform="translate(3.275)" fill="#455a64"/>
            </g>
          </g>
        </g>
        <g id="Grupo_1173638" data-name="Grupo 1173638" transform="translate(3.25 3.25)">
          <path id="Trazado_1037851" data-name="Trazado 1037851" d="M34.634,3.25A31.347,31.347,0,0,0,18.575,7.664a.819.819,0,0,0,.839,1.406,29.687,29.687,0,0,1,14.4-4.156v7.11A22.594,22.594,0,0,0,18.074,50.037l-5.029,5.029a29.707,29.707,0,0,1,.775-41.683.819.819,0,0,0-1.146-1.169A31.384,31.384,0,1,0,34.634,3.25ZM64.36,33.815H57.244A22.646,22.646,0,0,0,35.453,12.024V4.908A29.771,29.771,0,0,1,64.36,33.815ZM34.634,13.62A21.014,21.014,0,1,1,13.62,34.634,21.038,21.038,0,0,1,34.634,13.62Zm0,50.76A29.632,29.632,0,0,1,14.2,56.224l5.029-5.029A22.594,22.594,0,0,0,57.244,35.453H64.36A29.776,29.776,0,0,1,34.634,64.381Z" transform="translate(-3.25 -3.25)" fill="#030611"/>
          <path id="Trazado_1037852" data-name="Trazado 1037852" d="M14.5,11.15a.819.819,0,0,0,.514-.182q.47-.381.957-.741a.819.819,0,0,0-.976-1.314q-.513.381-1.011.782A.819.819,0,0,0,14.5,11.15Z" transform="translate(-2.294 -2.746)" fill="#030611"/>
          <path id="Trazado_1037853" data-name="Trazado 1037853" d="M22.16,37.445h2.456v7.914a1.913,1.913,0,0,0,1.91,1.91h2.456v.273a1.913,1.913,0,0,0,1.91,1.91H35.26a1.913,1.913,0,0,0,1.91-1.91V47.27H38.63a.819.819,0,1,0,0-1.637H37.17v-6s2.639-.015,2.729-.028v3.8a.819.819,0,0,0,1.637,0V37.445h2.456a1.913,1.913,0,0,0,1.91-1.91V31.168a5.174,5.174,0,0,0-4.736-5.14,5.167,5.167,0,0,0-5.909-8.28,5.028,5.028,0,0,0-4.364,0,5.17,5.17,0,0,0-5.909,8.28,5.175,5.175,0,0,0-4.736,5.14v4.366a1.913,1.913,0,0,0,1.91,1.91Zm4.366,8.187a.273.273,0,0,1-.273-.273V39.6c.09.013,2.729.028,2.729.028v6Zm13.1-7.641H37.17V34.443a.819.819,0,0,0-1.637,0v13.1a.273.273,0,0,1-.273.273H30.893a.273.273,0,0,1-.273-.273v-13.1a.819.819,0,0,0-1.637,0v3.548H26.527a.276.276,0,0,1-.273-.273v-6.55A3.552,3.552,0,0,1,29.8,27.62h6.55A3.552,3.552,0,0,1,39.9,31.168v6.55A.276.276,0,0,1,39.626,37.991Zm4.639-6.823v4.366a.273.273,0,0,1-.273.273H41.537V31.168a5.155,5.155,0,0,0-1.424-3.548h.605A3.552,3.552,0,0,1,44.266,31.168Zm-3.275-8.733a3.552,3.552,0,0,1-3.548,3.548,3.481,3.481,0,0,1-.546-.072,5.11,5.11,0,0,0,0-6.952,3.483,3.483,0,0,1,.546-.072A3.552,3.552,0,0,1,40.991,22.435Zm-4.366,0a3.548,3.548,0,1,1-3.548-3.548A3.552,3.552,0,0,1,36.624,22.435ZM28.71,18.887a3.481,3.481,0,0,1,.546.072,5.11,5.11,0,0,0,0,6.952,3.483,3.483,0,0,1-.546.072,3.548,3.548,0,0,1,0-7.1ZM21.887,31.168a3.552,3.552,0,0,1,3.548-3.548h.605a5.155,5.155,0,0,0-1.424,3.548v4.639H22.16a.273.273,0,0,1-.273-.273Z" transform="translate(-1.692 -1.967)" fill="#030611"/>
        </g>
      </g>
    </g>
  </g>
</svg>
