<svg xmlns="http://www.w3.org/2000/svg" width="83" height="83" viewBox="0 0 83 83">
  <g id="Grupo_1173175" data-name="Grupo 1173175" transform="translate(5154.383 9163.465)">
    <circle id="Elipse_13114" data-name="Elipse 13114" cx="41.5" cy="41.5" r="41.5" transform="translate(-5154.383 -9163.465)" fill="#e2dacc"/>
    <g id="Layer_x0020_1" transform="translate(-5132.132 -9144.333)">
      <g id="_624412024" transform="translate(0.124 0)">
        <g id="Grupo_1173173" data-name="Grupo 1173173">
          <g id="Grupo_1173154" data-name="Grupo 1173154" transform="translate(0.17 3.802)">
            <path id="_624414400" d="M35.424,38.057H2.749A2.621,2.621,0,0,1,.13,35.439V2.763A2.621,2.621,0,0,1,2.749.145H35.424a2.621,2.621,0,0,1,2.619,2.618V35.439A2.621,2.621,0,0,1,35.424,38.057ZM2.749,1.17A1.6,1.6,0,0,0,1.155,2.763V35.439a1.6,1.6,0,0,0,1.594,1.594H35.424a1.6,1.6,0,0,0,1.594-1.594V2.763A1.6,1.6,0,0,0,35.424,1.17H2.749Z" transform="translate(-0.13 -0.145)" fill-rule="evenodd"/>
          </g>
          <g id="Grupo_1173155" data-name="Grupo 1173155" transform="translate(0.17 10.914)">
            <path id="_624414064" d="M37.531,1.441H.642a.512.512,0,1,1,0-1.025H37.531a.512.512,0,1,1,0,1.025Z" transform="translate(-0.13 -0.416)" fill-rule="evenodd"/>
          </g>
          <g id="Grupo_1173156" data-name="Grupo 1173156" transform="translate(2.276 40.689)">
            <path id="_624413296" d="M33.4,5.6H.723a.512.512,0,0,1-.512-.512V2.065a.512.512,0,0,1,.512-.512H33.4a.512.512,0,0,1,.512.512V5.087A.512.512,0,0,1,33.4,5.6ZM1.235,4.575H32.886v-2H1.235Z" transform="translate(-0.211 -1.552)" fill-rule="evenodd"/>
          </g>
          <g id="Grupo_1173157" data-name="Grupo 1173157" transform="translate(0 43.713)">
            <path id="_624413200" d="M37.863,2.692H.636a.512.512,0,1,1,0-1.025H37.863a.512.512,0,1,1,0,1.025Z" transform="translate(-0.124 -1.668)" fill-rule="evenodd"/>
          </g>
          <g id="Grupo_1173158" data-name="Grupo 1173158" transform="translate(7.818 14.083)">
            <path id="_624413152" d="M11.73,25A12.215,12.215,0,0,1,.463,17.534a.512.512,0,0,1,.472-.712H3.9V8.715H.934A.512.512,0,0,1,.463,8,12.232,12.232,0,1,1,11.73,25ZM1.737,17.847a11.207,11.207,0,1,0,0-10.157H4.092a.832.832,0,0,1,.831.831v8.494a.832.832,0,0,1-.831.831H1.737Z" transform="translate(-0.422 -0.537)" fill-rule="evenodd"/>
          </g>
          <g id="Grupo_1173159" data-name="Grupo 1173159" transform="translate(10.976 16.904)">
            <path id="_624413224" d="M8.692,19.464a9.4,9.4,0,0,1-8.077-4.58.512.512,0,0,1,.246-.738V5.963a.512.512,0,0,1-.246-.738A9.41,9.41,0,1,1,8.692,19.465ZM1.749,14.757A8.385,8.385,0,1,0,8.692,1.669,8.439,8.439,0,0,0,1.749,5.352a.827.827,0,0,1,.136.455V14.3a.826.826,0,0,1-.136.455Z" transform="translate(-0.542 -0.645)" fill-rule="evenodd"/>
          </g>
          <g id="Grupo_1173160" data-name="Grupo 1173160" transform="translate(11.295 27.146)">
            <path id="_624413056" d="M15.637,3.639A6.2,6.2,0,0,1,13,2.8,5.415,5.415,0,0,0,10.8,2.06,5.41,5.41,0,0,0,8.613,2.8a6.2,6.2,0,0,1-2.642.842A6.2,6.2,0,0,1,3.33,2.8a5.171,5.171,0,0,0-2.248-.736.512.512,0,0,1-.029-1.024,6.026,6.026,0,0,1,2.728.84,5.415,5.415,0,0,0,2.191.737,5.412,5.412,0,0,0,2.191-.737A6.2,6.2,0,0,1,10.8,1.036a6.2,6.2,0,0,1,2.642.841,5.415,5.415,0,0,0,2.191.737A3.026,3.026,0,0,0,16.7,2.388a.512.512,0,0,1,.359.96,4.063,4.063,0,0,1-1.42.291Z" transform="translate(-0.555 -1.036)" fill-rule="evenodd"/>
          </g>
          <g id="Grupo_1173161" data-name="Grupo 1173161" transform="translate(6.614 21.236)">
            <path id="_624413272" d="M5.25,10.967H1.207a.832.832,0,0,1-.831-.831V1.641A.832.832,0,0,1,1.207.81H5.25a.832.832,0,0,1,.831.831v8.494A.832.832,0,0,1,5.25,10.967ZM1.4,9.943H5.057V1.835H1.4Z" transform="translate(-0.376 -0.81)" fill-rule="evenodd"/>
          </g>
          <g id="Grupo_1173162" data-name="Grupo 1173162" transform="translate(23.323 3.802)">
            <path id="_624413656" d="M1.526,8.282a.512.512,0,0,1-.512-.512V.657a.512.512,0,1,1,1.025,0V7.77A.512.512,0,0,1,1.526,8.282Z" transform="translate(-1.013 -0.145)" fill-rule="evenodd"/>
          </g>
          <g id="Grupo_1173163" data-name="Grupo 1173163" transform="translate(26.43 5.877)">
            <path id="_624413632" d="M9.165,4.21H1.644A.512.512,0,0,1,1.132,3.7V.737A.512.512,0,0,1,1.644.224H9.165a.512.512,0,0,1,.512.512V3.7A.512.512,0,0,1,9.165,4.21ZM2.157,3.186h6.5V1.249h-6.5Z" transform="translate(-1.132 -0.224)" fill-rule="evenodd"/>
          </g>
          <g id="Grupo_1173164" data-name="Grupo 1173164" transform="translate(3.479 5.747)">
            <path id="_624412480" d="M2.38,4.466A2.123,2.123,0,1,1,4.5,2.343,2.126,2.126,0,0,1,2.38,4.466Zm0-3.222a1.1,1.1,0,1,0,1.1,1.1A1.1,1.1,0,0,0,2.38,1.244Z" transform="translate(-0.256 -0.219)" fill-rule="evenodd"/>
          </g>
          <g id="Grupo_1173165" data-name="Grupo 1173165" transform="translate(8.783 5.747)">
            <path id="_624412864" d="M2.582,4.466A2.123,2.123,0,1,1,4.706,2.343,2.126,2.126,0,0,1,2.582,4.466Zm0-3.222a1.1,1.1,0,1,0,1.1,1.1A1.1,1.1,0,0,0,2.582,1.244Z" transform="translate(-0.459 -0.219)" fill-rule="evenodd"/>
          </g>
          <g id="Grupo_1173166" data-name="Grupo 1173166" transform="translate(14.087 5.747)">
            <path id="_624412600" d="M2.785,4.466A2.123,2.123,0,1,1,4.908,2.343,2.126,2.126,0,0,1,2.785,4.466Zm0-3.222a1.1,1.1,0,1,0,1.1,1.1A1.1,1.1,0,0,0,2.785,1.244Z" transform="translate(-0.661 -0.219)" fill-rule="evenodd"/>
          </g>
          <g id="Grupo_1173167" data-name="Grupo 1173167" transform="translate(30.169 34.214)">
            <path id="_624412432" d="M3.666,6.089A2.392,2.392,0,1,1,6.058,3.7,2.395,2.395,0,0,1,3.666,6.089Zm0-3.759A1.367,1.367,0,1,0,5.034,3.7,1.369,1.369,0,0,0,3.666,2.33Z" transform="translate(-1.275 -1.305)" fill-rule="evenodd"/>
          </g>
          <g id="Grupo_1173168" data-name="Grupo 1173168" transform="translate(2.57 13.246)">
            <path id="_624412456" d="M6.29,3.83H.734a.512.512,0,0,1-.512-.512v-2.3A.512.512,0,0,1,.734.505H6.29a.512.512,0,0,1,.512.512v2.3a.512.512,0,0,1-.512.512ZM1.246,2.805H5.778V1.53H1.246Z" transform="translate(-0.222 -0.505)" fill-rule="evenodd"/>
          </g>
          <g id="Grupo_1173169" data-name="Grupo 1173169" transform="translate(2.276)">
            <path id="_624412336" d="M33.4,4.826H.723A.512.512,0,0,1,.256,4.1L1.975.3A.512.512,0,0,1,2.442,0H31.679a.512.512,0,0,1,.467.3l1.719,3.8a.512.512,0,0,1-.467.723ZM1.517,3.8H32.6L31.349,1.025H2.772L1.517,3.8Z" transform="translate(-0.211 0)" fill-rule="evenodd"/>
          </g>
          <g id="Grupo_1173172" data-name="Grupo 1173172" transform="translate(6.614 23.599)">
            <g id="Grupo_1173170" data-name="Grupo 1173170">
              <path id="_624412672" d="M5.569,1.925H.888A.512.512,0,0,1,.888.9H5.569a.512.512,0,1,1,0,1.025Z" transform="translate(-0.376 -0.9)" fill-rule="evenodd"/>
            </g>
            <g id="Grupo_1173171" data-name="Grupo 1173171" transform="translate(0 4.406)">
              <path id="_624411496" d="M5.569,2.093H.888a.512.512,0,0,1,0-1.025H5.569a.512.512,0,1,1,0,1.025Z" transform="translate(-0.376 -1.068)" fill-rule="evenodd"/>
            </g>
          </g>
        </g>
      </g>
      <path id="Trazado_1037134" data-name="Trazado 1037134" d="M.26,2.816H31.348L30.092.039H1.516Z" transform="translate(3.446 0.985)" fill="#e6e6e6" fill-rule="evenodd"/>
      <path id="Trazado_1037135" data-name="Trazado 1037135" d="M2.493,1.357a1.1,1.1,0,1,0-1.1,1.1A1.1,1.1,0,0,0,2.493,1.357Z" transform="translate(4.332 6.513)" fill="#ff4646" fill-rule="evenodd"/>
      <path id="Trazado_1037136" data-name="Trazado 1037136" d="M1.6.258a1.1,1.1,0,1,0,1.1,1.1A1.1,1.1,0,0,0,1.6.258Z" transform="translate(9.434 6.513)" fill="#f7ab31" fill-rule="evenodd"/>
      <path id="Trazado_1037137" data-name="Trazado 1037137" d="M.7,1.357A1.1,1.1,0,1,0,1.8.258,1.1,1.1,0,0,0,.7,1.357Z" transform="translate(14.536 6.513)" fill="#51c6e5" fill-rule="evenodd"/>
      <path id="Trazado_1037138" data-name="Trazado 1037138" d="M15.186,1.1a2.123,2.123,0,1,1-2.124,2.124A2.126,2.126,0,0,1,15.186,1.1ZM.169,6.272H22.3V.184H1.763A1.6,1.6,0,0,0,.169,1.778V6.272ZM9.882,1.1A2.123,2.123,0,1,1,7.758,3.228,2.126,2.126,0,0,1,9.882,1.1Zm-5.3,0A2.123,2.123,0,1,1,2.454,3.228,2.126,2.126,0,0,1,4.578,1.1Z" transform="translate(1.149 4.642)" fill="#606c7c" fill-rule="evenodd"/>
      <path id="Trazado_1037139" data-name="Trazado 1037139" d="M1.171.263V2.2h6.5V.263Z" transform="translate(26.408 6.639)" fill="#e6e6e6" fill-rule="evenodd"/>
      <path id="Trazado_1037140" data-name="Trazado 1037140" d="M3.135,4.709V1.748a.512.512,0,0,1,.512-.512h7.521a.512.512,0,0,1,.512.512V4.709a.512.512,0,0,1-.512.512H3.647A.512.512,0,0,1,3.135,4.709ZM1.053,6.272h12.71V1.778A1.6,1.6,0,0,0,12.168.184H1.053V6.272Z" transform="translate(23.419 4.642)" fill="#606c7c" fill-rule="evenodd"/>
      <path id="Trazado_1037141" data-name="Trazado 1037141" d="M4.792.544H.261V1.82H4.792Z" transform="translate(3.457 13.726)" fill="#f7ab31" fill-rule="evenodd"/>
      <path id="Trazado_1037142" data-name="Trazado 1037142" d="M8.125,2.274v2.3a.512.512,0,0,1-.512.512H2.057a.512.512,0,0,1-.512-.512v-2.3a.512.512,0,0,1,.512-.512H7.613a.512.512,0,0,1,.512.512ZM6.971,9.752a12.231,12.231,0,1,1,0,10.157H6.42a.832.832,0,0,1-.831-.831V10.584a.832.832,0,0,1,.831-.831h.551ZM1.763,29.206H34.439a1.6,1.6,0,0,0,1.594-1.594V.455H.169V27.612a1.6,1.6,0,0,0,1.594,1.594Zm29.773-6.475a2.392,2.392,0,1,1-2.392,2.392A2.395,2.395,0,0,1,31.536,22.731Z" transform="translate(1.149 11.484)" fill="#e6e6e6" fill-rule="evenodd"/>
      <path id="Trazado_1037143" data-name="Trazado 1037143" d="M31.9,1.591H.25v2H31.9Z" transform="translate(3.175 40.123)" fill="#606c7c" fill-rule="evenodd"/>
      <path id="Trazado_1037144" data-name="Trazado 1037144" d="M1.314,2.712A1.367,1.367,0,1,0,2.681,1.344,1.369,1.369,0,0,0,1.314,2.712Z" transform="translate(30.004 33.894)" fill="#f7ab31" fill-rule="evenodd"/>
      <path id="Trazado_1037145" data-name="Trazado 1037145" d="M10.465,22.99A11.207,11.207,0,1,0,.472,6.7H2.543a9.411,9.411,0,0,1,16.913,7.858.512.512,0,0,1-.023.074,9.41,9.41,0,0,1-16.89,2.225H.472a11.19,11.19,0,0,0,9.993,6.128Z" transform="translate(8.784 14.531)" fill="#606c7c" fill-rule="evenodd"/>
      <path id="Trazado_1037146" data-name="Trazado 1037146" d="M7.531,7.6a8.4,8.4,0,0,0,7.662-4.978,3.147,3.147,0,0,1-.411.028,6.2,6.2,0,0,1-2.642-.842A5.415,5.415,0,0,0,9.95,1.075a5.41,5.41,0,0,0-2.191.737,6.2,6.2,0,0,1-2.642.842,6.2,6.2,0,0,1-2.642-.842A7.439,7.439,0,0,0,.724,1.118V3.466a.826.826,0,0,1-.136.455A8.439,8.439,0,0,0,7.531,7.6Z" transform="translate(11.718 27.096)" fill="#51c6e5" fill-rule="evenodd"/>
      <path id="Trazado_1037147" data-name="Trazado 1037147" d="M7.308,10.742A6.2,6.2,0,0,1,9.95,9.9a6.2,6.2,0,0,1,2.642.841,5.415,5.415,0,0,0,2.191.737,2.71,2.71,0,0,0,.823-.144A8.386,8.386,0,0,0,.588,4.367a.827.827,0,0,1,.136.455v5.11a7.55,7.55,0,0,1,2.2.81,5.415,5.415,0,0,0,2.191.737,5.412,5.412,0,0,0,2.191-.737Z" transform="translate(11.718 17.245)" fill="#a5e4f2" fill-rule="evenodd"/>
      <g id="Grupo_1173174" data-name="Grupo 1173174" transform="translate(7.762 22.261)">
        <path id="Trazado_1037148" data-name="Trazado 1037148" d="M4.071,2.188V.849H.415V2.188Z" transform="translate(-0.415 -0.849)" fill="#ccc" fill-rule="evenodd"/>
        <path id="Trazado_1037149" data-name="Trazado 1037149" d="M4.071.939H.415V4.321H4.071V.939Z" transform="translate(-0.415 1.424)" fill="#ccc" fill-rule="evenodd"/>
        <path id="Trazado_1037150" data-name="Trazado 1037150" d="M4.071,1.107H.415V2.446H4.071Z" transform="translate(-0.415 5.662)" fill="#ccc" fill-rule="evenodd"/>
      </g>
    </g>
  </g>
</svg>
