<svg xmlns="http://www.w3.org/2000/svg" xmlns:xlink="http://www.w3.org/1999/xlink" width="140" height="140" viewBox="0 0 140 140">
  <defs>
    <filter id="Elipse_8441" x="0" y="0" width="140" height="140" filterUnits="userSpaceOnUse">
      <feOffset dy="3" input="SourceAlpha"/>
      <feGaussianBlur stdDeviation="3" result="blur"/>
      <feFlood flood-opacity="0.161"/>
      <feComposite operator="in" in2="blur"/>
      <feComposite in="SourceGraphic"/>
    </filter>
  </defs>
  <g id="Grupo_1173702" data-name="Grupo 1173702" transform="translate(-806.051 -6514.988)">
    <g id="Grupo_1148260" data-name="Grupo 1148260" transform="translate(510.243 2897.938)">
      <g transform="matrix(1, 0, 0, 1, 295.81, 3617.05)" filter="url(#Elipse_8441)">
        <circle id="Elipse_8441-2" data-name="Elipse 8441" cx="61" cy="61" r="61" transform="translate(9 6)" fill="#fff" opacity="0.45"/>
      </g>
      <circle id="Elipse_8442" data-name="Elipse 8442" cx="49" cy="49" r="49" transform="translate(316.808 3635.051)" fill="#fff"/>
    </g>
    <g id="_x32_5_x2C__Eye_x2C__View_x2C__Visibility_x2C__Analytics" transform="translate(809.2 6525.417)">
      <g id="Grupo_1173652" data-name="Grupo 1173652" transform="translate(37.4 25.25)">
        <path id="Trazado_1037861" data-name="Trazado 1037861" d="M414,64.75a4,4,0,1,1-4,4A4,4,0,0,1,414,64.75Z" transform="translate(-360.285 -59.48)" fill="#87c7ff"/>
        <path id="Trazado_1037862" data-name="Trazado 1037862" d="M47.669,394.75A2.669,2.669,0,1,1,45,397.419,2.669,2.669,0,0,1,47.669,394.75Z" transform="translate(-43.986 -345.449)" fill="#87c7ff"/>
        <path id="Trazado_1037863" data-name="Trazado 1037863" d="M71.434,119.75A31.839,31.839,0,0,0,42.4,138.51a31.847,31.847,0,0,0,58.067,0A31.84,31.84,0,0,0,71.434,119.75Z" transform="translate(-41.733 -107.141)" fill="#f2f2f2"/>
        <circle id="Elipse_13182" data-name="Elipse 13182" cx="14.01" cy="14.01" r="14.01" transform="translate(15.691 17.359)" fill="#333940"/>
        <path id="Trazado_1037864" data-name="Trazado 1037864" d="M266.044,197.749l-1.663.606-7.632,2.782,2.842-7.56.623-1.657A10.121,10.121,0,0,1,266.044,197.749Z" transform="translate(-227.483 -169.682)" fill="#fe6a16"/>
        <path id="Trazado_1037865" data-name="Trazado 1037865" d="M256.75,242.932l7.632-2.782.008.024a7.235,7.235,0,0,1,.553,2.994,8.334,8.334,0,0,1-.181,1.731l-.239-.052Z" transform="translate(-227.483 -211.477)" fill="#f5ea0a"/>
        <path id="Trazado_1037866" data-name="Trazado 1037866" d="M243.8,201.255l-2.842,7.56-2.431-7.705a8.469,8.469,0,0,1,2.352-.33,9.042,9.042,0,0,1,2.914.472Z" transform="translate(-211.694 -177.36)" fill="#f5ea0a"/>
        <path id="Trazado_1037867" data-name="Trazado 1037867" d="M209.78,212.87l.239.052a8.4,8.4,0,0,1-2.242,4.158,8.193,8.193,0,0,1-5.848,2.462,8.354,8.354,0,0,1-8.35-8.35,8.258,8.258,0,0,1,6-7.942l2.431,7.705Z" transform="translate(-172.741 -179.5)" fill="#07cc66"/>
        <path id="Trazado_1037868" data-name="Trazado 1037868" d="M461.915,360.363a1,1,0,1,1-1.309-.538A1,1,0,0,1,461.915,360.363Z" transform="translate(-403.607 -315.117)"/>
        <path id="Trazado_1037869" data-name="Trazado 1037869" d="M406.922,455.363a1,1,0,1,1-1.309-.538A1,1,0,0,1,406.922,455.363Z" transform="translate(-355.95 -397.441)"/>
        <path id="Trazado_1037870" data-name="Trazado 1037870" d="M376.335,39.977a1,1,0,1,1-1.309-.538A1,1,0,0,1,376.335,39.977Z" transform="translate(-329.445 -37.479)"/>
        <path id="Trazado_1037871" data-name="Trazado 1037871" d="M116.92,390.366a1,1,0,1,1-1.309-.538A1,1,0,0,1,116.92,390.366Z" transform="translate(-104.642 -341.118)"/>
        <path id="Trazado_1037872" data-name="Trazado 1037872" d="M101.915,55.363a1,1,0,1,1-1.309-.538A1,1,0,0,1,101.915,55.363Z" transform="translate(-91.64 -50.812)"/>
        <path id="Trazado_1037873" data-name="Trazado 1037873" d="M57.311,129.783A1,1,0,1,1,56,129.245,1,1,0,0,1,57.311,129.783Z" transform="translate(-52.986 -115.302)"/>
        <path id="Trazado_1037874" data-name="Trazado 1037874" d="M252.417,197.472a.667.667,0,0,1-.624-.9l3.465-9.217a.667.667,0,0,1,.863-.388,10.783,10.783,0,0,1,6.214,6.214.667.667,0,0,1-.395.865l-9.294,3.388a.672.672,0,0,1-.228.04Zm3.845-9-2.71,7.208,7.271-2.65A9.452,9.452,0,0,0,256.262,188.473Z" transform="translate(-223.15 -165.35)"/>
        <path id="Trazado_1037875" data-name="Trazado 1037875" d="M197.6,213.735a8.977,8.977,0,0,1-2.536-17.6,9.145,9.145,0,0,1,2.536-.356,9.73,9.73,0,0,1,3.125.507.667.667,0,0,1-.422,1.266,8.417,8.417,0,0,0-2.7-.438,7.816,7.816,0,0,0-2.167.3A7.643,7.643,0,0,0,197.6,212.4a7.5,7.5,0,0,0,5.373-2.263,7.709,7.709,0,0,0,2.231-5.42,6.6,6.6,0,0,0-.492-2.717.667.667,0,0,1,1.214-.553,7.791,7.791,0,0,1,.612,3.271,9.043,9.043,0,0,1-2.615,6.357,8.823,8.823,0,0,1-6.323,2.66Z" transform="translate(-168.409 -173.027)"/>
        <path id="Trazado_1037876" data-name="Trazado 1037876" d="M244.4,209.2a.668.668,0,0,1-.16-.02l-7.772-1.915a.667.667,0,0,1-.477-.447l-2.431-7.705a.667.667,0,0,1,1.272-.4l2.318,7.348,7.408,1.825a.667.667,0,0,1-.159,1.315Z" transform="translate(-207.36 -175.165)"/>
        <path id="Trazado_1037877" data-name="Trazado 1037877" d="M67.1,153.6a32.574,32.574,0,0,1-29.642-19.153.668.668,0,0,1,0-.549,32.514,32.514,0,0,1,59.283,0,.666.666,0,0,1,0,.549A32.573,32.573,0,0,1,67.1,153.6ZM38.8,134.177a31.179,31.179,0,0,0,56.6,0,31.18,31.18,0,0,0-56.6,0Z" transform="translate(-37.4 -102.808)"/>
        <path id="Trazado_1037878" data-name="Trazado 1037878" d="M43.336,396.421a3.336,3.336,0,1,1,3.336-3.336A3.339,3.339,0,0,1,43.336,396.421Zm0-5.337a2,2,0,1,0,2,2A2,2,0,0,0,43.336,391.084Z" transform="translate(-39.653 -341.116)"/>
        <path id="Trazado_1037879" data-name="Trazado 1037879" d="M409.67,69.09a4.67,4.67,0,1,1,4.67-4.67A4.675,4.675,0,0,1,409.67,69.09Zm0-8.006a3.336,3.336,0,1,0,3.336,3.336A3.339,3.339,0,0,0,409.67,61.084Z" transform="translate(-355.953 -55.147)"/>
        <path id="Trazado_1037880" data-name="Trazado 1037880" d="M414.687,256.684h-9.02a.667.667,0,0,1,0-1.334h9.02a.667.667,0,1,1,0,1.334Z" transform="translate(-355.953 -224.649)"/>
        <path id="Trazado_1037881" data-name="Trazado 1037881" d="M47.087,256.684h-9.02a.667.667,0,0,1,0-1.334h9.02a.667.667,0,0,1,0,1.334Z" transform="translate(-37.4 -224.649)"/>
        <path id="Trazado_1037882" data-name="Trazado 1037882" d="M164.677,179.7a14.677,14.677,0,1,1,14.677-14.677A14.693,14.693,0,0,1,164.677,179.7Zm0-28.019a13.343,13.343,0,1,0,13.343,13.343A13.358,13.358,0,0,0,164.677,151.684Z" transform="translate(-134.976 -133.658)"/>
        <path id="Trazado_1037883" data-name="Trazado 1037883" d="M342.259,406.435a.665.665,0,0,1-.472-.2l-4.851-4.85a.667.667,0,0,1,.943-.944l4.851,4.85a.667.667,0,0,1-.472,1.139Z" transform="translate(-296.801 -350.216)"/>
        <path id="Trazado_1037884" data-name="Trazado 1037884" d="M257.7,441.421a.667.667,0,0,1-.667-.667v-6.877a.667.667,0,1,1,1.334,0v6.877A.667.667,0,0,1,257.7,441.421Z" transform="translate(-227.726 -378.777)"/>
        <path id="Trazado_1037885" data-name="Trazado 1037885" d="M141.437,406.435a.667.667,0,0,1-.472-1.139l4.852-4.85a.667.667,0,0,1,.943.944l-4.852,4.85A.665.665,0,0,1,141.437,406.435Z" transform="translate(-126.977 -350.216)"/>
        <path id="Trazado_1037886" data-name="Trazado 1037886" d="M315.743,422.348a.667.667,0,0,1-.58-.336l-1.707-2.985a.667.667,0,1,1,1.158-.662l1.707,2.985a.667.667,0,0,1-.578,1Z" transform="translate(-276.547 -365.622)"/>
        <path id="Trazado_1037887" data-name="Trazado 1037887" d="M287.745,434.049a.667.667,0,0,1-.644-.5l-.879-3.3a.667.667,0,1,1,1.289-.343l.879,3.3a.668.668,0,0,1-.645.839Z" transform="translate(-253.003 -375.485)"/>
        <path id="Trazado_1037888" data-name="Trazado 1037888" d="M221.746,434.05a.668.668,0,0,1-.645-.839l.879-3.3a.667.667,0,1,1,1.289.343l-.879,3.3A.668.668,0,0,1,221.746,434.05Z" transform="translate(-196.571 -375.485)"/>
        <path id="Trazado_1037889" data-name="Trazado 1037889" d="M188.376,422.349a.667.667,0,0,1-.579-1l1.706-2.985a.667.667,0,0,1,1.158.662l-1.707,2.985A.667.667,0,0,1,188.376,422.349Z" transform="translate(-167.654 -365.623)"/>
        <path id="Trazado_1037890" data-name="Trazado 1037890" d="M337.407,79.577a.667.667,0,0,1-.472-1.139l4.851-4.851a.667.667,0,1,1,.943.943l-4.851,4.851A.665.665,0,0,1,337.407,79.577Z" transform="translate(-296.8 -66.968)"/>
        <path id="Trazado_1037891" data-name="Trazado 1037891" d="M257.7,33.461a.667.667,0,0,1-.667-.667V25.917a.667.667,0,1,1,1.334,0v6.877A.667.667,0,0,1,257.7,33.461Z" transform="translate(-227.726 -25.25)"/>
        <path id="Trazado_1037892" data-name="Trazado 1037892" d="M146.288,79.577a.665.665,0,0,1-.472-.2l-4.852-4.851a.667.667,0,0,1,.943-.943l4.852,4.851a.667.667,0,0,1-.472,1.139Z" transform="translate(-126.977 -66.968)"/>
        <path id="Trazado_1037893" data-name="Trazado 1037893" d="M314.035,73.918a.667.667,0,0,1-.579-1l1.707-2.985a.667.667,0,1,1,1.158.662l-1.707,2.985A.667.667,0,0,1,314.035,73.918Z" transform="translate(-276.547 -63.681)"/>
        <path id="Trazado_1037894" data-name="Trazado 1037894" d="M286.866,60.45a.668.668,0,0,1-.645-.839l.879-3.3a.667.667,0,0,1,1.289.343l-.879,3.3A.667.667,0,0,1,286.866,60.45Z" transform="translate(-253.003 -51.733)"/>
        <path id="Trazado_1037895" data-name="Trazado 1037895" d="M222.625,60.449a.668.668,0,0,1-.644-.5l-.879-3.3a.667.667,0,0,1,1.289-.343l.879,3.3a.668.668,0,0,1-.645.839Z" transform="translate(-196.571 -51.732)"/>
        <path id="Trazado_1037896" data-name="Trazado 1037896" d="M190.083,73.918a.667.667,0,0,1-.58-.336L187.8,70.6a.667.667,0,1,1,1.158-.662l1.707,2.985a.667.667,0,0,1-.579,1Z" transform="translate(-167.653 -63.682)"/>
      </g>
    </g>
  </g>
</svg>
