<svg xmlns="http://www.w3.org/2000/svg" width="83" height="83" viewBox="0 0 83 83">
  <g id="Grupo_1173183" data-name="Grupo 1173183" transform="translate(4303 9163)">
    <circle id="Elipse_13114" data-name="Elipse 13114" cx="41.5" cy="41.5" r="41.5" transform="translate(-4303 -9163)" fill="#e2dacc"/>
    <g id="Grupo_1173182" data-name="Grupo 1173182" transform="translate(-4294.493 -9157.911)">
      <g id="Grupo_1173180" data-name="Grupo 1173180" transform="translate(8.007 13.423)">
        <g id="Grupo_1173179" data-name="Grupo 1173179">
          <path id="Trazado_1037160" data-name="Trazado 1037160" d="M64.352,151.883H33.892a2.977,2.977,0,0,1-2.943-2.528L28.8,135.305l20.318-2.821,20.318,2.821-2.145,14.05A2.977,2.977,0,0,1,64.352,151.883Z" transform="translate(-24.952 -108.504)" fill="#cee9ff"/>
          <path id="Trazado_1037161" data-name="Trazado 1037161" d="M48.206,162.617a2.967,2.967,0,0,0,1.114.218H79.78a2.977,2.977,0,0,0,2.943-2.528l2.145-14.05H81.183a76.8,76.8,0,0,1-32.977,16.36Z" transform="translate(-40.38 -119.456)" fill="#b4d9fb"/>
          <path id="Trazado_1037162" data-name="Trazado 1037162" d="M63.36,120.331H20.148l-.61-4.859,22.216-1.82,22.216,1.82Z" transform="translate(-17.584 -93.53)" fill="#33a6fb"/>
          <path id="Trazado_1037163" data-name="Trazado 1037163" d="M82.109,217.651H52.973l-1.005-2.54L65.255,212l17.859,3.113Z" transform="translate(-43.372 -171.733)" fill="#b2e26d"/>
          <path id="Trazado_1037164" data-name="Trazado 1037164" d="M73.074,194.176l.656-4.3-1.018.605a11.612,11.612,0,0,1-11.874,0h0a11.612,11.612,0,0,0-11.874,0,11.612,11.612,0,0,1-11.875,0l-1.016-.6.656,4.3a2.977,2.977,0,0,0,2.943,2.528h30.46a2.977,2.977,0,0,0,2.943-2.528Z" transform="translate(-30.732 -153.325)" fill="#3a70bf"/>
          <path id="Trazado_1037165" data-name="Trazado 1037165" d="M90.734,160.4H106.81v2.93H90.734Z" transform="translate(-74.198 -130.703)" fill="#3a70bf"/>
          <g id="Grupo_1173178" data-name="Grupo 1173178" transform="translate(12.437)">
            <path id="Trazado_1037166" data-name="Trazado 1037166" d="M92.222,25.682c2.214,0,6.587-8.142,14.4-8.142v4.631c-12.279,0-10.661,10.551-24.561,10.551-12.894,0-11.276-6.819-11.276-6.819S92.03,25.682,92.222,25.682Z" transform="translate(-70.722 -17.104)" fill="#33a6fb"/>
            <path id="Trazado_1037167" data-name="Trazado 1037167" d="M98.39,25.334H82.537a1.029,1.029,0,0,1-1.024-1.124,1.011,1.011,0,0,1,.031-.172,2.943,2.943,0,0,1,2.943-2.22c0-4.269,4.228-3.6,4.228-3.6-.209-2.806,1.675-2.808,1.675-2.808.963,0,.5,2.472,1.757,2.765s4.647-.209,4.647,4.062a2.515,2.515,0,0,1,2.573,1.747.038.038,0,0,1,0,.014A1.028,1.028,0,0,1,98.39,25.334Z" transform="translate(-79.299 -15.41)" fill="#cee9ff"/>
          </g>
          <path id="Trazado_1037168" data-name="Trazado 1037168" d="M57.676,109.328H10.663l-.663-3.4H58.339Z" transform="translate(-10 -87.385)" fill="#b2e26d"/>
        </g>
        <path id="Trazado_1037169" data-name="Trazado 1037169" d="M209.207,127.4h4.973l.61-4.859h-.347Q211.939,125.084,209.207,127.4Z" transform="translate(-168.404 -100.595)" fill="#0a95ea"/>
        <path id="Trazado_1037170" data-name="Trazado 1037170" d="M70.488,192.162h0a11.608,11.608,0,0,0-2.8-1.2,76.516,76.516,0,0,1-19.479,7.2,2.967,2.967,0,0,0,1.114.218H79.78a2.977,2.977,0,0,0,2.943-2.528l.656-4.3-1.018.605a11.612,11.612,0,0,1-11.874,0Z" transform="translate(-40.38 -155.004)" fill="#1c5ea0"/>
      </g>
      <g id="Grupo_1173181" data-name="Grupo 1173181" transform="translate(7.493 12.911)">
        <path id="Trazado_1037171" data-name="Trazado 1037171" d="M56.345,103.424H8.007a.515.515,0,0,0-.5.61l.663,3.4a.512.512,0,0,0,.5.414h.839l.553,4.41a.512.512,0,0,0,.508.448H50.061a.512.512,0,0,0,0-1.024H11.021l-.481-3.835H53.811l-.481,3.835h-.837a.512.512,0,0,0-.506.435l-1.452,9.513a11.264,11.264,0,0,1-12.162.481,12.114,12.114,0,0,0-12.4,0,11.262,11.262,0,0,1-12.159-.481l-1.088-7.127a.512.512,0,0,0-1.013.155l1.124,7.366h0l.656,4.3a3.465,3.465,0,0,0,2.728,2.886l.907,2.292a.512.512,0,0,0,.476.324H46.744a.512.512,0,0,0,.476-.324l.907-2.292a3.465,3.465,0,0,0,2.728-2.886l2.078-13.616h.849a.512.512,0,0,0,.508-.448l.553-4.41h.839a.512.512,0,0,0,.5-.414l.663-3.4a.515.515,0,0,0-.5-.61ZM46.4,130.8H17.956l-.6-1.515H47l-.6,1.515Zm1.459-2.58a2.52,2.52,0,0,1-.449.04H16.946a2.451,2.451,0,0,1-2.437-2.093l-.492-3.226a12.118,12.118,0,0,0,12.482.05,11.092,11.092,0,0,1,11.353,0,12.12,12.12,0,0,0,12.483-.051l-.493,3.226a2.449,2.449,0,0,1-1.987,2.053Zm7.405-21.4H9.091l-.464-2.378h47.1Z" transform="translate(-7.493 -84.885)" fill="#161616"/>
        <path id="Trazado_1037172" data-name="Trazado 1037172" d="M104.823,161.855a.512.512,0,0,0,.512-.512v-2.93a.512.512,0,0,0-.512-.512H88.747a.512.512,0,0,0-.512.512v2.93a.512.512,0,0,0,.512.512Zm-15.563-2.93H104.31v1.906H89.259Z" transform="translate(-71.697 -128.203)" fill="#161616"/>
        <path id="Trazado_1037173" data-name="Trazado 1037173" d="M104.666,13.347c-5.3,0-9.1,3.622-11.612,6.018-1.144,1.092-2.225,2.123-2.789,2.123-.155,0-.6,0-1.079.007a2.966,2.966,0,0,0-2.429-1.746c-.37-3.991-3.129-3.746-5.028-4.06-.864-.3-.406-2.781-1.875-2.778-1.451.058-2.375,1.471-2.185,3.358a.126.126,0,0,1,0,.028l.083.64a1.6,1.6,0,0,0-.7,2.043c.553,1.055,3.254,1.277,4.069,1.32a.512.512,0,0,0,.054-1.023c-1.513-.08-3.046-.449-3.216-.773-.215-.411.576-.856.583-.859a.512.512,0,0,0,.267-.518l-.123-.943c-.11-1.122.261-2.168,1.151-2.248a2.862,2.862,0,0,1,.261.781c.309,1.315.658,2.036,2.23,2.086,1.522.153,3.416.344,3.416,3.447a.512.512,0,0,0,.559.51,1.974,1.974,0,0,1,2.036,1.386.52.52,0,0,1-.487.689H83.489a6.129,6.129,0,0,0,1.145-.948.512.512,0,0,0-.766-.679A5.4,5.4,0,0,1,80.2,22.835H72a.521.521,0,0,1-.5-.652,2.392,2.392,0,0,1,2.255-1.838,5.885,5.885,0,0,0,2.883,1.291.512.512,0,0,0,.148-1.013A4.9,4.9,0,0,1,74.469,19.6a2.666,2.666,0,0,1,1.687-2.662.512.512,0,0,0-.36-.959,3.57,3.57,0,0,0-2.338,3.357,3.393,3.393,0,0,0-2.879,2.371H68.829a.512.512,0,0,0-.5.394c-.783,5.137,5.037,7.59,11.774,7.449,7.365,0,10.484-2.875,13.5-5.656C96.337,21.38,98.916,19,104.665,19a.512.512,0,0,0,.512-.512V13.859a.512.512,0,0,0-.512-.512Zm-.512,4.637C91.782,18.539,93.326,28.67,80.1,28.528c-5.809-.034-10.82-1.4-10.826-5.794h1.24A1.548,1.548,0,0,0,72,23.859H87.856a1.549,1.549,0,0,0,1.528-1.34l.881-.005c.974,0,2.032-1.009,3.5-2.406,2.447-2.335,5.767-5.5,10.393-5.723v3.6Z" transform="translate(-55.813 -12.911)" fill="#161616"/>
      </g>
    </g>
  </g>
</svg>
