<svg xmlns="http://www.w3.org/2000/svg" width="62.402" height="59.416" viewBox="0 0 62.402 59.416">
  <g id="Grupo_1162066" data-name="Grupo 1162066" transform="translate(-1.8 -3.294)">
    <g id="Grupo_1148704" data-name="Grupo 1148704">
      <g id="Grupo_1148703" data-name="Grupo 1148703">
        <g id="Grupo_1148702" data-name="Grupo 1148702">
          <g id="Grupo_1148701" data-name="Grupo 1148701">
            <path id="Trazado_1006266" data-name="Trazado 1006266" d="M60.75,19.88l-.9,5.68a3.869,3.869,0,0,1-4.43,3.21L45.2,27.15a3.867,3.867,0,0,1-3.21-4.43l.45-2.84Z" fill="#eb5463"/>
          </g>
        </g>
      </g>
    </g>
    <g id="Grupo_1148708" data-name="Grupo 1148708">
      <g id="Grupo_1148707" data-name="Grupo 1148707">
        <g id="Grupo_1148706" data-name="Grupo 1148706">
          <g id="Grupo_1148705" data-name="Grupo 1148705">
            <path id="Trazado_1006267" data-name="Trazado 1006267" d="M41.02,24.16,25.79,26.6a2.113,2.113,0,0,1-2.45-2.13l.26-13.73a2.111,2.111,0,0,1,1.78-2.05L35.8,7.02a2.126,2.126,0,0,1,2.34,1.39l4.54,12.96a2.117,2.117,0,0,1-1.66,2.79Z" fill="#fdcd56"/>
          </g>
        </g>
      </g>
    </g>
    <g id="Grupo_1148712" data-name="Grupo 1148712">
      <g id="Grupo_1148711" data-name="Grupo 1148711">
        <g id="Grupo_1148710" data-name="Grupo 1148710">
          <g id="Grupo_1148709" data-name="Grupo 1148709">
            <path id="Trazado_1006268" data-name="Trazado 1006268" d="M41.02,24.16,25.79,26.6a2.117,2.117,0,0,1-2.45-2.13l.09-4.59H42.16l.52,1.49A2.113,2.113,0,0,1,41.02,24.16Z" fill="#e3b84d"/>
          </g>
        </g>
      </g>
    </g>
    <g id="Grupo_1148716" data-name="Grupo 1148716">
      <g id="Grupo_1148715" data-name="Grupo 1148715">
        <g id="Grupo_1148714" data-name="Grupo 1148714">
          <g id="Grupo_1148713" data-name="Grupo 1148713">
            <path id="Trazado_1006269" data-name="Trazado 1006269" d="M25.45,27.11a2.55,2.55,0,0,1-1.7-.64,2.628,2.628,0,0,1-.9-2.01l.26-13.73A2.593,2.593,0,0,1,25.3,8.21L35.72,6.54a2.608,2.608,0,0,1,2.87,1.71l4.54,12.96a2.558,2.558,0,0,1-.22,2.19,2.643,2.643,0,0,1-1.82,1.24L25.87,27.08a2.966,2.966,0,0,1-.42.03ZM36.14,7.47a2.275,2.275,0,0,0-.26.02L25.46,9.17a1.646,1.646,0,0,0-1.38,1.58l-.26,13.73a1.654,1.654,0,0,0,.56,1.27,1.615,1.615,0,0,0,1.33.38l15.22-2.44a1.641,1.641,0,0,0,1.29-2.16L37.68,8.57a1.622,1.622,0,0,0-1.54-1.1Z"/>
          </g>
        </g>
      </g>
    </g>
    <g id="Grupo_1148720" data-name="Grupo 1148720">
      <g id="Grupo_1148719" data-name="Grupo 1148719">
        <g id="Grupo_1148718" data-name="Grupo 1148718">
          <g id="Grupo_1148717" data-name="Grupo 1148717">
            <path id="Trazado_1006270" data-name="Trazado 1006270" d="M31.63,18.65a4.322,4.322,0,0,1-4.26-3.64l-.35-2.17a.481.481,0,1,1,.95-.15l.35,2.17a3.352,3.352,0,1,0,6.62-1.06l-.35-2.17a.481.481,0,0,1,.95-.15l.35,2.17a4.326,4.326,0,0,1-3.58,4.95,5.314,5.314,0,0,1-.68.05Z"/>
          </g>
        </g>
      </g>
    </g>
    <g id="Grupo_1148735" data-name="Grupo 1148735">
      <g id="Grupo_1148727" data-name="Grupo 1148727">
        <g id="Grupo_1148723" data-name="Grupo 1148723">
          <g id="Grupo_1148722" data-name="Grupo 1148722">
            <g id="Grupo_1148721" data-name="Grupo 1148721">
              <circle id="Elipse_11715" data-name="Elipse 11715" cx="1.17" cy="1.17" r="1.17" transform="translate(33.9 10.38)" fill="#fff"/>
            </g>
          </g>
        </g>
        <g id="Grupo_1148726" data-name="Grupo 1148726">
          <g id="Grupo_1148725" data-name="Grupo 1148725">
            <g id="Grupo_1148724" data-name="Grupo 1148724">
              <path id="Trazado_1006271" data-name="Trazado 1006271" d="M35.07,13.2a1.647,1.647,0,1,1,.26-.02A2.275,2.275,0,0,1,35.07,13.2Zm0-2.34a.41.41,0,0,0-.11.01.688.688,0,1,0,.78.58A.677.677,0,0,0,35.07,10.86Z"/>
            </g>
          </g>
        </g>
      </g>
      <g id="Grupo_1148734" data-name="Grupo 1148734">
        <g id="Grupo_1148730" data-name="Grupo 1148730">
          <g id="Grupo_1148729" data-name="Grupo 1148729">
            <g id="Grupo_1148728" data-name="Grupo 1148728">
              <circle id="Elipse_11716" data-name="Elipse 11716" cx="1.17" cy="1.17" r="1.17" transform="translate(26.32 11.59)" fill="#fff"/>
            </g>
          </g>
        </g>
        <g id="Grupo_1148733" data-name="Grupo 1148733">
          <g id="Grupo_1148732" data-name="Grupo 1148732">
            <g id="Grupo_1148731" data-name="Grupo 1148731">
              <path id="Trazado_1006272" data-name="Trazado 1006272" d="M27.49,14.42a1.647,1.647,0,1,1,.27-.02A2.452,2.452,0,0,1,27.49,14.42Zm0-2.34a.41.41,0,0,0-.11.01.686.686,0,0,0-.57.78.729.729,0,0,0,.27.45.666.666,0,0,0,.51.12.691.691,0,0,0,.57-.79A.67.67,0,0,0,27.49,12.08Z"/>
            </g>
          </g>
        </g>
      </g>
    </g>
    <g id="Grupo_1148766" data-name="Grupo 1148766">
      <g id="Grupo_1148739" data-name="Grupo 1148739">
        <g id="Grupo_1148738" data-name="Grupo 1148738">
          <g id="Grupo_1148737" data-name="Grupo 1148737">
            <g id="Grupo_1148736" data-name="Grupo 1148736">
              <path id="Trazado_1006273" data-name="Trazado 1006273" d="M46.17,27.3l8.26,1.31a4.861,4.861,0,0,0,5.56-4.04l1.57-9.85L43.7,11.89l-1.57,9.85a4.861,4.861,0,0,0,4.04,5.56Z" fill="#f76c82"/>
            </g>
          </g>
        </g>
      </g>
      <g id="Grupo_1148743" data-name="Grupo 1148743">
        <g id="Grupo_1148742" data-name="Grupo 1148742">
          <g id="Grupo_1148741" data-name="Grupo 1148741">
            <g id="Grupo_1148740" data-name="Grupo 1148740">
              <path id="Trazado_1006274" data-name="Trazado 1006274" d="M60.75,19.88l-.9,5.68a3.869,3.869,0,0,1-4.43,3.21L45.2,27.15a3.867,3.867,0,0,1-3.21-4.43l.45-2.84Z" fill="#eb5463"/>
            </g>
          </g>
        </g>
      </g>
      <g id="Grupo_1148747" data-name="Grupo 1148747">
        <g id="Grupo_1148746" data-name="Grupo 1148746">
          <g id="Grupo_1148745" data-name="Grupo 1148745">
            <g id="Grupo_1148744" data-name="Grupo 1148744">
              <path id="Trazado_1006275" data-name="Trazado 1006275" d="M53.49,19.88l-1.33,8.38-3.72-.59-3.25-.52a3.867,3.867,0,0,1-3.21-4.43l.45-2.84Z" fill="#eb5463"/>
            </g>
          </g>
        </g>
      </g>
      <g id="Grupo_1148751" data-name="Grupo 1148751">
        <g id="Grupo_1148750" data-name="Grupo 1148750">
          <g id="Grupo_1148749" data-name="Grupo 1148749">
            <g id="Grupo_1148748" data-name="Grupo 1148748">
              <path id="Trazado_1006276" data-name="Trazado 1006276" d="M56.03,29.31a5.337,5.337,0,0,1-.69-.05L45.12,27.63a4.356,4.356,0,0,1-3.62-4.98l1.72-10.84a.507.507,0,0,1,.19-.32.46.46,0,0,1,.36-.09l17.86,2.84a.484.484,0,0,1,.4.55L60.31,25.63a4.336,4.336,0,0,1-4.28,3.68ZM44.1,12.44,42.46,22.8a3.371,3.371,0,0,0,2.81,3.87L55.49,28.3a3.388,3.388,0,0,0,3.87-2.81l1.65-10.36Z"/>
            </g>
          </g>
        </g>
      </g>
      <g id="Grupo_1148758" data-name="Grupo 1148758">
        <g id="Grupo_1148754" data-name="Grupo 1148754">
          <g id="Grupo_1148753" data-name="Grupo 1148753">
            <g id="Grupo_1148752" data-name="Grupo 1148752">
              <path id="Trazado_1006277" data-name="Trazado 1006277" d="M43.47,8.14l19.48,3.1a.992.992,0,0,1,.82,1.13l-.27,1.68a.992.992,0,0,1-1.13.82l-19.48-3.1a.992.992,0,0,1-.82-1.13l.27-1.68A.984.984,0,0,1,43.47,8.14Z" fill="#f76c82"/>
            </g>
          </g>
        </g>
        <g id="Grupo_1148757" data-name="Grupo 1148757">
          <g id="Grupo_1148756" data-name="Grupo 1148756">
            <g id="Grupo_1148755" data-name="Grupo 1148755">
              <path id="Trazado_1006278" data-name="Trazado 1006278" d="M62.14,15.28c-.1,0-.2-.01-.3-.02L43.28,12.31a1.946,1.946,0,0,1-1.61-2.21l.12-.76a1.932,1.932,0,0,1,.77-1.26A1.9,1.9,0,0,1,44,7.74l18.56,2.95a1.946,1.946,0,0,1,1.61,2.21l-.12.76a1.933,1.933,0,0,1-1.91,1.62ZM43.7,8.67a.988.988,0,0,0-.57.18.965.965,0,0,0-.39.63l-.12.76a.978.978,0,0,0,.8,1.11L61.98,14.3a.978.978,0,0,0,1.11-.8l.12-.76a.978.978,0,0,0-.8-1.11L43.85,8.69A.772.772,0,0,0,43.7,8.67Z"/>
            </g>
          </g>
        </g>
      </g>
      <g id="Grupo_1148765" data-name="Grupo 1148765">
        <g id="Grupo_1148761" data-name="Grupo 1148761">
          <g id="Grupo_1148760" data-name="Grupo 1148760">
            <g id="Grupo_1148759" data-name="Grupo 1148759">
              <path id="Trazado_1006279" data-name="Trazado 1006279" d="M49.88,9.57h3.76V28.08H49.88Z" transform="matrix(0.988, 0.157, -0.157, 0.988, 3.598, -7.895)" fill="#f4f6f8"/>
            </g>
          </g>
        </g>
        <g id="Grupo_1148764" data-name="Grupo 1148764">
          <g id="Grupo_1148763" data-name="Grupo 1148763">
            <g id="Grupo_1148762" data-name="Grupo 1148762">
              <path id="Trazado_1006280" data-name="Trazado 1006280" d="M52.16,28.74a.22.22,0,0,1-.08-.01l-3.72-.59a.507.507,0,0,1-.32-.19.46.46,0,0,1-.09-.36L50.86,9.31a.484.484,0,0,1,.55-.4l3.72.59a.507.507,0,0,1,.32.19.46.46,0,0,1,.09.36L52.63,28.33a.466.466,0,0,1-.47.41ZM49,27.26l2.76.44,2.75-17.32-2.76-.44Z"/>
            </g>
          </g>
        </g>
      </g>
    </g>
    <g id="Grupo_1148781" data-name="Grupo 1148781">
      <g id="Grupo_1148773" data-name="Grupo 1148773">
        <g id="Grupo_1148769" data-name="Grupo 1148769">
          <g id="Grupo_1148768" data-name="Grupo 1148768">
            <g id="Grupo_1148767" data-name="Grupo 1148767">
              <path id="Trazado_1006281" data-name="Trazado 1006281" d="M58.5,9.42c-1.41.95-5.87.23-5.87.23s1.01-4.4,2.43-5.35A3.084,3.084,0,0,1,58.5,9.42Z" fill="#f4f6f8"/>
            </g>
          </g>
        </g>
        <g id="Grupo_1148772" data-name="Grupo 1148772">
          <g id="Grupo_1148771" data-name="Grupo 1148771">
            <g id="Grupo_1148770" data-name="Grupo 1148770">
              <path id="Trazado_1006282" data-name="Trazado 1006282" d="M55.81,10.4a23.109,23.109,0,0,1-3.26-.27.472.472,0,0,1-.32-.21.507.507,0,0,1-.07-.38c.11-.47,1.1-4.62,2.63-5.64a3.574,3.574,0,1,1,3.99,5.93,5.9,5.9,0,0,1-2.97.57ZM53.23,9.25c1.69.22,4.18.33,5-.23a2.605,2.605,0,0,0,.71-3.61,2.57,2.57,0,0,0-1.66-1.1,2.537,2.537,0,0,0-1.95.39c-.83.55-1.67,2.9-2.1,4.55Z"/>
            </g>
          </g>
        </g>
      </g>
      <g id="Grupo_1148780" data-name="Grupo 1148780">
        <g id="Grupo_1148776" data-name="Grupo 1148776">
          <g id="Grupo_1148775" data-name="Grupo 1148775">
            <g id="Grupo_1148774" data-name="Grupo 1148774">
              <path id="Trazado_1006283" data-name="Trazado 1006283" d="M48.07,7.96c.87,1.11,4.57,1.69,4.57,1.69s.33-3.72-.54-4.84a2.558,2.558,0,1,0-4.03,3.15Z" fill="#f4f6f8"/>
            </g>
          </g>
        </g>
        <g id="Grupo_1148779" data-name="Grupo 1148779">
          <g id="Grupo_1148778" data-name="Grupo 1148778">
            <g id="Grupo_1148777" data-name="Grupo 1148777">
              <path id="Trazado_1006284" data-name="Trazado 1006284" d="M52.63,10.13a.17.17,0,0,1-.07-.01c-.4-.06-3.91-.64-4.87-1.87a3.042,3.042,0,0,1,.53-4.27,3.049,3.049,0,0,1,4.27.52c.96,1.23.67,4.78.64,5.18a.492.492,0,0,1-.5.45ZM50.08,4.31a2.077,2.077,0,0,0-1.64,3.35c.48.62,2.37,1.15,3.74,1.42.08-1.39.01-3.35-.47-3.97a2.055,2.055,0,0,0-1.63-.8Z"/>
            </g>
          </g>
        </g>
      </g>
    </g>
    <g id="Grupo_1148785" data-name="Grupo 1148785">
      <g id="Grupo_1148784" data-name="Grupo 1148784">
        <g id="Grupo_1148783" data-name="Grupo 1148783">
          <g id="Grupo_1148782" data-name="Grupo 1148782">
            <path id="Trazado_1006285" data-name="Trazado 1006285" d="M63.67,23.66,59.31,44.67a1.935,1.935,0,0,1-1.89,1.54H29.64L21.29,21.34h40.5a1.918,1.918,0,0,1,1.88,2.32Z" fill="#656d78"/>
          </g>
        </g>
      </g>
    </g>
    <g id="Grupo_1148789" data-name="Grupo 1148789">
      <g id="Grupo_1148788" data-name="Grupo 1148788">
        <g id="Grupo_1148787" data-name="Grupo 1148787">
          <g id="Grupo_1148786" data-name="Grupo 1148786">
            <path id="Trazado_1006286" data-name="Trazado 1006286" d="M63.67,23.66,59.31,44.67a1.935,1.935,0,0,1-1.89,1.54H29.64L21.29,21.34h.49l7.86,23.42H57.41a1.919,1.919,0,0,0,1.89-1.54L63.58,22.6a1.723,1.723,0,0,1,.09,1.06Z" fill="#545c66"/>
          </g>
        </g>
      </g>
    </g>
    <g id="Grupo_1148793" data-name="Grupo 1148793">
      <g id="Grupo_1148792" data-name="Grupo 1148792">
        <g id="Grupo_1148791" data-name="Grupo 1148791">
          <g id="Grupo_1148790" data-name="Grupo 1148790">
            <path id="Trazado_1006287" data-name="Trazado 1006287" d="M57.41,46.69H29.64a.483.483,0,0,1-.46-.33L20.83,21.49a.466.466,0,0,1,.07-.44.474.474,0,0,1,.39-.2h40.5a2.411,2.411,0,0,1,2.36,2.9L59.78,44.76a2.428,2.428,0,0,1-2.37,1.93Zm-27.42-.97H57.42a1.464,1.464,0,0,0,1.42-1.16L63.2,23.55a1.45,1.45,0,0,0-1.41-1.75H21.96Z"/>
          </g>
        </g>
      </g>
    </g>
    <g id="Grupo_1148799" data-name="Grupo 1148799">
      <g id="Grupo_1148798" data-name="Grupo 1148798">
        <g id="Grupo_1148797" data-name="Grupo 1148797">
          <g id="Grupo_1148796" data-name="Grupo 1148796">
            <g id="Grupo_1148795" data-name="Grupo 1148795">
              <g id="Grupo_1148794" data-name="Grupo 1148794">
                <path id="Trazado_1006288" data-name="Trazado 1006288" d="M62.65,52.63a1.988,1.988,0,0,1-2.01,1.74H29.69a1.925,1.925,0,0,1-1.83-1.32L16.82,20.17H11.61A2,2,0,0,1,9.6,18.42a1.935,1.935,0,0,1,1.92-2.12h5.37a3.754,3.754,0,0,1,3.57,2.57l.83,2.46L29.64,46.2l1.44,4.3H60.73a1.933,1.933,0,0,1,1.92,2.13Z" fill="#f4f6f8"/>
              </g>
            </g>
          </g>
        </g>
      </g>
    </g>
    <g id="Grupo_1148805" data-name="Grupo 1148805">
      <g id="Grupo_1148804" data-name="Grupo 1148804">
        <g id="Grupo_1148803" data-name="Grupo 1148803">
          <g id="Grupo_1148802" data-name="Grupo 1148802">
            <g id="Grupo_1148801" data-name="Grupo 1148801">
              <g id="Grupo_1148800" data-name="Grupo 1148800">
                <path id="Trazado_1006289" data-name="Trazado 1006289" d="M62.65,52.63a1.988,1.988,0,0,1-2.01,1.74H29.69a1.925,1.925,0,0,1-1.83-1.32l-.06-.18a2.2,2.2,0,0,0,.44.05H60.65a2.027,2.027,0,0,0,1.88-1.22A2.211,2.211,0,0,1,62.65,52.63Z" fill="#d7dadf"/>
              </g>
            </g>
          </g>
        </g>
      </g>
    </g>
    <g id="Grupo_1148811" data-name="Grupo 1148811">
      <g id="Grupo_1148810" data-name="Grupo 1148810">
        <g id="Grupo_1148809" data-name="Grupo 1148809">
          <g id="Grupo_1148808" data-name="Grupo 1148808">
            <g id="Grupo_1148807" data-name="Grupo 1148807">
              <g id="Grupo_1148806" data-name="Grupo 1148806">
                <path id="Trazado_1006290" data-name="Trazado 1006290" d="M60.64,54.85H29.69A2.408,2.408,0,0,1,27.4,53.2L16.47,20.65H11.61a2.485,2.485,0,0,1-2.49-2.18,2.42,2.42,0,0,1,2.4-2.65h5.37a4.25,4.25,0,0,1,4.03,2.9l10.51,31.3h29.3a2.419,2.419,0,0,1,2.41,2.65,2.5,2.5,0,0,1-2.5,2.18ZM11.52,16.78a1.47,1.47,0,0,0-1.07.47,1.434,1.434,0,0,0-.37,1.12,1.513,1.513,0,0,0,1.53,1.31h5.21a.483.483,0,0,1,.46.33L28.31,52.9a1.451,1.451,0,0,0,1.37.99H60.64a1.52,1.52,0,0,0,1.53-1.3,1.422,1.422,0,0,0-.37-1.12,1.464,1.464,0,0,0-1.07-.48H31.08a.483.483,0,0,1-.46-.33L20,19.02a3.28,3.28,0,0,0-3.11-2.24Z"/>
              </g>
            </g>
          </g>
        </g>
      </g>
    </g>
    <g id="Grupo_1148815" data-name="Grupo 1148815">
      <g id="Grupo_1148814" data-name="Grupo 1148814">
        <g id="Grupo_1148813" data-name="Grupo 1148813">
          <g id="Grupo_1148812" data-name="Grupo 1148812">
            <path id="Trazado_1006291" data-name="Trazado 1006291" d="M11.75,21.33H3.95a1.656,1.656,0,0,1-1.66-1.66V16.81a1.656,1.656,0,0,1,1.66-1.66h7.8a1.656,1.656,0,0,1,1.66,1.66v2.86A1.662,1.662,0,0,1,11.75,21.33Z" fill="#f76c82"/>
          </g>
        </g>
      </g>
    </g>
    <g id="Grupo_1148819" data-name="Grupo 1148819">
      <g id="Grupo_1148818" data-name="Grupo 1148818">
        <g id="Grupo_1148817" data-name="Grupo 1148817">
          <g id="Grupo_1148816" data-name="Grupo 1148816">
            <path id="Trazado_1006292" data-name="Trazado 1006292" d="M12.48,21.81H3.21A1.408,1.408,0,0,1,1.8,20.4V16.08a1.408,1.408,0,0,1,1.41-1.41h9.27a1.408,1.408,0,0,1,1.41,1.41V20.4A1.408,1.408,0,0,1,12.48,21.81ZM3.21,15.63a.444.444,0,0,0-.44.44v4.32a.444.444,0,0,0,.44.44h9.27a.444.444,0,0,0,.44-.44V16.07a.444.444,0,0,0-.44-.44Z"/>
          </g>
        </g>
      </g>
    </g>
    <g id="Grupo_1148823" data-name="Grupo 1148823">
      <g id="Grupo_1148822" data-name="Grupo 1148822">
        <g id="Grupo_1148821" data-name="Grupo 1148821">
          <g id="Grupo_1148820" data-name="Grupo 1148820">
            <circle id="Elipse_11717" data-name="Elipse 11717" cx="4.65" cy="4.65" r="4.65" transform="translate(50.36 52.93)" fill="#656d78"/>
          </g>
        </g>
      </g>
    </g>
    <g id="Grupo_1148827" data-name="Grupo 1148827">
      <g id="Grupo_1148826" data-name="Grupo 1148826">
        <g id="Grupo_1148825" data-name="Grupo 1148825">
          <g id="Grupo_1148824" data-name="Grupo 1148824">
            <circle id="Elipse_11718" data-name="Elipse 11718" cx="4.65" cy="4.65" r="4.65" transform="translate(31.47 52.93)" fill="#656d78"/>
          </g>
        </g>
      </g>
    </g>
    <g id="Grupo_1148831" data-name="Grupo 1148831">
      <g id="Grupo_1148830" data-name="Grupo 1148830">
        <g id="Grupo_1148829" data-name="Grupo 1148829">
          <g id="Grupo_1148828" data-name="Grupo 1148828">
            <path id="Trazado_1006293" data-name="Trazado 1006293" d="M59.65,57.58a4.65,4.65,0,1,1-9.3,0,4.4,4.4,0,0,1,.06-.73,4.645,4.645,0,0,0,9.18,0A3.54,3.54,0,0,1,59.65,57.58Z" fill="#545c66"/>
          </g>
        </g>
      </g>
    </g>
    <g id="Grupo_1148835" data-name="Grupo 1148835">
      <g id="Grupo_1148834" data-name="Grupo 1148834">
        <g id="Grupo_1148833" data-name="Grupo 1148833">
          <g id="Grupo_1148832" data-name="Grupo 1148832">
            <path id="Trazado_1006294" data-name="Trazado 1006294" d="M40.77,57.58a4.65,4.65,0,1,1-9.3,0,4.4,4.4,0,0,1,.06-.73,4.645,4.645,0,0,0,9.18,0A4.4,4.4,0,0,1,40.77,57.58Z" fill="#545c66"/>
          </g>
        </g>
      </g>
    </g>
    <g id="Grupo_1148839" data-name="Grupo 1148839">
      <g id="Grupo_1148838" data-name="Grupo 1148838">
        <g id="Grupo_1148837" data-name="Grupo 1148837">
          <g id="Grupo_1148836" data-name="Grupo 1148836">
            <path id="Trazado_1006295" data-name="Trazado 1006295" d="M55.01,62.71a5.13,5.13,0,1,1,5.13-5.13A5.134,5.134,0,0,1,55.01,62.71Zm0-9.3a4.17,4.17,0,1,0,4.16,4.17,4.174,4.174,0,0,0-4.16-4.17Z"/>
          </g>
        </g>
      </g>
    </g>
    <g id="Grupo_1148846" data-name="Grupo 1148846">
      <g id="Grupo_1148842" data-name="Grupo 1148842">
        <g id="Grupo_1148841" data-name="Grupo 1148841">
          <g id="Grupo_1148840" data-name="Grupo 1148840">
            <circle id="Elipse_11719" data-name="Elipse 11719" cx="1.75" cy="1.75" r="1.75" transform="translate(53.26 55.83)" fill="#fff"/>
          </g>
        </g>
      </g>
      <g id="Grupo_1148845" data-name="Grupo 1148845">
        <g id="Grupo_1148844" data-name="Grupo 1148844">
          <g id="Grupo_1148843" data-name="Grupo 1148843">
            <path id="Trazado_1006296" data-name="Trazado 1006296" d="M55.01,59.81a2.23,2.23,0,1,1,2.23-2.23A2.232,2.232,0,0,1,55.01,59.81Zm0-3.5a1.27,1.27,0,1,0,1.26,1.27A1.272,1.272,0,0,0,55.01,56.31Z"/>
          </g>
        </g>
      </g>
    </g>
    <g id="Grupo_1148850" data-name="Grupo 1148850">
      <g id="Grupo_1148849" data-name="Grupo 1148849">
        <g id="Grupo_1148848" data-name="Grupo 1148848">
          <g id="Grupo_1148847" data-name="Grupo 1148847">
            <path id="Trazado_1006297" data-name="Trazado 1006297" d="M36.12,62.71a5.13,5.13,0,1,1,5.13-5.13A5.134,5.134,0,0,1,36.12,62.71Zm0-9.3a4.17,4.17,0,1,0,4.17,4.17,4.165,4.165,0,0,0-4.17-4.17Z"/>
          </g>
        </g>
      </g>
    </g>
    <g id="Grupo_1148857" data-name="Grupo 1148857">
      <g id="Grupo_1148853" data-name="Grupo 1148853">
        <g id="Grupo_1148852" data-name="Grupo 1148852">
          <g id="Grupo_1148851" data-name="Grupo 1148851">
            <circle id="Elipse_11720" data-name="Elipse 11720" cx="1.75" cy="1.75" r="1.75" transform="translate(34.37 55.83)" fill="#fff"/>
          </g>
        </g>
      </g>
      <g id="Grupo_1148856" data-name="Grupo 1148856">
        <g id="Grupo_1148855" data-name="Grupo 1148855">
          <g id="Grupo_1148854" data-name="Grupo 1148854">
            <path id="Trazado_1006298" data-name="Trazado 1006298" d="M36.12,59.81a2.23,2.23,0,1,1,2.23-2.23A2.232,2.232,0,0,1,36.12,59.81Zm0-3.5a1.27,1.27,0,1,0,1.26,1.27A1.257,1.257,0,0,0,36.12,56.31Z"/>
          </g>
        </g>
      </g>
    </g>
    <g id="Grupo_1148882" data-name="Grupo 1148882">
      <g id="Grupo_1148865" data-name="Grupo 1148865">
        <g id="Grupo_1148864" data-name="Grupo 1148864">
          <g id="Grupo_1148860" data-name="Grupo 1148860">
            <g id="Grupo_1148859" data-name="Grupo 1148859">
              <g id="Grupo_1148858" data-name="Grupo 1148858">
                <path id="Trazado_1006299" data-name="Trazado 1006299" d="M34.96,41.45a1.448,1.448,0,0,1-1.43-1.22L31.19,26a1.454,1.454,0,1,1,2.87-.47L36.4,39.77a1.457,1.457,0,0,1-1.2,1.67,1.927,1.927,0,0,1-.24.01Z" fill="#fff"/>
              </g>
            </g>
          </g>
          <g id="Grupo_1148863" data-name="Grupo 1148863">
            <g id="Grupo_1148862" data-name="Grupo 1148862">
              <g id="Grupo_1148861" data-name="Grupo 1148861">
                <path id="Trazado_1006300" data-name="Trazado 1006300" d="M34.96,41.94a1.933,1.933,0,0,1-1.91-1.62L30.71,26.08a1.934,1.934,0,0,1,1.59-2.22,1.92,1.92,0,0,1,2.22,1.59l2.34,14.24a1.934,1.934,0,0,1-1.59,2.22,1.553,1.553,0,0,1-.31.03ZM32.63,24.8a.86.86,0,0,0-.16.01.971.971,0,0,0-.8,1.11l2.34,14.24a.967.967,0,0,0,1.91-.31L33.58,25.61a.942.942,0,0,0-.39-.63A.957.957,0,0,0,32.63,24.8Z"/>
              </g>
            </g>
          </g>
        </g>
      </g>
      <g id="Grupo_1148873" data-name="Grupo 1148873">
        <g id="Grupo_1148872" data-name="Grupo 1148872">
          <g id="Grupo_1148868" data-name="Grupo 1148868">
            <g id="Grupo_1148867" data-name="Grupo 1148867">
              <g id="Grupo_1148866" data-name="Grupo 1148866">
                <path id="Trazado_1006301" data-name="Trazado 1006301" d="M42.5,41.45A1.451,1.451,0,0,1,41.05,40V25.77a1.45,1.45,0,0,1,2.9,0V40A1.451,1.451,0,0,1,42.5,41.45Z" fill="#fff"/>
              </g>
            </g>
          </g>
          <g id="Grupo_1148871" data-name="Grupo 1148871">
            <g id="Grupo_1148870" data-name="Grupo 1148870">
              <g id="Grupo_1148869" data-name="Grupo 1148869">
                <path id="Trazado_1006302" data-name="Trazado 1006302" d="M42.5,41.94a1.931,1.931,0,0,1-1.93-1.93V25.77a1.93,1.93,0,0,1,3.86,0V40A1.933,1.933,0,0,1,42.5,41.94Zm0-17.14a.971.971,0,0,0-.97.97V40a.97.97,0,0,0,1.94,0V25.77a.971.971,0,0,0-.97-.97Z"/>
              </g>
            </g>
          </g>
        </g>
      </g>
      <g id="Grupo_1148881" data-name="Grupo 1148881">
        <g id="Grupo_1148880" data-name="Grupo 1148880">
          <g id="Grupo_1148876" data-name="Grupo 1148876">
            <g id="Grupo_1148875" data-name="Grupo 1148875">
              <g id="Grupo_1148874" data-name="Grupo 1148874">
                <path id="Trazado_1006303" data-name="Trazado 1006303" d="M50.04,41.45a1.942,1.942,0,0,1-.24-.02,1.457,1.457,0,0,1-1.2-1.67l2.34-14.24a1.454,1.454,0,1,1,2.87.47L51.47,40.23a1.448,1.448,0,0,1-1.43,1.22Z" fill="#fff"/>
              </g>
            </g>
          </g>
          <g id="Grupo_1148879" data-name="Grupo 1148879">
            <g id="Grupo_1148878" data-name="Grupo 1148878">
              <g id="Grupo_1148877" data-name="Grupo 1148877">
                <path id="Trazado_1006304" data-name="Trazado 1006304" d="M50.04,41.94a1.816,1.816,0,0,1-.32-.03,1.927,1.927,0,0,1-1.59-2.22l2.34-14.24a1.92,1.92,0,0,1,2.22-1.59,1.927,1.927,0,0,1,1.59,2.22L51.94,40.32a1.915,1.915,0,0,1-1.9,1.62ZM52.37,24.8a.957.957,0,0,0-.56.18.942.942,0,0,0-.39.63L49.08,39.85a.967.967,0,0,0,1.91.31l2.34-14.24a.963.963,0,0,0-.8-1.11A.86.86,0,0,0,52.37,24.8Z"/>
              </g>
            </g>
          </g>
        </g>
      </g>
    </g>
  </g>
</svg>
