<svg xmlns="http://www.w3.org/2000/svg" width="85" height="82.999" viewBox="0 0 85 82.999">
  <g id="_x37_3_x2C__Audience_x2C__Customer_x2C__Target" transform="translate(-46.482 -53.5)">
    <g id="Grupo_1173480" data-name="Grupo 1173480" transform="translate(46.482 53.5)">
      <g id="Grupo_1173453" data-name="Grupo 1173453" transform="translate(74.099 1.02)">
        <path id="Trazado_1037513" data-name="Trazado 1037513" d="M415.081,58.5A4.081,4.081,0,1,1,411,62.581,4.079,4.079,0,0,1,415.081,58.5Z" transform="translate(-411 -58.5)" fill="#8eeb90"/>
      </g>
      <g id="Grupo_1173454" data-name="Grupo 1173454" transform="translate(3.709 69.37)">
        <path id="Trazado_1037514" data-name="Trazado 1037514" d="M71.1,393.5a5.1,5.1,0,1,1-5.1,5.1A5.1,5.1,0,0,1,71.1,393.5Z" transform="translate(-66 -393.5)" fill="#8eeb90"/>
      </g>
      <g id="Grupo_1173455" data-name="Grupo 1173455" transform="translate(29.743 43.397)">
        <path id="Trazado_1037515" data-name="Trazado 1037515" d="M221.1,273.321a16.839,16.839,0,0,1-27.5,0,16.839,16.839,0,0,1,27.5,0Z" transform="translate(-193.6 -266.2)" fill="#fdd034"/>
      </g>
      <g id="Grupo_1173456" data-name="Grupo 1173456" transform="translate(37.027 30.441)">
        <path id="Trazado_1037516" data-name="Trazado 1037516" d="M235.768,202.7a6.468,6.468,0,1,1-6.468,6.468A6.47,6.47,0,0,1,235.768,202.7Z" transform="translate(-229.3 -202.7)" fill="#fdd1a3"/>
      </g>
      <g id="Grupo_1173457" data-name="Grupo 1173457" transform="translate(26.662 23.974)">
        <path id="Trazado_1037517" data-name="Trazado 1037517" d="M188.865,183.956a6.47,6.47,0,0,0,6.468,6.468,16.85,16.85,0,0,0-13.752,7.121,16.833,16.833,0,1,1,27.5,0,16.793,16.793,0,0,0-13.752-7.121,6.468,6.468,0,1,0-6.468-6.468Z" transform="translate(-178.5 -171)" fill="#00467d"/>
      </g>
      <g id="Grupo_1173458" data-name="Grupo 1173458" transform="translate(10.34 40.806)">
        <path id="Trazado_1037518" data-name="Trazado 1037518" d="M131.655,279.187v7.468A33.154,33.154,0,0,1,98.5,253.5h7.468A25.7,25.7,0,0,0,131.655,279.187Z" transform="translate(-98.5 -253.5)" fill="#fa686c"/>
      </g>
      <g id="Grupo_1173459" data-name="Grupo 1173459" transform="translate(43.495 40.806)">
        <path id="Trazado_1037519" data-name="Trazado 1037519" d="M286.687,253.5h7.467A33.154,33.154,0,0,1,261,286.655v-7.468A25.7,25.7,0,0,0,286.687,253.5Z" transform="translate(-261 -253.5)" fill="#ffa5a7"/>
      </g>
      <g id="Grupo_1173460" data-name="Grupo 1173460" transform="translate(43.495 7.651)">
        <path id="Trazado_1037520" data-name="Trazado 1037520" d="M294.155,124.155h-7.467A25.7,25.7,0,0,0,261,98.468V91A33.154,33.154,0,0,1,294.155,124.155Z" transform="translate(-261 -91)" fill="#fa686c"/>
      </g>
      <g id="Grupo_1173461" data-name="Grupo 1173461" transform="translate(10.34 7.651)">
        <path id="Trazado_1037521" data-name="Trazado 1037521" d="M131.655,91v7.468a25.7,25.7,0,0,0-25.687,25.687H98.5A33.167,33.167,0,0,1,131.655,91Z" transform="translate(-98.5 -91)" fill="#ffa5a7"/>
      </g>
      <g id="Grupo_1173462" data-name="Grupo 1173462" transform="translate(82.632 19.307)">
        <ellipse id="Elipse_13148" data-name="Elipse 13148" cx="1" cy="1.5" rx="1" ry="1.5" transform="translate(0.368 -0.307)"/>
      </g>
      <g id="Grupo_1173463" data-name="Grupo 1173463" transform="translate(78.69 59.169)">
        <circle id="Elipse_13149" data-name="Elipse 13149" cx="1.53" cy="1.53" r="1.53" transform="translate(0 0)"/>
      </g>
      <g id="Grupo_1173464" data-name="Grupo 1173464" transform="translate(59.464 0)">
        <ellipse id="Elipse_13150" data-name="Elipse 13150" cx="2" cy="1.5" rx="2" ry="1.5" transform="translate(-0.464 0)"/>
      </g>
      <g id="Grupo_1173465" data-name="Grupo 1173465" transform="translate(59.464 79.543)">
        <ellipse id="Elipse_13151" data-name="Elipse 13151" cx="2" cy="1.5" rx="2" ry="1.5" transform="translate(-0.464 0.456)"/>
      </g>
      <g id="Grupo_1173466" data-name="Grupo 1173466" transform="translate(20.851 76.454)">
        <ellipse id="Elipse_13152" data-name="Elipse 13152" cx="1.5" cy="2" rx="1.5" ry="2" transform="translate(0.149 -0.454)"/>
      </g>
      <g id="Grupo_1173467" data-name="Grupo 1173467" transform="translate(14.673 0)">
        <circle id="Elipse_13153" data-name="Elipse 13153" cx="1.5" cy="1.5" r="1.5" transform="translate(0.327 0)"/>
      </g>
      <g id="Grupo_1173468" data-name="Grupo 1173468" transform="translate(0 20.079)">
        <ellipse id="Elipse_13154" data-name="Elipse 13154" cx="1" cy="1.5" rx="1" ry="1.5" transform="translate(0 -0.079)"/>
      </g>
      <g id="Grupo_1173469" data-name="Grupo 1173469" transform="translate(28.716 42.377)">
        <path id="Trazado_1037522" data-name="Trazado 1037522" d="M217.1,270.361a1.008,1.008,0,0,1-.837-.428,15.808,15.808,0,0,0-25.83,0,1.025,1.025,0,1,1-1.673-1.183,17.87,17.87,0,0,1,29.176,0,1.017,1.017,0,0,1-.245,1.428A1.063,1.063,0,0,1,217.1,270.361Z" transform="translate(-188.568 -261.2)"/>
      </g>
      <g id="Grupo_1173470" data-name="Grupo 1173470" transform="translate(36.007 29.442)">
        <path id="Trazado_1037523" data-name="Trazado 1037523" d="M231.788,212.776a7.488,7.488,0,1,1,7.488-7.488A7.493,7.493,0,0,1,231.788,212.776Zm0-12.956a5.448,5.448,0,1,0,5.448,5.448A5.46,5.46,0,0,0,231.788,199.82Z" transform="translate(-224.3 -197.8)"/>
      </g>
      <g id="Grupo_1173471" data-name="Grupo 1173471" transform="translate(25.642 22.953)">
        <path id="Trazado_1037524" data-name="Trazado 1037524" d="M191.353,201.705a17.9,17.9,0,0,1-14.588-7.549,17.853,17.853,0,1,1,29.176,0A17.9,17.9,0,0,1,191.353,201.705Zm-12.915-8.732a15.808,15.808,0,0,0,25.83,0,15.812,15.812,0,1,0-25.83,0Z" transform="translate(-173.5 -166)"/>
      </g>
      <g id="Grupo_1173472" data-name="Grupo 1173472" transform="translate(16.787 14.099)">
        <path id="Trazado_1037525" data-name="Trazado 1037525" d="M156.808,176.015a26.708,26.708,0,1,1,26.708-26.708A26.732,26.732,0,0,1,156.808,176.015Zm0-51.375a24.667,24.667,0,1,0,24.667,24.667A24.686,24.686,0,0,0,156.808,124.64Z" transform="translate(-130.1 -122.6)"/>
      </g>
      <g id="Grupo_1173473" data-name="Grupo 1173473" transform="translate(9.32 6.631)">
        <path id="Trazado_1037526" data-name="Trazado 1037526" d="M127.675,154.35a34.175,34.175,0,1,1,34.175-34.175A34.2,34.2,0,0,1,127.675,154.35Zm0-66.31a32.135,32.135,0,1,0,32.135,32.135A32.183,32.183,0,0,0,127.675,88.04Z" transform="translate(-93.5 -86)"/>
      </g>
      <g id="Grupo_1173474" data-name="Grupo 1173474" transform="translate(42.475 1.02)">
        <path id="Trazado_1037527" data-name="Trazado 1037527" d="M257.02,73.619A1.01,1.01,0,0,1,256,72.6V59.52a1.02,1.02,0,1,1,2.04,0V72.6A1.01,1.01,0,0,1,257.02,73.619Z" transform="translate(-256 -58.5)"/>
      </g>
      <g id="Grupo_1173475" data-name="Grupo 1173475" transform="translate(42.475 65.473)">
        <path id="Trazado_1037528" data-name="Trazado 1037528" d="M257.02,389.519A1.01,1.01,0,0,1,256,388.5V375.42a1.02,1.02,0,0,1,2.04,0V388.5A1.01,1.01,0,0,1,257.02,389.519Z" transform="translate(-256 -374.4)"/>
      </g>
      <g id="Grupo_1173476" data-name="Grupo 1173476" transform="translate(68.162 39.786)">
        <path id="Trazado_1037529" data-name="Trazado 1037529" d="M396,250.54H382.92a1.02,1.02,0,0,1,0-2.04H396a1.02,1.02,0,1,1,0,2.04Z" transform="translate(-381.9 -248.5)"/>
      </g>
      <g id="Grupo_1173477" data-name="Grupo 1173477" transform="translate(3.709 39.786)">
        <path id="Trazado_1037530" data-name="Trazado 1037530" d="M80.1,250.54H67.02a1.02,1.02,0,1,1,0-2.04H80.1a1.02,1.02,0,1,1,0,2.04Z" transform="translate(-66 -248.5)"/>
      </g>
      <g id="Grupo_1173478" data-name="Grupo 1173478" transform="translate(73.079 0)">
        <path id="Trazado_1037531" data-name="Trazado 1037531" d="M411.1,63.7a5.1,5.1,0,1,1,5.1-5.1A5.1,5.1,0,0,1,411.1,63.7Zm0-8.161a3.06,3.06,0,1,0,3.06,3.06A3.056,3.056,0,0,0,411.1,55.54Z" transform="translate(-406 -53.5)"/>
      </g>
      <g id="Grupo_1173479" data-name="Grupo 1173479" transform="translate(2.689 68.35)">
        <path id="Trazado_1037532" data-name="Trazado 1037532" d="M67.121,400.742a6.121,6.121,0,1,1,6.121-6.121A6.139,6.139,0,0,1,67.121,400.742Zm0-10.2a4.081,4.081,0,1,0,4.081,4.081A4.093,4.093,0,0,0,67.121,390.54Z" transform="translate(-61 -388.5)"/>
      </g>
    </g>
  </g>
</svg>
