<svg xmlns="http://www.w3.org/2000/svg" width="83.949" height="84.383" viewBox="0 0 83.949 84.383">
  <g id="Grupo_1173481" data-name="Grupo 1173481" transform="translate(-1 -1)">
    <path id="Trazado_1037533" data-name="Trazado 1037533" d="M48.179,56.316a7.7,7.7,0,0,0-1.9-7.677L40.068,42.41a2.045,2.045,0,0,0-2.884,2.884l-.948-.961A2.03,2.03,0,1,0,33.366,47.2l-.961-.921a2.045,2.045,0,0,0-2.871,0,2.017,2.017,0,0,0,0,2.871l-7.19-7.176a2.017,2.017,0,0,0-2.871,0,2.045,2.045,0,0,0,0,2.871l9.045,9.058-1.855,1.855a1.354,1.354,0,0,0,0,1.923l5.254,5.267a6.77,6.77,0,0,0,8.53.853l6.31,6.323,7.65-7.6Z" transform="translate(6.332 14.294)" fill="#ffd199"/>
    <circle id="Elipse_13155" data-name="Elipse 13155" cx="4.062" cy="4.062" r="4.062" transform="translate(5.062 25.372)" fill="#ffd199"/>
    <path id="Trazado_1037534" data-name="Trazado 1037534" d="M2,38.186v-6.77A5.416,5.416,0,0,1,7.416,26h2.708a5.416,5.416,0,0,1,5.416,5.416v6.77Z" transform="translate(0.354 8.85)" fill="#4d9aff"/>
    <circle id="Elipse_13156" data-name="Elipse 13156" cx="4.062" cy="4.062" r="4.062" transform="translate(18.602 25.372)" fill="#ffd199"/>
    <path id="Trazado_1037535" data-name="Trazado 1037535" d="M12,38.186v-6.77A5.416,5.416,0,0,1,17.416,26h2.708a5.416,5.416,0,0,1,5.416,5.416v6.77Z" transform="translate(3.894 8.85)" fill="#4d9aff"/>
    <circle id="Elipse_13157" data-name="Elipse 13157" cx="4.062" cy="4.062" r="4.062" transform="translate(59.223 25.372)" fill="#ffd199"/>
    <path id="Trazado_1037536" data-name="Trazado 1037536" d="M42,38.186v-6.77A5.416,5.416,0,0,1,47.416,26h2.708a5.416,5.416,0,0,1,5.416,5.416v6.77Z" transform="translate(14.515 8.85)" fill="#4d9aff"/>
    <circle id="Elipse_13158" data-name="Elipse 13158" cx="4.062" cy="4.062" r="4.062" transform="translate(72.763 25.372)" fill="#ffd199"/>
    <path id="Trazado_1037537" data-name="Trazado 1037537" d="M52,38.186v-6.77A5.416,5.416,0,0,1,57.416,26h2.708a5.416,5.416,0,0,1,5.416,5.416v6.77Z" transform="translate(18.055 8.85)" fill="#4d9aff"/>
    <circle id="Elipse_13159" data-name="Elipse 13159" cx="9.478" cy="9.478" r="9.478" transform="translate(6.416 2.354)" fill="#67cc6d"/>
    <circle id="Elipse_13160" data-name="Elipse 13160" cx="9.478" cy="9.478" r="9.478" transform="translate(60.577 2.354)" fill="#ff7375"/>
    <path id="Trazado_1037538" data-name="Trazado 1037538" d="M30.788,41.036v-6.77A6.77,6.77,0,0,0,25.86,27.78a5.416,5.416,0,1,0-6.391,0A6.77,6.77,0,0,0,15.894,30.2a6.77,6.77,0,0,0-3.575-2.464,5.416,5.416,0,1,0-6.391,0A6.77,6.77,0,0,0,1,34.266v6.77A1.354,1.354,0,0,0,2.354,42.39h27.08A1.354,1.354,0,0,0,30.788,41.036ZM9.124,20.726a2.708,2.708,0,1,1-2.708,2.708A2.708,2.708,0,0,1,9.124,20.726ZM14.54,39.682H3.708V34.266A4.062,4.062,0,0,1,7.77,30.2h2.708a4.062,4.062,0,0,1,4.062,4.062Zm8.124-18.956a2.708,2.708,0,1,1-2.708,2.708A2.708,2.708,0,0,1,22.664,20.726ZM28.08,39.682H17.248V34.266A4.062,4.062,0,0,1,21.31,30.2h2.708a4.062,4.062,0,0,1,4.062,4.062Z" transform="translate(0 6.001)"/>
    <path id="Trazado_1037539" data-name="Trazado 1037539" d="M65.86,27.78a5.416,5.416,0,1,0-6.391,0A6.77,6.77,0,0,0,55.894,30.2a6.77,6.77,0,0,0-3.575-2.464,5.416,5.416,0,1,0-6.391,0A6.77,6.77,0,0,0,41,34.266v6.77a1.354,1.354,0,0,0,1.354,1.354h27.08a1.354,1.354,0,0,0,1.354-1.354v-6.77A6.77,6.77,0,0,0,65.86,27.78ZM49.124,20.726a2.708,2.708,0,1,1-2.708,2.708A2.708,2.708,0,0,1,49.124,20.726ZM54.54,39.682H43.708V34.266A4.062,4.062,0,0,1,47.77,30.2h2.708a4.062,4.062,0,0,1,4.062,4.062Zm8.124-18.956a2.708,2.708,0,1,1-2.708,2.708A2.708,2.708,0,0,1,62.664,20.726ZM68.08,39.682H57.248V34.266A4.062,4.062,0,0,1,61.31,30.2h2.708a4.062,4.062,0,0,1,4.062,4.062Z" transform="translate(14.161 6.001)"/>
    <path id="Trazado_1037540" data-name="Trazado 1037540" d="M31,33h2.708v2.708H31Z" transform="translate(10.621 11.329)"/>
    <path id="Trazado_1037541" data-name="Trazado 1037541" d="M31,29h2.708v2.708H31Z" transform="translate(10.621 9.913)"/>
    <path id="Trazado_1037542" data-name="Trazado 1037542" d="M31,25h2.708v2.708H31Z" transform="translate(10.621 8.496)"/>
    <path id="Trazado_1037543" data-name="Trazado 1037543" d="M31,21h2.708v2.708H31Z" transform="translate(10.621 7.08)"/>
    <path id="Trazado_1037544" data-name="Trazado 1037544" d="M31,17h2.708v2.708H31Z" transform="translate(10.621 5.664)"/>
    <path id="Trazado_1037545" data-name="Trazado 1037545" d="M31,13h2.708v2.708H31Z" transform="translate(10.621 4.248)"/>
    <path id="Trazado_1037546" data-name="Trazado 1037546" d="M31,9h2.708v2.708H31Z" transform="translate(10.621 2.832)"/>
    <path id="Trazado_1037547" data-name="Trazado 1037547" d="M31,5h2.708V7.708H31Z" transform="translate(10.621 1.416)"/>
    <path id="Trazado_1037548" data-name="Trazado 1037548" d="M31,1h2.708V3.708H31Z" transform="translate(10.621)"/>
    <path id="Trazado_1037549" data-name="Trazado 1037549" d="M47.6,48.011,41.37,41.8a3.372,3.372,0,0,0-4.78,0,3.222,3.222,0,0,0-.691,1.016,3.385,3.385,0,0,0-3.141.894,3.155,3.155,0,0,0-.7,1.043,3.466,3.466,0,0,0-3.128.867,3.9,3.9,0,0,0-.433.528L23.66,41.308A3.385,3.385,0,1,0,18.88,46.1L27,54.226l-.961.961a2.708,2.708,0,0,0,0,3.832l5.267,5.254a8.124,8.124,0,0,0,9.248,1.6l5.592,5.592,1.909-1.923-6.31-6.31a1.354,1.354,0,0,0-1.72-.176,5.416,5.416,0,0,1-6.77-.691L27.993,57.1l.88-.961L32.7,59.967l1.909-1.909L20.749,44.22a.65.65,0,0,1,0-.948.677.677,0,0,1,.961,0L32.718,54.28l1.909-1.909L30.8,48.552a.7.7,0,0,1,0-.961.691.691,0,0,1,.487-.2.663.663,0,0,1,.474.2l3.886,3.818,1.9-1.909-2.871-2.843a.68.68,0,0,1,.961-.961L38.5,48.58l1.909-1.923-1.923-1.909a.677.677,0,0,1,0-.961.691.691,0,0,1,.961,0l6.215,6.228a6.377,6.377,0,0,1,1.557,6.364,1.354,1.354,0,0,0,.339,1.354l6.228,6.215L55.7,62.038l-5.687-5.687a8.964,8.964,0,0,0-2.41-8.341Z" transform="translate(5.978 13.92)"/>
    <path id="Trazado_1037550" data-name="Trazado 1037550" d="M14.832,1A10.832,10.832,0,1,0,25.664,11.832,10.832,10.832,0,0,0,14.832,1Zm0,18.956a8.124,8.124,0,1,1,8.124-8.124A8.124,8.124,0,0,1,14.832,19.956Z" transform="translate(1.062)"/>
    <path id="Trazado_1037551" data-name="Trazado 1037551" d="M13.239,12.031A2.031,2.031,0,0,1,11.208,10H8.5a4.739,4.739,0,1,0,9.478,0H15.27A2.031,2.031,0,0,1,13.239,12.031Z" transform="translate(2.655 3.186)"/>
    <path id="Trazado_1037552" data-name="Trazado 1037552" d="M9,6h2.708V8.708H9Z" transform="translate(2.832 1.77)"/>
    <path id="Trazado_1037553" data-name="Trazado 1037553" d="M13,6h2.708V8.708H13Z" transform="translate(4.248 1.77)"/>
    <path id="Trazado_1037554" data-name="Trazado 1037554" d="M54.832,22.664A10.832,10.832,0,1,0,44,11.832,10.832,10.832,0,0,0,54.832,22.664Zm0-18.956a8.124,8.124,0,1,1-8.124,8.124A8.124,8.124,0,0,1,54.832,3.708Z" transform="translate(15.223)"/>
    <path id="Trazado_1037555" data-name="Trazado 1037555" d="M53.239,11.708a2.031,2.031,0,0,1,2.031,2.031h2.708a4.739,4.739,0,0,0-9.478,0h2.708a2.031,2.031,0,0,1,2.031-2.031Z" transform="translate(16.816 2.832)"/>
    <path id="Trazado_1037556" data-name="Trazado 1037556" d="M49,6h2.708V8.708H49Z" transform="translate(16.993 1.77)"/>
    <path id="Trazado_1037557" data-name="Trazado 1037557" d="M53,6h2.708V8.708H53Z" transform="translate(18.409 1.77)"/>
  </g>
</svg>
