<svg xmlns="http://www.w3.org/2000/svg" width="67.89" height="67.896" viewBox="0 0 67.89 67.896">
  <g id="Grupo_1173924" data-name="Grupo 1173924" transform="translate(-2.005 -2)">
    <path id="Trazado_1038924" data-name="Trazado 1038924" d="M21.579,36.421H8V16.1a2.307,2.307,0,0,1,2.307-2.307h2.219V7h4.526v6.79h2.219A2.307,2.307,0,0,1,21.579,16.1Z" transform="translate(0.789 0.658)" fill="#4f5d75"/>
    <rect id="Rectángulo_421233" data-name="Rectángulo 421233" width="9.053" height="4.526" rx="1.085" transform="translate(11.052 3.132)" fill="#f71735"/>
    <path id="Trazado_1038925" data-name="Trazado 1038925" d="M64.816,44.316V55.632H32V33H60.29Z" transform="translate(3.947 4.079)" fill="#4f5d75"/>
    <path id="Trazado_1038926" data-name="Trazado 1038926" d="M64.685,44.316H37.526L33,33H60.158Z" transform="translate(4.079 4.079)" fill="#41ead4"/>
    <path id="Trazado_1038927" data-name="Trazado 1038927" d="M35.816,33V55.632H3V46.579L7.526,33Z" transform="translate(0.131 4.079)" fill="#4f5d75"/>
    <path id="Trazado_1038928" data-name="Trazado 1038928" d="M34.685,33,30.158,46.579H3L7.526,33Z" transform="translate(0.131 4.079)" fill="#41ead4"/>
    <path id="Trazado_1038929" data-name="Trazado 1038929" d="M8,34.105V27.673L21.579,16v6.432Z" transform="translate(0.789 1.842)" fill="#41ead4"/>
    <path id="Trazado_1038930" data-name="Trazado 1038930" d="M57.579,36.421H44V16.1a2.307,2.307,0,0,1,2.307-2.307h2.219V7h4.526v6.79h2.219A2.307,2.307,0,0,1,57.579,16.1Z" transform="translate(5.526 0.658)" fill="#4f5d75"/>
    <rect id="Rectángulo_421234" data-name="Rectángulo 421234" width="9.053" height="4.526" rx="1.085" transform="translate(51.789 3.132)" fill="#f71735"/>
    <path id="Trazado_1038931" data-name="Trazado 1038931" d="M44,34.105V27.673L57.579,16v6.432Z" transform="translate(5.526 1.842)" fill="#41ead4"/>
    <path id="Trazado_1038932" data-name="Trazado 1038932" d="M39.579,36.421H26V16.1a2.307,2.307,0,0,1,2.307-2.307h2.219V7h4.526v6.79h2.219A2.307,2.307,0,0,1,39.579,16.1Z" transform="translate(3.158 0.658)" fill="#4f5d75"/>
    <rect id="Rectángulo_421235" data-name="Rectángulo 421235" width="9.053" height="4.526" rx="1.085" transform="translate(31.421 3.132)" fill="#f71735"/>
    <path id="Trazado_1038933" data-name="Trazado 1038933" d="M26,34.105V27.673L39.579,16v6.432Z" transform="translate(3.158 1.842)" fill="#41ead4"/>
    <path id="Trazado_1038934" data-name="Trazado 1038934" d="M56,62.053H13L22.053,53H46.948Z" transform="translate(1.447 6.711)" fill="#2d3142"/>
    <path id="Trazado_1038935" data-name="Trazado 1038935" d="M69.814,47.975,65.288,36.659a1.132,1.132,0,0,0-1.051-.712V16.755A3.442,3.442,0,0,0,60.8,13.316H59.71V8.779A2.357,2.357,0,0,0,61.974,6.43V4.359A2.363,2.363,0,0,0,59.614,2h-6.6a2.363,2.363,0,0,0-2.359,2.359V6.43a2.357,2.357,0,0,0,2.263,2.349v4.537H51.833a3.442,3.442,0,0,0-3.439,3.439V35.948H43.868V16.755a3.442,3.442,0,0,0-3.439-3.439H39.342V8.779A2.357,2.357,0,0,0,41.6,6.43V4.359A2.363,2.363,0,0,0,39.246,2h-6.6a2.363,2.363,0,0,0-2.359,2.359V6.43a2.357,2.357,0,0,0,2.263,2.349v4.537H31.465a3.442,3.442,0,0,0-3.439,3.439V35.948H23.5V16.755a3.442,3.442,0,0,0-3.439-3.439H18.973V8.779A2.357,2.357,0,0,0,21.236,6.43V4.359A2.363,2.363,0,0,0,18.877,2h-6.6A2.363,2.363,0,0,0,9.92,4.359V6.43a2.357,2.357,0,0,0,2.263,2.349v4.537H11.1a3.442,3.442,0,0,0-3.439,3.439V35.948a1.132,1.132,0,0,0-1.073.774L2.058,50.3a1.081,1.081,0,0,0-.053.321v9.089a1.132,1.132,0,0,0,1.132,1.132H20.768l-7.121,7.121a1.132,1.132,0,0,0,.8,1.932h43a1.132,1.132,0,0,0,.8-1.932l-7.121-7.121H68.763a1.132,1.132,0,0,0,1.132-1.132V48.4c0-.016-.008-.031-.009-.045a1.132,1.132,0,0,0-.071-.375ZM52.921,4.359a.1.1,0,0,1,.1-.1h6.6a.1.1,0,0,1,.1.1V6.43a.1.1,0,0,1-.1.1h-6.6a.1.1,0,0,1-.1-.1Zm-2.263,12.4a1.177,1.177,0,0,1,1.176-1.176h2.219a1.132,1.132,0,0,0,1.132-1.132V8.79h2.263v5.658a1.132,1.132,0,0,0,1.132,1.132H60.8a1.177,1.177,0,0,1,1.176,1.176v.566L50.658,27.052Zm0,13.279L61.974,20.3V23.75L50.658,33.482Zm11.316-3.293v9.207H51.263ZM49.526,38.211H63.471l3.621,9.053H42.371L38.75,38.211ZM37.079,35.948H30.895l10.711-9.207v9.207ZM32.552,4.359a.1.1,0,0,1,.1-.1h6.6a.1.1,0,0,1,.1.1V6.43a.1.1,0,0,1-.1.1h-6.6a.1.1,0,0,1-.1-.1Zm-2.263,12.4a1.177,1.177,0,0,1,1.176-1.176h2.219a1.132,1.132,0,0,0,1.132-1.132V8.79h2.263v5.658a1.132,1.132,0,0,0,1.132,1.132h2.219a1.177,1.177,0,0,1,1.176,1.176v.566L30.289,27.052Zm0,13.279L41.605,20.3V23.75L30.289,33.482ZM12.184,4.359a.1.1,0,0,1,.1-.1h6.6a.1.1,0,0,1,.1.1V6.43a.1.1,0,0,1-.1.1h-6.6a.1.1,0,0,1-.1-.1ZM9.92,16.755A1.177,1.177,0,0,1,11.1,15.579h2.219a1.132,1.132,0,0,0,1.132-1.132V8.79H16.71v5.658a1.132,1.132,0,0,0,1.132,1.132h2.219a1.177,1.177,0,0,1,1.176,1.176v.566L9.92,27.052Zm0,13.279L21.236,20.3V23.75L9.92,33.482Zm11.316-3.293v9.207H10.526ZM8.473,38.211H33.245L29.473,49.527H4.7ZM4.263,58.58V51.79H30.289a1.132,1.132,0,0,0,1.073-.774l3.454-10.36V58.58Zm50.453,9.053H17.178l6.79-6.79H47.926ZM67.632,58.58H37.079V40.127l3.475,8.688a1.132,1.132,0,0,0,1.051.712H67.632Z"/>
  </g>
</svg>
