<svg xmlns="http://www.w3.org/2000/svg" width="85" height="80.407" viewBox="0 0 85 80.407">
  <g id="Grupo_1173452" data-name="Grupo 1173452" transform="translate(-1.003 -14.781)">
    <g id="Grupo_1173451" data-name="Grupo 1173451" transform="translate(2.335 16.115)">
      <g id="Grupo_1173447" data-name="Grupo 1173447" transform="translate(33.446 26.632)">
        <path id="Trazado_1037498" data-name="Trazado 1037498" d="M209.674,242.364a7.742,7.742,0,0,1,15.44,0,.538.538,0,0,1-.538.581H210.213A.538.538,0,0,1,209.674,242.364Z" transform="translate(-209.673 -226.431)" fill="#ffda2d" fill-rule="evenodd"/>
        <path id="Trazado_1037499" data-name="Trazado 1037499" d="M250.817,235.252a7.737,7.737,0,0,1,8.584,7.112.538.538,0,0,1-.539.581h-1.728a.538.538,0,0,0,.539-.581A7.773,7.773,0,0,0,250.817,235.252Z" transform="translate(-243.96 -226.431)" fill="#ffc700" fill-rule="evenodd"/>
        <path id="Trazado_1037500" data-name="Trazado 1037500" d="M235.079,190.94a4.184,4.184,0,1,0-4.184-4.184A4.192,4.192,0,0,0,235.079,190.94Z" transform="translate(-227.358 -182.572)" fill="#ffd6bd" fill-rule="evenodd"/>
        <path id="Trazado_1037501" data-name="Trazado 1037501" d="M236.964,192.751a4.184,4.184,0,1,0,5.419-6.258,4.184,4.184,0,0,1-5.419,6.258Z" transform="translate(-232.415 -185.839)" fill="#f9c6aa" fill-rule="evenodd"/>
      </g>
      <g id="Grupo_1173448" data-name="Grupo 1173448" transform="translate(48.5 31.534)">
        <path id="Trazado_1037502" data-name="Trazado 1037502" d="M299.995,282.906a9.073,9.073,0,0,1,18.095,0,.63.63,0,0,1-.631.68H300.626A.63.63,0,0,1,299.995,282.906Z" transform="translate(-299.993 -264.091)" fill="#72d561" fill-rule="evenodd"/>
        <path id="Trazado_1037503" data-name="Trazado 1037503" d="M351.1,273.124a9.069,9.069,0,0,1,10.06,8.335.63.63,0,0,1-.631.68H358.5a.63.63,0,0,0,.631-.68,9.11,9.11,0,0,0-8.035-8.335Z" transform="translate(-342.581 -262.886)" fill="#42c345" fill-rule="evenodd"/>
        <path id="Trazado_1037504" data-name="Trazado 1037504" d="M330.135,221.791a4.9,4.9,0,1,0-4.9-4.9A4.913,4.913,0,0,0,330.135,221.791Z" transform="translate(-321.025 -211.984)" fill="#ffd6bd" fill-rule="evenodd"/>
        <path id="Trazado_1037505" data-name="Trazado 1037505" d="M333.974,225.267a4.9,4.9,0,1,0,6.351-7.334,4.9,4.9,0,0,1-6.351,7.334Z" transform="translate(-328.31 -216.941)" fill="#f9c6aa" fill-rule="evenodd"/>
      </g>
      <g id="Grupo_1173449" data-name="Grupo 1173449" transform="translate(15.309 31.015)">
        <path id="Trazado_1037506" data-name="Trazado 1037506" d="M100.854,278.949a9.073,9.073,0,0,1,18.095,0,.63.63,0,0,1-.631.68H101.485A.63.63,0,0,1,100.854,278.949Z" transform="translate(-100.852 -260.275)" fill="#72d561" fill-rule="evenodd"/>
        <path id="Trazado_1037507" data-name="Trazado 1037507" d="M149.072,270.613a9.069,9.069,0,0,1,10.06,8.335.63.63,0,0,1-.631.68h-2.025a.63.63,0,0,0,.631-.68,9.11,9.11,0,0,0-8.035-8.335Z" transform="translate(-141.035 -260.275)" fill="#42c345" fill-rule="evenodd"/>
        <path id="Trazado_1037508" data-name="Trazado 1037508" d="M130.63,218.68a4.9,4.9,0,1,0-4.9-4.9A4.913,4.913,0,0,0,130.63,218.68Z" transform="translate(-121.58 -208.873)" fill="#ffd6bd" fill-rule="evenodd"/>
        <path id="Trazado_1037509" data-name="Trazado 1037509" d="M132.837,220.8a4.9,4.9,0,1,0,6.351-7.334,4.9,4.9,0,0,1-6.351,7.334Z" transform="translate(-127.506 -212.703)" fill="#f9c6aa" fill-rule="evenodd"/>
      </g>
      <g id="Grupo_1173450" data-name="Grupo 1173450" transform="translate(0 0)">
        <path id="Trazado_1037510" data-name="Trazado 1037510" d="M50.739,22.783A38.874,38.874,0,0,1,89.415,57.755H84.224a33.712,33.712,0,0,0-66.547-2.687l3.377-.115L18.2,59.826,15.351,64.7l-3.176-4.667L9,55.364l3.4-.116A38.879,38.879,0,0,1,50.739,22.783ZM86.947,62.118l-3.756,4.215-3.756,4.215,3.655.607a33.719,33.719,0,0,1-65.226-2.017H12.592A38.876,38.876,0,0,0,88.21,72l3.123.518-2.193-5.2-2.193-5.2Z" transform="translate(-8.999 -22.783)" fill="#64b5f6" fill-rule="evenodd"/>
        <path id="Trazado_1037511" data-name="Trazado 1037511" d="M50.74,22.783A38.874,38.874,0,0,1,89.416,57.755H86.737A38.868,38.868,0,0,0,22.68,34.76,38.75,38.75,0,0,1,50.74,22.783ZM26.263,38.48A33.684,33.684,0,0,0,15.3,57.352l3.377-.115-2.851,4.873-1.032,1.764.562.826L18.2,59.826l2.851-4.873-3.377.115A33.629,33.629,0,0,1,26.263,38.48ZM10.112,57,9,55.364l1.454-.049q-.189.835-.342,1.683Zm76.836,5.12,2.193,5.2,2.193,5.2L88.211,72c-.057.208-.117.414-.178.62L86.76,69.6l-2.082-4.938,2.27-2.547Zm.465,12.431a38.932,38.932,0,0,1-11,16.285,38.828,38.828,0,0,0,9.418-16.547Zm-74.3-3.13q-.292-1.129-.519-2.283h5.272A33.713,33.713,0,0,0,72.848,87.1,33.712,33.712,0,0,1,15.484,71.42H13.112Z" transform="translate(-9 -22.783)" fill="#42a5f5" fill-rule="evenodd"/>
      </g>
    </g>
    <path id="Trazado_1037512" data-name="Trazado 1037512" d="M59.988,59.484a7.778,7.778,0,0,1,7.625,6.407H52.364a7.778,7.778,0,0,1,7.623-6.407Zm0-10.28a3.57,3.57,0,1,1-3.57,3.57A3.574,3.574,0,0,1,59.988,49.2ZM51.573,68.557H68.405a1.963,1.963,0,0,0,1.961-2.113,10.45,10.45,0,0,0-6.435-8.84,6.238,6.238,0,1,0-7.885,0,10.449,10.449,0,0,0-6.435,8.84,1.963,1.963,0,0,0,1.961,2.113ZM37.235,57.927a6.409,6.409,0,0,1,12.536,0ZM43.5,44.08a2.851,2.851,0,1,1-2.85,2.852A2.855,2.855,0,0,1,43.5,44.08Zm8.555,15.915a1.875,1.875,0,0,0,.5-1.415A9.116,9.116,0,0,0,47.229,51a5.517,5.517,0,1,0-7.454,0,9.115,9.115,0,0,0-5.323,7.585,1.874,1.874,0,0,0,1.869,2.014H50.684a1.877,1.877,0,0,0,1.373-.6Zm-25.041-.511A7.778,7.778,0,0,1,34.64,65.89H19.392A7.778,7.778,0,0,1,27.017,59.484Zm0-10.28a3.57,3.57,0,1,1-3.57,3.57A3.574,3.574,0,0,1,27.017,49.2ZM16.641,66.444a1.963,1.963,0,0,0,1.96,2.113H35.433a1.963,1.963,0,0,0,1.961-2.113A10.453,10.453,0,0,0,30.959,57.6a6.235,6.235,0,1,0-7.884,0,10.447,10.447,0,0,0-6.435,8.84ZM81.765,64.02l.737.122-2.627-6.23-4.5,5.048,1.269.21a1.334,1.334,0,0,1,1.062,1.692A35.328,35.328,0,0,1,65.265,82.9a34.727,34.727,0,0,1-21.189,7.13A35.056,35.056,0,0,1,10.152,63.8H7.582a37.544,37.544,0,0,0,72.679,1.18,1.334,1.334,0,0,1,1.5-.961ZM85.9,65.335l-4.387-10.4a1.333,1.333,0,0,0-2.223-.368l-7.512,8.428a1.334,1.334,0,0,0,.777,2.2l2.135.353A32.563,32.563,0,0,1,44.076,87.362,32.193,32.193,0,0,1,12.5,62.173a1.334,1.334,0,0,0-1.3-1.038H5.929a1.332,1.332,0,0,0-1.31,1.588A40.253,40.253,0,0,0,44.076,95.188a39.8,39.8,0,0,0,24.557-8.373,40.5,40.5,0,0,0,13.862-19.97l1.957.323A1.333,1.333,0,0,0,85.9,65.335ZM5.779,49.913l-.98.033L8.6,55.537,12.017,49.7l-.958.033a1.332,1.332,0,0,1-1.354-1.592,35.045,35.045,0,0,1,69.023,1.612H81.25a37.541,37.541,0,0,0-74.2-.954,1.333,1.333,0,0,1-1.27,1.115Zm2.91,9.45h.045a1.333,1.333,0,0,0,1.105-.66l5.7-9.745a1.332,1.332,0,0,0-1.2-2l-1.65.057a32.379,32.379,0,0,1,63.543,4.23,1.331,1.331,0,0,0,1.323,1.18h5.191a1.333,1.333,0,0,0,1.327-1.465,40.207,40.207,0,0,0-79.466-3.67l-2.322.078a1.335,1.335,0,0,0-1.057,2.084l6.352,9.335a1.334,1.334,0,0,0,1.1.582Z" fill-rule="evenodd"/>
  </g>
</svg>
