<svg xmlns="http://www.w3.org/2000/svg" width="83" height="83" viewBox="0 0 83 83">
  <g id="Grupo_1173177" data-name="Grupo 1173177" transform="translate(-702.668 -2444.535)">
    <circle id="Elipse_13114" data-name="Elipse 13114" cx="41.5" cy="41.5" r="41.5" transform="translate(702.668 2444.535)" fill="#e2dacc"/>
    <g id="filled_outline" data-name="filled outline" transform="translate(699.579 2359.498)">
      <path id="Trazado_1037151" data-name="Trazado 1037151" d="M78.78,141.666a3.46,3.46,0,0,1-2.367,3.284l-6.283,1.272-1.546.274a45.777,45.777,0,0,1-8.046.7l-34.709-.037a1.306,1.306,0,0,1-1.119-1.977l.506-.843A2.614,2.614,0,0,0,25.586,143a2.642,2.642,0,0,0-.077-.633q-.142-.565-.228-1.14a12.39,12.39,0,0,1,.1-4.281l.814-4.071.514-2.568.521-3.123a2.986,2.986,0,0,1,3.134-2.49,3.039,3.039,0,0,1,2.664,2.1l.338,1.015a3.66,3.66,0,0,0,5.5,1.888l1.887-1.258a4.349,4.349,0,0,1-.266-5.861L42.628,120l.494.592a36.217,36.217,0,0,0,5.539,5.366q1.375,1.075,2.852,2.013.727.465,1.479.893t1.5.811c.091.047.183.094.275.139l7.216,3.608,3.122,1.56.585.234,1.109.444a12.275,12.275,0,0,0,5.27,1.2,8.054,8.054,0,0,1,5.17,1.878q.273.228.527.482a3.465,3.465,0,0,1,1.014,2.449Z" transform="translate(-7.063 -7.061)" fill="#eaeae8"/>
      <path id="Trazado_1037152" data-name="Trazado 1037152" d="M223.669,180.16l-3.468,2.312a4.024,4.024,0,0,1-3.793.36l-10.944-4.608a3.294,3.294,0,0,1-.891-5.515l2.068-1.809q1.375,1.075,2.852,2.014.727.465,1.479.893t1.5.811c.091.047.183.094.275.139l7.216,3.608,3.122,1.56Z" transform="translate(-165.041 -52.003)" fill="#cbcbcb"/>
      <g id="Grupo_1173176" data-name="Grupo 1173176" transform="translate(44.307 121.678)">
        <path id="Trazado_1037153" data-name="Trazado 1037153" d="M254.786,198.716a.937.937,0,0,1-.662-1.6l2.186-2.186a.937.937,0,0,1,1.324,1.324l-2.186,2.186A.934.934,0,0,1,254.786,198.716Z" transform="translate(-253.849 -194.657)" fill="#3775a4"/>
        <path id="Trazado_1037154" data-name="Trazado 1037154" d="M286.786,214.727a.937.937,0,0,1-.662-1.6l2.184-2.184a.937.937,0,1,1,1.324,1.324l-2.184,2.184A.934.934,0,0,1,286.786,214.727Z" transform="translate(-282.103 -208.795)" fill="#3775a4"/>
        <path id="Trazado_1037155" data-name="Trazado 1037155" d="M318.786,230.727a.937.937,0,0,1-.662-1.6l2.184-2.184a.937.937,0,0,1,1.324,1.324l-2.184,2.184A.934.934,0,0,1,318.786,230.727Z" transform="translate(-310.357 -222.922)" fill="#3775a4"/>
      </g>
      <path id="Trazado_1037156" data-name="Trazado 1037156" d="M47.274,236.737l-.937,2.81-13.083,1.963-3.328-3.217A12.265,12.265,0,0,1,30,234.178c.008-.056.02-.111.03-.166l.335-1.673.479-2.4.514.241,11.238,2.81Z" transform="translate(-11.709 -104.131)" fill="#4799cf"/>
      <path id="Trazado_1037157" data-name="Trazado 1037157" d="M40.03,253.416a.937.937,0,0,1-.907.709.951.951,0,0,1-.228-.028l-7.314-1.829c.008-.056.02-.111.03-.166l.335-1.673,7.4,1.851a.936.936,0,0,1,.681,1.135Z" transform="translate(-13.293 -122.223)" fill="#3775a4"/>
      <path id="Trazado_1037158" data-name="Trazado 1037158" d="M78.78,282.971a3.46,3.46,0,0,1-2.367,3.284l-6.283,1.272-1.546.274a45.78,45.78,0,0,1-8.046.7l-34.709-.037a1.306,1.306,0,0,1-1.119-1.977l.506-.843a2.614,2.614,0,0,0,.371-1.345,2.642,2.642,0,0,0-.077-.633q-.142-.565-.228-1.14a12.294,12.294,0,0,1-.135-1.494l8.674,1.735a52.15,52.15,0,0,0,10.224,1.013H66.605l2.245-2.81,8.388-.932q.274.228.528.482A3.465,3.465,0,0,1,78.78,282.971Z" transform="translate(-7.063 -148.366)" fill="#c7463b"/>
      <path id="Trazado_1037159" data-name="Trazado 1037159" d="M71.366,131.493c-.122-.122-.249-.239-.377-.354a.94.94,0,0,0-.38-.32,8.98,8.98,0,0,0-5.6-1.96,11.316,11.316,0,0,1-4.922-1.128l-1.1-.44,0,0-.554-.221-10.307-5.153c-.085-.042-.168-.085-.252-.128l-.006,0-.005,0c-.491-.251-.982-.517-1.462-.791-.5-.286-.984-.578-1.441-.87-.955-.607-1.889-1.267-2.778-1.961a35.349,35.349,0,0,1-5.4-5.228l-.494-.592a.937.937,0,0,0-1.439,0l-2.138,2.567a5.289,5.289,0,0,0-.385,6.249l-1.036.691a2.724,2.724,0,0,1-4.1-1.4l-.338-1.014a3.923,3.923,0,0,0-7.61.536l-.518,3.109L17.4,129.7a13.326,13.326,0,0,0-.251,2.957.948.948,0,0,0,0,.113,13.307,13.307,0,0,0,.386,2.763,1.667,1.667,0,0,1-.189,1.269l-.505.843a2.242,2.242,0,0,0,1.921,3.395l34.71.037h.051a46.871,46.871,0,0,0,8.148-.715l1.557-.276.023,0,6.283-1.272a.938.938,0,0,0,.109-.029,4.4,4.4,0,0,0,1.721-7.283Zm-25.9-8.876c.135.077.273.152.41.228l-1.294,1.294a.937.937,0,1,0,1.324,1.324l1.707-1.708,1.98.99-1.266,1.266a.937.937,0,1,0,1.324,1.324l1.707-1.707,1.98.99-1.266,1.266a.937.937,0,1,0,1.324,1.324L55.1,127.5l1.61.8L54.64,129.69a3.079,3.079,0,0,1-2.91.277l-10.943-4.607a2.358,2.358,0,0,1-.638-3.947l1.492-1.305c.748.559,1.521,1.095,2.306,1.594.48.307.991.616,1.519.917Zm-24.9.807c0-.01,0-.02.006-.03l.521-3.123a2.046,2.046,0,0,1,2.022-1.713c.043,0,.087,0,.13,0a2.113,2.113,0,0,1,1.834,1.457l.338,1.015a4.6,4.6,0,0,0,6.911,2.371l1.887-1.258a.937.937,0,0,0,.143-1.441,3.412,3.412,0,0,1-.208-4.6l1.42-1.705a37.24,37.24,0,0,0,4.577,4.525L38.915,120a4.231,4.231,0,0,0,1.144,7.083L51,131.692a4.948,4.948,0,0,0,4.676-.445l3.058-2.039.652.261a13.189,13.189,0,0,0,5.618,1.263,7.078,7.078,0,0,1,2.152.334l-5.473.608a.936.936,0,0,0-.628.346l-1.965,2.458H36.982q-.525,0-1.05-.012l.522-1.565a.936.936,0,0,0-.3-1.027l-4.683-3.746a.938.938,0,0,0-.358-.177L20.2,125.224Zm6.378,10.06L19.023,131.9a11.42,11.42,0,0,1,.174-1.627l6.4,1.6a.936.936,0,1,0,.454-1.817l-6.494-1.624.274-1.371,10.622,2.656,4.013,3.21-.487,1.461a51.319,51.319,0,0,1-7.042-.905Zm43.764,1.734a2.524,2.524,0,0,1-1.6,1.764l-6.212,1.258-1.536.272a45.076,45.076,0,0,1-7.88.688l-34.71-.037a.369.369,0,0,1-.316-.559l.505-.843a3.528,3.528,0,0,0,.4-2.686,11.309,11.309,0,0,1-.238-1.245l7.457,1.492a53.24,53.24,0,0,0,8.066.978h.009q1.167.052,2.333.053H59.543a.937.937,0,0,0,.732-.352l2-2.506,7.588-.843c.059.055.119.11.176.168a2.53,2.53,0,0,1,.664,2.4Z"/>
    </g>
  </g>
</svg>
