<svg xmlns="http://www.w3.org/2000/svg" width="83" height="83" viewBox="0 0 83 83">
  <g id="Grupo_1173333" data-name="Grupo 1173333" transform="translate(4303.383 8012.465)">
    <circle id="Elipse_13114" data-name="Elipse 13114" cx="41.5" cy="41.5" r="41.5" transform="translate(-4303.383 -8012.465)" fill="#e2dacc"/>
    <g id="Layer_9" transform="translate(-4287.507 -8006.166)">
      <g id="Grupo_1173332" data-name="Grupo 1173332" transform="translate(0 11.975)">
        <g id="Grupo_1173201" data-name="Grupo 1173201" transform="translate(5.079 0.5)">
          <g id="Grupo_1173200" data-name="Grupo 1173200">
            <path id="Trazado_1037209" data-name="Trazado 1037209" d="M29.628,14.482a4.51,4.51,0,0,0-1.553,8.637A2.437,2.437,0,0,1,29.3,24.33l.277.6a.334.334,0,0,0,.605,0l.277-.6a2.433,2.433,0,0,1,1.224-1.21,4.51,4.51,0,0,0-2.056-8.638Z" transform="translate(-25.369 -14.475)" fill="#5290db"/>
          </g>
        </g>
        <g id="Grupo_1173203" data-name="Grupo 1173203" transform="translate(16.488 0.5)">
          <g id="Grupo_1173202" data-name="Grupo 1173202">
            <path id="Trazado_1037210" data-name="Trazado 1037210" d="M86.621,14.482a4.51,4.51,0,0,0-1.553,8.637,2.437,2.437,0,0,1,1.226,1.211l.277.6a.334.334,0,0,0,.605,0l.277-.6a2.433,2.433,0,0,1,1.224-1.21,4.51,4.51,0,0,0-2.056-8.638Z" transform="translate(-82.362 -14.475)" fill="#5290db"/>
          </g>
        </g>
        <g id="Grupo_1173205" data-name="Grupo 1173205" transform="translate(27.897 0.5)">
          <g id="Grupo_1173204" data-name="Grupo 1173204">
            <path id="Trazado_1037211" data-name="Trazado 1037211" d="M143.613,14.481a4.51,4.51,0,0,0-1.553,8.637,2.437,2.437,0,0,1,1.226,1.211l.277.6a.334.334,0,0,0,.605,0l.277-.6a2.433,2.433,0,0,1,1.224-1.21,4.51,4.51,0,0,0-2.056-8.638Z" transform="translate(-139.354 -14.475)" fill="#5290db"/>
          </g>
        </g>
        <g id="Grupo_1173207" data-name="Grupo 1173207" transform="translate(1.609 13.912)">
          <g id="Grupo_1173206" data-name="Grupo 1173206">
            <path id="Trazado_1037212" data-name="Trazado 1037212" d="M53.706,97.414h1.225a.746.746,0,0,1,.206.032V96.73a6.486,6.486,0,0,0-.786-3.093,35.785,35.785,0,0,0-7.457-9.543,10.707,10.707,0,0,0-7.074-2.626H10.467A2.428,2.428,0,0,0,8.039,83.9v20.065h4.55a4.963,4.963,0,0,1,9.539,0H40.046a4.963,4.963,0,0,1,9.539,0h5.553v-2.144a.744.744,0,0,1-.206.032H53.707a.762.762,0,0,1-.76-.76V98.174A.762.762,0,0,1,53.706,97.414Z" transform="translate(-8.039 -81.468)" fill="#fc657e"/>
          </g>
        </g>
        <g id="Grupo_1173209" data-name="Grupo 1173209" transform="translate(4.965 31.795)">
          <g id="Grupo_1173208" data-name="Grupo 1173208" transform="translate(0 0)">
            <circle id="Elipse_13133" data-name="Elipse 13133" cx="4.963" cy="4.963" r="4.963" transform="translate(0 2.283) rotate(-13.3)" fill="#5b5d60"/>
          </g>
        </g>
        <g id="Grupo_1173211" data-name="Grupo 1173211" transform="translate(32.201 31.577)">
          <g id="Grupo_1173210" data-name="Grupo 1173210" transform="translate(0 0)">
            <circle id="Elipse_13134" data-name="Elipse 13134" cx="4.963" cy="4.963" r="4.963" transform="translate(0 2.879) rotate(-16.858)" fill="#5b5d60"/>
          </g>
        </g>
        <g id="Grupo_1173213" data-name="Grupo 1173213" transform="translate(0.5 36.405)">
          <g id="Grupo_1173212" data-name="Grupo 1173212">
            <path id="Trazado_1037213" data-name="Trazado 1037213" d="M8.159,193.83h-4.7a.957.957,0,0,0-.957.957v.726a.957.957,0,0,0,.957.957H8.129a4.969,4.969,0,0,1,.03-2.64Z" transform="translate(-2.5 -193.83)" fill="#dae6f1"/>
          </g>
        </g>
        <g id="Grupo_1173215" data-name="Grupo 1173215" transform="translate(15.698 36.405)">
          <g id="Grupo_1173214" data-name="Grupo 1173214">
            <path id="Trazado_1037214" data-name="Trazado 1037214" d="M96.335,193.83H78.417a4.969,4.969,0,0,1,.03,2.64H96.3a4.964,4.964,0,0,1,.03-2.64Z" transform="translate(-78.417 -193.83)" fill="#dae6f1"/>
          </g>
        </g>
        <g id="Grupo_1173217" data-name="Grupo 1173217" transform="translate(43.155 36.405)">
          <g id="Grupo_1173216" data-name="Grupo 1173216">
            <path id="Trazado_1037215" data-name="Trazado 1037215" d="M221.276,193.83h-5.7a4.966,4.966,0,0,1,.03,2.64h5.675a.957.957,0,0,0,.957-.957v-.726A.957.957,0,0,0,221.276,193.83Z" transform="translate(-215.571 -193.83)" fill="#dae6f1"/>
          </g>
        </g>
        <g id="Grupo_1173219" data-name="Grupo 1173219" transform="translate(6.973 0.534)">
          <g id="Grupo_1173218" data-name="Grupo 1173218" transform="translate(0 0)">
            <circle id="Elipse_13135" data-name="Elipse 13135" cx="1.85" cy="1.85" r="1.85" transform="translate(0 2.616) rotate(-45)" fill="#f9d0b4"/>
          </g>
        </g>
        <g id="Grupo_1173221" data-name="Grupo 1173221" transform="translate(5.884 5.891)">
          <g id="Grupo_1173220" data-name="Grupo 1173220">
            <path id="Trazado_1037216" data-name="Trazado 1037216" d="M34.176,41.4H32.019a3.025,3.025,0,0,0-2.628,1.688,4.527,4.527,0,0,0,1.9,1.566,2.436,2.436,0,0,1,1.226,1.211l.277.6a.334.334,0,0,0,.605,0l.277-.6a2.433,2.433,0,0,1,1.224-1.21,4.53,4.53,0,0,0,1.9-1.566A3.025,3.025,0,0,0,34.176,41.4Z" transform="translate(-29.391 -41.4)" fill="#70d6f9"/>
          </g>
        </g>
        <g id="Grupo_1173223" data-name="Grupo 1173223" transform="translate(18.77 0.917)">
          <g id="Grupo_1173222" data-name="Grupo 1173222" transform="translate(0)">
            <circle id="Elipse_13136" data-name="Elipse 13136" cx="1.85" cy="1.85" r="1.85" transform="translate(0 0.851) rotate(-13.3)" fill="#f9d0b4"/>
          </g>
        </g>
        <g id="Grupo_1173225" data-name="Grupo 1173225" transform="translate(17.293 5.891)">
          <g id="Grupo_1173224" data-name="Grupo 1173224">
            <path id="Trazado_1037217" data-name="Trazado 1037217" d="M91.169,41.4H89.012a3.025,3.025,0,0,0-2.628,1.688,4.527,4.527,0,0,0,1.9,1.566,2.436,2.436,0,0,1,1.226,1.211l.277.6a.334.334,0,0,0,.605,0l.277-.6a2.433,2.433,0,0,1,1.224-1.21,4.53,4.53,0,0,0,1.9-1.566A3.025,3.025,0,0,0,91.169,41.4Z" transform="translate(-86.384 -41.4)" fill="#fc657e"/>
          </g>
        </g>
        <g id="Grupo_1173227" data-name="Grupo 1173227" transform="translate(29.872 0.592)">
          <g id="Grupo_1173226" data-name="Grupo 1173226" transform="translate(0)">
            <circle id="Elipse_13137" data-name="Elipse 13137" cx="1.85" cy="1.85" r="1.85" transform="translate(0 3.149) rotate(-58.28)" fill="#f9d0b4"/>
          </g>
        </g>
        <g id="Grupo_1173229" data-name="Grupo 1173229" transform="translate(28.702 5.891)">
          <g id="Grupo_1173228" data-name="Grupo 1173228">
            <path id="Trazado_1037218" data-name="Trazado 1037218" d="M148.162,41.4H146a3.025,3.025,0,0,0-2.628,1.688,4.527,4.527,0,0,0,1.9,1.566,2.436,2.436,0,0,1,1.226,1.211l.277.6a.334.334,0,0,0,.605,0l.277-.6a2.433,2.433,0,0,1,1.224-1.21,4.53,4.53,0,0,0,1.9-1.566,3.024,3.024,0,0,0-2.628-1.688Z" transform="translate(-143.376 -41.4)" fill="#87d147"/>
          </g>
        </g>
        <g id="Grupo_1173231" data-name="Grupo 1173231" transform="translate(8.605 35.455)">
          <g id="Grupo_1173230" data-name="Grupo 1173230">
            <circle id="Elipse_13138" data-name="Elipse 13138" cx="2.323" cy="2.323" r="2.323" fill="#dae6f1"/>
          </g>
        </g>
        <g id="Grupo_1173233" data-name="Grupo 1173233" transform="translate(36.062 35.455)">
          <g id="Grupo_1173232" data-name="Grupo 1173232">
            <path id="Trazado_1037219" data-name="Trazado 1037219" d="M182.464,189.082a2.323,2.323,0,1,0,2.323,2.323A2.326,2.326,0,0,0,182.464,189.082Z" transform="translate(-180.141 -189.082)" fill="#dae6f1"/>
          </g>
        </g>
        <g id="Grupo_1173235" data-name="Grupo 1173235" transform="translate(46.517 29.858)">
          <g id="Grupo_1173234" data-name="Grupo 1173234">
            <path id="Trazado_1037220" data-name="Trazado 1037220" d="M234.35,161.124h-1.225a.762.762,0,0,0-.76.76V164.8a.762.762,0,0,0,.76.76h1.225a.762.762,0,0,0,.76-.76v-2.915A.762.762,0,0,0,234.35,161.124Z" transform="translate(-232.365 -161.124)" fill="#f5c84c"/>
          </g>
        </g>
        <g id="Grupo_1173237" data-name="Grupo 1173237" transform="translate(16.948 16.024)">
          <g id="Grupo_1173236" data-name="Grupo 1173236">
            <path id="Trazado_1037221" data-name="Trazado 1037221" d="M96.395,92.019H85.387a.727.727,0,0,0-.727.727v9a.727.727,0,0,0,.727.727H96.394a.727.727,0,0,0,.727-.727v-9A.727.727,0,0,0,96.395,92.019Z" transform="translate(-84.66 -92.019)" fill="#5290db"/>
          </g>
        </g>
        <g id="Grupo_1173239" data-name="Grupo 1173239" transform="translate(3.721 16.024)">
          <g id="Grupo_1173238" data-name="Grupo 1173238">
            <path id="Trazado_1037222" data-name="Trazado 1037222" d="M28.977,92.019H19.316a.727.727,0,0,0-.727.727v9a.727.727,0,0,0,.727.727h9.661a.727.727,0,0,0,.727-.727v-9A.727.727,0,0,0,28.977,92.019Z" transform="translate(-18.589 -92.019)" fill="#5290db"/>
          </g>
        </g>
        <g id="Grupo_1173241" data-name="Grupo 1173241" transform="translate(31.521 16.024)">
          <g id="Grupo_1173240" data-name="Grupo 1173240">
            <path id="Trazado_1037223" data-name="Trazado 1037223" d="M165.007,94.12a8.585,8.585,0,0,0-5.68-2.1h-1.143a.727.727,0,0,0-.727.727v9a.727.727,0,0,0,.727.727h8.989V100.7a.762.762,0,0,1,.76-.76h2.144A31.238,31.238,0,0,0,165.007,94.12Z" transform="translate(-157.457 -92.019)" fill="#5290db"/>
          </g>
        </g>
        <g id="Grupo_1173243" data-name="Grupo 1173243" transform="translate(41.237 23.944)">
          <g id="Grupo_1173242" data-name="Grupo 1173242">
            <path id="Trazado_1037224" data-name="Trazado 1037224" d="M209.876,131.583H206.75a.762.762,0,0,0-.76.76V134.2a.762.762,0,0,0,.76.76h3.126a.762.762,0,0,0,.76-.76v-1.859A.762.762,0,0,0,209.876,131.583Z" transform="translate(-205.99 -131.583)" fill="#dae6f1"/>
          </g>
        </g>
        <g id="Grupo_1173245" data-name="Grupo 1173245" transform="translate(31.521 16.024)">
          <g id="Grupo_1173244" data-name="Grupo 1173244">
            <path id="Trazado_1037225" data-name="Trazado 1037225" d="M165.007,94.12a8.585,8.585,0,0,0-5.68-2.1h-1.143a.727.727,0,0,0-.727.727v1.39h2.112a6.452,6.452,0,0,1,4.044,1.571q.784.689,1.539,1.478a1.75,1.75,0,0,0,1.264.537h2.013a29.1,29.1,0,0,0-3.423-3.6Z" transform="translate(-157.457 -92.019)" fill="#6cadef"/>
          </g>
        </g>
        <g id="Grupo_1173247" data-name="Grupo 1173247" transform="translate(3.721 16.024)">
          <g id="Grupo_1173246" data-name="Grupo 1173246">
            <path id="Trazado_1037226" data-name="Trazado 1037226" d="M28.977,92.019H19.316a.727.727,0,0,0-.727.727v1.39H29.7v-1.39A.727.727,0,0,0,28.977,92.019Z" transform="translate(-18.589 -92.019)" fill="#6cadef"/>
          </g>
        </g>
        <g id="Grupo_1173249" data-name="Grupo 1173249" transform="translate(16.948 16.024)">
          <g id="Grupo_1173248" data-name="Grupo 1173248">
            <path id="Trazado_1037227" data-name="Trazado 1037227" d="M96.395,92.019H85.387a.727.727,0,0,0-.727.727v1.39H97.121v-1.39A.727.727,0,0,0,96.395,92.019Z" transform="translate(-84.66 -92.019)" fill="#6cadef"/>
          </g>
        </g>
        <g id="Grupo_1173251" data-name="Grupo 1173251" transform="translate(0 9.119)">
          <g id="Grupo_1173250" data-name="Grupo 1173250">
            <path id="Trazado_1037228" data-name="Trazado 1037228" d="M2.578,58.769a1.559,1.559,0,0,1-1.25-1.222c0-.028-.056-.028-.056,0a1.558,1.558,0,0,1-1.25,1.222c-.028,0-.028.042,0,.056a1.559,1.559,0,0,1,1.25,1.222c0,.028.056.028.056,0a1.558,1.558,0,0,1,1.25-1.222c.028-.014.028-.056,0-.056Z" transform="translate(0 -57.526)" fill="#6c8bb1"/>
          </g>
        </g>
        <g id="Grupo_1173253" data-name="Grupo 1173253" transform="translate(44.342 12.892)">
          <g id="Grupo_1173252" data-name="Grupo 1173252">
            <path id="Trazado_1037229" data-name="Trazado 1037229" d="M224.343,77.473h-.46v-.46a.645.645,0,0,0-.641-.641.632.632,0,0,0-.641.641v.46h-.46a.645.645,0,0,0-.641.641.632.632,0,0,0,.641.641h.46v.46a.645.645,0,0,0,.641.641.632.632,0,0,0,.641-.641v-.46h.46a.645.645,0,0,0,.641-.641A.632.632,0,0,0,224.343,77.473Z" transform="translate(-221.5 -76.372)" fill="#997b4d"/>
          </g>
        </g>
        <g id="Grupo_1173255" data-name="Grupo 1173255" transform="translate(49.887 19.669)">
          <g id="Grupo_1173254" data-name="Grupo 1173254">
            <path id="Trazado_1037230" data-name="Trazado 1037230" d="M249.881,110.225a.681.681,0,1,0,.681.681A.681.681,0,0,0,249.881,110.225Z" transform="translate(-249.2 -110.225)" fill="#cca467"/>
          </g>
        </g>
        <g id="Grupo_1173257" data-name="Grupo 1173257" transform="translate(3.947 29.357)">
          <g id="Grupo_1173256" data-name="Grupo 1173256">
            <path id="Trazado_1037231" data-name="Trazado 1037231" d="M44.454,158.624H20.219a.5.5,0,0,0,0,1H44.454a.5.5,0,1,0,0-1Z" transform="translate(-19.719 -158.624)"/>
          </g>
        </g>
        <g id="Grupo_1173259" data-name="Grupo 1173259" transform="translate(31.747 29.357)">
          <g id="Grupo_1173258" data-name="Grupo 1173258">
            <path id="Trazado_1037232" data-name="Trazado 1037232" d="M161.952,158.624h-2.864a.5.5,0,1,0,0,1h2.864a.5.5,0,0,0,0-1Z" transform="translate(-158.588 -158.624)"/>
          </g>
        </g>
        <g id="Grupo_1173262" data-name="Grupo 1173262" transform="translate(4.578 0)">
          <g id="Grupo_1173261" data-name="Grupo 1173261">
            <g id="Grupo_1173260" data-name="Grupo 1173260">
              <path id="Trazado_1037233" data-name="Trazado 1037233" d="M31.327,13.348a5.011,5.011,0,1,0-5.452,8.23,1.933,1.933,0,0,1,.973.964l.277.6a.834.834,0,0,0,1.512,0l.277-.6a1.927,1.927,0,0,1,.97-.963,5.01,5.01,0,0,0,1.443-8.231Zm-1.843,7.314a2.928,2.928,0,0,0-1.478,1.458l-.126.27-.126-.27a2.932,2.932,0,0,0-1.48-1.459,4,4,0,0,1-2.406-3.716,4.066,4.066,0,0,1,3.786-3.962q.114-.006.227-.006a4.01,4.01,0,0,1,1.6,7.686Z" transform="translate(-22.869 -11.975)"/>
            </g>
          </g>
        </g>
        <g id="Grupo_1173265" data-name="Grupo 1173265" transform="translate(15.987)">
          <g id="Grupo_1173264" data-name="Grupo 1173264">
            <g id="Grupo_1173263" data-name="Grupo 1173263">
              <path id="Trazado_1037234" data-name="Trazado 1037234" d="M88.319,13.347a5.012,5.012,0,1,0-5.452,8.231,1.932,1.932,0,0,1,.973.964l.277.6a.827.827,0,0,0,.756.482h0a.826.826,0,0,0,.756-.483l.276-.6a1.929,1.929,0,0,1,.971-.963,5.01,5.01,0,0,0,1.443-8.231Zm-1.843,7.314A2.93,2.93,0,0,0,85,22.119l-.125.27-.126-.27a2.932,2.932,0,0,0-1.48-1.459,4,4,0,0,1-2.406-3.716,4.066,4.066,0,0,1,3.786-3.962q.114-.006.227-.006a4.01,4.01,0,0,1,1.6,7.686Z" transform="translate(-79.861 -11.975)"/>
            </g>
          </g>
        </g>
        <g id="Grupo_1173268" data-name="Grupo 1173268" transform="translate(27.396 0)">
          <g id="Grupo_1173267" data-name="Grupo 1173267">
            <g id="Grupo_1173266" data-name="Grupo 1173266">
              <path id="Trazado_1037235" data-name="Trazado 1037235" d="M145.312,13.347a5.011,5.011,0,1,0-5.452,8.231,1.932,1.932,0,0,1,.973.964l.277.6a.834.834,0,0,0,1.513,0l.276-.6a1.93,1.93,0,0,1,.971-.963,5.01,5.01,0,0,0,1.443-8.232Zm-1.843,7.314a2.931,2.931,0,0,0-1.478,1.458l-.125.27-.126-.27a2.933,2.933,0,0,0-1.48-1.459,4,4,0,0,1-2.406-3.716,4.066,4.066,0,0,1,3.786-3.962q.114-.006.227-.006a4.01,4.01,0,0,1,1.6,7.686Z" transform="translate(-136.854 -11.975)"/>
            </g>
          </g>
        </g>
        <g id="Grupo_1173270" data-name="Grupo 1173270" transform="translate(26.104 41.398)">
          <g id="Grupo_1173269" data-name="Grupo 1173269">
            <path id="Trazado_1037236" data-name="Trazado 1037236" d="M134.073,220.544a2.221,2.221,0,0,1-1.782-1.742c0-.04-.08-.04-.08,0a2.221,2.221,0,0,1-1.782,1.742c-.04,0-.04.06,0,.08a2.221,2.221,0,0,1,1.782,1.742c0,.04.08.04.08,0a2.221,2.221,0,0,1,1.782-1.742C134.113,220.6,134.113,220.544,134.073,220.544Z" transform="translate(-130.4 -218.772)" fill="#997b4d"/>
          </g>
        </g>
        <g id="Grupo_1173272" data-name="Grupo 1173272" transform="translate(33.261 45.092)">
          <g id="Grupo_1173271" data-name="Grupo 1173271">
            <path id="Trazado_1037237" data-name="Trazado 1037237" d="M166.831,237.225a.681.681,0,1,0,.681.681A.681.681,0,0,0,166.831,237.225Z" transform="translate(-166.15 -237.225)" fill="#997b4d"/>
          </g>
        </g>
        <g id="Grupo_1173274" data-name="Grupo 1173274" transform="translate(48.207 33.887)">
          <g id="Grupo_1173273" data-name="Grupo 1173273">
            <path id="Trazado_1037238" data-name="Trazado 1037238" d="M241.311,181.25a.5.5,0,0,0-.5.5v1.877a.5.5,0,1,0,1,0V181.75A.5.5,0,0,0,241.311,181.25Z" transform="translate(-240.811 -181.25)"/>
          </g>
        </g>
        <g id="Grupo_1173276" data-name="Grupo 1173276" transform="translate(1.109 13.412)">
          <g id="Grupo_1173275" data-name="Grupo 1173275">
            <path id="Trazado_1037239" data-name="Trazado 1037239" d="M52.792,91.4a36.355,36.355,0,0,0-7.566-9.68,11.2,11.2,0,0,0-7.4-2.75H8.468A2.932,2.932,0,0,0,5.539,81.9v19.932a.5.5,0,1,0,1,0V81.9a1.93,1.93,0,0,1,1.928-1.928H37.821a10.2,10.2,0,0,1,6.744,2.5,35.334,35.334,0,0,1,7.347,9.405,6.007,6.007,0,0,1,.725,2.854v.6a.5.5,0,1,0,1,0v-.6A7.009,7.009,0,0,0,52.792,91.4Z" transform="translate(-5.539 -78.97)"/>
          </g>
        </g>
        <g id="Grupo_1173279" data-name="Grupo 1173279" transform="translate(5.465 32.314)">
          <g id="Grupo_1173278" data-name="Grupo 1173278">
            <g id="Grupo_1173277" data-name="Grupo 1173277">
              <path id="Trazado_1037240" data-name="Trazado 1037240" d="M32.763,173.4a5.464,5.464,0,1,0,5.464,5.464A5.47,5.47,0,0,0,32.763,173.4Zm0,9.926a4.463,4.463,0,1,1,4.463-4.463A4.468,4.468,0,0,1,32.763,183.322Z" transform="translate(-27.299 -173.395)"/>
            </g>
          </g>
        </g>
        <g id="Grupo_1173282" data-name="Grupo 1173282" transform="translate(32.921 32.314)">
          <g id="Grupo_1173281" data-name="Grupo 1173281">
            <g id="Grupo_1173280" data-name="Grupo 1173280">
              <path id="Trazado_1037241" data-name="Trazado 1037241" d="M169.917,173.4a5.464,5.464,0,1,0,5.464,5.464A5.47,5.47,0,0,0,169.917,173.4Zm0,9.926a4.463,4.463,0,1,1,4.463-4.463A4.468,4.468,0,0,1,169.917,183.322Z" transform="translate(-164.453 -173.395)"/>
            </g>
          </g>
        </g>
        <g id="Grupo_1173284" data-name="Grupo 1173284" transform="translate(0 35.905)">
          <g id="Grupo_1173283" data-name="Grupo 1173283">
            <path id="Trazado_1037242" data-name="Trazado 1037242" d="M5.965,193.97H1.458A.457.457,0,0,1,1,193.513v-.726a.457.457,0,0,1,.457-.457H6.031a.5.5,0,0,0,0-1H1.458A1.459,1.459,0,0,0,0,192.788v.726a1.459,1.459,0,0,0,1.458,1.458H5.965a.5.5,0,0,0,0-1Z" transform="translate(0 -191.33)"/>
          </g>
        </g>
        <g id="Grupo_1173286" data-name="Grupo 1173286" transform="translate(15.321 35.905)">
          <g id="Grupo_1173285" data-name="Grupo 1173285">
            <path id="Trazado_1037243" data-name="Trazado 1037243" d="M94.632,191.33h-17.6a.5.5,0,0,0,0,1h17.6a.5.5,0,1,0,0-1Z" transform="translate(-76.531 -191.33)"/>
          </g>
        </g>
        <g id="Grupo_1173288" data-name="Grupo 1173288" transform="translate(15.339 38.545)">
          <g id="Grupo_1173287" data-name="Grupo 1173287">
            <path id="Trazado_1037244" data-name="Trazado 1037244" d="M94.708,204.518H77.125a.5.5,0,1,0,0,1H94.708a.5.5,0,0,0,0-1Z" transform="translate(-76.625 -204.518)"/>
          </g>
        </g>
        <g id="Grupo_1173290" data-name="Grupo 1173290" transform="translate(42.848 35.905)">
          <g id="Grupo_1173289" data-name="Grupo 1173289">
            <path id="Trazado_1037245" data-name="Trazado 1037245" d="M220.051,191.33H214.54a.5.5,0,1,0,0,1h5.511a.457.457,0,0,1,.456.457v.726a.457.457,0,0,1-.456.457H214.54a.5.5,0,1,0,0,1h5.511a1.459,1.459,0,0,0,1.457-1.458v-.726A1.459,1.459,0,0,0,220.051,191.33Z" transform="translate(-214.04 -191.33)"/>
          </g>
        </g>
        <g id="Grupo_1173293" data-name="Grupo 1173293" transform="translate(7.24 0.799)">
          <g id="Grupo_1173292" data-name="Grupo 1173292">
            <g id="Grupo_1173291" data-name="Grupo 1173291">
              <path id="Trazado_1037246" data-name="Trazado 1037246" d="M38.516,15.967a2.351,2.351,0,1,0,2.351,2.351A2.353,2.353,0,0,0,38.516,15.967Zm0,3.7a1.35,1.35,0,1,1,1.35-1.35A1.351,1.351,0,0,1,38.516,19.667Z" transform="translate(-36.166 -15.967)"/>
            </g>
          </g>
        </g>
        <g id="Grupo_1173295" data-name="Grupo 1173295" transform="translate(5.444 5.39)">
          <g id="Grupo_1173294" data-name="Grupo 1173294">
            <path id="Trazado_1037247" data-name="Trazado 1037247" d="M35.36,40.628a3.487,3.487,0,0,0-2.94-1.727H30.263a3.49,3.49,0,0,0-3,1.828.5.5,0,1,0,.866.5A2.5,2.5,0,0,1,30.263,39.9h2.158a2.5,2.5,0,0,1,2.089,1.253.5.5,0,1,0,.851-.527Z" transform="translate(-27.196 -38.901)"/>
          </g>
        </g>
        <g id="Grupo_1173298" data-name="Grupo 1173298" transform="translate(18.649 0.799)">
          <g id="Grupo_1173297" data-name="Grupo 1173297">
            <g id="Grupo_1173296" data-name="Grupo 1173296">
              <path id="Trazado_1037248" data-name="Trazado 1037248" d="M95.509,15.967a2.351,2.351,0,1,0,2.351,2.351A2.353,2.353,0,0,0,95.509,15.967Zm0,3.7a1.35,1.35,0,1,1,1.35-1.35A1.351,1.351,0,0,1,95.509,19.667Z" transform="translate(-93.158 -15.967)"/>
            </g>
          </g>
        </g>
        <g id="Grupo_1173300" data-name="Grupo 1173300" transform="translate(16.861 5.39)">
          <g id="Grupo_1173299" data-name="Grupo 1173299">
            <path id="Trazado_1037249" data-name="Trazado 1037249" d="M92.409,40.668A3.489,3.489,0,0,0,89.445,38.9H87.287A3.489,3.489,0,0,0,84.3,40.713a.5.5,0,1,0,.864.506A2.5,2.5,0,0,1,87.287,39.9h2.157a2.5,2.5,0,0,1,2.107,1.284.5.5,0,0,0,.857-.517Z" transform="translate(-84.228 -38.9)"/>
          </g>
        </g>
        <g id="Grupo_1173303" data-name="Grupo 1173303" transform="translate(30.059 0.799)">
          <g id="Grupo_1173302" data-name="Grupo 1173302">
            <g id="Grupo_1173301" data-name="Grupo 1173301">
              <path id="Trazado_1037250" data-name="Trazado 1037250" d="M152.5,15.967a2.351,2.351,0,1,0,2.351,2.351A2.353,2.353,0,0,0,152.5,15.967Zm0,3.7a1.35,1.35,0,1,1,1.35-1.35A1.351,1.351,0,0,1,152.5,19.667Z" transform="translate(-150.152 -15.967)"/>
            </g>
          </g>
        </g>
        <g id="Grupo_1173305" data-name="Grupo 1173305" transform="translate(28.26 5.39)">
          <g id="Grupo_1173304" data-name="Grupo 1173304">
            <path id="Trazado_1037251" data-name="Trazado 1037251" d="M149.4,40.734a3.49,3.49,0,0,0-3-1.833h-2.157a3.49,3.49,0,0,0-3,1.833.5.5,0,0,0,.866.5,2.5,2.5,0,0,1,2.136-1.333H146.4a2.5,2.5,0,0,1,2.137,1.333.5.5,0,1,0,.866-.5Z" transform="translate(-141.169 -38.901)"/>
          </g>
        </g>
        <g id="Grupo_1173308" data-name="Grupo 1173308" transform="translate(8.105 34.954)">
          <g id="Grupo_1173307" data-name="Grupo 1173307">
            <g id="Grupo_1173306" data-name="Grupo 1173306">
              <path id="Trazado_1037252" data-name="Trazado 1037252" d="M43.311,186.583a2.824,2.824,0,1,0,2.824,2.824A2.827,2.827,0,0,0,43.311,186.583Zm0,4.646a1.823,1.823,0,1,1,1.823-1.823A1.824,1.824,0,0,1,43.311,191.229Z" transform="translate(-40.488 -186.583)"/>
            </g>
          </g>
        </g>
        <g id="Grupo_1173311" data-name="Grupo 1173311" transform="translate(35.562 34.954)">
          <g id="Grupo_1173310" data-name="Grupo 1173310">
            <g id="Grupo_1173309" data-name="Grupo 1173309">
              <path id="Trazado_1037253" data-name="Trazado 1037253" d="M180.465,186.583a2.824,2.824,0,1,0,2.824,2.824A2.827,2.827,0,0,0,180.465,186.583Zm0,4.646a1.823,1.823,0,1,1,1.823-1.823A1.825,1.825,0,0,1,180.465,191.229Z" transform="translate(-177.641 -186.583)"/>
            </g>
          </g>
        </g>
        <g id="Grupo_1173314" data-name="Grupo 1173314" transform="translate(46.016 29.357)">
          <g id="Grupo_1173313" data-name="Grupo 1173313">
            <g id="Grupo_1173312" data-name="Grupo 1173312">
              <path id="Trazado_1037254" data-name="Trazado 1037254" d="M232.351,158.624h-1.225a1.262,1.262,0,0,0-1.261,1.261V162.8a1.262,1.262,0,0,0,1.261,1.261h1.225a1.262,1.262,0,0,0,1.261-1.261v-2.915A1.262,1.262,0,0,0,232.351,158.624Zm.26,4.176a.263.263,0,0,1-.26.26h-1.225a.263.263,0,0,1-.26-.26v-2.915a.263.263,0,0,1,.26-.26h1.225a.263.263,0,0,1,.26.26Z" transform="translate(-229.865 -158.624)"/>
            </g>
          </g>
        </g>
        <g id="Grupo_1173317" data-name="Grupo 1173317" transform="translate(16.447 15.524)">
          <g id="Grupo_1173316" data-name="Grupo 1173316">
            <g id="Grupo_1173315" data-name="Grupo 1173315">
              <path id="Trazado_1037255" data-name="Trazado 1037255" d="M94.395,89.52H83.387a1.229,1.229,0,0,0-1.227,1.227v9a1.229,1.229,0,0,0,1.227,1.227H94.395a1.229,1.229,0,0,0,1.227-1.227v-9a1.229,1.229,0,0,0-1.227-1.227Zm.226,10.228a.226.226,0,0,1-.226.226H83.387a.226.226,0,0,1-.226-.226v-9a.226.226,0,0,1,.226-.226H94.395a.226.226,0,0,1,.226.226Z" transform="translate(-82.16 -89.52)"/>
            </g>
          </g>
        </g>
        <g id="Grupo_1173320" data-name="Grupo 1173320" transform="translate(3.221 15.524)">
          <g id="Grupo_1173319" data-name="Grupo 1173319">
            <g id="Grupo_1173318" data-name="Grupo 1173318">
              <path id="Trazado_1037256" data-name="Trazado 1037256" d="M26.977,89.52H17.316a1.229,1.229,0,0,0-1.227,1.227v9a1.229,1.229,0,0,0,1.227,1.227h9.661A1.229,1.229,0,0,0,28.2,99.748v-9a1.229,1.229,0,0,0-1.227-1.227ZM27.2,99.748a.226.226,0,0,1-.226.226H17.316a.226.226,0,0,1-.226-.226v-9a.226.226,0,0,1,.226-.226h9.661a.226.226,0,0,1,.226.226Z" transform="translate(-16.089 -89.52)"/>
            </g>
          </g>
        </g>
        <g id="Grupo_1173322" data-name="Grupo 1173322" transform="translate(31.021 15.524)">
          <g id="Grupo_1173321" data-name="Grupo 1173321">
            <path id="Trazado_1037257" data-name="Trazado 1037257" d="M168.378,97.494a31.364,31.364,0,0,0-5.04-5.749,9.086,9.086,0,0,0-6.01-2.225h-1.143a1.229,1.229,0,0,0-1.227,1.227v9a1.229,1.229,0,0,0,1.227,1.227H164.9a.5.5,0,0,0,0-1h-8.716a.227.227,0,0,1-.226-.226v-9a.227.227,0,0,1,.226-.226h1.143a8.084,8.084,0,0,1,5.35,1.976,30.348,30.348,0,0,1,4.877,5.566.5.5,0,0,0,.823-.569Z" transform="translate(-154.958 -89.52)"/>
          </g>
        </g>
        <g id="Grupo_1173325" data-name="Grupo 1173325" transform="translate(40.736 23.444)">
          <g id="Grupo_1173324" data-name="Grupo 1173324">
            <g id="Grupo_1173323" data-name="Grupo 1173323">
              <path id="Trazado_1037258" data-name="Trazado 1037258" d="M207.876,129.083H204.75a1.262,1.262,0,0,0-1.261,1.261V132.2a1.262,1.262,0,0,0,1.261,1.261h3.126a1.262,1.262,0,0,0,1.261-1.261v-1.859A1.262,1.262,0,0,0,207.876,129.083Zm.26,3.12a.263.263,0,0,1-.26.26H204.75a.263.263,0,0,1-.26-.26v-1.859a.263.263,0,0,1,.26-.26h3.126a.263.263,0,0,1,.26.26Z" transform="translate(-203.489 -129.083)"/>
            </g>
          </g>
        </g>
        <g id="Grupo_1173327" data-name="Grupo 1173327" transform="translate(31.254 17.64)">
          <g id="Grupo_1173326" data-name="Grupo 1173326">
            <path id="Trazado_1037259" data-name="Trazado 1037259" d="M167.293,103.676h-1.942a1.254,1.254,0,0,1-.9-.383c-.515-.538-1.044-1.045-1.571-1.508a6.985,6.985,0,0,0-4.374-1.7h-1.878a.5.5,0,0,0,0,1h1.861a5.973,5.973,0,0,1,3.732,1.447c.505.444,1.013.931,1.508,1.448a2.261,2.261,0,0,0,1.626.691h1.942a.5.5,0,0,0,0-1Z" transform="translate(-156.124 -100.09)"/>
          </g>
        </g>
        <g id="Grupo_1173329" data-name="Grupo 1173329" transform="translate(3.416 17.64)">
          <g id="Grupo_1173328" data-name="Grupo 1173328">
            <path id="Trazado_1037260" data-name="Trazado 1037260" d="M28.261,100.091h-10.7a.5.5,0,1,0,0,1h10.7a.5.5,0,1,0,0-1Z" transform="translate(-17.063 -100.091)"/>
          </g>
        </g>
        <g id="Grupo_1173331" data-name="Grupo 1173331" transform="translate(16.691 17.64)">
          <g id="Grupo_1173330" data-name="Grupo 1173330">
            <path id="Trazado_1037261" data-name="Trazado 1037261" d="M95.862,100.091H83.875a.5.5,0,1,0,0,1H95.862a.5.5,0,0,0,0-1Z" transform="translate(-83.375 -100.091)"/>
          </g>
        </g>
      </g>
    </g>
  </g>
</svg>
