<svg height="74.218" viewBox="0 0 74.218 74.218" width="74.218" xmlns="http://www.w3.org/2000/svg"><rect fill="#706c65" height="74.218" rx="37" width="74.218"/><rect fill="#f3f0ea" height="65.736" rx="32.868" width="65.736" x="4.236" y="4.095"/><path d="m91.866 88.553-7.252-7.253a3.234 3.234 0 0 0 -2.287-.947h-12.566a3.234 3.234 0 0 0 -2.287.947l-31.067 31.068a2.156 2.156 0 0 0 0 3.049l21.343 21.343a2.156 2.156 0 0 0 3.049 0l31.068-31.068a3.233 3.233 0 0 0 .947-2.287v-12.565a3.233 3.233 0 0 0 -.948-2.287zm-8.528 5.847a3.234 3.234 0 1 1 0-4.573 3.234 3.234 0 0 1 0 4.573z" fill="#ff8086" transform="translate(-28.28 -68.37)"/><path d="m123.786 226.254-13.572-13.572a2.261 2.261 0 0 0 -3.2 0l-13.569 13.572a2.261 2.261 0 0 0 0 3.2l13.572 13.572 3.978-.78 12.792-12.791a2.261 2.261 0 0 0 -.001-3.201z" fill="#fff" transform="translate(-77.621 -182.33)"/><path d="m41.837 116.179a3.234 3.234 0 0 1 0-4.573l31.252-31.253h-3.329a3.234 3.234 0 0 0 -2.287.947l-31.067 31.068a2.156 2.156 0 0 0 0 3.049l21.343 21.343a2.156 2.156 0 0 0 3.049 0l.81-.81z" fill="#e5646e" transform="translate(-28.279 -68.37)"/><path d="m110.994 213.463-.78-.78a2.261 2.261 0 0 0 -3.2 0l-13.57 13.572a2.261 2.261 0 0 0 0 3.2l13.572 13.572a2.261 2.261 0 0 0 3.2 0l.78-.78-13.556-13.557a1.183 1.183 0 0 1 0-1.673z" fill="#faf5dc" transform="translate(-77.62 -182.331)"/><path d="m140.963 318.31 9.147 9.147a1.009 1.009 0 1 0 1.426-1.426l-9.147-9.147a1.009 1.009 0 1 0 -1.426 1.426z" transform="translate(-119.067 -272.837)"/><path d="m179.165 299.41a1.009 1.009 0 0 0 .713-1.722l-9.147-9.147a1.009 1.009 0 1 0 -1.426 1.426l9.147 9.147a1 1 0 0 0 .713.296z" transform="translate(-143.598 -248.306)"/><path d="m207.507 271.07a1.009 1.009 0 0 0 .713-1.722l-9.147-9.147a1.009 1.009 0 1 0 -1.426 1.426l9.147 9.147a1.006 1.006 0 0 0 .713.296z" transform="translate(-168.128 -223.777)"/><path d="m98.263 231.861a1.009 1.009 0 0 0 -1.426 0l-10.6 10.6a3.27 3.27 0 0 0 0 4.624l13.572 13.572a3.27 3.27 0 0 0 4.624 0 1.009 1.009 0 0 0 -1.426-1.426 1.253 1.253 0 0 1 -1.771 0l-13.57-13.575a1.252 1.252 0 0 1 0-1.771l10.6-10.6a1.008 1.008 0 0 0 -.003-1.424z" transform="translate(-71.13 -199.248)"/><path d="m198.31 234.565a1 1 0 0 0 .713-.3l10.6-10.6a3.274 3.274 0 0 0 0-4.624l-13.572-13.572a3.27 3.27 0 0 0 -4.624 0 1.009 1.009 0 0 0 1.426 1.426 1.252 1.252 0 0 1 1.771 0l13.572 13.572a1.253 1.253 0 0 1 0 1.771l-10.6 10.6a1.009 1.009 0 0 0 .713 1.722z" transform="translate(-162.743 -175.839)"/><path d="m89.018 3.95a6.3 6.3 0 0 0 -5.911-3.95 9.567 9.567 0 0 0 -9.556 9.556v8.893a4.245 4.245 0 1 0 2.017 0v-6.635h.267a2.211 2.211 0 0 1 1.574.652l7.253 7.253a2.211 2.211 0 0 1 .652 1.574v12.565a2.21 2.21 0 0 1 -.652 1.574l-31.068 31.068a1.149 1.149 0 0 1 -1.623 0l-21.343-21.344a1.148 1.148 0 0 1 0-1.623l31.072-31.067a2.211 2.211 0 0 1 1.574-.652h6.978a1.009 1.009 0 0 0 0-2.017h-6.982a4.215 4.215 0 0 0 -3 1.243l-31.07 31.067a3.165 3.165 0 0 0 0 4.476l21.345 21.343a3.168 3.168 0 0 0 4.475 0l31.068-31.068a4.214 4.214 0 0 0 1.243-3v-12.566a4.215 4.215 0 0 0 -1.243-3l-2.913-2.913 4.456-4.456a6.3 6.3 0 0 0 1.387-6.973zm-12.233 18.618a2.225 2.225 0 1 1 -.652-1.574 2.211 2.211 0 0 1 .652 1.574zm9.415-13.068-4.456 4.456-2.909-2.916a4.215 4.215 0 0 0 -3-1.243h-.267v-.241a7.547 7.547 0 0 1 7.539-7.539 4.322 4.322 0 0 1 4.048 2.7 4.322 4.322 0 0 1 -.955 4.783z" transform="translate(-21.789 1.177)"/></svg>